<svg width="23" height="23" viewBox="0 0 23 23" fill="none" xmlns="http://www.w3.org/2000/svg">
<path d="M23 11.5C23 14.55 21.7884 17.4751 19.6317 19.6317C17.4751 21.7884 14.55 23 11.5 23C8.45001 23 5.52494 21.7884 3.36827 19.6317C1.2116 17.4751 0 14.55 0 11.5C0 8.45001 1.2116 5.52494 3.36827 3.36827C5.52494 1.2116 8.45001 0 11.5 0C14.55 0 17.4751 1.2116 19.6317 3.36827C21.7884 5.52494 23 8.45001 23 11.5ZM7.9005 8.67244H9.08644C9.28481 8.67244 9.44294 8.51 9.46881 8.31306C9.59819 7.37006 10.2451 6.68294 11.3979 6.68294C12.3841 6.68294 13.2868 7.176 13.2868 8.36194C13.2868 9.27475 12.7492 9.6945 11.8996 10.3328C10.9322 11.0357 10.166 11.8565 10.2206 13.1891L10.2249 13.501C10.2264 13.5953 10.265 13.6853 10.3322 13.7514C10.3994 13.8176 10.49 13.8546 10.5843 13.8546H11.7501C11.8454 13.8546 11.9368 13.8168 12.0042 13.7494C12.0716 13.682 12.1095 13.5906 12.1095 13.4952V13.3443C12.1095 12.3122 12.5019 12.0118 13.5614 11.2082C14.4368 10.5426 15.3496 9.80375 15.3496 8.25269C15.3496 6.08063 13.5154 5.03125 11.5072 5.03125C9.68587 5.03125 7.69063 5.87937 7.55406 8.31737C7.55209 8.3638 7.55964 8.41013 7.57625 8.45353C7.59285 8.49693 7.61815 8.53647 7.6506 8.56973C7.68305 8.60298 7.72196 8.62925 7.76493 8.64691C7.80791 8.66458 7.85404 8.67326 7.9005 8.67244ZM11.2427 17.9342C12.1196 17.9342 12.7219 17.3679 12.7219 16.6017C12.7219 15.8082 12.1181 15.2504 11.2427 15.2504C10.4032 15.2504 9.79225 15.8082 9.79225 16.6017C9.79225 17.3679 10.4018 17.9342 11.2427 17.9342Z" fill="#6A6C7E"/>
</svg>
