<svg width="94" height="31" viewBox="0 0 94 31" fill="none" xmlns="http://www.w3.org/2000/svg">
<g clip-path="url(#clip0_34_35)">
<path d="M90.8667 0.387451H3.13339C1.61921 0.387451 0.391724 1.60188 0.391724 3.09995V27.9C0.391724 29.398 1.61921 30.6124 3.13339 30.6124H90.8667C92.3809 30.6124 93.6084 29.398 93.6084 27.9V3.09995C93.6084 1.60188 92.3809 0.387451 90.8667 0.387451Z" fill="#221F1F" stroke="#4D4B4B"/>
<path d="M21.0469 15.3174C21.0261 12.9673 22.9391 11.8242 23.0267 11.7707C21.9431 10.1642 20.2637 9.94475 19.6741 9.9277C18.2638 9.77704 16.8958 10.7856 16.1772 10.7856C15.4441 10.7856 14.3375 9.94227 13.1455 9.9666C11.611 9.99086 10.1753 10.8942 9.38812 12.2965C7.76354 15.1571 8.97538 19.36 10.5323 21.6721C11.3107 22.8046 12.2214 24.0684 13.4116 24.0239C14.5773 23.9753 15.0123 23.2689 16.4185 23.2689C17.8121 23.2689 18.2208 24.0239 19.4351 23.9955C20.6859 23.9753 21.4731 22.8581 22.2244 21.7158C23.1239 20.418 23.4857 19.1397 23.5 19.074C23.4697 19.0651 21.0708 18.1335 21.0469 15.3174Z" fill="white"/>
<path d="M18.7522 8.40632C19.3793 7.60915 19.8079 6.5252 19.6885 5.42505C18.7818 5.46556 17.6472 6.06262 16.9939 6.84276C16.4162 7.52976 15.8999 8.65502 16.033 9.71382C17.052 9.79078 18.0981 9.19132 18.7522 8.40632Z" fill="white"/>
<path d="M39.3868 23.3717H37.7857L36.9083 20.6452H33.8596L33.0238 23.3717H31.465L34.4855 14.0895H36.3506L39.3868 23.3717ZM36.6444 19.5013L35.8508 17.0771C35.767 16.8299 35.6096 16.2463 35.3777 15.3287H35.3495C35.2571 15.7232 35.1082 16.3068 34.9038 17.0771L34.1252 19.5013H36.6444Z" fill="white"/>
<path d="M47.1535 19.9422C47.1535 21.0807 46.8426 21.9805 46.2206 22.6408C45.6636 23.229 44.972 23.5227 44.1463 23.5227C43.2549 23.5227 42.6149 23.2058 42.2256 22.5726H42.1974V26.0981H40.6942V18.8813C40.6942 18.1659 40.6754 17.4312 40.6385 16.6779H41.9608L42.0446 17.7389H42.0728C42.5742 16.9399 43.3348 16.5408 44.3555 16.5408C45.1537 16.5408 45.8195 16.8523 46.353 17.477C46.8872 18.1016 47.1535 18.9231 47.1535 19.9422ZM45.6221 19.9965C45.6221 19.3447 45.4741 18.8076 45.1764 18.3853C44.8513 17.9443 44.415 17.7242 43.8682 17.7242C43.4977 17.7242 43.1601 17.8466 42.8593 18.0892C42.5577 18.3333 42.3603 18.6519 42.2679 19.0471C42.2217 19.2316 42.1982 19.3819 42.1982 19.5005V20.6165C42.1982 21.1032 42.3494 21.5139 42.6509 21.8495C42.9525 22.1851 43.345 22.3525 43.8267 22.3525C44.3931 22.3525 44.8333 22.1363 45.149 21.7054C45.4639 21.2729 45.6221 20.7041 45.6221 19.9965Z" fill="white"/>
<path d="M54.9344 19.9422C54.9344 21.0807 54.6234 21.9805 54.0007 22.6408C53.4445 23.229 52.7528 23.5227 51.9272 23.5227C51.0358 23.5227 50.3958 23.2058 50.0065 22.5726H49.9783V26.0981H48.475V18.8813C48.475 18.1659 48.4563 17.4312 48.4194 16.6779H49.7417L49.8255 17.7389H49.8537C50.3543 16.9399 51.1149 16.5408 52.1363 16.5408C52.9338 16.5408 53.5996 16.8523 54.1346 17.477C54.6673 18.1016 54.9344 18.9231 54.9344 19.9422ZM53.403 19.9965C53.403 19.3447 53.2542 18.8076 52.9565 18.3853C52.6314 17.9443 52.1967 17.7242 51.6483 17.7242C51.277 17.7242 50.9402 17.8466 50.6386 18.0892C50.337 18.3333 50.1404 18.6519 50.048 19.0471C50.0018 19.2316 49.9783 19.3819 49.9783 19.5005V20.6165C49.9783 21.1032 50.1294 21.5139 50.4295 21.8495C50.731 22.1843 51.1235 22.3525 51.6068 22.3525C52.1732 22.3525 52.6134 22.1363 52.9291 21.7054C53.2456 21.2729 53.403 20.7041 53.403 19.9965Z" fill="white"/>
<path d="M63.6341 20.7684C63.6341 21.5582 63.3568 22.2006 62.8006 22.6966C62.1896 23.2384 61.3381 23.5096 60.2446 23.5096C59.2348 23.5096 58.4257 23.3174 57.8131 22.9315L58.1617 21.6922C58.8213 22.0867 59.5458 22.2851 60.3347 22.2851C60.901 22.2851 61.3412 22.158 61.6577 21.9054C61.9726 21.6527 62.1301 21.314 62.1301 20.8909C62.1301 20.5142 62 20.1965 61.74 19.9392C61.4815 19.6819 61.0491 19.4424 60.4459 19.2215C58.8032 18.6155 57.9823 17.7273 57.9823 16.5602C57.9823 15.7968 58.2698 15.1714 58.8455 14.6847C59.4197 14.1972 60.185 13.9539 61.1423 13.9539C61.9961 13.9539 62.705 14.1011 63.2714 14.3948L62.8954 15.6069C62.3666 15.3225 61.7689 15.1799 61.1 15.1799C60.5712 15.1799 60.1584 15.3093 59.8623 15.5659C59.6124 15.7953 59.4863 16.075 59.4863 16.406C59.4863 16.7725 59.6297 17.0763 59.9171 17.315C60.1678 17.5351 60.6221 17.7738 61.2817 18.0311C62.0885 18.3528 62.6815 18.7286 63.063 19.1595C63.4445 19.5889 63.6341 20.1267 63.6341 20.7684Z" fill="white"/>
<path d="M68.6037 17.7939H66.9469V21.0435C66.9469 21.8697 67.2391 22.2827 67.8243 22.2827C68.0929 22.2827 68.3154 22.2595 68.4917 22.2138L68.5332 23.3429C68.2371 23.4522 67.847 23.5072 67.3644 23.5072C66.7707 23.5072 66.3069 23.3282 65.9725 22.9702C65.6388 22.6113 65.4711 22.0107 65.4711 21.166V17.7924H64.4841V16.6764H65.4711V15.4511L66.9477 15.0101V16.6764H68.6045L68.6037 17.7939Z" fill="white"/>
<path d="M76.079 19.9694C76.079 20.9986 75.7813 21.8425 75.1875 22.5036C74.5648 23.1833 73.7392 23.5227 72.7091 23.5227C71.7166 23.5227 70.9262 23.1972 70.3371 22.5455C69.7481 21.8937 69.4528 21.0714 69.4528 20.0802C69.4528 19.0432 69.7559 18.1938 70.3646 17.5328C70.9716 16.8717 71.791 16.5408 72.8211 16.5408C73.8136 16.5408 74.6126 16.8663 75.215 17.5188C75.7915 18.152 76.079 18.9688 76.079 19.9694ZM74.5194 20.0174C74.5194 19.3997 74.3862 18.8704 74.1159 18.4294C73.801 17.8955 73.3506 17.6289 72.7663 17.6289C72.1623 17.6289 71.7033 17.8962 71.3876 18.4294C71.1173 18.872 70.9842 19.4098 70.9842 20.0453C70.9842 20.6622 71.1173 21.1923 71.3876 21.6325C71.7127 22.1665 72.167 22.4331 72.7522 22.4331C73.3263 22.4331 73.7768 22.1611 74.1018 21.6186C74.3799 21.1691 74.5194 20.6343 74.5194 20.0174Z" fill="white"/>
<path d="M80.9645 17.9862C80.8157 17.9591 80.6574 17.9452 80.4906 17.9452C79.9618 17.9452 79.5529 18.1428 79.2655 18.538C79.0148 18.8868 78.8895 19.3278 78.8895 19.8594V23.3709H77.387L77.4011 18.7853C77.4011 18.0141 77.3823 17.3112 77.3447 16.678H78.6537L78.7085 17.9583H78.75C78.9083 17.5181 79.1589 17.164 79.5012 16.8981C79.8357 16.6587 80.1976 16.5393 80.5877 16.5393C80.7264 16.5393 80.8525 16.5494 80.9637 16.5664C80.9645 16.568 80.9645 17.9862 80.9645 17.9862Z" fill="white"/>
<path d="M87.6864 19.7082C87.6864 19.9748 87.6691 20.1995 87.6315 20.3824H83.1226C83.1399 21.0435 83.3584 21.5496 83.7767 21.8983C84.1566 22.2099 84.6478 22.3664 85.2518 22.3664C85.9192 22.3664 86.5286 22.261 87.0761 22.0495L87.3119 23.0818C86.6719 23.3577 85.916 23.4956 85.0442 23.4956C83.9953 23.4956 83.172 23.1903 82.5728 22.5796C81.9751 21.9689 81.675 21.1497 81.675 20.1213C81.675 19.1122 81.9531 18.2713 82.5109 17.601C83.0944 16.8856 83.8833 16.5276 84.8765 16.5276C85.8518 16.5276 86.5897 16.8856 87.091 17.601C87.4874 18.1698 87.6864 18.8727 87.6864 19.7082ZM86.2536 19.3222C86.2638 18.8813 86.1651 18.5007 85.9614 18.1791C85.7014 17.7653 85.3019 17.5591 84.7637 17.5591C84.2726 17.5591 83.8723 17.7606 83.5676 18.1652C83.3169 18.4868 83.1689 18.8727 83.1226 19.3215L86.2536 19.3222Z" fill="white"/>
<path d="M31.6019 10.215L32.2388 10.0515C32.287 10.2945 32.4154 10.5374 32.6243 10.7804C32.8354 11.0233 33.1142 11.1448 33.4608 11.1448C33.8142 11.1448 34.093 11.0551 34.2973 10.8757C34.5015 10.6964 34.6037 10.4795 34.6037 10.2252C34.6037 9.95053 34.4958 9.73252 34.2801 9.57132C34.0643 9.40787 33.7706 9.32611 33.3988 9.32611H33.0787V8.75052C33.3862 8.75052 33.6214 8.73347 33.7844 8.69944C33.9473 8.6631 34.0907 8.57343 34.2147 8.43036C34.3409 8.28505 34.404 8.12044 34.404 7.93653C34.404 7.71858 34.318 7.52899 34.1458 7.36779C33.976 7.20658 33.7454 7.12598 33.4539 7.12598C33.1991 7.12598 32.9811 7.18956 32.7999 7.3167C32.6209 7.44158 32.497 7.60846 32.4281 7.81734C32.3593 8.02395 32.3248 8.17833 32.3248 8.28056L31.6845 8.13749C31.8429 7.07717 32.4349 6.547 33.4608 6.547C33.9542 6.547 34.3455 6.68323 34.6347 6.95569C34.9238 7.22588 35.0684 7.54262 35.0684 7.90592C35.0684 8.37139 34.8458 8.73238 34.4005 8.98891C34.6576 9.05935 34.8722 9.2035 35.0443 9.42143C35.2187 9.63719 35.3059 9.89597 35.3059 10.198C35.3059 10.6271 35.1373 10.987 34.7999 11.2776C34.4649 11.5659 34.0196 11.7102 33.4642 11.7102C32.5096 11.7102 31.8888 11.2118 31.6019 10.215ZM38.4454 11.1788C38.2158 11.3718 37.9944 11.508 37.781 11.5876C37.5698 11.667 37.3427 11.7068 37.0994 11.7068C36.6977 11.7068 36.3891 11.6103 36.1734 11.4172C35.9577 11.222 35.8498 10.9734 35.8498 10.6714C35.8498 10.4943 35.89 10.3331 35.9703 10.1878C36.0529 10.0402 36.1596 9.92208 36.2904 9.83358C36.4235 9.745 36.5727 9.67804 36.7379 9.63262C36.8596 9.60085 37.0432 9.57016 37.2887 9.54063C37.789 9.48165 38.1573 9.41128 38.3937 9.32952C38.396 9.24551 38.3972 9.19211 38.3972 9.1694C38.3972 8.9197 38.3387 8.7437 38.2216 8.64155C38.0633 8.50306 37.828 8.43377 37.5159 8.43377C37.2245 8.43377 37.0087 8.48485 36.8687 8.58707C36.731 8.68697 36.629 8.86522 36.5624 9.12174L35.9566 9.04006C36.0116 8.78345 36.1023 8.57684 36.2285 8.42013C36.3547 8.26126 36.5372 8.13974 36.7758 8.05573C37.0144 7.96947 37.291 7.9263 37.6054 7.9263C37.9176 7.9263 38.1711 7.96265 38.3662 8.03535C38.5613 8.10796 38.7047 8.19996 38.7965 8.31117C38.8883 8.42013 38.9526 8.5587 38.9892 8.72672C39.0099 8.83112 39.0203 9.0196 39.0203 9.29201V10.1094C39.0203 10.6793 39.0329 11.0403 39.0581 11.1925C39.0857 11.3423 39.1385 11.4865 39.2165 11.625H38.5693C38.5051 11.4978 38.4637 11.3491 38.4454 11.1788ZM38.3937 9.80971C38.1688 9.90054 37.8315 9.97773 37.3817 10.0413C37.1269 10.0776 36.9468 10.1185 36.8412 10.1639C36.7357 10.2093 36.6542 10.2763 36.5968 10.3648C36.5394 10.4512 36.5108 10.5477 36.5108 10.6544C36.5108 10.8178 36.5727 10.9541 36.6966 11.063C36.8228 11.172 37.0065 11.2265 37.2474 11.2265C37.4861 11.2265 37.6984 11.1754 37.8843 11.0733C38.0701 10.9688 38.2067 10.8269 38.2939 10.6476C38.3605 10.5091 38.3937 10.3047 38.3937 10.0345V9.80971ZM39.9876 8.00807H41.4162C41.7672 8.00807 42.0277 8.03759 42.1975 8.09665C42.3697 8.15338 42.5166 8.25893 42.6382 8.41339C42.7621 8.56777 42.824 8.75276 42.824 8.96852C42.824 9.14104 42.7874 9.29201 42.7139 9.42143C42.6428 9.54861 42.5349 9.65533 42.3903 9.74159C42.5625 9.79839 42.7047 9.90511 42.8172 10.0617C42.9319 10.2161 42.9893 10.4 42.9893 10.6135C42.9664 10.9563 42.8424 11.2106 42.6176 11.3764C42.3927 11.5421 42.0656 11.625 41.6364 11.625H39.9876V8.00807ZM40.6072 9.53048H41.2681C41.532 9.53048 41.7134 9.51684 41.8121 9.48956C41.9107 9.46235 41.999 9.40787 42.0771 9.32611C42.1551 9.2421 42.1941 9.1422 42.1941 9.02642C42.1941 8.83569 42.1253 8.70285 41.9876 8.62791C41.8522 8.55297 41.6193 8.51554 41.2888 8.51554H40.6072V9.53048ZM40.6072 11.1209H41.423C41.7741 11.1209 42.0151 11.0812 42.1459 11.0017C42.2767 10.92 42.3456 10.7804 42.3525 10.5828C42.3525 10.4671 42.3146 10.3603 42.2389 10.2627C42.1631 10.1628 42.0644 10.1003 41.9428 10.0754C41.8212 10.0481 41.6261 10.0345 41.3576 10.0345H40.6072V11.1209ZM46.0323 11.1788C45.8029 11.3718 45.5815 11.508 45.368 11.5876C45.1569 11.667 44.9296 11.7068 44.6864 11.7068C44.2848 11.7068 43.9761 11.6103 43.7604 11.4172C43.5447 11.222 43.4368 10.9734 43.4368 10.6714C43.4368 10.4943 43.4769 10.3331 43.5573 10.1878C43.6399 10.0402 43.7466 9.92208 43.8775 9.83358C44.0106 9.745 44.1597 9.67804 44.325 9.63262C44.4466 9.60085 44.6302 9.57016 44.8757 9.54063C45.3761 9.48165 45.7444 9.41128 45.9807 9.32952C45.9831 9.24551 45.9842 9.19211 45.9842 9.1694C45.9842 8.9197 45.9256 8.7437 45.8086 8.64155C45.6503 8.50306 45.4151 8.43377 45.1029 8.43377C44.8115 8.43377 44.5958 8.48485 44.4558 8.58707C44.3181 8.68697 44.2159 8.86522 44.1494 9.12174L43.5435 9.04006C43.5986 8.78345 43.6892 8.57684 43.8155 8.42013C43.9417 8.26126 44.1241 8.13974 44.3628 8.05573C44.6015 7.96947 44.878 7.9263 45.1925 7.9263C45.5045 7.9263 45.7582 7.96265 45.9532 8.03535C46.1483 8.10796 46.2917 8.19996 46.3835 8.31117C46.4753 8.42013 46.5395 8.5587 46.5763 8.72672C46.597 8.83112 46.6072 9.0196 46.6072 9.29201V10.1094C46.6072 10.6793 46.6198 11.0403 46.6451 11.1925C46.6726 11.3423 46.7254 11.4865 46.8035 11.625H46.1563C46.092 11.4978 46.0507 11.3491 46.0323 11.1788ZM45.9807 9.80971C45.7558 9.90054 45.4185 9.97773 44.9687 10.0413C44.7139 10.0776 44.5338 10.1185 44.4282 10.1639C44.3226 10.2093 44.2412 10.2763 44.1838 10.3648C44.1264 10.4512 44.0977 10.5477 44.0977 10.6544C44.0977 10.8178 44.1597 10.9541 44.2836 11.063C44.4099 11.172 44.5934 11.2265 44.8345 11.2265C45.0731 11.2265 45.2854 11.1754 45.4712 11.0733C45.6571 10.9688 45.7937 10.8269 45.8809 10.6476C45.9474 10.5091 45.9807 10.3047 45.9807 10.0345V9.80971ZM47.5746 8.00807H48.1942V9.51343H49.912V8.00807H50.5316V11.625H49.912V10.0209H48.1942V11.625H47.5746V8.00807ZM51.134 8.00807H54.1047V8.51554H52.9275V11.625H52.3113V8.51554H51.134V8.00807ZM56.9998 11.1788C56.7704 11.3718 56.5488 11.508 56.3354 11.5876C56.1243 11.667 55.8971 11.7068 55.6539 11.7068C55.2523 11.7068 54.9435 11.6103 54.7278 11.4172C54.5121 11.222 54.4042 10.9734 54.4042 10.6714C54.4042 10.4943 54.4444 10.3331 54.5248 10.1878C54.6073 10.0402 54.7141 9.92208 54.8448 9.83358C54.978 9.745 55.1272 9.67804 55.2924 9.63262C55.414 9.60085 55.5976 9.57016 55.8432 9.54063C56.3434 9.48165 56.7118 9.41128 56.9482 9.32952C56.9504 9.24551 56.9516 9.19211 56.9516 9.1694C56.9516 8.9197 56.8931 8.7437 56.7761 8.64155C56.6177 8.50306 56.3824 8.43377 56.0704 8.43377C55.7789 8.43377 55.5632 8.48485 55.4232 8.58707C55.2855 8.68697 55.1834 8.86522 55.1168 9.12174L54.511 9.04006C54.5661 8.78345 54.6567 8.57684 54.7829 8.42013C54.9092 8.26126 55.0916 8.13974 55.3303 8.05573C55.569 7.96947 55.8455 7.9263 56.1599 7.9263C56.472 7.9263 56.7255 7.96265 56.9207 8.03535C57.1157 8.10796 57.2591 8.19996 57.351 8.31117C57.4428 8.42013 57.507 8.5587 57.5437 8.72672C57.5643 8.83112 57.5747 9.0196 57.5747 9.29201V10.1094C57.5747 10.6793 57.5873 11.0403 57.6126 11.1925C57.6401 11.3423 57.6929 11.4865 57.7709 11.625H57.1237C57.0595 11.4978 57.0182 11.3491 56.9998 11.1788ZM56.9482 9.80971C56.7233 9.90054 56.3859 9.97773 55.9361 10.0413C55.6814 10.0776 55.5012 10.1185 55.3957 10.1639C55.2901 10.2093 55.2086 10.2763 55.1513 10.3648C55.0939 10.4512 55.0652 10.5477 55.0652 10.6544C55.0652 10.8178 55.1272 10.9541 55.2511 11.063C55.3773 11.172 55.5609 11.2265 55.8018 11.2265C56.0405 11.2265 56.2528 11.1754 56.4387 11.0733C56.6246 10.9688 56.7611 10.8269 56.8484 10.6476C56.9149 10.5091 56.9482 10.3047 56.9482 10.0345V9.80971ZM60.7486 8.00807V9.57132C60.9459 9.57132 61.0848 9.53389 61.1651 9.45894C61.2454 9.384 61.3625 9.16599 61.5162 8.805C61.6608 8.46214 61.7904 8.24305 61.9052 8.14772C62.0177 8.05464 62.1967 8.00807 62.4422 8.00807H62.6694V8.51554L62.5007 8.51213C62.3355 8.51213 62.2299 8.536 62.184 8.58366C62.1359 8.63357 62.0624 8.78229 61.9637 9.02983C61.872 9.26597 61.7871 9.42942 61.709 9.52025C61.6309 9.61108 61.5094 9.69392 61.3441 9.76887C61.6126 9.83924 61.8742 10.0844 62.129 10.5045L62.8106 11.625H62.129L61.4646 10.5045C61.3292 10.2774 61.211 10.1287 61.11 10.0583C61.009 9.98796 60.8886 9.95277 60.7486 9.95277V11.625H60.1152V9.95277C59.9775 9.95277 59.8582 9.98796 59.7571 10.0583C59.6562 10.1265 59.538 10.2752 59.4026 10.5045L58.7382 11.625H58.0566L58.7348 10.5045C58.9918 10.0844 59.2545 9.83924 59.5231 9.76887C59.3395 9.68486 59.211 9.59403 59.1375 9.49638C59.0641 9.39648 58.954 9.16034 58.8071 8.78803C58.7566 8.6631 58.7027 8.58591 58.6453 8.55638C58.5856 8.52685 58.4972 8.51213 58.3802 8.51213C58.3503 8.51213 58.2895 8.51329 58.1977 8.51554V8.00807H58.2838C58.5225 8.00807 58.69 8.02287 58.7864 8.05232C58.8851 8.0796 58.9723 8.13974 59.048 8.23282C59.1261 8.32365 59.227 8.51437 59.351 8.805C59.5024 9.1615 59.6171 9.37834 59.6952 9.45553C59.7755 9.53272 59.9155 9.57132 60.1152 9.57132V8.00807H60.7486ZM63.2546 8.00807H63.8742V10.7668L65.592 8.00807H66.2598V11.625H65.6402V8.88335L63.9224 11.625H63.2546V8.00807ZM66.8588 8.00807H69.8295V8.51554H68.6523V11.625H68.0361V8.51554H66.8588V8.00807ZM70.4217 8.00807H71.0413V10.7668L72.759 8.00807H73.4268V11.625H72.8072V8.88335L71.0895 11.625H70.4217V8.00807ZM76.3253 8.00807H77.754C78.1051 8.00807 78.3655 8.03759 78.5355 8.09665C78.7078 8.15338 78.8543 8.25893 78.9757 8.41339C79.1003 8.56777 79.1622 8.75276 79.1622 8.96852C79.1622 9.14104 79.1254 9.29201 79.0517 9.42143C78.9804 9.54861 78.8723 9.65533 78.7282 9.74159C78.9005 9.79839 79.0423 9.90511 79.1551 10.0617C79.2695 10.2161 79.3274 10.4 79.3274 10.6135C79.304 10.9563 79.1802 11.2106 78.9554 11.3764C78.7306 11.5421 78.4031 11.625 77.9742 11.625H76.3253V8.00807ZM76.9449 9.53048H77.6059C77.8698 9.53048 78.0511 9.51684 78.1498 9.48956C78.2485 9.46235 78.3365 9.40787 78.4149 9.32611C78.4932 9.2421 78.5316 9.1422 78.5316 9.02642C78.5316 8.83569 78.4634 8.70285 78.3253 8.62791C78.19 8.55297 77.957 8.51554 77.6266 8.51554H76.9449V9.53048ZM76.9449 11.1209H77.7608C78.112 11.1209 78.353 11.0812 78.4838 11.0017C78.6146 10.92 78.6836 10.7804 78.6906 10.5828C78.6906 10.4671 78.6522 10.3603 78.577 10.2627C78.501 10.1628 78.4023 10.1003 78.2806 10.0754C78.159 10.0481 77.9639 10.0345 77.6954 10.0345H76.9449V11.1209Z" fill="white"/>
</g>
<defs>
<clipPath id="clip0_34_35">
<rect width="94" height="31" fill="white"/>
</clipPath>
</defs>
</svg>
