<svg width="30" height="30" viewBox="0 0 30 30" fill="none" xmlns="http://www.w3.org/2000/svg">
<rect x="8" y="6" width="14" height="17" fill="white"/>
<path d="M15 1C7.26792 1 1 7.26792 1 15C1 22.7321 7.26792 29 15 29C22.7321 29 29 22.7321 29 15C29 7.26792 22.7321 1 15 1ZM18.3162 10.6746H16.2119C15.9625 10.6746 15.6854 11.0027 15.6854 11.4387V12.9583H18.3177L17.9196 15.1254H15.6854V21.631H13.2019V15.1254H10.9487V12.9583H13.2019V11.6837C13.2019 9.855 14.4706 8.36896 16.2119 8.36896H18.3162V10.6746Z" fill="#506098"/>
<circle cx="15" cy="15" r="14.5" stroke="#FFFEFE"/>
</svg>
