<svg width="30" height="30" viewBox="0 0 30 30" fill="none" xmlns="http://www.w3.org/2000/svg">
<rect x="5" y="6" width="17" height="17" fill="white"/>
<path d="M15 1C7.272 1 1 7.272 1 15C1 22.728 7.272 29 15 29C22.728 29 29 22.728 29 15C29 7.272 22.728 1 15 1ZM21.496 10.52C21.286 12.732 20.376 18.108 19.914 20.586C19.718 21.636 19.326 21.986 18.962 22.028C18.15 22.098 17.534 21.496 16.75 20.978C15.518 20.166 14.818 19.662 13.628 18.878C12.242 17.968 13.138 17.464 13.936 16.652C14.146 16.442 17.73 13.18 17.8 12.886C17.8097 12.8415 17.8084 12.7952 17.7962 12.7513C17.784 12.7074 17.7613 12.6671 17.73 12.634C17.646 12.564 17.534 12.592 17.436 12.606C17.31 12.634 15.35 13.936 11.528 16.512C10.968 16.89 10.464 17.086 10.016 17.072C9.512 17.058 8.56 16.792 7.846 16.554C6.964 16.274 6.278 16.12 6.334 15.63C6.362 15.378 6.712 15.126 7.37 14.86C11.458 13.082 14.174 11.906 15.532 11.346C19.424 9.722 20.222 9.442 20.754 9.442C20.866 9.442 21.132 9.47 21.3 9.61C21.44 9.722 21.482 9.876 21.496 9.988C21.482 10.072 21.51 10.324 21.496 10.52Z" fill="#0088CC"/>
<circle cx="15" cy="15" r="14.5" stroke="#FFFEFE"/>
</svg>
