<svg width="30" height="30" viewBox="0 0 30 30" fill="none" xmlns="http://www.w3.org/2000/svg">
<rect x="8" y="6" width="14" height="17" fill="white"/>
<path d="M15 1C7.26792 1 1 7.26792 1 15C1 22.7321 7.26792 29 15 29C22.7321 29 29 22.7321 29 15C29 7.26792 22.7321 1 15 1ZM20.6948 12.4683C20.7006 12.5879 20.7021 12.7075 20.7021 12.8242C20.7021 16.47 17.9298 20.6715 12.8577 20.6715C11.359 20.674 9.89141 20.2435 8.63146 19.4319C8.84583 19.4581 9.06604 19.4683 9.28917 19.4683C10.5812 19.4683 11.7698 19.0294 12.7133 18.2885C12.1383 18.2772 11.5812 18.0868 11.1195 17.7439C10.6579 17.4009 10.3147 16.9225 10.1379 16.3752C10.5509 16.4537 10.9762 16.4373 11.3819 16.3271C10.7578 16.2009 10.1965 15.8627 9.79332 15.3699C9.39011 14.8771 9.16974 14.2601 9.16958 13.6233V13.5898C9.54146 13.7954 9.96729 13.9208 10.4194 13.9354C9.83429 13.5459 9.4201 12.9476 9.26152 12.2629C9.10294 11.5782 9.21195 10.8587 9.56625 10.2517C10.2589 11.1033 11.1227 11.8 12.1017 12.2967C13.0807 12.7934 14.153 13.0789 15.2494 13.1348C15.11 12.5432 15.17 11.922 15.42 11.368C15.67 10.814 16.0961 10.3581 16.632 10.0712C17.1678 9.78433 17.7835 9.68251 18.3832 9.7816C18.9829 9.8807 19.533 10.1751 19.9481 10.6192C20.5652 10.4971 21.1571 10.2707 21.6981 9.94979C21.4924 10.5887 21.0618 11.1313 20.4862 11.4767C21.0329 11.4108 21.5667 11.2639 22.07 11.0406C21.7003 11.5946 21.2346 12.0781 20.6948 12.4683Z" fill="#76C9FD"/>
<circle cx="15" cy="15" r="14.5" stroke="#FFFEFE"/>
</svg>
