<svg width="30" height="30" viewBox="0 0 30 30" fill="none" xmlns="http://www.w3.org/2000/svg">
<rect x="6" y="6" width="17" height="17" fill="white"/>
<path d="M17.3377 14.7565L14.0623 13.2281C13.7765 13.0954 13.5417 13.2442 13.5417 13.5606V16.4394C13.5417 16.7558 13.7765 16.9046 14.0623 16.7719L17.3363 15.2435C17.6235 15.1094 17.6235 14.8906 17.3377 14.7565ZM15 1C7.26792 1 1 7.26792 1 15C1 22.7321 7.26792 29 15 29C22.7321 29 29 22.7321 29 15C29 7.26792 22.7321 1 15 1ZM15 20.6875C7.83375 20.6875 7.70833 20.0415 7.70833 15C7.70833 9.95854 7.83375 9.3125 15 9.3125C22.1663 9.3125 22.2917 9.95854 22.2917 15C22.2917 20.0415 22.1663 20.6875 15 20.6875Z" fill="#E90000"/>
<circle cx="15" cy="15" r="14.5" stroke="#FFFEFE"/>
</svg>
