<svg width="17" height="12" viewBox="0 0 17 12" fill="none" xmlns="http://www.w3.org/2000/svg">
<path fill-rule="evenodd" clip-rule="evenodd" d="M0.75 1.49012e-08C1.16421 1.49012e-08 1.5 0.335786 1.5 0.75C1.5 2.50556 2.21468 3.5304 3.06323 4.14135C3.95002 4.77984 5.03668 5 5.75 5L13.9393 5L10.2197 1.28033C9.92678 0.987437 9.92678 0.512563 10.2197 0.21967C10.5126 -0.0732233 10.9874 -0.0732233 11.2803 0.21967L16.2803 5.21967C16.5732 5.51256 16.5732 5.98744 16.2803 6.28033L11.2803 11.2803C10.9874 11.5732 10.5126 11.5732 10.2197 11.2803C9.92678 10.9874 9.92678 10.5126 10.2197 10.2197L13.9393 6.5L5.75 6.5C4.79665 6.5 3.38332 6.22016 2.18677 5.35865C0.951983 4.4696 0 2.99444 0 0.75C0 0.335786 0.335786 1.49012e-08 0.75 1.49012e-08Z" fill="#6A6C7E"/>
</svg>
