<svg width="22" height="21" viewBox="0 0 22 21" fill="none" xmlns="http://www.w3.org/2000/svg">
<path d="M15.2776 0H6.22201C5.01919 0 4.41778 0 3.93448 0.298698C3.45117 0.597397 3.18221 1.13531 2.6443 2.21114L1.24068 5.75929C0.916395 6.57905 0.632657 7.54525 1.17854 8.23748C1.54476 8.70188 2.11244 9 2.74978 9C3.85435 9 4.74978 8.10457 4.74978 7C4.74978 8.10457 5.64522 9 6.74978 9C7.85435 9 8.74978 8.10457 8.74978 7C8.74978 8.10457 9.64522 9 10.7498 9C11.8544 9 12.7498 8.10457 12.7498 7C12.7498 8.10457 13.6452 9 14.7498 9C15.8544 9 16.7498 8.10457 16.7498 7C16.7498 8.10457 17.6452 9 18.7498 9C19.3871 9 19.9548 8.70188 20.3211 8.23747C20.867 7.54525 20.5833 6.57905 20.259 5.75929L18.8554 2.21114C18.3174 1.13531 18.0485 0.597397 17.5652 0.298698C17.0819 0 16.4805 0 15.2776 0Z" fill="#2B2C34"/>
<path fill-rule="evenodd" clip-rule="evenodd" d="M18.75 19.25H20.75C21.1642 19.25 21.5 19.5858 21.5 20C21.5 20.4142 21.1642 20.75 20.75 20.75H0.75C0.335786 20.75 0 20.4142 0 20C0 19.5858 0.335786 19.25 0.75 19.25H2.75L2.75 10.5C3.49363 10.5 4.18309 10.2681 4.75 9.87268C5.31692 10.2681 6.00638 10.5 6.75 10.5C7.49363 10.5 8.18309 10.2681 8.75 9.87268C9.31692 10.2681 10.0064 10.5 10.75 10.5C11.4936 10.5 12.1831 10.2681 12.75 9.87268C13.3169 10.2681 14.0064 10.5 14.75 10.5C15.4936 10.5 16.1831 10.2681 16.75 9.87268C17.3169 10.2681 18.0064 10.5 18.75 10.5L18.75 19.25ZM8.25 19.25H13.25V16.5C13.25 15.5654 13.25 15.0981 13.049 14.75C12.9174 14.522 12.728 14.3326 12.5 14.201C12.1519 14 11.6846 14 10.75 14C9.81538 14 9.34808 14 9 14.201C8.77197 14.3326 8.58261 14.522 8.45096 14.75C8.25 15.0981 8.25 15.5654 8.25 16.5V19.25Z" fill="#2B2C34"/>
</svg>
