<svg width="23" height="23" viewBox="0 0 23 23" fill="none" xmlns="http://www.w3.org/2000/svg">
<path fill-rule="evenodd" clip-rule="evenodd" d="M7.46825 1.62907C7.78421 0.961569 8.46276 0.5 9.24886 0.5H13.7511C14.5372 0.5 15.2158 0.961568 15.5318 1.62907C16.3011 1.63468 16.9008 1.67008 17.436 1.87977C18.0756 2.13031 18.6318 2.55621 19.0412 3.10875C19.4542 3.66618 19.6481 4.38067 19.915 5.36407C19.9286 5.41451 19.9425 5.46565 19.9566 5.51752L20.6217 7.96227C21.0578 8.18614 21.4395 8.48761 21.7578 8.89633C22.4579 9.7951 22.5819 10.8656 22.4574 12.0935C22.3365 13.2851 21.9623 14.7855 21.4938 16.6637L21.4641 16.7828C21.1679 17.9705 20.9273 18.9349 20.6413 19.6876C20.343 20.4722 19.9644 21.1154 19.3401 21.6039C18.7159 22.0925 18.0015 22.3047 17.1697 22.4044C16.3719 22.5 15.3802 22.5 14.1588 22.5H8.84123C7.6198 22.5 6.62809 22.5 5.83027 22.4044C4.99846 22.3047 4.28413 22.0925 3.65987 21.6039C3.0356 21.1154 2.65696 20.4722 2.35871 19.6876C2.07266 18.9349 1.83215 17.9706 1.53592 16.7828L1.50621 16.6637C1.03772 14.7855 0.663478 13.2851 0.542626 12.0935C0.418081 10.8656 0.542067 9.7951 1.24217 8.89633C1.56054 8.48761 1.94218 8.18614 2.37832 7.96227L3.04337 5.51752C3.05748 5.46565 3.07135 5.41451 3.08504 5.36407C3.35189 4.38067 3.54576 3.66618 3.95877 3.10875C4.36816 2.55621 4.92443 2.13031 5.56397 1.87977C6.09923 1.67008 6.69887 1.63468 7.46825 1.62907ZM7.46983 3.32298C6.72489 3.33053 6.42597 3.35905 6.17856 3.45597C5.8342 3.59088 5.53467 3.82021 5.31423 4.11773C5.116 4.38527 4.99969 4.75907 4.67226 5.96271L4.27428 7.4257C5.44239 7.26919 6.95044 7.26921 8.82408 7.26923H14.1759C16.0496 7.26921 17.5576 7.26919 18.7257 7.4257L18.3277 5.96271C18.0003 4.75907 17.884 4.38527 17.6858 4.11773C17.4653 3.82021 17.1658 3.59088 16.8214 3.45597C16.574 3.35905 16.2751 3.33053 15.5302 3.32298C15.2135 3.98869 14.5359 4.44872 13.7511 4.44872H9.24886C8.46407 4.44872 7.78647 3.98869 7.46983 3.32298ZM9.24886 2.19231C9.09345 2.19231 8.96746 2.31859 8.96746 2.47436C8.96746 2.63013 9.09345 2.75641 9.24886 2.75641H13.7511C13.9066 2.75641 14.0325 2.63013 14.0325 2.47436C14.0325 2.31859 13.9066 2.19231 13.7511 2.19231H9.24886ZM4.40872 9.11553C3.38314 9.26424 2.88679 9.53488 2.57294 9.9378C2.25909 10.3407 2.11752 10.889 2.22233 11.9224C2.32937 12.9778 2.6718 14.3594 3.1611 16.3212C3.47318 17.5724 3.69052 18.438 3.93646 19.0851C4.1743 19.7109 4.4072 20.0418 4.6989 20.2701C4.99061 20.4984 5.36736 20.6446 6.03073 20.7241C6.71665 20.8063 7.60718 20.8077 8.89392 20.8077H14.1061C15.3928 20.8077 16.2834 20.8063 16.9693 20.7241C17.6326 20.6446 18.0094 20.4984 18.3011 20.2701C18.5928 20.0418 18.8257 19.7109 19.0635 19.0851C19.3095 18.438 19.5268 17.5724 19.8389 16.3212C20.3282 14.3594 20.6706 12.9778 20.7777 11.9224C20.8825 10.889 20.7409 10.3407 20.4271 9.9378C20.1132 9.53488 19.6169 9.26424 18.5913 9.11553C17.5438 8.96365 16.1235 8.96154 14.1061 8.96154H8.89392C6.8765 8.96154 5.45622 8.96365 4.40872 9.11553Z" fill="#D2D4E9"/>
<path d="M11.5 12.5V16.5" stroke="#D2D4E9" stroke-width="2" stroke-linecap="round"/>
<path d="M13.5 14.5L9.5 14.5" stroke="#D2D4E9" stroke-width="2" stroke-linecap="round"/>
</svg>
