<svg width="20" height="20" viewBox="0 0 20 20" fill="none" xmlns="http://www.w3.org/2000/svg">
<path d="M18.3116 10.6473L18.8293 8.71542C19.4335 6.46034 19.7356 5.3328 19.5081 4.35703C19.3285 3.58657 18.9244 2.88668 18.347 2.34587C17.6157 1.66095 16.4881 1.35883 14.2331 0.75458C11.978 0.150333 10.8504 -0.151791 9.87466 0.0757279C9.10421 0.255374 8.40432 0.659453 7.86351 1.23687C7.27709 1.86298 6.97128 2.77957 6.51621 4.44561C6.43979 4.7254 6.35915 5.02633 6.27227 5.35057L6.27222 5.35077L5.75458 7.28263C5.15033 9.53771 4.84821 10.6652 5.07573 11.641C5.25537 12.4115 5.65945 13.1114 6.23687 13.6522C6.96815 14.3371 8.09569 14.6392 10.3508 15.2435L10.3508 15.2435C12.3834 15.7881 13.4999 16.0873 14.415 15.9744C14.5152 15.9621 14.6129 15.9448 14.7092 15.9223C15.4796 15.7427 16.1795 15.3386 16.7203 14.7612C17.4052 14.0299 17.7074 12.9024 18.3116 10.6473Z" fill="#2B2C34"/>
<path d="M0.75458 12.715L1.27222 14.6469C1.87647 16.902 2.17859 18.0295 2.86351 18.7608C3.40432 19.3382 4.10421 19.7423 4.87466 19.9219C5.85044 20.1494 6.97798 19.8473 9.23306 19.2431C11.4881 18.6388 12.6157 18.3367 13.347 17.6518C13.4077 17.5949 13.4664 17.5363 13.5233 17.4761C13.1891 17.448 12.852 17.3942 12.5094 17.3261C11.8133 17.1877 10.9862 16.9661 10.008 16.704L9.90119 16.6753L9.87645 16.6687C8.81207 16.3835 7.92281 16.1448 7.21277 15.8883C6.46607 15.6185 5.7876 15.286 5.21148 14.7464C4.41753 14.0028 3.86193 13.0404 3.61491 11.9811C3.43567 11.2123 3.48691 10.4585 3.62666 9.67695C3.76058 8.92802 4.00109 8.03049 4.28926 6.95515L4.28926 6.95514L4.82365 4.96077L4.84245 4.89062C2.9219 5.40799 1.91101 5.71408 1.23687 6.34548C0.659453 6.88629 0.255374 7.58617 0.0757279 8.35663C-0.151791 9.33241 0.150333 10.4599 0.75458 12.715Z" fill="#2B2C34"/>
</svg>
