<svg width="20" height="20" viewBox="0 0 20 20" fill="none" xmlns="http://www.w3.org/2000/svg">
<path d="M19.8891 5.17165C20 6.43316 20 8.00564 20 10C20 14.1337 20 16.4549 19.0126 17.9513L13.0611 11.9998L19.8891 5.17165Z" fill="#6A6C7E"/>
<path d="M17.952 19.0121L12.0004 13.0605L5.17167 19.8891C6.43317 20 8.00565 20 10 20C14.1343 20 16.4557 20 17.952 19.0121Z" fill="#6A6C7E"/>
<path fill-rule="evenodd" clip-rule="evenodd" d="M10 0C14.714 0 17.0711 0 18.5355 1.46447C19.0394 1.96833 19.3699 2.57786 19.5867 3.3527L3.3527 19.5867C2.57786 19.3699 1.96833 19.0394 1.46447 18.5355C0 17.0711 0 14.714 0 10C0 5.28595 0 2.92893 1.46447 1.46447C2.92893 0 5.28595 0 10 0ZM3.5 6.75732C3.5 8.54219 4.61708 10.625 6.35997 11.3698C6.76626 11.5434 7.23374 11.5434 7.64003 11.3698C9.38292 10.625 10.5 8.54219 10.5 6.75732C10.5 4.95835 8.933 3.5 7 3.5C5.067 3.5 3.5 4.95835 3.5 6.75732Z" fill="#6A6C7E"/>
<path d="M8.5 7C8.5 7.82843 7.82843 8.5 7 8.5C6.17157 8.5 5.5 7.82843 5.5 7C5.5 6.17157 6.17157 5.5 7 5.5C7.82843 5.5 8.5 6.17157 8.5 7Z" fill="#6A6C7E"/>
</svg>
