<svg width="23" height="19" viewBox="0 0 23 19" fill="none" xmlns="http://www.w3.org/2000/svg">
<path fill-rule="evenodd" clip-rule="evenodd" d="M1.6669 2.11264C2.77389 0.864369 4.38773 0.125 6.34408 0.125C7.65398 0.125 8.90815 0.80904 9.87152 1.50359C10.4663 1.93238 11.0207 2.41727 11.5003 2.88207C11.98 2.41727 12.5343 1.93238 13.1291 1.50359C14.0925 0.80904 15.3467 0.125 16.6566 0.125C18.6479 0.125 20.2616 0.945772 21.3529 2.24382C22.4252 3.51933 22.9587 5.20795 22.9587 6.95502C22.9587 8.53249 22.1435 10.0463 21.1181 11.3502C20.077 12.6742 18.7139 13.914 17.3901 14.966C16.0604 16.0229 14.7362 16.9171 13.7472 17.5458C13.2517 17.8609 12.838 18.1108 12.5466 18.2829C12.4008 18.3689 12.2854 18.4356 12.2057 18.4813C12.1657 18.5041 12.1348 18.5217 12.1132 18.5338L12.088 18.548L12.081 18.552L12.0789 18.5532C12.0786 18.5533 12.0777 18.5538 11.5003 17.6099C10.9229 18.5538 10.9227 18.5537 10.9225 18.5535L10.9196 18.5519L10.9124 18.5479L10.8872 18.5337C10.8655 18.5215 10.8345 18.5039 10.7945 18.4809C10.7145 18.4351 10.5989 18.3683 10.453 18.2818C10.1612 18.1091 9.74697 17.8579 9.25094 17.5409C8.26118 16.9081 6.9357 16.0061 5.60482 14.9342C4.27959 13.867 2.91573 12.6049 1.87444 11.2478C0.845966 9.90734 0.0419922 8.35731 0.0419922 6.73691C0.0419922 4.9872 0.577532 3.34103 1.6669 2.11264ZM11.5003 17.6099L10.9225 18.5535L11.5003 18.875L12.0777 18.5538L11.5003 17.6099ZM11.5009 16.3292C11.7583 16.1753 12.0907 15.9724 12.4761 15.7273C13.4207 15.1267 14.6746 14.2792 15.923 13.2871C17.1774 12.2901 18.3924 11.1736 19.2849 10.0388C20.1931 8.88371 20.667 7.83637 20.667 6.95502C20.667 5.6114 20.2546 4.43141 19.5649 3.61099C18.8942 2.81309 17.9297 2.31061 16.6566 2.31061C16.1223 2.31061 15.376 2.62355 14.5111 3.24709C13.6851 3.8426 12.9167 4.5999 12.37 5.20773L11.5003 6.17465L10.6306 5.20773C10.084 4.5999 9.31557 3.8426 8.48958 3.24709C7.6247 2.62355 6.87839 2.31061 6.34408 2.31061C5.03595 2.31061 4.07166 2.78543 3.41664 3.52405C2.744 4.28254 2.33366 5.39592 2.33366 6.73691C2.33366 7.68436 2.81875 8.77738 3.72386 9.95707C4.61617 11.1201 5.83043 12.2553 7.08333 13.2643C8.33057 14.2688 9.58323 15.1221 10.5271 15.7254C10.9121 15.9716 11.2439 16.1751 11.5009 16.3292Z" fill="#2B2C34"/>
</svg>
