<svg width="22" height="20" viewBox="0 0 22 20" fill="none" xmlns="http://www.w3.org/2000/svg">
<path fill-rule="evenodd" clip-rule="evenodd" d="M4.37436 1.92511C2.71537 2.69756 1.5 4.53485 1.5 6.72576C1.5 8.96407 2.39922 10.6893 3.68829 12.1679C4.75072 13.3865 6.03684 14.3965 7.29113 15.3815C7.58904 15.6154 7.88515 15.8479 8.17605 16.0815C8.70208 16.5039 9.17132 16.8747 9.62361 17.1439C10.0761 17.4132 10.4404 17.5362 10.75 17.5362C11.0596 17.5362 11.4239 17.4132 11.8764 17.1439C12.3287 16.8747 12.7979 16.5039 13.324 16.0815C13.6149 15.8479 13.911 15.6154 14.2089 15.3815C15.4632 14.3965 16.7493 13.3865 17.8117 12.1679C19.1008 10.6893 20 8.96407 20 6.72576C20 4.53485 18.7846 2.69756 17.1256 1.92511C15.5139 1.17468 13.3483 1.37341 11.2904 3.55137C11.149 3.701 10.9539 3.78555 10.75 3.78555C10.5461 3.78555 10.351 3.701 10.2096 3.55137C8.15166 1.37341 5.98607 1.17468 4.37436 1.92511ZM10.75 1.96038C8.43795 -0.146708 5.84896 -0.441468 3.75076 0.53548C1.53471 1.5673 0 3.9632 0 6.72576C0 9.44091 1.1105 11.5122 2.56672 13.1825C3.73287 14.52 5.16022 15.6395 6.42083 16.6282C6.70659 16.8523 6.98378 17.0698 7.24742 17.2815C7.75965 17.6928 8.30954 18.1314 8.86682 18.4631C9.42386 18.7947 10.0596 19.0642 10.75 19.0642C11.4404 19.0642 12.0761 18.7947 12.6332 18.4631C13.1905 18.1314 13.7403 17.6928 14.2526 17.2815C14.5162 17.0698 14.7934 16.8523 15.0792 16.6282C16.3398 15.6395 17.7671 14.52 18.9333 13.1825C20.3895 11.5122 21.5 9.44091 21.5 6.72576C21.5 3.9632 19.9653 1.5673 17.7492 0.53548C15.651 -0.441468 13.0621 -0.146708 10.75 1.96038Z" fill="#6A6C7E"/>
</svg>
