<svg width="20" height="20" viewBox="0 0 20 20" fill="none" xmlns="http://www.w3.org/2000/svg">
<path d="M3.56802 13.25L0.36272 16.4553C0 14.9913 0 12.9605 0 10C0 5.28595 0 2.92893 1.46447 1.46447C2.92893 0 5.28595 0 10 0C14.714 0 17.0711 0 18.5355 1.46447C20 2.92893 20 5.28595 20 10C20 14.714 20 17.0711 18.5355 18.5355C17.0711 20 14.714 20 10 20C7.03955 20 5.00869 20 3.5447 19.6373L6.75 16.432V17C6.75 18.2426 7.75736 19.25 9 19.25C10.2426 19.25 11.25 18.2426 11.25 17V11C11.25 9.75736 10.2426 8.75 9 8.75H3C1.75736 8.75 0.75 9.75736 0.75 11C0.75 12.2426 1.75736 13.25 3 13.25H3.56802Z" fill="#6A6C7E"/>
<path d="M3 10.25C2.58579 10.25 2.25 10.5858 2.25 11C2.25 11.4142 2.58579 11.75 3 11.75H7.18934L0.46967 18.4697C0.176777 18.7626 0.176777 19.2374 0.46967 19.5303C0.762563 19.8232 1.23744 19.8232 1.53033 19.5303L8.25 12.8107V17C8.25 17.4142 8.58579 17.75 9 17.75C9.41421 17.75 9.75 17.4142 9.75 17V11C9.75 10.5858 9.41421 10.25 9 10.25H3Z" fill="#6A6C7E"/>
</svg>
