<svg width="18" height="19" viewBox="0 0 18 19" fill="none" xmlns="http://www.w3.org/2000/svg">
<path d="M18 18C18 18.2652 17.8946 18.5195 17.7071 18.7071C17.5196 18.8946 17.2652 19 17 19H1C0.734784 19 0.48043 18.8946 0.292893 18.7071C0.105357 18.5195 7.92656e-08 18.2652 7.92656e-08 18V7.31396C-6.00579e-05 7.16291 0.0340991 7.01381 0.0999132 6.87785C0.165727 6.7419 0.261486 6.62261 0.38 6.52896L8.38 0.217962C8.55655 0.0784525 8.77499 0.00256348 9 0.00256348C9.22501 0.00256348 9.44345 0.0784525 9.62 0.217962L17.62 6.52796C17.7386 6.62172 17.8345 6.74116 17.9003 6.8773C17.9661 7.01345 18.0002 7.16274 18 7.31396V18ZM4 9.99996C4 11.326 4.52678 12.5978 5.46447 13.5355C6.40215 14.4732 7.67392 15 9 15C10.3261 15 11.5979 14.4732 12.5355 13.5355C13.4732 12.5978 14 11.326 14 9.99996H12C12 10.7956 11.6839 11.5587 11.1213 12.1213C10.5587 12.6839 9.79565 13 9 13C8.20435 13 7.44129 12.6839 6.87868 12.1213C6.31607 11.5587 6 10.7956 6 9.99996H4Z" fill="#6A6C7E"/>
</svg>
