<svg width="19" height="18" viewBox="0 0 19 18" fill="none" xmlns="http://www.w3.org/2000/svg">
<path d="M8.55544 0.717388C8.86673 -0.178172 10.1333 -0.178172 10.4446 0.717388L11.9753 5.12124C12.1127 5.51631 12.4814 5.78418 12.8995 5.7927L17.5609 5.88769C18.5088 5.90701 18.9002 7.11155 18.1446 7.68436L14.4294 10.5011C14.0961 10.7538 13.9552 11.1872 14.0764 11.5875L15.4265 16.0501C15.701 16.9576 14.6764 17.702 13.8981 17.1605L10.0712 14.4975C9.72786 14.2586 9.27214 14.2586 8.92882 14.4975L5.10188 17.1605C4.32364 17.702 3.29899 16.9576 3.57354 16.0501L4.92364 11.5875C5.04475 11.1872 4.90392 10.7538 4.57063 10.5011L0.855353 7.68436C0.0998204 7.11155 0.491201 5.90701 1.43913 5.88769L6.10047 5.7927C6.51864 5.78418 6.88733 5.51631 7.02466 5.12124L8.55544 0.717388Z" fill="#6A6C7E"/>
</svg>
