<svg width="22" height="20" viewBox="0 0 22 20" fill="none" xmlns="http://www.w3.org/2000/svg">
<path fill-rule="evenodd" clip-rule="evenodd" d="M4.37436 1.92511C2.71537 2.69756 1.5 4.53485 1.5 6.72576C1.5 8.96407 2.39922 10.6893 3.68829 12.1679C4.75072 13.3865 6.03684 14.3965 7.29113 15.3815C7.58904 15.6154 7.88515 15.8479 8.17605 16.0815C8.70208 16.5039 9.17132 16.8747 9.62361 17.1439C9.83046 17.267 10.0189 17.3595 10.192 17.4237L10.9194 14.4601L9.21967 12.7287C8.94255 12.4464 8.92551 11.9944 9.18056 11.6913L11.6473 8.75987L8.81407 6.69846C8.51374 6.47994 8.41412 6.07133 8.57921 5.73508L9.83492 3.17744C7.89155 1.35283 5.88852 1.2201 4.37436 1.92511ZM11.3686 3.46956L10.2075 5.8346L13.1859 8.00168C13.3572 8.12626 13.4691 8.31838 13.4945 8.53116C13.5199 8.74393 13.4564 8.95778 13.3194 9.12052L10.7714 12.1485L12.2803 13.6855C12.4666 13.8753 12.5415 14.1507 12.4776 14.411L11.7953 17.1911C11.822 17.1759 11.849 17.1602 11.8764 17.1439C12.3287 16.8747 12.7979 16.5039 13.324 16.0815C13.6149 15.8479 13.911 15.6154 14.2089 15.3815C15.4632 14.3965 16.7493 13.3865 17.8117 12.1679C19.1008 10.6893 20 8.96407 20 6.72576C20 4.53485 18.7846 2.69756 17.1256 1.92511C15.5343 1.18418 13.4031 1.36853 11.3686 3.46956ZM10.75 1.96038C8.43795 -0.146708 5.84896 -0.441468 3.75076 0.53548C1.53471 1.5673 0 3.9632 0 6.72576C0 9.44091 1.1105 11.5122 2.56672 13.1825C3.73287 14.52 5.16022 15.6395 6.42083 16.6282C6.70659 16.8523 6.98378 17.0698 7.24742 17.2815C7.75965 17.6928 8.30955 18.1314 8.86682 18.4631C9.42386 18.7947 10.0596 19.0642 10.75 19.0642C11.4404 19.0642 12.0761 18.7947 12.6332 18.4631C13.1905 18.1314 13.7403 17.6928 14.2526 17.2815C14.5162 17.0698 14.7934 16.8523 15.0792 16.6282C16.3398 15.6395 17.7671 14.52 18.9333 13.1825C20.3895 11.5122 21.5 9.44091 21.5 6.72576C21.5 3.9632 19.9653 1.5673 17.7492 0.53548C15.651 -0.441468 13.0621 -0.146708 10.75 1.96038Z" fill="#6A6C7E"/>
</svg>
