<svg width="22" height="17" viewBox="0 0 22 17" fill="none" xmlns="http://www.w3.org/2000/svg">
<path fill-rule="evenodd" clip-rule="evenodd" d="M0 9.03125V7.96875C0 4.4758 0 2.72933 0.998754 1.55383C1.18159 1.33863 1.38588 1.14131 1.60867 0.964706C2.82565 0 4.63377 0 8.25 0C11.8662 0 13.6743 0 14.8913 0.964706C15.1141 1.14131 15.3184 1.33863 15.5012 1.55383C16.273 2.46213 16.4484 3.71134 16.4883 5.84377L17.2242 5.494C19.3647 4.46024 20.4349 3.94337 21.2175 4.41052C22 4.87767 22 6.03344 22 8.34498V8.65502C22 10.9666 22 12.1223 21.2175 12.5895C20.4349 13.0566 19.3647 12.5398 17.2242 11.506L16.4883 11.1562C16.4484 13.2887 16.273 14.5379 15.5012 15.4462C15.3184 15.6614 15.1141 15.8587 14.8913 16.0353C13.6743 17 11.8662 17 8.25 17C4.63377 17 2.82565 17 1.60867 16.0353C1.38588 15.8587 1.18159 15.6614 0.998754 15.4462C0 14.2707 0 12.5242 0 9.03125ZM8.25 5.04688C8.70564 5.04688 9.075 5.40365 9.075 5.84375V7.70312H11C11.4556 7.70312 11.825 8.0599 11.825 8.5C11.825 8.9401 11.4556 9.29688 11 9.29688H9.075V11.1562C9.075 11.5964 8.70564 11.9531 8.25 11.9531C7.79436 11.9531 7.425 11.5964 7.425 11.1562V9.29688H5.5C5.04437 9.29688 4.675 8.9401 4.675 8.5C4.675 8.0599 5.04437 7.70312 5.5 7.70312H7.425V5.84375C7.425 5.40365 7.79436 5.04688 8.25 5.04688Z" fill="#221F1F"/>
</svg>
