<svg width="22" height="23" viewBox="0 0 22 23" fill="none" xmlns="http://www.w3.org/2000/svg">
<path d="M17.1395 7.40698C17.1395 8.53723 16.2233 9.45349 15.093 9.45349C13.9628 9.45349 13.0465 8.53723 13.0465 7.40698C13.0465 6.27672 13.9628 5.36047 15.093 5.36047C16.2233 5.36047 17.1395 6.27672 17.1395 7.40698Z" fill="#221F1F"/>
<path fill-rule="evenodd" clip-rule="evenodd" d="M10.9413 0.5H11.0587C13.4208 0.499987 15.2719 0.499977 16.7162 0.69416C18.1945 0.892917 19.3611 1.30768 20.2767 2.2233C21.1923 3.13892 21.6071 4.30546 21.8058 5.78379C22 7.22811 22 9.07922 22 11.4413V11.5316C22 13.4848 22 15.0837 21.8939 16.3856C21.7873 17.6938 21.5689 18.787 21.08 19.695C20.8643 20.0954 20.5993 20.4541 20.2767 20.7767C19.3611 21.6923 18.1945 22.1071 16.7162 22.3058C15.2719 22.5 13.4208 22.5 11.0587 22.5H10.9413C8.57922 22.5 6.72811 22.5 5.28379 22.3058C3.80546 22.1071 2.63892 21.6923 1.7233 20.7767C0.911576 19.965 0.492389 18.9547 0.269476 17.7014C0.0504975 16.4702 0.0104397 14.9385 0.00211763 13.0364C2.05844e-07 12.5526 2.05869e-07 12.0409 2.05869e-07 11.501V11.4413C-1.25353e-05 9.07922 -2.25056e-05 7.2281 0.19416 5.78379C0.392917 4.30546 0.807684 3.13892 1.7233 2.2233C2.63892 1.30768 3.80546 0.892917 5.28379 0.69416C6.7281 0.499977 8.57922 0.499987 10.9413 0.5ZM5.48831 2.21536C4.18018 2.39123 3.39153 2.72573 2.80863 3.30863C2.22573 3.89153 1.89123 4.68018 1.71536 5.98831C1.53651 7.31852 1.53488 9.06647 1.53488 11.5C1.53488 11.7973 1.53489 12.0848 1.53523 12.3631L2.55965 11.4668C3.49211 10.6509 4.89747 10.6977 5.77359 11.5738L10.1631 15.9633C10.8663 16.6665 11.9733 16.7624 12.7869 16.1905L13.092 15.9761C14.2629 15.1532 15.847 15.2486 16.9107 16.2059L19.807 18.8125C20.0985 18.2003 20.2716 17.3958 20.3641 16.2609C20.4645 15.0284 20.4651 13.4911 20.4651 11.5C20.4651 9.06647 20.4635 7.31852 20.2846 5.98831C20.1088 4.68018 19.7743 3.89153 19.1914 3.30863C18.6085 2.72573 17.8198 2.39123 16.5117 2.21536C15.1815 2.03651 13.4335 2.03488 11 2.03488C8.56647 2.03488 6.81852 2.03651 5.48831 2.21536Z" fill="#221F1F"/>
</svg>
