<svg width="21" height="21" viewBox="0 0 21 21" fill="none" xmlns="http://www.w3.org/2000/svg">
<path d="M9.90009 16.6612L9.9001 16.6612L17.296 9.26532C16.2894 8.84637 15.0972 8.1582 13.9697 7.03068C12.842 5.90298 12.1537 4.71058 11.7348 3.7039L4.33882 11.0999L4.33879 11.0999C3.76166 11.6771 3.47307 11.9657 3.2249 12.2838C2.93213 12.6592 2.68114 13.0653 2.47634 13.495C2.30273 13.8593 2.17368 14.2465 1.91556 15.0208L0.554448 19.1042C0.427428 19.4852 0.526605 19.9053 0.810631 20.1894C1.09466 20.4734 1.51478 20.5726 1.89584 20.4456L5.97918 19.0844C6.75351 18.8263 7.1407 18.6973 7.50498 18.5237C7.93469 18.3189 8.34082 18.0679 8.71616 17.7751C9.03435 17.5269 9.32296 17.2383 9.90009 16.6612Z" fill="#D2D4E9"/>
<path d="M19.3482 7.21306C20.8839 5.67735 20.8839 3.18748 19.3482 1.65178C17.8125 0.116074 15.3226 0.116074 13.7869 1.65178L12.8999 2.53882C12.9121 2.5755 12.9246 2.61268 12.9377 2.65035C13.2628 3.5875 13.8763 4.81601 15.0303 5.97002C16.1843 7.12403 17.4128 7.73749 18.35 8.06262C18.3875 8.07563 18.4245 8.08817 18.461 8.10026L19.3482 7.21306Z" fill="#D2D4E9"/>
</svg>
