<svg width="22" height="18" viewBox="0 0 22 18" fill="none" xmlns="http://www.w3.org/2000/svg">
<path fill-rule="evenodd" clip-rule="evenodd" d="M1.28873 1.7448C0 2.98959 0 4.99306 0 9C0 13.0069 0 15.0104 1.28873 16.2552C2.57746 17.5 4.65164 17.5 8.8 17.5H13.2C17.3484 17.5 19.4225 17.5 20.7113 16.2552C22 15.0104 22 13.0069 22 9C22 4.99306 22 2.98959 20.7113 1.7448C19.4225 0.5 17.3484 0.5 13.2 0.5H8.8C4.65164 0.5 2.57746 0.5 1.28873 1.7448ZM18.2338 4.23985C18.5255 4.57795 18.4782 5.08043 18.1282 5.36218L15.712 7.30698C14.737 8.0918 13.9468 8.72791 13.2493 9.16121C12.5228 9.61256 11.8152 9.89768 11 9.89768C10.1848 9.89768 9.47724 9.61256 8.7507 9.16121C8.05323 8.72792 7.26298 8.09181 6.28799 7.30699L3.87185 5.36218C3.52182 5.08043 3.47453 4.57795 3.76622 4.23985C4.05791 3.90176 4.57812 3.85608 4.92815 4.13782L7.30294 6.04935C8.32919 6.8754 9.0417 7.44707 9.64324 7.82076C10.2255 8.1825 10.6204 8.30393 11 8.30393C11.3796 8.30393 11.7745 8.1825 12.3568 7.82076C12.9583 7.44707 13.6708 6.8754 14.6971 6.04934L17.0718 4.13782C17.4219 3.85608 17.9421 3.90176 18.2338 4.23985Z" fill="#222525"/>
</svg>
