<svg width="20" height="23" viewBox="0 0 20 23" fill="none" xmlns="http://www.w3.org/2000/svg">
<path d="M5.55556 2.15014C5.55556 1.23879 6.30175 0.5 7.22222 0.5H12.7778C13.6983 0.5 14.4444 1.23879 14.4444 2.15014V3.25024C14.4444 4.16159 13.6983 4.90038 12.7778 4.90038H7.22222C6.30175 4.90038 5.55556 4.16159 5.55556 3.25024V2.15014Z" fill="#222525"/>
<path fill-rule="evenodd" clip-rule="evenodd" d="M3.88889 2.74047C2.49122 2.81811 1.60887 3.03862 0.976311 3.66491C0 4.63154 0 6.18731 0 9.29885V15.8994C0 19.011 0 20.5667 0.976311 21.5334C1.95262 22.5 3.52397 22.5 6.66667 22.5H13.3333C16.476 22.5 18.0474 22.5 19.0237 21.5334C20 20.5667 20 19.011 20 15.8994V9.29885C20 6.18731 20 4.63154 19.0237 3.66491C18.3911 3.03862 17.5088 2.81811 16.1111 2.74047V3.25024C16.1111 5.07294 14.6187 6.55053 12.7778 6.55053H7.22222C5.38127 6.55053 3.88889 5.07294 3.88889 3.25024V2.74047ZM3.61111 9.85081C3.61111 9.39514 3.98421 9.02574 4.44444 9.02574H15.5556C16.0158 9.02574 16.3889 9.39514 16.3889 9.85081C16.3889 10.3065 16.0158 10.6759 15.5556 10.6759H4.44444C3.98421 10.6759 3.61111 10.3065 3.61111 9.85081ZM4.72222 13.7011C4.72222 13.2455 5.09532 12.8761 5.55556 12.8761H14.4444C14.9047 12.8761 15.2778 13.2455 15.2778 13.7011C15.2778 14.1568 14.9047 14.5262 14.4444 14.5262H5.55556C5.09532 14.5262 4.72222 14.1568 4.72222 13.7011ZM5.83333 17.5515C5.83333 17.0958 6.20643 16.7264 6.66667 16.7264H13.3333C13.7936 16.7264 14.1667 17.0958 14.1667 17.5515C14.1667 18.0072 13.7936 18.3766 13.3333 18.3766H6.66667C6.20643 18.3766 5.83333 18.0072 5.83333 17.5515Z" fill="#222525"/>
</svg>
