<svg width="22" height="23" viewBox="0 0 22 23" fill="none" xmlns="http://www.w3.org/2000/svg">
<path fill-rule="evenodd" clip-rule="evenodd" d="M3.575 9.75933V7.48193C3.575 3.34977 6.89929 0 11 0C15.1007 0 18.425 3.34977 18.425 7.48193V9.75933C19.6512 9.85161 20.4498 10.0846 21.0335 10.6728C22 11.6467 22 13.2143 22 16.3494C22 19.4845 22 21.0521 21.0335 22.026C20.0669 23 18.5113 23 15.4 23H6.6C3.48873 23 1.9331 23 0.966548 22.026C0 21.0521 0 19.4845 0 16.3494C0 13.2143 0 11.6467 0.966548 10.6728C1.55024 10.0846 2.34877 9.85161 3.575 9.75933ZM5.225 7.48193C5.225 4.26803 7.81056 1.66265 11 1.66265C14.1894 1.66265 16.775 4.26803 16.775 7.48193V9.70276C16.3537 9.6988 15.8967 9.6988 15.4 9.6988H6.6C6.10333 9.6988 5.64631 9.6988 5.225 9.70276V7.48193ZM13.2 16.3494C13.2 17.5737 12.215 18.5663 11 18.5663C9.78497 18.5663 8.8 17.5737 8.8 16.3494C8.8 15.1251 9.78497 14.1325 11 14.1325C12.215 14.1325 13.2 15.1251 13.2 16.3494Z" fill="#222525"/>
</svg>
