<svg width="22" height="18" viewBox="0 0 22 18" fill="none" xmlns="http://www.w3.org/2000/svg">
<path d="M14.8504 4.04985C14.8504 6.17621 13.1266 7.89996 11.0003 7.89996C8.8739 7.89996 7.15015 6.17621 7.15015 4.04985C7.15015 1.92349 8.8739 0.199738 11.0003 0.199738C13.1266 0.199738 14.8504 1.92349 14.8504 4.04985Z" fill="#222525"/>
<path d="M17.6005 13.9501C17.6005 16.0765 14.6455 17.8003 11.0003 17.8003C7.35515 17.8003 4.40015 16.0765 4.40015 13.9501C4.40015 11.8238 7.35515 10.1 11.0003 10.1C14.6455 10.1 17.6005 11.8238 17.6005 13.9501Z" fill="#222525"/>
<path d="M5.63441 1.29977C5.82963 1.29977 6.02021 1.31893 6.20424 1.35539C5.75591 2.1517 5.50016 3.07091 5.50016 4.04985C5.50016 5.00496 5.7436 5.90321 6.17183 6.68593C5.99786 6.71834 5.8182 6.73532 5.63441 6.73532C4.07851 6.73532 2.81721 5.51853 2.81721 4.01755C2.81721 2.51656 4.07851 1.29977 5.63441 1.29977Z" fill="#222525"/>
<path d="M3.79218 16.6848C3.16745 15.938 2.75008 15.0216 2.75008 13.9501C2.75008 12.9114 3.14232 12.0185 3.73546 11.2845C1.64025 11.447 0 12.5929 0 13.9825C0 15.385 1.66908 16.5394 3.79218 16.6848Z" fill="#222525"/>
<path d="M16.4999 4.04985C16.4999 5.00496 16.2564 5.90321 15.8282 6.68593C16.0021 6.71834 16.1818 6.73532 16.3656 6.73532C17.9215 6.73532 19.1828 5.51853 19.1828 4.01755C19.1828 2.51656 17.9215 1.29977 16.3656 1.29977C16.1704 1.29977 15.9798 1.31893 15.7958 1.3554C16.2441 2.1517 16.4999 3.07091 16.4999 4.04985Z" fill="#222525"/>
<path d="M18.2078 16.6848C20.3309 16.5394 22 15.385 22 13.9825C22 12.5929 20.3598 11.447 18.2645 11.2845C18.8577 12.0185 19.2499 12.9114 19.2499 13.9501C19.2499 15.0216 18.8326 15.938 18.2078 16.6848Z" fill="#222525"/>
</svg>
