<svg width="22" height="22" viewBox="0 0 22 22" fill="none" xmlns="http://www.w3.org/2000/svg">
<path fill-rule="evenodd" clip-rule="evenodd" d="M22 11C22 17.0751 17.0751 22 11 22C4.92487 22 0 17.0751 0 11C0 4.92487 4.92487 0 11 0C17.0751 0 22 4.92487 22 11ZM14.3 7.7C14.3 9.52254 12.8225 11 11 11C9.17746 11 7.7 9.52254 7.7 7.7C7.7 5.87746 9.17746 4.4 11 4.4C12.8225 4.4 14.3 5.87746 14.3 7.7ZM11 20.35C12.9624 20.35 14.7837 19.7454 16.2876 18.7123C16.9519 18.256 17.2357 17.3869 16.8495 16.6796C16.0489 15.2133 14.3993 14.3 10.9999 14.3C7.60066 14.3 5.95096 15.2132 5.15035 16.6795C4.76415 17.3868 5.04801 18.256 5.71225 18.7123C7.2162 19.7454 9.03749 20.35 11 20.35Z" fill="#222525"/>
</svg>
