<svg width="22" height="23" viewBox="0 0 22 23" fill="none" xmlns="http://www.w3.org/2000/svg">
<path fill-rule="evenodd" clip-rule="evenodd" d="M10.25 1C10.25 0.585786 10.5858 0.25 11 0.25C16.9371 0.25 21.75 5.06294 21.75 11C21.75 16.9371 16.9371 21.75 11 21.75C5.06294 21.75 0.25 16.9371 0.25 11C0.25 10.5858 0.585786 10.25 1 10.25C1.41421 10.25 1.75 10.5858 1.75 11C1.75 16.1086 5.89137 20.25 11 20.25C16.1086 20.25 20.25 16.1086 20.25 11C20.25 5.89137 16.1086 1.75 11 1.75C10.5858 1.75 10.25 1.41421 10.25 1ZM11 7.25C11.4142 7.25 11.75 7.58579 11.75 8V11.25H15C15.4142 11.25 15.75 11.5858 15.75 12C15.75 12.4142 15.4142 12.75 15 12.75H11C10.5858 12.75 10.25 12.4142 10.25 12V8C10.25 7.58579 10.5858 7.25 11 7.25Z" fill="#6A6C7E"/>
<path fill-rule="evenodd" clip-rule="evenodd" d="M8.09958 1.39754C8.24874 1.78396 8.05641 2.21814 7.66999 2.36731C7.52855 2.42191 7.38879 2.47988 7.2508 2.54114C6.87221 2.70921 6.42906 2.53856 6.261 2.15997C6.09293 1.78139 6.26358 1.33824 6.64217 1.17017C6.80267 1.09892 6.96526 1.03147 7.1298 0.967952C7.51623 0.818785 7.95041 1.01112 8.09958 1.39754ZM4.6477 3.24026C4.93337 3.54021 4.92178 4.01495 4.62183 4.30061C4.51216 4.40506 4.40505 4.51216 4.30061 4.62183C4.01495 4.92178 3.54021 4.93337 3.24026 4.6477C2.94031 4.36204 2.92873 3.88731 3.21439 3.58736C3.33566 3.46003 3.46002 3.33566 3.58736 3.21439C3.88731 2.92873 4.36204 2.94031 4.6477 3.24026ZM2.15997 6.261C2.53856 6.42907 2.70921 6.87222 2.54114 7.2508C2.47988 7.38879 2.42191 7.52855 2.36731 7.66999C2.21814 8.05641 1.78396 8.24874 1.39754 8.09958C1.01112 7.95041 0.818784 7.51623 0.967951 7.12981C1.03147 6.96526 1.09892 6.80267 1.17017 6.64217C1.33824 6.26358 1.78139 6.09293 2.15997 6.261Z" fill="#6A6C7E"/>
</svg>
