<svg width="22" height="23" viewBox="0 0 22 23" fill="none" xmlns="http://www.w3.org/2000/svg">
<path fill-rule="evenodd" clip-rule="evenodd" d="M1.55991 4.11264C2.62262 2.86437 4.1719 2.125 6.05 2.125C7.30751 2.125 8.51151 2.80904 9.43635 3.50359C10.0074 3.93238 10.5395 4.41727 11 4.88207C11.4605 4.41727 11.9926 3.93238 12.5637 3.50359C13.4885 2.80904 14.6925 2.125 15.95 2.125C17.8617 2.125 19.4108 2.94577 20.4585 4.24382C21.4878 5.51933 22 7.20795 22 8.95502C22 10.5325 21.2175 12.0463 20.2331 13.3502C19.2336 14.6742 17.9251 15.914 16.6542 16.966C15.3777 18.0229 14.1064 18.9171 13.157 19.5458C12.6814 19.8609 12.2841 20.1108 12.0044 20.2829C11.8645 20.3689 11.7537 20.4356 11.6772 20.4813C11.6388 20.5041 11.6091 20.5217 11.5884 20.5338L11.5642 20.548L11.5575 20.552L11.5554 20.5532C11.5554 20.5532 11.5543 20.5538 11 19.6099C10.4457 20.5538 10.4453 20.5535 10.4453 20.5535L10.4425 20.5519L10.4356 20.5479L10.4114 20.5337C10.3906 20.5215 10.3608 20.5039 10.3224 20.4809C10.2456 20.4351 10.1346 20.3683 9.9946 20.2818C9.71443 20.1091 9.31678 19.8579 8.84059 19.5409C7.89042 18.9081 6.61796 18.0061 5.34031 16.9342C4.0681 15.867 2.75879 14.6049 1.75915 13.2478C0.771815 11.9073 0 10.3573 0 8.73691C0 6.9872 0.514118 5.34103 1.55991 4.11264ZM11 19.6099L10.4453 20.5535L11 20.875L11.5543 20.5538L11 19.6099Z" fill="#6A6C7E"/>
</svg>
