<svg width="22" height="21" viewBox="0 0 22 21" fill="none" xmlns="http://www.w3.org/2000/svg">
<path d="M8.5 18V20C8.5 20.4142 8.83579 20.75 9.25 20.75C9.66421 20.75 10 20.4142 10 20V18H8.5Z" fill="#6A6C7E"/>
<path d="M14 18H12.5V20C12.5 20.4142 12.8358 20.75 13.25 20.75C13.6642 20.75 14 20.4142 14 20V18Z" fill="#6A6C7E"/>
<path fill-rule="evenodd" clip-rule="evenodd" d="M16.3846 4.58471L16.6407 4.53344C17.0564 4.45022 17.4863 4.48995 17.8814 4.64813C18.5717 4.92453 19.3266 4.97616 20.0458 4.79618L20.1073 4.7808C20.6309 4.64975 21 4.16299 21 3.60336V1.47284C21 0.735027 20.3358 0.191445 19.6454 0.364214C19.249 0.463425 18.8329 0.434962 18.4523 0.282607L18.3793 0.253347C17.7422 -0.00171596 17.0491 -0.0657932 16.3787 0.0684118L15.93 0.158235C15.3901 0.266318 15 0.757217 15 1.32846V8.28072C15 8.67797 15.31 9 15.6923 9C16.0747 9 16.3846 8.67797 16.3846 8.28072V4.58471Z" fill="#6A6C7E"/>
<path d="M13.5 4V8.28072C13.5 9.45183 14.428 10.5 15.6923 10.5C16.9566 10.5 17.8846 9.45183 17.8846 8.28072V6.22795C18.6455 6.43335 19.4446 6.45735 20.22 6.29496C20.7122 7.13671 21 8.15414 21 9.25V15.4253C21 16.8473 20.0119 18 18.7931 18H11.5V9.25C11.5 7.22014 10.6679 5.27604 9.28258 4H13.5Z" fill="#6A6C7E"/>
<path fill-rule="evenodd" clip-rule="evenodd" d="M1 9.25C1 6.35051 3.01472 4 5.5 4C7.98528 4 10 6.35051 10 9.25V18H3.23256C1.99955 18 1 16.8339 1 15.3953V9.25ZM3.25 14C3.25 13.5858 3.58579 13.25 4 13.25H7C7.41421 13.25 7.75 13.5858 7.75 14C7.75 14.4142 7.41421 14.75 7 14.75H4C3.58579 14.75 3.25 14.4142 3.25 14Z" fill="#6A6C7E"/>
</svg>
