<svg width="22" height="23" viewBox="0 0 22 23" fill="none" xmlns="http://www.w3.org/2000/svg">
<path fill-rule="evenodd" clip-rule="evenodd" d="M20.1009 7.00353C20.0442 6.99996 19.9825 6.99998 19.9186 7L19.9026 7.00001H17.3941C15.3264 7.00001 13.5572 8.62757 13.5572 10.75C13.5572 12.8724 15.3264 14.5 17.3941 14.5H19.9026L19.9186 14.5C19.9825 14.5 20.0442 14.5001 20.1009 14.4965C20.9408 14.4434 21.6835 13.7862 21.746 12.8682C21.7501 12.808 21.75 12.7431 21.75 12.683L21.75 12.6667V8.83334L21.75 8.81702C21.75 8.75688 21.7501 8.69199 21.746 8.6318C21.6835 7.71381 20.9408 7.05657 20.1009 7.00353ZM17.1717 11.75C17.704 11.75 18.1355 11.3023 18.1355 10.75C18.1355 10.1977 17.704 9.75 17.1717 9.75C16.6394 9.75 16.2078 10.1977 16.2078 10.75C16.2078 11.3023 16.6394 11.75 17.1717 11.75Z" fill="#6A6C7E"/>
<path fill-rule="evenodd" clip-rule="evenodd" d="M19.9179 16C20.067 15.9961 20.1799 16.1342 20.1394 16.2778C19.9387 16.9902 19.62 17.5975 19.1088 18.1088C18.3604 18.8571 17.4114 19.1892 16.239 19.3469C15.0998 19.5 13.6442 19.5 11.8064 19.5H9.69359C7.85583 19.5 6.40019 19.5 5.26098 19.3469C4.08856 19.1892 3.13961 18.8571 2.39124 18.1088C1.64288 17.3604 1.31076 16.4114 1.15314 15.239C0.999972 14.0998 0.999985 12.6442 1 10.8064V10.6936C0.999984 8.85583 0.999972 7.40019 1.15314 6.26098C1.31076 5.08856 1.64288 4.13961 2.39124 3.39124C3.13961 2.64288 4.08856 2.31076 5.26098 2.15314C6.40019 1.99997 7.85582 1.99998 9.69358 2L11.8064 2C13.6442 1.99998 15.0998 1.99997 16.239 2.15314C17.4114 2.31076 18.3604 2.64288 19.1088 3.39124C19.62 3.90252 19.9386 4.50974 20.1394 5.22218C20.1799 5.36575 20.067 5.50387 19.9179 5.5L17.394 5.50001C14.5574 5.50001 12.0571 7.74091 12.0571 10.75C12.0571 13.7591 14.5574 16 17.394 16L19.9179 16ZM6 14.5C5.58579 14.5 5.25 14.1642 5.25 13.75V7.75C5.25 7.33579 5.58579 7 6 7C6.41421 7 6.75 7.33579 6.75 7.75V13.75C6.75 14.1642 6.41421 14.5 6 14.5Z" fill="#6A6C7E"/>
</svg>
