<svg width="20" height="20" viewBox="0 0 20 20" fill="none" xmlns="http://www.w3.org/2000/svg">
<path fill-rule="evenodd" clip-rule="evenodd" d="M12 20H8C4.22876 20 2.34315 20 1.17157 18.8284C0 17.6569 0 15.7712 0 12V8C0 4.22876 0 2.34315 1.17157 1.17157C2.34315 0 4.23869 0 8.02979 0C8.6358 0 9.1214 -4.26546e-07 9.53001 0.0166612C9.51656 0.0965928 9.50951 0.178128 9.50923 0.260566L9.5 3.09497C9.49991 4.19207 9.49983 5.16164 9.60491 5.94316C9.7188 6.79028 9.9803 7.63726 10.6716 8.32853C11.3628 9.0198 12.2098 9.28131 13.0569 9.3952C13.8385 9.50027 14.808 9.5002 15.9051 9.50011L16 9.50011H19.9574C20 10.0344 20 10.6901 20 11.5629V12C20 15.7712 20 17.6569 18.8284 18.8284C17.6569 20 15.7712 20 12 20ZM3.25 12.5C3.25 12.0858 3.58579 11.75 4 11.75H12C12.4142 11.75 12.75 12.0858 12.75 12.5C12.75 12.9142 12.4142 13.25 12 13.25H4C3.58579 13.25 3.25 12.9142 3.25 12.5ZM3.25 16C3.25 15.5858 3.58579 15.25 4 15.25H9.5C9.91421 15.25 10.25 15.5858 10.25 16C10.25 16.4142 9.91421 16.75 9.5 16.75H4C3.58579 16.75 3.25 16.4142 3.25 16Z" fill="#6A6C7E"/>
<path d="M17.3517 5.61665L13.3929 2.05375C12.2651 1.03868 11.7012 0.531143 11.0092 0.265625L11 3.00011C11 5.35713 11 6.53564 11.7322 7.26787C12.4645 8.00011 13.643 8.00011 16 8.00011H19.5801C19.2175 7.29588 18.5684 6.71164 17.3517 5.61665Z" fill="#6A6C7E"/>
</svg>
