<svg width="22" height="21" viewBox="0 0 22 21" fill="none" xmlns="http://www.w3.org/2000/svg">
<path fill-rule="evenodd" clip-rule="evenodd" d="M11.052 0.250001H10.948C10.0495 0.249973 9.3003 0.249949 8.70552 0.329915C8.07773 0.414319 7.51093 0.59999 7.05546 1.05546C6.59999 1.51093 6.41432 2.07773 6.32991 2.70552C6.27259 3.13189 6.25637 4.15147 6.25179 5.02566C4.22954 5.09171 3.01536 5.32778 2.17157 6.17157C1 7.34315 1 9.22876 1 13C1 16.7712 1 18.6569 2.17157 19.8284C3.34314 21 5.22876 21 8.99998 21H13C16.7712 21 18.6569 21 19.8284 19.8284C21 18.6569 21 16.7712 21 13C21 9.22876 21 7.34315 19.8284 6.17157C18.9846 5.32778 17.7705 5.09171 15.7482 5.02566C15.7436 4.15147 15.7274 3.13189 15.6701 2.70552C15.5857 2.07773 15.4 1.51093 14.9445 1.05546C14.4891 0.59999 13.9223 0.414319 13.2945 0.329915C12.6997 0.249949 11.9505 0.249973 11.052 0.250001ZM14.2479 5.00188C14.2434 4.15523 14.229 3.24407 14.1835 2.9054C14.1214 2.44393 14.0142 2.24644 13.8839 2.11612C13.7536 1.9858 13.5561 1.87858 13.0946 1.81654C12.6116 1.7516 11.964 1.75 11 1.75C10.036 1.75 9.38843 1.7516 8.90539 1.81654C8.44393 1.87858 8.24644 1.9858 8.11612 2.11612C7.9858 2.24644 7.87858 2.44393 7.81654 2.9054C7.771 3.24407 7.75661 4.15523 7.75208 5.00188C8.1435 5 8.55885 5 9 5H13C13.4412 5 13.8565 5 14.2479 5.00188ZM11 8.25C11.4142 8.25 11.75 8.58579 11.75 9V9.01023C12.8388 9.28454 13.75 10.143 13.75 11.3333C13.75 11.7475 13.4142 12.0833 13 12.0833C12.5858 12.0833 12.25 11.7475 12.25 11.3333C12.25 10.9493 11.8242 10.4167 11 10.4167C10.1758 10.4167 9.75 10.9493 9.75 11.3333C9.75 11.7174 10.1758 12.25 11 12.25C12.3849 12.25 13.75 13.2098 13.75 14.6667C13.75 15.857 12.8388 16.7155 11.75 16.9898V17C11.75 17.4142 11.4142 17.75 11 17.75C10.5858 17.75 10.25 17.4142 10.25 17V16.9898C9.16121 16.7155 8.25 15.857 8.25 14.6667C8.25 14.2525 8.58579 13.9167 9 13.9167C9.41421 13.9167 9.75 14.2525 9.75 14.6667C9.75 15.0507 10.1758 15.5833 11 15.5833C11.8242 15.5833 12.25 15.0507 12.25 14.6667C12.25 14.2826 11.8242 13.75 11 13.75C9.61506 13.75 8.25 12.7903 8.25 11.3333C8.25 10.143 9.16121 9.28454 10.25 9.01023V9C10.25 8.58579 10.5858 8.25 11 8.25Z" fill="#6A6C7E"/>
</svg>
