<svg width="22" height="22" viewBox="0 0 22 22" fill="none" xmlns="http://www.w3.org/2000/svg">
<path fill-rule="evenodd" clip-rule="evenodd" d="M11 22C5.81455 22 3.22183 22 1.61091 20.3891C0 18.7782 0 16.1854 0 11C0 5.81455 0 3.22183 1.61091 1.61091C3.22183 0 5.81455 0 11 0C16.1854 0 18.7782 0 20.3891 1.61091C22 3.22183 22 5.81455 22 11C22 16.1854 22 18.7782 20.3891 20.3891C18.7782 22 16.1854 22 11 22ZM11 6.875C11.4556 6.875 11.825 7.24437 11.825 7.7V10.175H14.3C14.7556 10.175 15.125 10.5444 15.125 11C15.125 11.4557 14.7556 11.825 14.3 11.825H11.825L11.825 14.3C11.825 14.7556 11.4556 15.125 11 15.125C10.5444 15.125 10.175 14.7556 10.175 14.3V11.825H7.7C7.24437 11.825 6.875 11.4557 6.875 11C6.875 10.5444 7.24437 10.175 7.7 10.175H10.175L10.175 7.7C10.175 7.24437 10.5444 6.875 11 6.875Z" fill="#222525"/>
</svg>
