<svg width="20" height="20" viewBox="0 0 20 20" fill="none" xmlns="http://www.w3.org/2000/svg">
<path d="M17.96 18.0989C16.1367 15.3211 13.8833 14.4489 11.1111 14.2277V15.8244C11.1111 16.4177 10.88 16.9755 10.46 17.3955C9.62 18.2355 8.15222 18.23 7.32333 17.4011L0.331111 10.5044C0.118889 10.2944 0 10.0111 0 9.71219C0 9.4133 0.118889 9.12997 0.331111 8.92108L7.31778 2.02886C8.15556 1.18997 9.62111 1.18886 10.4611 2.02997C10.88 2.44997 11.1111 3.00775 11.1111 3.60108V5.49441C16.2433 6.53108 20 11.0466 20 16.3789V17.49C20 17.9811 19.6778 18.4144 19.2067 18.5544C19.1011 18.5844 18.9956 18.6011 18.8889 18.6011C18.5211 18.6011 18.1711 18.4177 17.96 18.0989ZM10.0256 11.9477C12.4778 12.01 15.1789 12.3855 17.5344 14.3044C16.6811 10.7311 13.6711 7.96886 9.87556 7.54886C9.31556 7.48664 8.88889 7.49108 8.88889 7.49108V3.60552L2.69333 9.71219L8.88889 15.8233V11.9355C8.88889 11.9355 9.70889 11.9466 10.0256 11.9477Z" fill="#222525"/>
</svg>
