<svg width="20" height="20" viewBox="0 0 20 20" fill="none" xmlns="http://www.w3.org/2000/svg">
<g clip-path="url(#clip0_543_1019)">
<path d="M17.3537 11.6372C16.9075 11.6372 16.5458 11.9989 16.5458 12.4451V17.3537C16.5458 17.922 16.0835 18.3842 15.5153 18.3842H2.64633C2.07809 18.3842 1.61582 17.9219 1.61582 17.3537V4.48477C1.61582 3.91652 2.07812 3.45426 2.64633 3.45426H7.55492C8.00109 3.45426 8.36281 3.09254 8.36281 2.64637C8.36281 2.2002 8.00109 1.83848 7.55492 1.83848H2.64633C1.18715 1.83848 0 3.02562 0 4.4848V17.3538C3.90625e-05 18.8129 1.18719 20 2.64633 20H15.5153C16.9745 20 18.1616 18.8129 18.1616 17.3537V12.4451C18.1616 11.9989 17.7999 11.6372 17.3537 11.6372Z" fill="#222525"/>
<path d="M19.7635 3.91348L16.0866 0.23664C15.7711 -0.0788674 15.2596 -0.0788674 14.9441 0.23664L5.75202 9.42875C5.60054 9.58027 5.51538 9.78578 5.51538 10V13.6769C5.51538 14.1231 5.8771 14.4848 6.32327 14.4848H10.0001C10.2144 14.4848 10.4199 14.3996 10.5714 14.2482L19.7635 5.05602C19.915 4.90449 20.0001 4.69898 20.0001 4.48473C20.0001 4.27047 19.915 4.065 19.7635 3.91348ZM9.6655 12.8689H7.1312V10.3346L15.5154 1.95047L18.0497 4.48477L9.6655 12.8689Z" fill="#222525"/>
</g>
<defs>
<clipPath id="clip0_543_1019">
<rect width="20" height="20" fill="white"/>
</clipPath>
</defs>
</svg>
