<svg width="16" height="16" viewBox="0 0 16 16" fill="none" xmlns="http://www.w3.org/2000/svg">
<path d="M8.45066 13V13.6613C8.44792 13.4409 8.44725 13.2204 8.44866 13H8.84066C8.92907 13 9.01385 13.0351 9.07636 13.0976C9.13888 13.1601 9.17399 13.2449 9.17399 13.3333C9.17399 13.4217 9.13888 13.5065 9.07636 13.569C9.01385 13.6315 8.92907 13.6667 8.84066 13.6667H8.45199L8.45066 13.6613V13.6667H8.44866V13.0027C8.44999 13.016 8.45066 13.104 8.45066 13.6667H3.38399C2.80933 13.6667 2.33333 13.2247 2.33333 12.6667V2.66666C2.33333 2.10866 2.80933 1.66666 3.38466 1.66666H11.282C11.8573 1.66666 12.3333 2.10866 12.3333 2.66666V8.40466C12.3333 8.49307 12.2982 8.57785 12.2357 8.64037C12.1732 8.70288 12.0884 8.738 12 8.738C11.9116 8.738 11.8268 8.70288 11.7643 8.64037C11.7018 8.57785 11.6667 8.49307 11.6667 8.40466V2.66666C11.6667 2.488 11.5 2.33333 11.282 2.33333H3.38466C3.16666 2.33333 2.99999 2.488 2.99999 2.66666V12.6667C2.99999 12.8453 3.16666 13 3.38466 13H8.45066ZM10.1833 10.5993C10.05 10.846 9.87266 11.052 9.67133 11.1953C9.66494 11.2872 9.66494 11.3794 9.67133 11.4713C9.87266 11.6147 10.0507 11.8213 10.1833 12.0673C10.3167 12.314 10.3933 12.582 10.4073 12.8367C10.468 12.8807 10.5313 12.9207 10.5967 12.9553C10.8253 12.841 11.0777 12.7825 11.3333 12.7847C11.5987 12.7847 11.8533 12.8447 12.07 12.9553C12.1353 12.9207 12.1987 12.8807 12.2593 12.8367C12.277 12.567 12.3535 12.3044 12.4833 12.0673C12.6167 11.8207 12.794 11.6147 12.9953 11.4713C13.0017 11.3794 13.0017 11.2872 12.9953 11.1953C12.7817 11.0381 12.6066 10.8343 12.4833 10.5993C12.3535 10.3623 12.277 10.0997 12.2593 9.83C12.199 9.78618 12.1357 9.74653 12.07 9.71133C11.8414 9.82563 11.5889 9.88412 11.3333 9.882C11.068 9.882 10.8133 9.822 10.5967 9.71133C10.5309 9.74653 10.4677 9.78618 10.4073 9.83C10.3897 10.0997 10.3132 10.3623 10.1833 10.5993ZM9.85533 9.41866C10.0453 9.25266 10.26 9.12 10.4907 9.02533C10.5434 9.00368 10.6009 8.99593 10.6575 9.00282C10.7141 9.0097 10.768 9.031 10.814 9.06466C10.942 9.158 11.1287 9.21533 11.3333 9.21533C11.538 9.21533 11.7247 9.158 11.8527 9.06466C11.8986 9.03089 11.9525 9.00947 12.0091 9.00247C12.0657 8.99547 12.1232 9.00311 12.176 9.02466C12.4067 9.12 12.6213 9.25266 12.8113 9.418C12.8504 9.4519 12.881 9.49443 12.9008 9.54221C12.9206 9.59 12.929 9.64174 12.9253 9.69333C12.9127 9.87 12.9627 10.084 13.07 10.2827C13.1767 10.4793 13.32 10.628 13.4613 10.7007C13.5085 10.7249 13.5492 10.7601 13.58 10.8032C13.6109 10.8463 13.631 10.8962 13.6387 10.9487C13.6762 11.2037 13.6762 11.4629 13.6387 11.718C13.631 11.7705 13.6109 11.8203 13.58 11.8635C13.5492 11.9066 13.5085 11.9417 13.4613 11.966C13.32 12.0387 13.176 12.1873 13.07 12.384C12.9633 12.5827 12.9127 12.7967 12.9253 12.9733C12.929 13.0248 12.9206 13.0763 12.901 13.124C12.8813 13.1716 12.8508 13.2141 12.812 13.248C12.6228 13.4129 12.408 13.5457 12.176 13.6413C12.1232 13.663 12.0658 13.6707 12.0092 13.6638C11.9526 13.657 11.8987 13.6357 11.8527 13.602C11.7247 13.5087 11.538 13.4513 11.3333 13.4513C11.1287 13.4513 10.942 13.5087 10.814 13.602C10.768 13.6358 10.7142 13.6572 10.6575 13.6642C10.6009 13.6712 10.5435 13.6636 10.4907 13.642C10.2589 13.5463 10.0443 13.4135 9.85533 13.2487C9.81627 13.2148 9.78563 13.1722 9.76585 13.1244C9.74606 13.0767 9.73767 13.0249 9.74133 12.9733C9.75399 12.7967 9.70399 12.5827 9.59666 12.384C9.49 12.1873 9.34666 12.0387 9.20533 11.966C9.15817 11.9417 9.11749 11.9066 9.08665 11.8635C9.0558 11.8203 9.0357 11.7705 9.02799 11.718C8.99043 11.4629 8.99043 11.2037 9.02799 10.9487C9.0357 10.8962 9.0558 10.8463 9.08665 10.8032C9.11749 10.7601 9.15817 10.7249 9.20533 10.7007C9.34666 10.628 9.49066 10.4793 9.59666 10.2827C9.70333 10.084 9.75399 9.87 9.74133 9.69333C9.73769 9.6419 9.74603 9.59033 9.7657 9.54267C9.78536 9.49501 9.81648 9.45256 9.85533 9.41866ZM11.3333 12.3333C11.0681 12.3333 10.8138 12.228 10.6262 12.0404C10.4387 11.8529 10.3333 11.5985 10.3333 11.3333C10.3333 11.0681 10.4387 10.8138 10.6262 10.6262C10.8138 10.4387 11.0681 10.3333 11.3333 10.3333C11.5985 10.3333 11.8529 10.4387 12.0404 10.6262C12.228 10.8138 12.3333 11.0681 12.3333 11.3333C12.3333 11.5985 12.228 11.8529 12.0404 12.0404C11.8529 12.228 11.5985 12.3333 11.3333 12.3333ZM11.3333 11.6667C11.4217 11.6667 11.5065 11.6315 11.569 11.569C11.6315 11.5065 11.6667 11.4217 11.6667 11.3333C11.6667 11.2449 11.6315 11.1601 11.569 11.0976C11.5065 11.0351 11.4217 11 11.3333 11C11.2449 11 11.1601 11.0351 11.0976 11.0976C11.0351 11.1601 11 11.2449 11 11.3333C11 11.4217 11.0351 11.5065 11.0976 11.569C11.1601 11.6315 11.2449 11.6667 11.3333 11.6667ZM4.33333 4H10.3333C10.4217 4 10.5065 4.03512 10.569 4.09763C10.6315 4.16014 10.6667 4.24493 10.6667 4.33333C10.6667 4.42174 10.6315 4.50652 10.569 4.56903C10.5065 4.63155 10.4217 4.66666 10.3333 4.66666H4.33333C4.24492 4.66666 4.16014 4.63155 4.09763 4.56903C4.03511 4.50652 3.99999 4.42174 3.99999 4.33333C3.99999 4.24493 4.03511 4.16014 4.09763 4.09763C4.16014 4.03512 4.24492 4 4.33333 4ZM4.33333 6H10.3333C10.4217 6 10.5065 6.03512 10.569 6.09763C10.6315 6.16014 10.6667 6.24493 10.6667 6.33333C10.6667 6.42174 10.6315 6.50652 10.569 6.56903C10.5065 6.63155 10.4217 6.66666 10.3333 6.66666H4.33333C4.24492 6.66666 4.16014 6.63155 4.09763 6.56903C4.03511 6.50652 3.99999 6.42174 3.99999 6.33333C3.99999 6.24493 4.03511 6.16014 4.09763 6.09763C4.16014 6.03512 4.24492 6 4.33333 6ZM4.33333 8H10.3333C10.4217 8 10.5065 8.03512 10.569 8.09763C10.6315 8.16014 10.6667 8.24492 10.6667 8.33333C10.6667 8.42174 10.6315 8.50652 10.569 8.56903C10.5065 8.63154 10.4217 8.66666 10.3333 8.66666H4.33333C4.24492 8.66666 4.16014 8.63154 4.09763 8.56903C4.03511 8.50652 3.99999 8.42174 3.99999 8.33333C3.99999 8.24492 4.03511 8.16014 4.09763 8.09763C4.16014 8.03512 4.24492 8 4.33333 8ZM4.33333 10H8.66666C8.75507 10 8.83985 10.0351 8.90236 10.0976C8.96488 10.1601 8.99999 10.2449 8.99999 10.3333C8.99999 10.4217 8.96488 10.5065 8.90236 10.569C8.83985 10.6315 8.75507 10.6667 8.66666 10.6667H4.33333C4.24492 10.6667 4.16014 10.6315 4.09763 10.569C4.03511 10.5065 3.99999 10.4217 3.99999 10.3333C3.99999 10.2449 4.03511 10.1601 4.09763 10.0976C4.16014 10.0351 4.24492 10 4.33333 10Z" fill="white"/>
</svg>
