<svg width="40" height="40" viewBox="0 0 40 40" fill="none" xmlns="http://www.w3.org/2000/svg">
<path d="M38.5111 40H1.43433C1.05612 40 0.693408 39.8595 0.425975 39.6095C0.158543 39.3594 0.00830078 39.0203 0.00830078 38.6667V1.33333C0.00830078 0.979711 0.158543 0.640573 0.425975 0.390524C0.693408 0.140476 1.05612 0 1.43433 0H38.5111C38.8893 0 39.252 0.140476 39.5195 0.390524C39.7869 0.640573 39.9372 0.979711 39.9372 1.33333V38.6667C39.9372 39.0203 39.7869 39.3594 39.5195 39.6095C39.252 39.8595 38.8893 40 38.5111 40ZM2.86036 37.3333H37.0851V2.66667H2.86036V37.3333Z" fill="#BDBFD2"/>
<path d="M1.4343 32C1.24662 32.001 1.06058 31.9673 0.886837 31.901C0.713093 31.8346 0.555066 31.7369 0.421817 31.6133C0.288158 31.4893 0.182069 31.3419 0.109672 31.1794C0.0372739 31.0169 0 30.8426 0 30.6666C0 30.4906 0.0372739 30.3163 0.109672 30.1539C0.182069 29.9914 0.288158 29.8439 0.421817 29.72L7.26676 23.32C7.98657 22.6348 8.94599 22.2147 9.96973 22.1364C10.9935 22.058 12.0132 22.3267 12.8425 22.8933L18.8889 26.8933C19.1643 27.0768 19.5006 27.1627 19.8375 27.1359C20.1745 27.109 20.4903 26.9711 20.7285 26.7466L26.9888 20.9066C27.7909 20.1576 28.8783 19.7368 30.012 19.7368C31.1457 19.7368 32.233 20.1576 33.0351 20.9066L39.5806 27.0133C39.7136 27.1376 39.819 27.2852 39.891 27.4476C39.963 27.6101 40 27.7842 40 27.96C40 28.1358 39.963 28.3099 39.891 28.4723C39.819 28.6347 39.7136 28.7823 39.5806 28.9066C39.4477 29.0309 39.2898 29.1296 39.1161 29.1968C38.9424 29.2641 38.7562 29.2988 38.5681 29.2988C38.3801 29.2988 38.1939 29.2641 38.0202 29.1968C37.8465 29.1296 37.6886 29.0309 37.5557 28.9066L31.0244 22.7866C30.8919 22.6617 30.7341 22.5625 30.5604 22.4948C30.3866 22.4271 30.2002 22.3922 30.012 22.3922C29.8237 22.3922 29.6373 22.4271 29.4635 22.4948C29.2898 22.5625 29.132 22.6617 28.9995 22.7866L22.7535 28.64C22.037 29.3112 21.0887 29.7226 20.0779 29.8008C19.067 29.8789 18.0594 29.6187 17.2347 29.0666L11.1883 25.0666C10.9129 24.8832 10.5767 24.7972 10.2397 24.824C9.90279 24.8509 9.587 24.9889 9.34877 25.2133L2.50382 31.6133C2.36388 31.7434 2.19656 31.845 2.01246 31.9116C1.82836 31.9781 1.63148 32.0082 1.4343 32Z" fill="#BDBFD2"/>
<path d="M21.3989 17.3332C20.2708 17.3332 19.1679 17.0204 18.2299 16.4343C17.2919 15.8483 16.5608 15.0154 16.129 14.0408C15.6973 13.0663 15.5843 11.9939 15.8044 10.9594C16.0245 9.92479 16.5678 8.97448 17.3655 8.2286C18.1633 7.48272 19.1796 6.97477 20.2861 6.76898C21.3926 6.5632 22.5395 6.66881 23.5818 7.07248C24.6241 7.47615 25.515 8.15974 26.1418 9.0368C26.7685 9.91386 27.1031 10.945 27.1031 11.9998C27.1031 13.4143 26.5021 14.7709 25.4324 15.7711C24.3626 16.7713 22.9118 17.3332 21.3989 17.3332ZM21.3989 9.33317C20.8349 9.33317 20.2834 9.48957 19.8144 9.78259C19.3454 10.0756 18.9799 10.4921 18.764 10.9794C18.5481 11.4666 18.4916 12.0028 18.6017 12.5201C18.7117 13.0374 18.9834 13.5125 19.3822 13.8855C19.7811 14.2584 20.2893 14.5124 20.8425 14.6153C21.3958 14.7182 21.9692 14.6654 22.4904 14.4635C23.0115 14.2617 23.457 13.9199 23.7704 13.4814C24.0837 13.0428 24.251 12.5273 24.251 11.9998C24.251 11.2926 23.9505 10.6143 23.4157 10.1142C22.8808 9.61412 22.1554 9.33317 21.3989 9.33317Z" fill="#BDBFD2"/>
</svg>
