<svg width="22" height="23" viewBox="0 0 22 23" fill="none" xmlns="http://www.w3.org/2000/svg">
<path d="M1.01681e-06 12C-0.000845535 10.0308 0.526923 8.09754 1.52821 6.40195C2.5295 4.70636 3.96759 3.31064 5.69237 2.36049C7.41714 1.41034 9.36534 0.940611 11.3336 1.00033C13.3019 1.06005 15.218 1.64703 16.882 2.7L18.293 1.29C18.433 1.15001 18.6115 1.05474 18.8057 1.01627C18.9999 0.977795 19.2012 0.99785 19.384 1.07389C19.5669 1.14993 19.723 1.27854 19.8327 1.44341C19.9423 1.60828 20.0006 1.80199 20 2V6C20 6.26522 19.8946 6.51957 19.7071 6.70711C19.5196 6.89464 19.2652 7 19 7H15C14.8023 6.99996 14.609 6.94129 14.4445 6.8314C14.2801 6.72152 14.152 6.56535 14.0763 6.38265C14.0007 6.19995 13.9809 5.99892 14.0194 5.80497C14.058 5.61102 14.1532 5.43285 14.293 5.293L15.421 4.165C14.0522 3.39101 12.5045 2.98941 10.932 3.00024C9.35963 3.01107 7.81754 3.43396 6.45956 4.22673C5.10158 5.0195 3.97517 6.15445 3.19268 7.51838C2.41019 8.88231 1.99896 10.4276 2 12C2 12.2652 1.89464 12.5196 1.70711 12.7071C1.51957 12.8946 1.26522 13 1 13C0.734785 13 0.480431 12.8946 0.292894 12.7071C0.105358 12.5196 1.01681e-06 12.2652 1.01681e-06 12ZM21 11C20.7348 11 20.4804 11.1054 20.2929 11.2929C20.1054 11.4804 20 11.7348 20 12C19.9974 14.3861 19.0483 16.6738 17.361 18.361C15.6738 20.0483 13.3861 20.9974 11 21C9.45028 21.0028 7.92669 20.6009 6.58 19.834L7.707 18.707C7.84681 18.5671 7.94202 18.389 7.98058 18.195C8.01915 18.0011 7.99935 17.8 7.92368 17.6173C7.84801 17.4346 7.71987 17.2785 7.55546 17.1686C7.39105 17.0587 7.19775 17 7 17H3C2.73478 17 2.48043 17.1054 2.29289 17.2929C2.10536 17.4804 2 17.7348 2 18V22C1.99995 22.1978 2.05854 22.3911 2.16837 22.5556C2.27819 22.72 2.43432 22.8483 2.617 22.924C2.73833 22.9746 2.86855 23.0004 3 23C3.2652 22.9999 3.51951 22.8946 3.707 22.707L5.118 21.3C6.87577 22.4175 8.91711 23.0075 11 23C13.9163 22.9966 16.7122 21.8365 18.7744 19.7744C20.8365 17.7122 21.9966 14.9163 22 12C22 11.7348 21.8946 11.4804 21.7071 11.2929C21.5196 11.1054 21.2652 11 21 11Z" fill="#222525"/>
</svg>
