<svg width="20" height="20" viewBox="0 0 20 20" fill="none" xmlns="http://www.w3.org/2000/svg">
<g clip-path="url(#clip0_985_557)">
<path d="M5 0.75H4.5V1.25V6.875C4.5 7.49614 5.00386 8 5.625 8H14.375C14.9961 8 15.5 7.49614 15.5 6.875V1.25V0.75H15H5ZM4.25 1.25V0.75H3.75H2.5C1.53324 0.75 0.75 1.53324 0.75 2.5V17.5C0.75 18.4668 1.53324 19.25 2.5 19.25H17.5C18.4668 19.25 19.25 18.4668 19.25 17.5V2.5C19.25 1.53402 18.4669 0.75 17.5 0.75H16.25H15.75V1.25V7.5C15.75 7.91402 15.4143 8.25 15 8.25H5C4.58568 8.25 4.25 7.91402 4.25 7.5V1.25ZM12 5.625C12 5.69386 11.9439 5.75 11.875 5.75C11.8061 5.75 11.75 5.69386 11.75 5.625V3.125C11.75 3.05614 11.8061 3 11.875 3C11.9439 3 12 3.05614 12 3.125V5.625ZM2.5 0.5H17.5C18.6045 0.5 19.5 1.39552 19.5 2.5V17.5C19.5 18.6045 18.6045 19.5 17.5 19.5H2.5C1.39552 19.5 0.5 18.6045 0.5 17.5V2.5C0.5 1.39552 1.39552 0.5 2.5 0.5Z" fill="#222525" stroke="#222525"/>
</g>
<defs>
<clipPath id="clip0_985_557">
<rect width="20" height="20" fill="white"/>
</clipPath>
</defs>
</svg>
