<svg width="20" height="21" viewBox="0 0 20 21" fill="none" xmlns="http://www.w3.org/2000/svg">
<path d="M14.1667 15.4894V20.49H17.5C18.8807 20.49 20 19.3706 20 17.9897V10.3879C20.0002 9.95496 19.832 9.53889 19.5308 9.2278L12.4492 1.571C11.1996 0.21888 9.09074 0.135862 7.73879 1.38555C7.67457 1.44493 7.6127 1.50677 7.55336 1.571L0.48418 9.2253C0.173945 9.53768 -0.000117128 9.96015 5.9134e-08 10.4004V17.9897C5.9134e-08 19.3706 1.1193 20.49 2.5 20.49H5.83332V15.4894C5.84891 13.2168 7.68355 11.3609 9.89867 11.3075C12.1879 11.2522 14.1492 13.1397 14.1667 15.4894Z" fill="#B0B1BA"/>
<path d="M10 12.9891C8.6193 12.9891 7.5 14.1086 7.5 15.4894V20.4901H12.5V15.4894C12.5 14.1086 11.3807 12.9891 10 12.9891Z" fill="#B0B1BA"/>
</svg>
