<svg width="22" height="22" viewBox="0 0 22 22" fill="none" xmlns="http://www.w3.org/2000/svg">
<path fill-rule="evenodd" clip-rule="evenodd" d="M6.96825 1.12907C7.2842 0.461569 7.96276 0 8.74886 0H13.2511C14.0372 0 14.7158 0.461568 15.0318 1.12907C15.8011 1.13468 16.4008 1.17008 16.936 1.37977C17.5756 1.63031 18.1318 2.05621 18.5412 2.60875C18.9542 3.16618 19.1481 3.88067 19.415 4.86407C19.4286 4.91451 19.4425 4.96565 19.4566 5.01752L20.1217 7.46227C20.5578 7.68614 20.9395 7.98761 21.2578 8.39633C21.9579 9.2951 22.0819 10.3656 21.9574 11.5935C21.8365 12.7851 21.4623 14.2855 20.9938 16.1637L20.9641 16.2828C20.6679 17.4705 20.4273 18.4349 20.1413 19.1876C19.843 19.9722 19.4644 20.6154 18.8401 21.1039C18.2159 21.5925 17.5015 21.8047 16.6697 21.9044C15.8719 22 14.8802 22 13.6588 22H8.34123C7.1198 22 6.12809 22 5.33027 21.9044C4.49846 21.8047 3.78413 21.5925 3.15987 21.1039C2.5356 20.6154 2.15696 19.9722 1.85871 19.1876C1.57266 18.4349 1.33215 17.4706 1.03592 16.2828L1.00621 16.1637C0.537724 14.2855 0.163478 12.7851 0.0426257 11.5935C-0.0819188 10.3656 0.0420667 9.2951 0.742165 8.39633C1.06054 7.98761 1.44218 7.68614 1.87832 7.46227L2.54337 5.01752C2.55748 4.96565 2.57135 4.91451 2.58504 4.86407C2.85189 3.88067 3.04576 3.16618 3.45877 2.60875C3.86816 2.05621 4.42443 1.63031 5.06397 1.37977C5.59923 1.17008 6.19887 1.13468 6.96825 1.12907ZM6.96983 2.82298C6.22489 2.83053 5.92597 2.85905 5.67856 2.95597C5.3342 3.09088 5.03467 3.32021 4.81423 3.61773C4.616 3.88527 4.49969 4.25907 4.17226 5.46271L3.77428 6.9257C4.94239 6.76919 6.45044 6.76921 8.32408 6.76923H13.6759C15.5496 6.76921 17.0576 6.76919 18.2257 6.9257L17.8277 5.46271C17.5003 4.25907 17.384 3.88527 17.1858 3.61773C16.9653 3.32021 16.6658 3.09088 16.3214 2.95597C16.074 2.85905 15.7751 2.83053 15.0302 2.82298C14.7135 3.48869 14.0359 3.94872 13.2511 3.94872H8.74886C7.96407 3.94872 7.28647 3.48869 6.96983 2.82298ZM8.74886 1.69231C8.59345 1.69231 8.46746 1.81859 8.46746 1.97436C8.46746 2.13013 8.59345 2.25641 8.74886 2.25641H13.2511C13.4066 2.25641 13.5325 2.13013 13.5325 1.97436C13.5325 1.81859 13.4066 1.69231 13.2511 1.69231H8.74886ZM3.90872 8.61553C2.88314 8.76424 2.38679 9.03488 2.07294 9.4378C1.75909 9.84071 1.61752 10.389 1.72233 11.4224C1.82937 12.4778 2.1718 13.8594 2.6611 15.8212C2.97318 17.0724 3.19052 17.938 3.43646 18.5851C3.6743 19.2109 3.9072 19.5418 4.1989 19.7701C4.49061 19.9984 4.86736 20.1446 5.53073 20.2241C6.21665 20.3063 7.10718 20.3077 8.39392 20.3077H13.6061C14.8928 20.3077 15.7834 20.3063 16.4693 20.2241C17.1326 20.1446 17.5094 19.9984 17.8011 19.7701C18.0928 19.5418 18.3257 19.2109 18.5635 18.5851C18.8095 17.938 19.0268 17.0724 19.3389 15.8212C19.8282 13.8594 20.1706 12.4778 20.2777 11.4224C20.3825 10.389 20.2409 9.84071 19.9271 9.4378C19.6132 9.03488 19.1169 8.76424 18.0913 8.61553C17.0438 8.46365 15.6235 8.46154 13.6061 8.46154H8.39392C6.3765 8.46154 4.95622 8.46365 3.90872 8.61553Z" fill="#2B2C34"/>
</svg>
