<svg width="22" height="23" viewBox="0 0 22 23" fill="none" xmlns="http://www.w3.org/2000/svg">
<path fill-rule="evenodd" clip-rule="evenodd" d="M6.96825 1.62907C7.2842 0.961569 7.96276 0.5 8.74886 0.5H13.2511C14.0372 0.5 14.7158 0.961568 15.0318 1.62907C15.8011 1.63468 16.4008 1.67008 16.936 1.87977C17.5756 2.13031 18.1318 2.55621 18.5412 3.10875C18.9542 3.66618 19.1481 4.38067 19.415 5.36407C19.4286 5.41451 19.4425 5.46565 19.4566 5.51752L20.1217 7.96227C20.5578 8.18614 20.9395 8.48761 21.2578 8.89633C21.9579 9.7951 22.0819 10.8656 21.9574 12.0935C21.8365 13.2851 21.4623 14.7855 20.9938 16.6637L20.9641 16.7828C20.6679 17.9705 20.4273 18.9349 20.1413 19.6876C19.843 20.4722 19.4644 21.1154 18.8401 21.6039C18.2159 22.0925 17.5015 22.3047 16.6697 22.4044C15.8719 22.5 14.8802 22.5 13.6588 22.5H8.34123C7.1198 22.5 6.12809 22.5 5.33027 22.4044C4.49846 22.3047 3.78413 22.0925 3.15987 21.6039C2.5356 21.1154 2.15696 20.4722 1.85871 19.6876C1.57266 18.9349 1.33215 17.9706 1.03592 16.7828L1.00621 16.6637C0.537724 14.7855 0.163478 13.2851 0.0426257 12.0935C-0.0819188 10.8656 0.0420667 9.7951 0.742165 8.89633C1.06054 8.48761 1.44218 8.18614 1.87832 7.96227L2.54337 5.51752C2.55748 5.46565 2.57135 5.41451 2.58504 5.36407C2.85189 4.38067 3.04576 3.66618 3.45877 3.10875C3.86816 2.55621 4.42443 2.13031 5.06397 1.87977C5.59923 1.67008 6.19887 1.63468 6.96825 1.62907ZM6.96983 3.32298C6.22489 3.33053 5.92597 3.35905 5.67856 3.45597C5.3342 3.59088 5.03467 3.82021 4.81423 4.11773C4.616 4.38527 4.49969 4.75907 4.17226 5.96271L3.77428 7.4257C4.94239 7.26919 6.45044 7.26921 8.32408 7.26923H13.6759C15.5496 7.26921 17.0576 7.26919 18.2257 7.4257L17.8277 5.96271C17.5003 4.75907 17.384 4.38527 17.1858 4.11773C16.9653 3.82021 16.6658 3.59088 16.3214 3.45597C16.074 3.35905 15.7751 3.33053 15.0302 3.32298C14.7135 3.98869 14.0359 4.44872 13.2511 4.44872H8.74886C7.96407 4.44872 7.28647 3.98869 6.96983 3.32298ZM8.74886 2.19231C8.59345 2.19231 8.46746 2.31859 8.46746 2.47436C8.46746 2.63013 8.59345 2.75641 8.74886 2.75641H13.2511C13.4066 2.75641 13.5325 2.63013 13.5325 2.47436C13.5325 2.31859 13.4066 2.19231 13.2511 2.19231H8.74886ZM3.90872 9.11553C2.88314 9.26424 2.38679 9.53488 2.07294 9.9378C1.75909 10.3407 1.61752 10.889 1.72233 11.9224C1.82937 12.9778 2.1718 14.3594 2.6611 16.3212C2.97318 17.5724 3.19052 18.438 3.43646 19.0851C3.6743 19.7109 3.9072 20.0418 4.1989 20.2701C4.49061 20.4984 4.86736 20.6446 5.53073 20.7241C6.21665 20.8063 7.10718 20.8077 8.39392 20.8077H13.6061C14.8928 20.8077 15.7834 20.8063 16.4693 20.7241C17.1326 20.6446 17.5094 20.4984 17.8011 20.2701C18.0928 20.0418 18.3257 19.7109 18.5635 19.0851C18.8095 18.438 19.0268 17.5724 19.3389 16.3212C19.8282 14.3594 20.1706 12.9778 20.2777 11.9224C20.3825 10.889 20.2409 10.3407 19.9271 9.9378C19.6132 9.53488 19.1169 9.26424 18.0913 9.11553C17.0438 8.96365 15.6235 8.96154 13.6061 8.96154H8.39392C6.3765 8.96154 4.95622 8.96365 3.90872 9.11553Z" fill="#2B2C34"/>
<path d="M13 14.5L9 14.5" stroke="#2B2C34" stroke-width="2" stroke-linecap="round"/>
</svg>
