<svg width="101" height="31" viewBox="0 0 101 31" fill="none" xmlns="http://www.w3.org/2000/svg">
<g clip-path="url(#clip0_34_49)">
<path d="M97.8438 0.387451H3.15625C1.63099 0.387451 0.394531 1.60188 0.394531 3.09995V27.9C0.394531 29.398 1.63099 30.6124 3.15625 30.6124H97.8438C99.369 30.6124 100.605 29.398 100.605 27.9V3.09995C100.605 1.60188 99.369 0.387451 97.8438 0.387451Z" fill="#221F1F" stroke="#4D4B4B"/>
<path d="M8.98871 6.47266C8.78197 6.68733 8.65967 7.02058 8.65967 7.45303V22.8786C8.65967 23.3111 8.78197 23.6435 8.98871 23.8582L17.8396 15.165L8.98871 6.47266Z" fill="#00E3FF"/>
<path d="M9.04124 6.42236L8.98865 6.47274C9.00618 6.45491 9.03088 6.44716 9.04921 6.43011L9.04124 6.42236Z" fill="#00E3FF"/>
<path d="M9.04204 23.9087L9.05001 23.9009C9.03088 23.8846 9.00618 23.8769 8.98865 23.8583L9.04204 23.9087Z" fill="#00E3FF"/>
<path d="M24.3139 14.1591L20.8388 12.2201L17.8396 15.1651L20.838 18.1116L24.3131 16.1734C25.3065 15.6192 25.3065 14.7133 24.3139 14.1591Z" fill="#FFE000"/>
<path d="M17.8396 15.1652L8.98865 23.8583C9.00601 23.8769 9.03047 23.8847 9.04941 23.901C9.38081 24.1924 9.88818 24.2226 10.4642 23.901L20.7717 18.1497L20.8388 18.1117L17.8396 15.1652Z" fill="#FF3A44"/>
<path d="M17.8396 15.1658L20.838 12.22L20.8388 12.2192L10.4642 6.42998C9.88818 6.10835 9.37923 6.13858 9.04862 6.42998C9.03047 6.44703 9.00601 6.45477 8.98865 6.47259L17.8396 15.1658Z" fill="#00F076"/>
<path d="M44.1898 17.2306C42.5193 17.2306 41.1582 18.4776 41.1582 20.1973C41.1582 21.9054 42.5193 23.164 44.1898 23.164C45.8602 23.164 47.2214 21.9054 47.2214 20.1973C47.2214 18.4783 45.8602 17.2306 44.1898 17.2306ZM44.1898 21.9953C43.2745 21.9953 42.4854 21.2536 42.4854 20.1973C42.4854 19.1301 43.2745 18.3993 44.1898 18.3993C45.1051 18.3993 45.8942 19.1293 45.8942 20.1973C45.8949 21.2536 45.1051 21.9953 44.1898 21.9953Z" fill="white"/>
<path d="M50.8038 17.2306C49.1334 17.2306 47.7722 18.4776 47.7722 20.1973C47.7722 21.9054 49.1334 23.164 50.8038 23.164C52.4742 23.164 53.8354 21.9054 53.8354 20.1973C53.8362 18.4783 52.4742 17.2306 50.8038 17.2306ZM50.8038 21.9953C49.8885 21.9953 49.0994 21.2536 49.0994 20.1973C49.0994 19.1301 49.8893 18.3993 50.8038 18.3993C51.7183 18.3993 52.5082 19.1293 52.5082 20.1973C52.509 21.2536 51.7191 21.9953 50.8038 21.9953Z" fill="white"/>
<path d="M79.6834 14.2646H78.3585V22.9842H79.6834V14.2646Z" fill="white"/>
<path d="M36.3221 18.1419V19.3998H39.3884C39.2969 20.1073 39.057 20.6243 38.6901 20.9839C38.2443 21.4217 37.546 21.9053 36.3221 21.9053C34.4347 21.9053 32.9584 20.4111 32.9584 18.5566C32.9584 16.702 34.4339 15.2078 36.3221 15.2078C37.3408 15.2078 38.0841 15.6015 38.6333 16.1068L39.5368 15.2194C38.7706 14.5002 37.7519 13.95 36.3221 13.95C33.7364 13.95 31.5625 16.0177 31.5625 18.5573C31.5625 21.097 33.7364 23.1647 36.3221 23.1647C37.718 23.1647 38.7706 22.7152 39.5944 21.8728C40.441 21.0412 40.7046 19.8725 40.7046 18.9286C40.7046 18.6364 40.6817 18.3667 40.6359 18.1419H36.3221Z" fill="white"/>
<path d="M82.9383 17.2151C81.9788 17.2151 80.9854 17.6305 80.5743 18.5504L81.7508 19.0325C82.0017 18.5504 82.4704 18.3931 82.9612 18.3931C83.6461 18.3931 84.3429 18.7969 84.3547 19.5145V19.6044C84.1148 19.4696 83.6011 19.2681 82.9731 19.2681C81.705 19.2681 80.4149 19.9524 80.4149 21.2311C80.4149 22.3975 81.4541 23.1493 82.6196 23.1493C83.5104 23.1493 84.0012 22.7563 84.3097 22.2968H84.3555V22.9695H85.6346V19.6261C85.6338 18.0784 84.4573 17.2151 82.9383 17.2151ZM82.7782 21.9937C82.3442 21.9937 81.739 21.7806 81.739 21.2536C81.739 20.5809 82.4925 20.3228 83.1435 20.3228C83.7258 20.3228 84.0004 20.4461 84.3539 20.6142C84.2521 21.4218 83.5435 21.9937 82.7782 21.9937Z" fill="white"/>
<path d="M88.775 21.1862H88.7292L87.1535 17.4058H85.7261L88.0901 22.6897L86.7424 25.6285H88.124L91.7679 17.4058H90.294L88.775 21.1862Z" fill="white"/>
<path d="M58.9234 17.8939H58.8768C58.5793 17.546 58.0073 17.2313 57.2869 17.2313C55.7766 17.2313 54.3926 18.5349 54.3926 20.2089C54.3926 21.872 55.7766 23.1639 57.2869 23.1639C58.0073 23.1639 58.5793 22.8493 58.8768 22.4897H58.9226V22.9167C58.9226 24.0513 58.3047 24.6581 57.3097 24.6581C56.4978 24.6581 55.9944 24.0854 55.7884 23.6018L54.6332 24.0738C54.9646 24.8604 55.846 25.8268 57.3105 25.8268C58.8666 25.8268 60.1819 24.9278 60.1819 22.7369V17.4103H58.9234V17.8939ZM57.4005 21.9952C56.4852 21.9952 55.719 21.2427 55.719 20.2089C55.719 19.1642 56.486 18.4 57.4005 18.4C58.304 18.4 59.0133 19.1642 59.0133 20.2089C59.0141 21.2427 58.3048 21.9952 57.4005 21.9952Z" fill="white"/>
<path d="M74.7149 14.2646H71.5397V22.9842H72.8645V19.6803H74.7149C76.1841 19.6803 77.6273 18.6356 77.6273 16.9725C77.6273 15.3093 76.1841 14.2646 74.7149 14.2646ZM74.7496 18.4667H72.8645V15.4775H74.7488C75.7399 15.4775 76.3025 16.2835 76.3025 16.9717C76.3025 17.6483 75.7399 18.4667 74.7496 18.4667Z" fill="white"/>
<path d="M62.4235 14.2646H61.0963V22.9842H62.4235V14.2646Z" fill="white"/>
<path d="M68.4986 19.1185C68.2469 18.4559 67.4807 17.2306 65.9128 17.2306C64.3568 17.2306 63.0643 18.4326 63.0643 20.1973C63.0643 21.8604 64.3458 23.164 66.062 23.164C67.446 23.164 68.2469 22.3324 68.5791 21.8496L67.5494 21.1753C67.2061 21.6698 66.7374 21.9953 66.062 21.9953C65.3865 21.9953 64.9068 21.6915 64.5975 21.0963L68.6359 19.4556L68.4986 19.1185ZM64.3797 20.1074C64.345 18.9612 65.2832 18.3768 65.9586 18.3768C66.4849 18.3768 66.9315 18.6349 67.0799 19.0061L64.3797 20.1074Z" fill="white"/>
<path d="M31.833 10.215L32.4745 10.0515C32.523 10.2945 32.6524 10.5374 32.8628 10.7804C33.0755 11.0233 33.3564 11.1448 33.7055 11.1448C34.0615 11.1448 34.3423 11.0551 34.5481 10.8757C34.7538 10.6964 34.8567 10.4795 34.8567 10.2252C34.8567 9.95053 34.748 9.73252 34.5307 9.57132C34.3134 9.40787 34.0175 9.32611 33.643 9.32611H33.3205V8.75052C33.6303 8.75052 33.8673 8.73347 34.0314 8.69944C34.1955 8.6631 34.34 8.57343 34.4648 8.43036C34.592 8.28505 34.6556 8.12044 34.6556 7.93653C34.6556 7.71858 34.5689 7.52899 34.3955 7.36779C34.2244 7.20658 33.9921 7.12598 33.6985 7.12598C33.4419 7.12598 33.2223 7.18956 33.0397 7.3167C32.8594 7.44158 32.7346 7.60846 32.6652 7.81734C32.5959 8.02395 32.5612 8.17833 32.5612 8.28056L31.9162 8.13749C32.0757 7.07717 32.6721 6.547 33.7055 6.547C34.2025 6.547 34.5966 6.68323 34.8879 6.95569C35.1792 7.22588 35.3248 7.54262 35.3248 7.90592C35.3248 8.37139 35.1006 8.73238 34.6521 8.98891C34.9111 9.05935 35.1272 9.2035 35.3005 9.42143C35.4763 9.63719 35.5641 9.89597 35.5641 10.198C35.5641 10.6271 35.3942 10.987 35.0544 11.2776C34.7169 11.5659 34.2684 11.7102 33.7089 11.7102C32.7473 11.7102 32.122 11.2118 31.833 10.215ZM38.7265 11.1788C38.4953 11.3718 38.2722 11.508 38.0573 11.5876C37.8446 11.667 37.6157 11.7068 37.3706 11.7068C36.9661 11.7068 36.6552 11.6103 36.4379 11.4172C36.2206 11.222 36.1119 10.9734 36.1119 10.6714C36.1119 10.4943 36.1524 10.3331 36.2333 10.1878C36.3165 10.0402 36.424 9.92208 36.5558 9.83358C36.6898 9.745 36.8402 9.67804 37.0066 9.63262C37.1291 9.60085 37.3141 9.57016 37.5614 9.54063C38.0653 9.48165 38.4364 9.41128 38.6745 9.32952C38.6768 9.24551 38.678 9.19211 38.678 9.1694C38.678 8.9197 38.619 8.7437 38.5011 8.64155C38.3416 8.50306 38.1046 8.43377 37.7903 8.43377C37.4967 8.43377 37.2794 8.48485 37.1383 8.58707C36.9996 8.68697 36.8968 8.86522 36.8297 9.12174L36.2195 9.04006C36.275 8.78345 36.3663 8.57684 36.4934 8.42013C36.6206 8.26126 36.8043 8.13974 37.0448 8.05573C37.2851 7.96947 37.5637 7.9263 37.8804 7.9263C38.1948 7.9263 38.4502 7.96265 38.6467 8.03535C38.8433 8.10796 38.9878 8.19996 39.0802 8.31117C39.1726 8.42013 39.2374 8.5587 39.2743 8.72672C39.2952 8.83112 39.3056 9.0196 39.3056 9.29201V10.1094C39.3056 10.6793 39.3183 11.0403 39.3437 11.1925C39.3715 11.3423 39.4247 11.4865 39.5032 11.625H38.8513C38.7866 11.4978 38.745 11.3491 38.7265 11.1788ZM38.6745 9.80971C38.448 9.90054 38.1081 9.97773 37.655 10.0413C37.3984 10.0776 37.2169 10.1185 37.1106 10.1639C37.0043 10.2093 36.9222 10.2763 36.8644 10.3648C36.8066 10.4512 36.7777 10.5477 36.7777 10.6544C36.7777 10.8178 36.8402 10.9541 36.965 11.063C37.0921 11.172 37.2771 11.2265 37.5198 11.2265C37.7602 11.2265 37.974 11.1754 38.1613 11.0733C38.3485 10.9688 38.4861 10.8269 38.5739 10.6476C38.641 10.5091 38.6745 10.3047 38.6745 10.0345V9.80971ZM40.28 8.00807H41.719C42.0727 8.00807 42.335 8.03759 42.5061 8.09665C42.6795 8.15338 42.8275 8.25893 42.95 8.41339C43.0748 8.56777 43.1372 8.75276 43.1372 8.96852C43.1372 9.14104 43.1003 9.29201 43.0263 9.42143C42.9546 9.54861 42.846 9.65533 42.7003 9.74159C42.8737 9.79839 43.017 9.90511 43.1303 10.0617C43.2458 10.2161 43.3037 10.4 43.3037 10.6135C43.2806 10.9563 43.1557 11.2106 42.9292 11.3764C42.7027 11.5421 42.3732 11.625 41.9409 11.625H40.28V8.00807ZM40.9042 9.53048H41.5699C41.8357 9.53048 42.0184 9.51684 42.1178 9.48956C42.2171 9.46235 42.3062 9.40787 42.3847 9.32611C42.4633 9.2421 42.5026 9.1422 42.5026 9.02642C42.5026 8.83569 42.4334 8.70285 42.2946 8.62791C42.1582 8.55297 41.9236 8.51554 41.5907 8.51554H40.9042V9.53048ZM40.9042 11.1209H41.726C42.0796 11.1209 42.3223 11.0812 42.4541 11.0017C42.5859 10.92 42.6552 10.7804 42.6622 10.5828C42.6622 10.4671 42.6241 10.3603 42.5478 10.2627C42.4715 10.1628 42.372 10.1003 42.2495 10.0754C42.127 10.0481 41.9305 10.0345 41.6601 10.0345H40.9042V11.1209ZM46.369 11.1788C46.1378 11.3718 45.9148 11.508 45.6998 11.5876C45.4871 11.667 45.2582 11.7068 45.0132 11.7068C44.6086 11.7068 44.2977 11.6103 44.0804 11.4172C43.8631 11.222 43.7545 10.9734 43.7545 10.6714C43.7545 10.4943 43.7949 10.3331 43.8758 10.1878C43.959 10.0402 44.0666 9.92208 44.1983 9.83358C44.3324 9.745 44.4826 9.67804 44.6491 9.63262C44.7716 9.60085 44.9565 9.57016 45.2039 9.54063C45.7079 9.48165 46.0789 9.41128 46.317 9.32952C46.3193 9.24551 46.3204 9.19211 46.3204 9.1694C46.3204 8.9197 46.2615 8.7437 46.1436 8.64155C45.9841 8.50306 45.7472 8.43377 45.4327 8.43377C45.1392 8.43377 44.9219 8.48485 44.7809 8.58707C44.6422 8.68697 44.5393 8.86522 44.4722 9.12174L43.8619 9.04006C43.9174 8.78345 44.0087 8.57684 44.1359 8.42013C44.263 8.26126 44.4468 8.13974 44.6872 8.05573C44.9277 7.96947 45.2062 7.9263 45.5229 7.9263C45.8373 7.9263 46.0928 7.96265 46.2893 8.03535C46.4857 8.10796 46.6302 8.19996 46.7227 8.31117C46.8152 8.42013 46.8799 8.5587 46.9169 8.72672C46.9377 8.83112 46.9481 9.0196 46.9481 9.29201V10.1094C46.9481 10.6793 46.9608 11.0403 46.9862 11.1925C47.0139 11.3423 47.0671 11.4865 47.1457 11.625H46.4939C46.4291 11.4978 46.3875 11.3491 46.369 11.1788ZM46.317 9.80971C46.0904 9.90054 45.7507 9.97773 45.2975 10.0413C45.0409 10.0776 44.8595 10.1185 44.7531 10.1639C44.6468 10.2093 44.5647 10.2763 44.5069 10.3648C44.4491 10.4512 44.4202 10.5477 44.4202 10.6544C44.4202 10.8178 44.4826 10.9541 44.6075 11.063C44.7347 11.172 44.9195 11.2265 45.1623 11.2265C45.4027 11.2265 45.6165 11.1754 45.8038 11.0733C45.991 10.9688 46.1286 10.8269 46.2164 10.6476C46.2834 10.5091 46.317 10.3047 46.317 10.0345V9.80971ZM47.9225 8.00807H48.5466V9.51343H50.2769V8.00807H50.9011V11.625H50.2769V10.0209H48.5466V11.625H47.9225V8.00807ZM51.5079 8.00807H54.5004V8.51554H53.3145V11.625H52.6938V8.51554H51.5079V8.00807ZM57.4166 11.1788C57.1855 11.3718 56.9624 11.508 56.7474 11.5876C56.5347 11.667 56.3059 11.7068 56.0609 11.7068C55.6563 11.7068 55.3453 11.6103 55.128 11.4172C54.9107 11.222 54.8021 10.9734 54.8021 10.6714C54.8021 10.4943 54.8425 10.3331 54.9235 10.1878C55.0067 10.0402 55.1142 9.92208 55.2459 9.83358C55.3801 9.745 55.5303 9.67804 55.6967 9.63262C55.8192 9.60085 56.0042 9.57016 56.2516 9.54063C56.7555 9.48165 57.1265 9.41128 57.3646 9.32952C57.3669 9.24551 57.3681 9.19211 57.3681 9.1694C57.3681 8.9197 57.3092 8.7437 57.1913 8.64155C57.0317 8.50306 56.7948 8.43377 56.4804 8.43377C56.1868 8.43377 55.9695 8.48485 55.8285 8.58707C55.6898 8.68697 55.5869 8.86522 55.5199 9.12174L54.9096 9.04006C54.9651 8.78345 55.0564 8.57684 55.1835 8.42013C55.3107 8.26126 55.4945 8.13974 55.7349 8.05573C55.9753 7.96947 56.2539 7.9263 56.5706 7.9263C56.885 7.9263 57.1404 7.96265 57.3369 8.03535C57.5334 8.10796 57.6779 8.19996 57.7704 8.31117C57.8628 8.42013 57.9275 8.5587 57.9645 8.72672C57.9853 8.83112 57.9957 9.0196 57.9957 9.29201V10.1094C57.9957 10.6793 58.0084 11.0403 58.0339 11.1925C58.0616 11.3423 58.1148 11.4865 58.1934 11.625H57.5415C57.4767 11.4978 57.4352 11.3491 57.4166 11.1788ZM57.3646 9.80971C57.1381 9.90054 56.7982 9.97773 56.3452 10.0413C56.0886 10.0776 55.9071 10.1185 55.8008 10.1639C55.6944 10.2093 55.6124 10.2763 55.5546 10.3648C55.4968 10.4512 55.4679 10.5477 55.4679 10.6544C55.4679 10.8178 55.5303 10.9541 55.6551 11.063C55.7822 11.172 55.9672 11.2265 56.2099 11.2265C56.4503 11.2265 56.6642 11.1754 56.8514 11.0733C57.0387 10.9688 57.1762 10.8269 57.2641 10.6476C57.3311 10.5091 57.3646 10.3047 57.3646 10.0345V9.80971ZM61.1928 8.00807V9.57132C61.3916 9.57132 61.5315 9.53389 61.6124 9.45894C61.6933 9.384 61.8112 9.16599 61.966 8.805C62.1117 8.46214 62.2423 8.24305 62.3579 8.14772C62.4712 8.05464 62.6515 8.00807 62.8989 8.00807H63.1277V8.51554L62.9578 8.51213C62.7913 8.51213 62.685 8.536 62.6388 8.58366C62.5903 8.63357 62.5163 8.78229 62.4168 9.02983C62.3244 9.26597 62.2389 9.42942 62.1602 9.52025C62.0816 9.61108 61.9592 9.69392 61.7927 9.76887C62.0632 9.83924 62.3267 10.0844 62.5833 10.5045L63.2699 11.625H62.5833L61.914 10.5045C61.7777 10.2774 61.6586 10.1287 61.5569 10.0583C61.4552 9.98796 61.3338 9.95277 61.1928 9.95277V11.625H60.5548V9.95277C60.4161 9.95277 60.2959 9.98796 60.1941 10.0583C60.0924 10.1265 59.9734 10.2752 59.837 10.5045L59.1678 11.625H58.4811L59.1643 10.5045C59.4232 10.0844 59.6879 9.83924 59.9584 9.76887C59.7734 9.68486 59.644 9.59403 59.57 9.49638C59.496 9.39648 59.3851 9.16034 59.2371 8.78803C59.1863 8.6631 59.132 8.58591 59.0741 8.55638C59.014 8.52685 58.925 8.51213 58.8071 8.51213C58.777 8.51213 58.7158 8.51329 58.6233 8.51554V8.00807H58.7101C58.9505 8.00807 59.1192 8.02287 59.2163 8.05232C59.3157 8.0796 59.4036 8.13974 59.4799 8.23282C59.5585 8.32365 59.6602 8.51437 59.785 8.805C59.9375 9.1615 60.0531 9.37834 60.1317 9.45553C60.2127 9.53272 60.3537 9.57132 60.5548 9.57132V8.00807H61.1928ZM63.7172 8.00807H64.3414V10.7668L66.0717 8.00807H66.7444V11.625H66.1202V8.88335L64.3899 11.625H63.7172V8.00807ZM67.3478 8.00807H70.3402V8.51554H69.1543V11.625H68.5336V8.51554H67.3478V8.00807ZM70.9367 8.00807H71.5608V10.7668L73.2911 8.00807H73.9638V11.625H73.3397V8.88335L71.6093 11.625H70.9367V8.00807ZM76.8835 8.00807H78.3226C78.6763 8.00807 78.9386 8.03759 79.1098 8.09665C79.2834 8.15338 79.431 8.25893 79.5533 8.41339C79.6788 8.56777 79.7411 8.75276 79.7411 8.96852C79.7411 9.14104 79.704 9.29201 79.6298 9.42143C79.558 9.54861 79.4491 9.65533 79.304 9.74159C79.4775 9.79839 79.6204 9.90511 79.734 10.0617C79.8492 10.2161 79.9076 10.4 79.9076 10.6135C79.8839 10.9563 79.7592 11.2106 79.5328 11.3764C79.3063 11.5421 78.9765 11.625 78.5445 11.625H76.8835V8.00807ZM77.5077 9.53048H78.1735C78.4393 9.53048 78.6219 9.51684 78.7213 9.48956C78.8207 9.46235 78.9094 9.40787 78.9883 9.32611C79.0672 9.2421 79.1059 9.1422 79.1059 9.02642C79.1059 8.83569 79.0373 8.70285 78.8981 8.62791C78.7618 8.55297 78.5271 8.51554 78.1943 8.51554H77.5077V9.53048ZM77.5077 11.1209H78.3295C78.6832 11.1209 78.926 11.0812 79.0578 11.0017C79.1895 10.92 79.259 10.7804 79.2661 10.5828C79.2661 10.4671 79.2274 10.3603 79.1517 10.2627C79.0751 10.1628 78.9757 10.1003 78.8531 10.0754C78.7305 10.0481 78.5341 10.0345 78.2636 10.0345H77.5077V11.1209Z" fill="white"/>
</g>
<defs>
<clipPath id="clip0_34_49">
<rect width="101" height="31" fill="white"/>
</clipPath>
</defs>
</svg>
