<svg width="30" height="30" viewBox="0 0 30 30" fill="none" xmlns="http://www.w3.org/2000/svg">
<rect x="7" y="6" width="17" height="17" fill="white"/>
<path d="M19.375 15C19.375 16.1603 18.9141 17.2731 18.0936 18.0936C17.2731 18.9141 16.1603 19.375 15 19.375C13.8397 19.375 12.7269 18.9141 11.9064 18.0936C11.0859 17.2731 10.625 16.1603 10.625 15C10.625 14.7506 10.6512 14.5071 10.6965 14.2708H9.16667V20.0998C9.16667 20.5052 9.49479 20.8333 9.90021 20.8333H20.1012C20.2955 20.8329 20.4817 20.7555 20.619 20.618C20.7563 20.4804 20.8333 20.2941 20.8333 20.0998V14.2708H19.3035C19.3487 14.5071 19.375 14.7506 19.375 15ZM15 17.9167C15.3831 17.9166 15.7625 17.841 16.1164 17.6943C16.4703 17.5476 16.7919 17.3326 17.0627 17.0617C17.3335 16.7907 17.5483 16.469 17.6949 16.115C17.8414 15.761 17.9168 15.3817 17.9167 14.9985C17.9166 14.6154 17.841 14.2361 17.6943 13.8822C17.5476 13.5282 17.3326 13.2067 17.0617 12.9358C16.7907 12.665 16.469 12.4502 16.115 12.3037C15.761 12.1571 15.3817 12.0818 14.9985 12.0819C14.2248 12.0821 13.4828 12.3896 12.9358 12.9369C12.3889 13.4841 12.0817 14.2263 12.0819 15C12.0821 15.7737 12.3896 16.5157 12.9369 17.0627C13.4841 17.6097 14.2263 17.9169 15 17.9167ZM18.5 11.9375H20.2485C20.3647 11.9375 20.4761 11.8915 20.5584 11.8094C20.6407 11.7274 20.6871 11.6162 20.6875 11.5V9.75146C20.6875 9.63504 20.6413 9.52339 20.5589 9.44107C20.4766 9.35875 20.365 9.3125 20.2485 9.3125H18.5C18.3836 9.3125 18.2719 9.35875 18.1896 9.44107C18.1073 9.52339 18.061 9.63504 18.061 9.75146V11.5C18.0625 11.7406 18.2594 11.9375 18.5 11.9375ZM15 1C11.287 1 7.72601 2.475 5.1005 5.1005C2.475 7.72601 1 11.287 1 15C1 18.713 2.475 22.274 5.1005 24.8995C7.72601 27.525 11.287 29 15 29C16.8385 29 18.659 28.6379 20.3576 27.9343C22.0561 27.2307 23.5995 26.1995 24.8995 24.8995C26.1995 23.5995 27.2307 22.0561 27.9343 20.3576C28.6379 18.659 29 16.8385 29 15C29 13.1615 28.6379 11.341 27.9343 9.64243C27.2307 7.94387 26.1995 6.40052 24.8995 5.1005C23.5995 3.80048 22.0561 2.76925 20.3576 2.06569C18.659 1.36212 16.8385 1 15 1ZM22.2917 20.6715C22.2917 21.5625 21.5625 22.2917 20.6715 22.2917H9.32854C8.4375 22.2917 7.70833 21.5625 7.70833 20.6715V9.32854C7.70833 8.4375 8.4375 7.70833 9.32854 7.70833H20.6715C21.5625 7.70833 22.2917 8.4375 22.2917 9.32854V20.6715Z" fill="url(#paint0_linear_44_611)"/>
<circle cx="15" cy="15" r="14.5" stroke="#FFFEFE"/>
<defs>
<linearGradient id="paint0_linear_44_611" x1="1" y1="29" x2="29" y2="1" gradientUnits="userSpaceOnUse">
<stop stop-color="#F7FC00"/>
<stop offset="0.5" stop-color="#FF317B"/>
<stop offset="1" stop-color="#6700A7"/>
</linearGradient>
</defs>
</svg>
