<svg width="15" height="20" viewBox="0 0 15 20" fill="none" xmlns="http://www.w3.org/2000/svg">
<path d="M7.5 12.625C9.22917 12.625 10.6146 11.2292 10.6146 9.5L10.625 3.25C10.625 1.52083 9.22917 0.125 7.5 0.125C5.77083 0.125 4.375 1.52083 4.375 3.25V9.5C4.375 11.2292 5.77083 12.625 7.5 12.625ZM13.8333 9.5C13.3958 9.5 13.0313 9.8125 12.9688 10.2396C12.5833 12.9583 10.1354 14.8125 7.5 14.8125C4.86458 14.8125 2.41667 12.9687 2.03125 10.2396C1.99917 10.0334 1.89436 9.84548 1.73579 9.70983C1.57722 9.57419 1.37534 9.49976 1.16667 9.5C0.625001 9.5 0.208335 9.97917 0.281251 10.5104C0.760418 13.6042 3.36458 16.0312 6.45833 16.5V18.875C6.45833 19.4479 6.92708 19.9167 7.5 19.9167C8.07292 19.9167 8.54167 19.4479 8.54167 18.875V16.5C11.625 16.0521 14.2396 13.6042 14.7188 10.5104C14.7355 10.3843 14.7252 10.2561 14.6883 10.1343C14.6515 10.0125 14.5891 9.90004 14.5052 9.80437C14.4214 9.70869 14.3181 9.63203 14.2022 9.57954C14.0863 9.52705 13.9606 9.49993 13.8333 9.5Z" fill="#2B2C34"/>
</svg>
