<svg width="18" height="20" viewBox="0 0 18 20" fill="none" xmlns="http://www.w3.org/2000/svg">
<path d="M18 18.5001C18 18.7653 17.8946 19.0197 17.7071 19.2072C17.5196 19.3947 17.2652 19.5001 17 19.5001H1C0.734784 19.5001 0.48043 19.3947 0.292893 19.2072C0.105357 19.0197 7.92656e-08 18.7653 7.92656e-08 18.5001V7.81408C-6.00579e-05 7.66303 0.0340991 7.51393 0.0999132 7.37798C0.165727 7.24202 0.261486 7.12274 0.38 7.02908L8.38 0.718084C8.55655 0.578575 8.77499 0.502686 9 0.502686C9.22501 0.502686 9.44345 0.578575 9.62 0.718084L17.62 7.02808C17.7386 7.12184 17.8345 7.24128 17.9003 7.37743C17.9661 7.51357 18.0002 7.66287 18 7.81408V18.5001ZM4 10.5001C4 11.8262 4.52678 13.0979 5.46447 14.0356C6.40215 14.9733 7.67392 15.5001 9 15.5001C10.3261 15.5001 11.5979 14.9733 12.5355 14.0356C13.4732 13.0979 14 11.8262 14 10.5001H12C12 11.2957 11.6839 12.0588 11.1213 12.6214C10.5587 13.184 9.79565 13.5001 9 13.5001C8.20435 13.5001 7.44129 13.184 6.87868 12.6214C6.31607 12.0588 6 11.2957 6 10.5001H4Z" fill="#F45D48"/>
</svg>
