<svg width="18" height="20" viewBox="0 0 18 20" fill="none" xmlns="http://www.w3.org/2000/svg">
<path d="M18 18.5C18 18.7652 17.8946 19.0195 17.7071 19.2071C17.5196 19.3946 17.2652 19.5 17 19.5H1C0.734784 19.5 0.48043 19.3946 0.292893 19.2071C0.105357 19.0195 7.92656e-08 18.7652 7.92656e-08 18.5V7.81396C-6.00579e-05 7.66291 0.0340991 7.51381 0.0999132 7.37785C0.165727 7.2419 0.261486 7.12261 0.38 7.02896L8.38 0.717962C8.55655 0.578452 8.77499 0.502563 9 0.502563C9.22501 0.502563 9.44345 0.578452 9.62 0.717962L17.62 7.02796C17.7386 7.12172 17.8345 7.24116 17.9003 7.3773C17.9661 7.51345 18.0002 7.66274 18 7.81396V18.5ZM4 10.5C4 11.826 4.52678 13.0978 5.46447 14.0355C6.40215 14.9732 7.67392 15.5 9 15.5C10.3261 15.5 11.5979 14.9732 12.5355 14.0355C13.4732 13.0978 14 11.826 14 10.5H12C12 11.2956 11.6839 12.0587 11.1213 12.6213C10.5587 13.1839 9.79565 13.5 9 13.5C8.20435 13.5 7.44129 13.1839 6.87868 12.6213C6.31607 12.0587 6 11.2956 6 10.5H4Z" fill="#6A6C7E"/>
</svg>
