<svg width="20" height="20" viewBox="0 0 20 20" fill="none" xmlns="http://www.w3.org/2000/svg">
<path d="M20 10C20 15.5228 15.5228 20 10 20C4.47715 20 0 15.5228 0 10C0 4.47715 4.47715 0 10 0C15.5228 0 20 4.47715 20 10Z" fill="#F45D48"/>
<path fill-rule="evenodd" clip-rule="evenodd" d="M10 6.94445C10.4602 6.94445 10.8333 7.31754 10.8333 7.77778V9.16667H12.2222C12.6825 9.16667 13.0556 9.53976 13.0556 10C13.0556 10.4602 12.6825 10.8333 12.2222 10.8333H10.8333V12.2222C10.8333 12.6825 10.4602 13.0556 10 13.0556C9.53976 13.0556 9.16667 12.6825 9.16667 12.2222V10.8333H7.77778C7.31754 10.8333 6.94444 10.4602 6.94444 10C6.94444 9.53976 7.31754 9.16667 7.77778 9.16667H9.16667V7.77778C9.16667 7.31754 9.53976 6.94445 10 6.94445Z" fill="#EEEBE7"/>
</svg>
