<svg width="20" height="20" viewBox="0 0 20 20" fill="none" xmlns="http://www.w3.org/2000/svg">
<path d="M10 0.5C11.5913 0.5 13.1174 1.13214 14.2426 2.25736C15.3679 3.38258 16 4.9087 16 6.5V7.5H20V9.5H18.833L18.076 18.583C18.0552 18.8329 17.9413 19.0658 17.7568 19.2357C17.5723 19.4055 17.3308 19.4999 17.08 19.5H2.92C2.66925 19.4999 2.4277 19.4055 2.24322 19.2357C2.05875 19.0658 1.94481 18.8329 1.924 18.583L1.166 9.5H0V7.5H4V6.5C4 4.9087 4.63214 3.38258 5.75736 2.25736C6.88258 1.13214 8.4087 0.5 10 0.5ZM11 11.5H9V15.5H11V11.5ZM7 11.5H5V15.5H7V11.5ZM15 11.5H13V15.5H15V11.5ZM10 2.5C8.97376 2.5 7.98677 2.89444 7.24319 3.60172C6.4996 4.30901 6.05631 5.27504 6.005 6.3L6 6.5V7.5H14V6.5C14 5.47376 13.6056 4.48677 12.8983 3.74319C12.191 2.9996 11.225 2.55631 10.2 2.505L10 2.5Z" fill="#D2D4E9"/>
</svg>
