<svg width="24" height="24" viewBox="0 0 24 24" fill="none" xmlns="http://www.w3.org/2000/svg">
<path fill-rule="evenodd" clip-rule="evenodd" d="M18 21C18 19.3431 19.3431 18 21 18C22.6569 18 24 19.3431 24 21C24 22.6569 22.6569 24 21 24C19.3431 24 18 22.6569 18 21ZM9 21C9 19.3431 10.3431 18 12 18C13.6569 18 15 19.3431 15 21C15 22.6569 13.6569 24 12 24C10.3431 24 9 22.6569 9 21ZM0 21C0 19.3431 1.34315 18 3 18C4.65685 18 6 19.3431 6 21C6 22.6569 4.65685 24 3 24C1.34315 24 0 22.6569 0 21ZM18 12C18 10.3431 19.3431 9 21 9C22.6569 9 24 10.3431 24 12C24 13.6569 22.6569 15 21 15C19.3431 15 18 13.6569 18 12ZM9 12C9 10.3431 10.3431 9 12 9C13.6569 9 15 10.3431 15 12C15 13.6569 13.6569 15 12 15C10.3431 15 9 13.6569 9 12ZM0 12C0 10.3431 1.34315 9 3 9C4.65685 9 6 10.3431 6 12C6 13.6569 4.65685 15 3 15C1.34315 15 0 13.6569 0 12ZM18 3C18 1.34315 19.3431 0 21 0C22.6569 0 24 1.34315 24 3C24 4.65685 22.6569 6 21 6C19.3431 6 18 4.65685 18 3ZM9 3C9 1.34315 10.3431 0 12 0C13.6569 0 15 1.34315 15 3C15 4.65685 13.6569 6 12 6C10.3431 6 9 4.65685 9 3ZM0 3C0 1.34315 1.34315 0 3 0C4.65685 0 6 1.34315 6 3C6 4.65685 4.65685 6 3 6C1.34315 6 0 4.65685 0 3Z" fill="#FFFFFE"/>
</svg>
