<svg width="22" height="19" viewBox="0 0 22 19" fill="none" xmlns="http://www.w3.org/2000/svg">
<path fill-rule="evenodd" clip-rule="evenodd" d="M1.55991 2.11264C2.62262 0.864369 4.1719 0.125 6.05 0.125C7.30751 0.125 8.51151 0.80904 9.43635 1.50359C10.0074 1.93238 10.5395 2.41727 11 2.88207C11.4605 2.41727 11.9926 1.93238 12.5637 1.50359C13.4885 0.80904 14.6925 0.125 15.95 0.125C17.8617 0.125 19.4108 0.945772 20.4585 2.24382C21.4878 3.51933 22 5.20795 22 6.95502C22 8.53249 21.2175 10.0463 20.2331 11.3502C19.2336 12.6742 17.9251 13.914 16.6542 14.966C15.3777 16.0229 14.1064 16.9171 13.157 17.5458C12.6814 17.8609 12.2841 18.1108 12.0044 18.2829C11.8645 18.3689 11.7537 18.4356 11.6772 18.4813C11.6388 18.5041 11.6091 18.5217 11.5884 18.5338L11.5642 18.548L11.5575 18.552L11.5554 18.5532C11.5554 18.5532 11.5543 18.5538 11 17.6099C10.4457 18.5538 10.4453 18.5535 10.4453 18.5535L10.4425 18.5519L10.4356 18.5479L10.4114 18.5337C10.3906 18.5215 10.3608 18.5039 10.3224 18.4809C10.2456 18.4351 10.1346 18.3683 9.9946 18.2818C9.71443 18.1091 9.31678 17.8579 8.84059 17.5409C7.89042 16.9081 6.61796 16.0061 5.34031 14.9342C4.0681 13.867 2.75879 12.6049 1.75915 11.2478C0.771815 9.90734 0 8.35731 0 6.73691C0 4.9872 0.514118 3.34103 1.55991 2.11264ZM11 17.6099L10.4453 18.5535L11 18.875L11.5543 18.5538L11 17.6099Z" fill="#078071"/>
</svg>
