<svg width="15" height="20" viewBox="0 0 15 20" fill="none" xmlns="http://www.w3.org/2000/svg">
<path d="M7.49951 12.625C9.22868 12.625 10.6141 11.2292 10.6141 9.5L10.6245 3.25C10.6245 1.52083 9.22868 0.125 7.49951 0.125C5.77035 0.125 4.37451 1.52083 4.37451 3.25V9.5C4.37451 11.2292 5.77035 12.625 7.49951 12.625ZM13.8328 9.5C13.3953 9.5 13.0308 9.8125 12.9683 10.2396C12.5828 12.9583 10.1349 14.8125 7.49951 14.8125C4.8641 14.8125 2.41618 12.9687 2.03076 10.2396C1.99868 10.0334 1.89387 9.84548 1.7353 9.70983C1.57673 9.57419 1.37485 9.49976 1.16618 9.5C0.624513 9.5 0.207846 9.97917 0.280763 10.5104C0.75993 13.6042 3.3641 16.0312 6.45785 16.5V18.875C6.45785 19.4479 6.9266 19.9167 7.49951 19.9167C8.07243 19.9167 8.54118 19.4479 8.54118 18.875V16.5C11.6245 16.0521 14.2391 13.6042 14.7183 10.5104C14.735 10.3843 14.7247 10.2561 14.6878 10.1343C14.651 10.0125 14.5886 9.90004 14.5048 9.80437C14.4209 9.70869 14.3176 9.63203 14.2017 9.57954C14.0858 9.52705 13.9601 9.49993 13.8328 9.5Z" fill="#078071"/>
</svg>
