<svg width="21" height="21" viewBox="0 0 21 21" fill="none" xmlns="http://www.w3.org/2000/svg">
<path d="M19.875 19.875L13.625 13.625M1.125 8.41667C1.125 9.37422 1.3136 10.3224 1.68005 11.2071C2.04649 12.0917 2.58359 12.8956 3.26068 13.5727C3.93777 14.2497 4.7416 14.7868 5.62627 15.1533C6.51093 15.5197 7.45911 15.7083 8.41667 15.7083C9.37422 15.7083 10.3224 15.5197 11.2071 15.1533C12.0917 14.7868 12.8956 14.2497 13.5727 13.5727C14.2497 12.8956 14.7868 12.0917 15.1533 11.2071C15.5197 10.3224 15.7083 9.37422 15.7083 8.41667C15.7083 7.45911 15.5197 6.51093 15.1533 5.62627C14.7868 4.7416 14.2497 3.93777 13.5727 3.26068C12.8956 2.58359 12.0917 2.04649 11.2071 1.68004C10.3224 1.3136 9.37422 1.125 8.41667 1.125C7.45911 1.125 6.51093 1.3136 5.62627 1.68004C4.7416 2.04649 3.93777 2.58359 3.26068 3.26068C2.58359 3.93777 2.04649 4.7416 1.68005 5.62627C1.3136 6.51093 1.125 7.45911 1.125 8.41667Z" stroke="#078071" stroke-width="2.08333" stroke-linecap="round" stroke-linejoin="round"/>
</svg>
