<svg width="20" height="20" viewBox="0 0 20 20" fill="none" xmlns="http://www.w3.org/2000/svg">
<path fill-rule="evenodd" clip-rule="evenodd" d="M10 20C15.5228 20 20 15.5228 20 10C20 4.47715 15.5228 0 10 0C4.47715 0 0 4.47715 0 10C0 15.5228 4.47715 20 10 20ZM6.39747 13.5534C6.64413 13.2206 7.11385 13.1508 7.44661 13.3975C8.17495 13.9373 9.0541 14.25 10 14.25C10.9459 14.25 11.825 13.9373 12.5534 13.3975C12.8862 13.1508 13.3559 13.2206 13.6025 13.5534C13.8492 13.8862 13.7794 14.3559 13.4466 14.6025C12.4742 15.3233 11.285 15.75 10 15.75C8.71503 15.75 7.5258 15.3233 6.55339 14.6025C6.22062 14.3559 6.15082 13.8862 6.39747 13.5534ZM14 8.5C14 9.32843 13.5523 10 13 10C12.4477 10 12 9.32843 12 8.5C12 7.67157 12.4477 7 13 7C13.5523 7 14 7.67157 14 8.5ZM7 10C7.55228 10 8 9.32843 8 8.5C8 7.67157 7.55228 7 7 7C6.44772 7 6 7.67157 6 8.5C6 9.32843 6.44772 10 7 10Z" fill="#078071"/>
</svg>
