<svg width="237" height="233" viewBox="0 0 237 233" fill="none" xmlns="http://www.w3.org/2000/svg">
<g clip-path="url(#clip0_654_8035)">
<path d="M150.858 0.65625H207.777C214.699 0.65625 220.309 6.29335 220.309 13.2487V139.16C220.309 146.703 214.222 152.819 206.716 152.819H172.551C172.185 148.132 172.319 142.758 173.494 136.97C178.52 112.149 198.884 98.2807 205.147 94.3554C196.714 92.9682 190.19 90.1841 185.265 87.2951C147.343 65.0287 150.603 4.96524 150.894 0.65625" fill="#078071"/>
<path d="M220.31 101.937C220.235 101.937 220.16 101.924 220.084 101.898C214.569 99.8743 209.393 97.1984 204.697 93.9388C190.08 83.7894 179.787 68.0029 174.105 47.022C170.221 32.6882 169.448 19.4432 169.484 10.8547C169.484 10.494 169.777 10.2021 170.136 10.2021C170.495 10.2021 170.789 10.4973 170.786 10.8613C170.753 19.3678 171.52 32.4849 175.361 46.6777C180.961 67.3536 191.078 82.8909 205.438 92.8599C210.043 96.0572 215.121 98.6839 220.528 100.668C220.868 100.792 221.041 101.17 220.917 101.507C220.819 101.773 220.571 101.94 220.303 101.94L220.31 101.937Z" fill="#222525"/>
<path d="M220.309 101.937C220.107 101.937 219.905 101.842 219.777 101.664C215.407 95.5388 211.592 88.9868 208.44 82.1954C201.883 68.0747 198.094 52.8392 197.171 36.9117C197.151 36.5509 197.425 36.2394 197.784 36.2197C198.15 36.2001 198.453 36.4755 198.473 36.8362C199.384 52.5998 203.137 67.6747 209.621 81.6412C212.741 88.3604 216.514 94.837 220.838 100.9C221.047 101.196 220.982 101.605 220.688 101.815C220.574 101.897 220.44 101.937 220.309 101.937Z" fill="#222525"/>
<path d="M111.48 0.65625H54.5612C47.6393 0.65625 42.0293 6.29335 42.0293 13.2487V139.16C42.0293 146.703 48.1158 152.819 55.6219 152.819H89.7876C90.1531 148.132 90.0193 142.758 88.8445 136.97C83.8187 112.149 63.4543 98.2807 57.1916 94.3554C65.6245 92.9682 72.1483 90.1841 77.073 87.2951C114.995 65.0287 111.735 4.96524 111.444 0.65625" fill="#078071"/>
<path d="M42.0302 101.937C41.7626 101.937 41.5146 101.773 41.4167 101.504C41.2927 101.163 41.4689 100.786 41.8051 100.665C47.216 98.6806 52.294 96.0539 56.8956 92.8599C71.2518 82.8909 81.372 67.3536 86.9722 46.6777C90.8166 32.4849 91.5835 19.3645 91.5476 10.8613C91.5476 10.5006 91.8381 10.2054 92.1971 10.2021C92.556 10.2021 92.8498 10.494 92.8498 10.8547C92.8824 19.4432 92.1089 32.6882 88.2286 47.022C82.5468 68.0029 72.2537 83.7894 57.6364 93.9388C52.9402 97.1984 47.7643 99.8776 42.2489 101.898C42.1738 101.924 42.0988 101.937 42.0237 101.937H42.0302Z" fill="#222525"/>
<path d="M42.0296 101.936C41.8991 101.936 41.7653 101.897 41.651 101.815C41.3573 101.605 41.292 101.195 41.5009 100.9C45.8251 94.8367 49.5977 88.3601 52.7144 81.6409C59.199 67.6711 62.9488 52.5962 63.8625 36.836C63.8821 36.4752 64.1889 36.2031 64.5511 36.2195C64.9101 36.2391 65.1843 36.5507 65.1647 36.9114C64.2444 52.8389 60.4522 68.0745 53.8958 82.1951C50.7432 88.9865 46.9281 95.5352 42.5583 101.664C42.431 101.841 42.2319 101.936 42.0263 101.936H42.0296Z" fill="#222525"/>
<path d="M208.347 153.487H54.5238C47.3865 153.487 41.584 147.653 41.584 140.485V13.0024C41.584 5.83385 47.3898 0 54.5238 0H208.347C215.484 0 221.286 5.83385 221.286 13.0024V140.481C221.286 147.653 215.481 153.484 208.347 153.484V153.487ZM54.5238 1.31172C48.1078 1.31172 42.8894 6.5553 42.8894 13.0024V140.481C42.8894 146.929 48.1078 152.172 54.5238 152.172H208.347C214.763 152.172 219.981 146.929 219.981 140.481V13.0024C219.981 6.5553 214.763 1.31172 208.347 1.31172H54.5238Z" fill="#078071"/>
<path d="M116.002 74.2861C108.033 81.153 105.354 91.2302 108.859 98.5561C111.264 103.577 115.911 105.921 117.97 106.797C124.654 105.177 131.338 103.557 138.018 101.937L132.973 82.2614C127.317 79.6051 121.658 76.9456 116.002 74.2894V74.2861Z" fill="#222525"/>
<path d="M90.7133 201.68H1.72692C1.36794 201.68 1.07422 201.385 1.07422 201.024C1.07422 200.663 1.36794 200.368 1.72692 200.368H90.7133C91.0723 200.368 91.366 200.663 91.366 201.024C91.366 201.385 91.0723 201.68 90.7133 201.68Z" fill="#222525"/>
<path d="M170.385 49.642C176.24 68.288 184.49 75.8172 191.268 79.1555C195.184 81.0838 200.161 82.3758 204.508 87.3767C209.201 92.7777 210.5 99.4445 210.846 104.347C194.894 103.022 178.942 101.694 162.99 100.369L153.092 52.9442C158.855 51.8424 164.622 50.7405 170.385 49.6387V49.642Z" fill="#222525"/>
<path d="M127.536 34.2664L142.061 31.4822C155.576 28.8916 168.639 37.8118 171.217 51.3924L172.386 57.5481L113.984 68.7427L111.844 57.4685C109.802 46.7161 116.832 36.3182 127.536 34.2664Z" fill="#222525"/>
<path d="M164.209 69.2488C163.792 64.907 160.048 61.7163 155.819 62.0705L153.831 51.5407C152.506 44.4869 145.859 39.85 138.982 41.1781L119.878 44.8706C114.699 45.8708 111.311 50.9865 112.306 56.2956L116.745 79.9524C118.321 88.3539 126.242 93.8828 134.436 92.2989L135.321 92.1284L137.781 105.242L163.015 100.366L160.101 84.8353H160.078L158.736 77.6208C162.212 76.5551 164.578 73.0921 164.206 69.2488H164.209Z" fill="#FFFFFE"/>
<path d="M137.266 106.013L134.806 92.8993L134.564 92.9452C130.485 93.7355 126.33 92.8665 122.871 90.5021C119.317 88.0721 116.915 84.3698 116.109 80.0772L111.671 56.4204C110.61 50.7637 114.239 45.2938 119.761 44.2281L138.865 40.5356C142.315 39.8699 145.83 40.6012 148.757 42.6015C151.766 44.6576 153.796 47.7894 154.478 51.4195L156.361 61.3886C156.394 61.3886 156.423 61.3886 156.456 61.3886C160.738 61.3886 164.438 64.7531 164.866 69.1867C165.238 73.0661 163.002 76.7028 159.491 78.0572L160.613 84.1009L160.751 84.7141L163.786 100.888L137.27 106.013H137.266ZM135.847 91.3645L138.307 104.478L162.258 99.8481L159.585 85.6028L159.442 84.9601L157.993 77.1652L158.551 76.9947C161.788 76.0044 163.897 72.771 163.564 69.3113C163.182 65.3565 159.732 62.3986 155.878 62.7232L155.294 62.7724L153.196 51.6622C152.579 48.3763 150.741 45.543 148.023 43.687C145.383 41.8834 142.22 41.2209 139.11 41.8243L120.006 45.5168C115.189 46.4481 112.023 51.2293 112.953 56.1778L117.391 79.8346C118.132 83.7828 120.338 87.1867 123.605 89.4167C126.777 91.5843 130.583 92.3811 134.319 91.6564L135.847 91.3613V91.3645Z" fill="#222525"/>
<path d="M156.663 73.1672C156.052 73.1672 155.468 72.9573 154.992 72.5638C154.447 72.1146 154.111 71.4784 154.042 70.7733C153.974 70.0683 154.182 69.3796 154.633 68.832C155.08 68.2843 155.713 67.9466 156.415 67.881C157.12 67.8121 157.802 68.022 158.343 68.4745C158.885 68.9271 159.225 69.56 159.29 70.265C159.43 71.7178 158.366 73.0164 156.917 73.1574C156.832 73.1672 156.744 73.1705 156.659 73.1705L156.663 73.1672ZM156.669 69.1796C156.627 69.1796 156.581 69.1796 156.539 69.1861C156.186 69.2222 155.866 69.3927 155.638 69.6682C155.413 69.9437 155.305 70.2913 155.341 70.6487C155.377 71.0029 155.547 71.3242 155.821 71.5538C156.095 71.7833 156.441 71.8916 156.796 71.8522C157.528 71.7801 158.063 71.1275 157.994 70.3929C157.958 70.0388 157.789 69.7174 157.514 69.4878C157.273 69.2878 156.979 69.1829 156.672 69.1829L156.669 69.1796Z" fill="#222525"/>
<path d="M135.273 91.5051L150.521 88.1045C150.984 87.9995 151.235 88.6291 150.827 88.8784L136.184 96.0436L135.273 91.5051Z" fill="#222525"/>
<path d="M154.857 71.9998C154.577 71.9998 154.319 71.8161 154.234 71.5341C153.744 69.9207 154.149 68.1597 155.285 66.9431C156.959 65.1493 159.263 65.4936 159.518 65.5396C159.873 65.6019 160.112 65.9429 160.046 66.3004C159.984 66.6578 159.648 66.8972 159.289 66.8316C159.214 66.8185 157.462 66.5266 156.235 67.8416C155.415 68.7205 155.125 69.9896 155.481 71.1537C155.585 71.5013 155.393 71.8653 155.047 71.9735C154.985 71.9932 154.919 72.003 154.857 72.003V71.9998Z" fill="#222525"/>
<path d="M120.021 72.1143C120.865 72.1143 121.549 71.4272 121.549 70.5796C121.549 69.732 120.865 69.0449 120.021 69.0449C119.178 69.0449 118.494 69.732 118.494 70.5796C118.494 71.4272 119.178 72.1143 120.021 72.1143Z" fill="#222525"/>
<path d="M135.066 68.9835C135.91 68.9835 136.594 68.2964 136.594 67.4488C136.594 66.6012 135.91 65.9141 135.066 65.9141C134.223 65.9141 133.539 66.6012 133.539 67.4488C133.539 68.2964 134.223 68.9835 135.066 68.9835Z" fill="#222525"/>
<path d="M127.121 75.9646C127.092 75.9646 127.059 75.9646 127.027 75.958C125.878 75.794 124.684 75.5022 124.517 74.5873C124.442 74.1773 124.628 73.8789 124.788 73.6133C124.85 73.5149 124.925 73.3936 125 73.2427C125.281 72.6853 125.392 72.0425 125.323 71.367L124.651 64.7166C124.615 64.3559 124.876 64.0345 125.235 63.9984C125.601 63.9624 125.914 64.2247 125.95 64.5854L126.622 71.2358C126.717 72.1639 126.56 73.0591 126.172 73.8232C126.064 74.0331 125.973 74.1806 125.898 74.3052L125.885 74.3282C126.054 74.4135 126.426 74.5479 127.213 74.6594C127.569 74.7119 127.817 75.0431 127.768 75.4005C127.722 75.7284 127.441 75.9646 127.121 75.9646Z" fill="#222525"/>
<path d="M129.726 82.4318C128.486 82.4318 127.494 82.0415 127.435 82.0153C127.099 81.8808 126.939 81.4972 127.073 81.1627C127.206 80.8282 127.585 80.6642 127.921 80.7987C127.944 80.8085 129.703 81.4906 131.178 80.8413C131.945 80.5035 132.519 79.8444 132.885 78.8868C133.015 78.5491 133.394 78.3818 133.727 78.5097C134.063 78.6409 134.229 79.018 134.102 79.3558C133.603 80.6577 132.794 81.5627 131.69 82.0448C131.031 82.3334 130.349 82.4318 129.729 82.4318H129.726Z" fill="#222525"/>
<path d="M97.9218 204.912C109.602 205.217 121.282 205.522 132.962 205.824C158.016 206.477 183.07 207.129 208.121 207.782C201.016 170.634 193.915 133.49 186.81 96.3418C168.368 97.5191 148.19 99.8474 126.647 103.914C126.23 103.992 124.399 104.228 121.971 104.711C114.256 106.249 102.687 108.557 97.0145 114.942C91.77 120.845 92.2204 129.495 92.6512 136.116C94.0023 156.854 95.6667 179.741 97.9153 204.909L97.9218 204.912Z" fill="#F45D48"/>
<path d="M169.602 42.454C176.578 42.454 182.232 36.7721 182.232 29.7631C182.232 22.7542 176.578 17.0723 169.602 17.0723C162.627 17.0723 156.973 22.7542 156.973 29.7631C156.973 36.7721 162.627 42.454 169.602 42.454Z" fill="#222525"/>
<path d="M236.843 210.747L191.803 222.739L163.391 99.412L185.556 96.2114C203.166 93.6699 219.634 105.544 222.875 123.121L236.843 210.744V210.747Z" fill="#F45D48"/>
<path d="M165.396 106.055L136.416 110.662L134.174 98.4438C133.965 97.3125 134.706 96.227 135.832 96.0106L159.717 91.413C160.801 91.2031 161.862 91.882 162.129 92.9608L165.393 106.058L165.396 106.055Z" fill="#F45D48"/>
<path d="M168.689 157.479L179.32 150.4C186.959 145.314 197.272 147.416 202.334 155.092L233.982 203.083C239.511 211.467 237.225 222.784 228.882 228.34C216.079 236.864 198.799 233.339 190.317 220.477L164.022 180.602C158.96 172.926 161.052 162.563 168.691 157.477L168.689 157.479Z" fill="#F45D48"/>
<path d="M144.33 103.855C144.013 103.855 143.733 103.622 143.684 103.294L142.499 95.2202C142.447 94.8628 142.692 94.5283 143.051 94.4758C143.406 94.4233 143.739 94.6693 143.792 95.03L144.976 103.104C145.028 103.461 144.784 103.796 144.425 103.848C144.392 103.851 144.359 103.855 144.33 103.855Z" fill="#222525"/>
<path d="M153.297 102.127C152.98 102.127 152.7 101.894 152.651 101.567L151.466 93.4929C151.414 93.1355 151.659 92.801 152.018 92.7485C152.37 92.6993 152.706 92.942 152.758 93.3027L153.943 101.376C153.995 101.734 153.75 102.068 153.391 102.121C153.359 102.124 153.326 102.127 153.297 102.127Z" fill="#222525"/>
<path d="M225.918 191.513C225.706 191.513 225.5 191.412 225.373 191.218L203.21 157.612C202.143 155.841 199.098 151.588 193.514 149.824C190.091 148.742 186.994 148.994 185 149.394C184.647 149.466 184.301 149.233 184.233 148.879C184.164 148.525 184.393 148.178 184.745 148.109C187.819 147.489 190.988 147.65 193.906 148.571C199.911 150.466 203.184 155.035 204.313 156.91L226.459 190.493C226.659 190.795 226.577 191.202 226.277 191.402C226.166 191.477 226.042 191.51 225.918 191.51V191.513Z" fill="#222525"/>
<path d="M181.433 207.668C181.221 207.668 181.015 207.566 180.888 207.373L168.434 188.487C167.929 187.72 167.364 186.916 166.659 185.959C161.65 179.161 160.915 174.76 160.853 174.324C158.787 164.421 164.57 160.233 164.818 160.059C165.115 159.852 165.52 159.925 165.726 160.223C165.931 160.518 165.859 160.928 165.566 161.135C165.341 161.295 160.243 165.05 162.133 174.078L162.142 174.13C162.149 174.17 162.766 178.479 167.707 185.178C168.425 186.152 169.002 186.975 169.521 187.763L181.975 206.651C182.174 206.953 182.092 207.36 181.792 207.56C181.681 207.635 181.557 207.668 181.433 207.668Z" fill="#222525"/>
<path d="M133.862 227.717H87.8042L85.1836 213.986H137.746L133.859 227.717H133.862ZM88.8844 226.405H132.877L136.019 215.298H86.7631L88.8812 226.405H88.8844Z" fill="#222525"/>
<path d="M110.323 227.718C109.964 227.718 109.67 227.423 109.67 227.062V214.643C109.67 214.282 109.964 213.987 110.323 213.987C110.682 213.987 110.975 214.282 110.975 214.643V227.062C110.975 227.423 110.682 227.718 110.323 227.718Z" fill="#222525"/>
<path d="M89.7198 230.856C91.7872 230.856 93.4631 229.157 93.4631 227.062C93.4631 224.966 91.7872 223.268 89.7198 223.268C87.6525 223.268 85.9766 224.966 85.9766 227.062C85.9766 229.157 87.6525 230.856 89.7198 230.856Z" fill="#222525"/>
<path d="M110.352 230.856C112.437 230.856 114.128 229.157 114.128 227.062C114.128 224.966 112.437 223.268 110.352 223.268C108.267 223.268 106.576 224.966 106.576 227.062C106.576 229.157 108.267 230.856 110.352 230.856Z" fill="#222525"/>
<path d="M131.941 230.856C134.007 230.856 135.681 229.157 135.681 227.062C135.681 224.966 134.007 223.268 131.941 223.268C129.876 223.268 128.201 224.966 128.201 227.062C128.201 229.157 129.876 230.856 131.941 230.856Z" fill="#222525"/>
<path d="M146.916 185.719C146.779 185.719 146.639 185.677 146.522 185.585C146.234 185.365 146.179 184.955 146.398 184.667L154.139 174.419C154.406 174.058 154.445 173.599 154.243 173.192C154.041 172.786 153.649 172.543 153.199 172.543H129.649C128.429 172.543 127.286 173.143 126.591 174.153L123.217 179.043C123.011 179.341 122.603 179.413 122.31 179.207C122.013 179 121.941 178.59 122.146 178.295L125.521 173.406C126.461 172.045 128.004 171.231 129.652 171.231H153.202C154.145 171.231 154.99 171.756 155.415 172.602C155.836 173.448 155.748 174.445 155.186 175.206L147.442 185.457C147.315 185.628 147.119 185.716 146.923 185.716L146.916 185.719Z" fill="#222525"/>
<path d="M89.6316 207.399L79.3189 179.374C78.6629 177.593 79.5702 175.613 81.3422 174.953L96.8635 169.185C98.6356 168.526 100.607 169.438 101.263 171.218L110.893 197.39C111.925 200.194 110.499 203.309 107.708 204.346L94.0275 209.429C92.2555 210.088 90.2843 209.176 89.6283 207.395L89.6316 207.399Z" fill="#FFFFFE"/>
<path d="M92.8401 210.304C92.2592 210.304 91.6815 210.18 91.1398 209.927C90.1509 209.471 89.3971 208.651 89.0218 207.625L78.709 179.6C78.3305 178.574 78.3729 177.462 78.8298 176.468C79.2834 175.475 80.0993 174.717 81.1175 174.337L96.6388 168.569C97.6603 168.188 98.7666 168.231 99.7555 168.69C100.744 169.146 101.498 169.966 101.873 170.989L111.504 197.161C112.062 198.682 112 200.329 111.325 201.804C110.649 203.277 109.445 204.398 107.931 204.959L94.2499 210.042C93.7898 210.212 93.31 210.298 92.8335 210.298L92.8401 210.304ZM98.0552 169.628C97.7321 169.628 97.4057 169.687 97.0924 169.802L81.5711 175.57C80.876 175.829 80.3245 176.341 80.0144 177.019C79.7044 177.695 79.675 178.452 79.9329 179.148L90.2456 207.172C90.5034 207.871 91.0125 208.425 91.6848 208.737C92.3571 209.048 93.1109 209.078 93.8028 208.819L107.483 203.736C108.671 203.296 109.615 202.417 110.143 201.263C110.672 200.109 110.721 198.817 110.284 197.623L100.653 171.451C100.395 170.753 99.886 170.198 99.2137 169.887C98.8449 169.716 98.4501 169.631 98.0584 169.631L98.0552 169.628Z" fill="#222525"/>
<path d="M127.27 207.687L100.973 193.743C99.3017 192.858 98.6587 190.776 99.5432 189.097L107.268 174.389C108.149 172.71 110.221 172.064 111.892 172.953L136.454 185.975C139.084 187.372 140.092 190.645 138.705 193.291L131.898 206.254C131.017 207.933 128.944 208.579 127.273 207.69L127.27 207.687Z" fill="#FFFFFE"/>
<path d="M128.863 208.74C128.223 208.74 127.574 208.589 126.967 208.268L100.669 194.324C98.6817 193.272 97.918 190.789 98.9656 188.789L106.69 174.081C107.199 173.114 108.051 172.402 109.092 172.081C110.133 171.756 111.236 171.861 112.199 172.373L136.76 185.395C139.707 186.956 140.837 190.635 139.283 193.596L132.475 206.559C131.744 207.95 130.328 208.743 128.863 208.743V208.74ZM127.577 207.107C128.928 207.822 130.609 207.3 131.32 205.943L138.128 192.98C139.345 190.658 138.457 187.775 136.15 186.552L111.589 173.53C110.936 173.183 110.186 173.114 109.477 173.333C108.769 173.553 108.192 174.035 107.846 174.694L100.121 189.402C99.4062 190.76 99.9283 192.448 101.279 193.163L127.577 207.107Z" fill="#222525"/>
<path d="M143.777 183.575H82.2923C80.3538 183.575 78.9146 185.376 79.3323 187.278L85.5199 215.532H137.394L146.75 187.74C147.439 185.697 145.924 183.575 143.777 183.575Z" fill="#078071"/>
<path d="M110.323 211.718C109.964 211.718 109.67 211.423 109.67 211.062V187.12C109.67 186.759 109.964 186.464 110.323 186.464C110.682 186.464 110.975 186.759 110.975 187.12V211.062C110.975 211.423 110.682 211.718 110.323 211.718Z" fill="#222525"/>
<path d="M120.952 178.413C120.612 178.413 120.325 178.147 120.302 177.803L119.31 163.469C119.284 163.108 119.555 162.794 119.917 162.771C120.273 162.751 120.59 163.017 120.612 163.381L121.605 177.714C121.631 178.075 121.36 178.39 120.998 178.413C120.981 178.413 120.968 178.413 120.952 178.413Z" fill="#222525"/>
<path d="M114.386 164.319C110.77 164.319 107.673 161.538 107.337 157.849L106.009 143.085C105.836 141.193 106.407 139.344 107.618 137.884C108.829 136.422 110.532 135.523 112.415 135.35L149.273 131.851L151.28 153.802C151.453 155.694 150.882 157.544 149.671 159.006C148.461 160.469 146.757 161.367 144.874 161.541L115.039 164.293C114.82 164.312 114.602 164.322 114.386 164.322V164.319ZM148.095 133.28L112.539 136.658C110.999 136.799 109.609 137.534 108.623 138.727C107.637 139.921 107.171 141.426 107.311 142.971L108.639 157.734C108.93 160.921 111.749 163.273 114.922 162.984L144.757 160.233C146.294 160.092 147.684 159.357 148.67 158.164C149.658 156.97 150.122 155.465 149.981 153.92L148.095 133.28Z" fill="#FFFFFE"/>
<path d="M152.076 140.206H142.149C141.453 140.206 140.758 140.272 140.08 140.429C138.709 140.747 136.973 141.508 137.697 143.282C138.02 144.072 138.683 144.676 139.473 144.991C142.788 146.309 154.508 151.084 157.115 153.707L165.515 160.928L184.95 149.437C182.42 144.486 179.382 139.796 175.89 135.474C172.561 131.352 168.498 126.236 163.691 123.826C161.061 122.508 157.951 122.465 155.098 122.908C151.727 123.433 148.131 124.22 144.87 125.164C141.923 126.017 138.928 126.938 136.712 129.194L133.425 132.195C132.72 132.838 133.236 134.015 134.186 133.923L148.333 132.575C149.811 132.434 151.215 133.251 151.831 134.605L153.421 138.098C153.868 139.081 153.153 140.2 152.076 140.2V140.206Z" fill="#FFFFFE"/>
<path d="M165.875 135.205C165.634 135.205 165.406 135.071 165.291 134.841C162.667 129.552 159.534 126.846 157.367 125.508C155.028 124.065 153.278 123.859 153.262 123.859C152.903 123.819 152.645 123.498 152.681 123.137C152.717 122.777 153.037 122.521 153.396 122.554C153.709 122.586 161.107 123.459 166.46 134.257C166.62 134.582 166.489 134.976 166.166 135.136C166.071 135.182 165.973 135.205 165.875 135.205Z" fill="#222525"/>
<path d="M113.401 146.522C113.072 146.522 112.788 146.273 112.752 145.935C112.713 145.574 112.974 145.253 113.333 145.214L139.075 142.459C139.438 142.42 139.754 142.682 139.793 143.043C139.833 143.403 139.572 143.725 139.213 143.764L113.47 146.519C113.447 146.519 113.424 146.522 113.401 146.522Z" fill="#FFFFFE"/>
<path d="M114.374 153.408C114.044 153.408 113.76 153.159 113.725 152.821C113.685 152.46 113.947 152.139 114.305 152.1L140.048 149.345C140.41 149.309 140.727 149.568 140.766 149.929C140.805 150.29 140.544 150.611 140.185 150.65L114.443 153.405C114.42 153.405 114.397 153.408 114.374 153.408Z" fill="#FFFFFE"/>
<path d="M11.2176 60.1388C14.644 60.1388 17.4216 57.3477 17.4216 53.9048C17.4216 50.4619 14.644 47.6709 11.2176 47.6709C7.79127 47.6709 5.01367 50.4619 5.01367 53.9048C5.01367 57.3477 7.79127 60.1388 11.2176 60.1388Z" fill="#F45D48"/>
<path d="M18.1705 101.065C24.3635 101.065 29.3839 96.0199 29.3839 89.7969C29.3839 83.574 24.3635 78.5293 18.1705 78.5293C11.9775 78.5293 6.95703 83.574 6.95703 89.7969C6.95703 96.0199 11.9775 101.065 18.1705 101.065Z" fill="#078071"/>
<path d="M15.3088 79.7128C15.0248 79.7128 14.7409 79.6504 14.4766 79.5226C13.9511 79.2733 13.5693 78.8044 13.429 78.2404L9.44748 62.4047C9.26146 61.6668 9.50948 60.906 10.0969 60.4207C10.6844 59.9354 11.4741 59.8403 12.1595 60.1682L30.8725 69.1043C31.5578 69.4322 31.9821 70.1077 31.9788 70.8718C31.9755 71.6359 31.548 72.3081 30.8594 72.6295L16.1279 79.5324C15.8668 79.6537 15.5862 79.716 15.3088 79.716V79.7128ZM11.3273 61.2897C11.1249 61.2897 10.9781 61.3947 10.9259 61.4373C10.8541 61.4963 10.6223 61.7226 10.7137 62.0866L14.6952 77.9223C14.7572 78.1748 14.9367 78.2928 15.0379 78.342C15.1391 78.3912 15.3414 78.4535 15.5764 78.342L30.3079 71.4391C30.6473 71.2817 30.6734 70.9603 30.6734 70.8652C30.6734 70.7701 30.6473 70.4488 30.3111 70.2881L11.5981 61.352C11.5002 61.3061 11.4089 61.2864 11.3273 61.2864V61.2897Z" fill="#222525"/>
<path d="M80.2434 101.72H0.652704C0.293717 101.72 0 101.425 0 101.064C0 100.703 0.293717 100.408 0.652704 100.408H80.2434C80.6024 100.408 80.8961 100.703 80.8961 101.064C80.8961 101.425 80.6024 101.72 80.2434 101.72Z" fill="#222525"/>
<path d="M35.043 100.399H75.2299C72.1361 91.5708 63.7326 85.737 54.5588 85.9862C45.793 86.2223 37.9867 91.9742 35.043 100.399Z" fill="#F45D48"/>
<mask id="mask0_654_8035" style="mask-type:luminance" maskUnits="userSpaceOnUse" x="35" y="85" width="41" height="16">
<path d="M35.043 100.399H75.2299C72.1361 91.5708 63.7326 85.737 54.5588 85.9862C45.793 86.2223 37.9867 91.9742 35.043 100.399Z" fill="white"/>
</mask>
<g mask="url(#mask0_654_8035)">
<path d="M61.2037 94.4989C55.1532 94.4989 50.2285 89.5537 50.2285 83.4706C50.2285 77.3875 55.1532 72.4424 61.2037 72.4424C67.2543 72.4424 72.1789 77.3875 72.1789 83.4706C72.1789 89.5537 67.2543 94.4989 61.2037 94.4989ZM61.2037 74.0328C56.0245 74.0328 51.8113 78.2664 51.8113 83.4706C51.8113 88.6749 56.0245 92.9084 61.2037 92.9084C66.3829 92.9084 70.5961 88.6749 70.5961 83.4706C70.5961 78.2664 66.3829 74.0328 61.2037 74.0328Z" fill="#F45D48"/>
<path d="M42.7966 113.126C41.7686 113.126 40.6688 112.991 39.52 112.722C35.6984 111.827 31.7006 109.518 28.2641 106.219C24.8276 102.924 22.3474 99.0181 21.2802 95.2239C20.1706 91.2822 20.7058 87.9046 22.7847 85.7173C26.962 81.3197 36.2206 83.3595 43.4199 90.2689C46.8564 93.5646 49.3367 97.4702 50.4038 101.264C51.5134 105.206 50.9782 108.584 48.8993 110.771C47.4242 112.325 45.316 113.126 42.7966 113.126ZM28.9201 84.9335C26.8837 84.9335 25.1377 85.5402 23.9269 86.8126C22.2495 88.5768 21.8513 91.4101 22.801 94.7911C23.7931 98.3163 26.1233 101.966 29.3574 105.072C32.5915 108.174 36.3283 110.341 39.879 111.174C43.2828 111.971 46.0797 111.44 47.7571 109.672C49.4346 107.908 49.8327 105.075 48.883 101.694C47.8909 98.1687 45.564 94.5189 42.3266 91.4134C37.9796 87.2454 32.8983 84.9302 28.9201 84.9302V84.9335Z" fill="#F45D48"/>
</g>
<path d="M36.9528 177.537C36.6558 177.537 36.3882 177.331 36.3164 177.029C34.577 169.411 36.6754 160.57 38.7412 154.494C40.9702 147.942 43.643 143.098 43.6691 143.052C43.8453 142.734 44.2435 142.623 44.5568 142.8C44.8701 142.977 44.9843 143.377 44.8081 143.692C44.782 143.738 42.1548 148.496 39.9683 154.94C37.9612 160.849 35.9183 169.424 37.5892 176.734C37.6708 177.088 37.4488 177.439 37.0997 177.521C37.0507 177.531 37.0017 177.537 36.9528 177.537Z" fill="#222525"/>
<path d="M38.3445 176.776C38.3119 176.776 38.2825 176.776 38.2499 176.77C37.8942 176.717 37.6461 176.386 37.6983 176.025C38.1389 173.002 39.1278 170.142 40.642 167.522C41.7875 165.538 43.2202 163.728 44.8944 162.147C45.1588 161.898 45.57 161.911 45.818 162.177C46.066 162.443 46.053 162.856 45.7886 163.105C44.2058 164.597 42.8547 166.306 41.7712 168.181C40.3418 170.654 39.4052 173.359 38.9907 176.216C38.9418 176.54 38.6644 176.776 38.3445 176.776Z" fill="#222525"/>
<path d="M37.1122 184.745C36.776 184.745 36.4889 184.486 36.4627 184.142C35.8394 176.524 34.5177 168.923 32.5335 161.551C30.6635 154.602 28.1799 147.771 25.1514 141.246C24.998 140.918 25.1416 140.527 25.468 140.373C25.7943 140.219 26.1827 140.364 26.336 140.691C29.394 147.286 31.9036 154.189 33.7964 161.21C35.8035 168.661 37.1383 176.341 37.7682 184.037C37.7975 184.398 37.5299 184.716 37.1709 184.745C37.1513 184.745 37.135 184.745 37.1154 184.745H37.1122Z" fill="#222525"/>
<path d="M23.5452 162.312C25.8818 164.528 28.4339 167.257 30.9436 170.569C32.6112 172.769 34.0211 174.904 35.2057 176.898" fill="#FFFFFE"/>
<path d="M35.206 177.554C34.9841 177.554 34.7687 177.439 34.6447 177.236C33.3589 175.075 31.9393 172.966 30.4217 170.966C28.2156 168.057 25.7484 165.306 23.0951 162.791C22.834 162.541 22.821 162.128 23.069 161.862C23.317 161.6 23.7282 161.587 23.9926 161.836C26.698 164.401 29.211 167.204 31.4628 170.172C33.0097 172.209 34.4554 174.36 35.7674 176.564C35.9534 176.875 35.8522 177.278 35.5422 177.462C35.4378 177.524 35.3203 177.554 35.2093 177.554H35.206Z" fill="#222525"/>
<path d="M52.1396 139.121H49.8976C49.8552 139.006 49.8062 138.891 49.754 138.78L51.3956 137.321C52.1103 136.684 52.1788 135.586 51.5457 134.864C50.9126 134.146 49.8193 134.077 49.1013 134.714L47.3716 136.252C47.3455 136.275 47.3227 136.304 47.2998 136.33C47.1889 136.281 47.0779 136.235 46.9637 136.193V134.091C46.9637 133.13 46.1902 132.353 45.234 132.353C44.2778 132.353 43.5044 133.13 43.5044 134.091V136.193C43.3445 136.252 43.1878 136.32 43.0377 136.396C42.9855 136.337 42.9365 136.278 42.8778 136.225L41.1285 134.71C40.404 134.084 39.3108 134.163 38.6874 134.891C38.0641 135.619 38.1424 136.717 38.8669 137.344L40.6162 138.859C40.6162 138.859 40.6488 138.878 40.6618 138.891C40.6292 138.967 40.6031 139.042 40.5737 139.118H38.4035C37.4473 139.118 36.6738 139.895 36.6738 140.856C36.6738 141.817 37.4473 142.594 38.4035 142.594H40.5509C40.5672 142.643 40.5835 142.692 40.6031 142.738C40.5966 142.741 40.5933 142.745 40.5868 142.751L38.8571 144.289C38.1424 144.925 38.0739 146.024 38.707 146.745C39.3401 147.463 40.4334 147.532 41.1514 146.896L42.881 145.358C42.881 145.358 42.9039 145.332 42.9169 145.319C43.1062 145.417 43.302 145.502 43.5011 145.578V147.664C43.5011 148.624 44.2746 149.402 45.2308 149.402C46.187 149.402 46.9604 148.624 46.9604 147.664V145.578C47.0812 145.532 47.1987 145.483 47.3162 145.43L49.0099 146.896C49.7344 147.523 50.8277 147.444 51.451 146.716C52.0744 145.988 51.996 144.889 51.2715 144.263L49.7671 142.958C49.8225 142.84 49.8682 142.718 49.9139 142.594H52.1331C53.0893 142.594 53.8628 141.817 53.8628 140.856C53.8628 139.895 53.0893 139.118 52.1331 139.118L52.1396 139.121Z" fill="#F45D48"/>
<path d="M52.1396 139.121H49.8976C49.8552 139.006 49.8062 138.891 49.754 138.78L51.3956 137.321C52.1103 136.684 52.1788 135.586 51.5457 134.864C50.9126 134.146 49.8193 134.077 49.1013 134.714L47.3716 136.252C47.3455 136.275 47.3227 136.304 47.2998 136.33C47.1889 136.281 47.0779 136.235 46.9637 136.193V134.091C46.9637 133.13 46.1902 132.353 45.234 132.353C44.2778 132.353 43.5044 133.13 43.5044 134.091V136.193C43.3445 136.252 43.1878 136.32 43.0377 136.396C42.9855 136.337 42.9365 136.278 42.8778 136.225L41.1285 134.71C40.404 134.084 39.3108 134.163 38.6874 134.891C38.0641 135.619 38.1424 136.717 38.8669 137.344L40.6162 138.859C40.6162 138.859 40.6488 138.878 40.6618 138.891C40.6292 138.967 40.6031 139.042 40.5737 139.118H38.4035C37.4473 139.118 36.6738 139.895 36.6738 140.856C36.6738 141.817 37.4473 142.594 38.4035 142.594H40.5509C40.5672 142.643 40.5835 142.692 40.6031 142.738C40.5966 142.741 40.5933 142.745 40.5868 142.751L38.8571 144.289C38.1424 144.925 38.0739 146.024 38.707 146.745C39.3401 147.463 40.4334 147.532 41.1514 146.896L42.881 145.358C42.881 145.358 42.9039 145.332 42.9169 145.319C43.1062 145.417 43.302 145.502 43.5011 145.578V147.664C43.5011 148.624 44.2746 149.402 45.2308 149.402C46.187 149.402 46.9604 148.624 46.9604 147.664V145.578C47.0812 145.532 47.1987 145.483 47.3162 145.43L49.0099 146.896C49.7344 147.523 50.8277 147.444 51.451 146.716C52.0744 145.988 51.996 144.889 51.2715 144.263L49.7671 142.958C49.8225 142.84 49.8682 142.718 49.9139 142.594H52.1331C53.0893 142.594 53.8628 141.817 53.8628 140.856C53.8628 139.895 53.0893 139.118 52.1331 139.118L52.1396 139.121Z" fill="#F45D48"/>
<path d="M52.1396 139.121H49.8976C49.8552 139.006 49.8062 138.891 49.754 138.78L51.3956 137.321C52.1103 136.684 52.1788 135.586 51.5457 134.864C50.9126 134.146 49.8193 134.077 49.1013 134.714L47.3716 136.252C47.3455 136.275 47.3227 136.304 47.2998 136.33C47.1889 136.281 47.0779 136.235 46.9637 136.193V134.091C46.9637 133.13 46.1902 132.353 45.234 132.353C44.2778 132.353 43.5044 133.13 43.5044 134.091V136.193C43.3445 136.252 43.1878 136.32 43.0377 136.396C42.9855 136.337 42.9365 136.278 42.8778 136.225L41.1285 134.71C40.404 134.084 39.3108 134.163 38.6874 134.891C38.0641 135.619 38.1424 136.717 38.8669 137.344L40.6162 138.859C40.6162 138.859 40.6488 138.878 40.6618 138.891C40.6292 138.967 40.6031 139.042 40.5737 139.118H38.4035C37.4473 139.118 36.6738 139.895 36.6738 140.856C36.6738 141.817 37.4473 142.594 38.4035 142.594H40.5509C40.5672 142.643 40.5835 142.692 40.6031 142.738C40.5966 142.741 40.5933 142.745 40.5868 142.751L38.8571 144.289C38.1424 144.925 38.0739 146.024 38.707 146.745C39.3401 147.463 40.4334 147.532 41.1514 146.896L42.881 145.358C42.881 145.358 42.9039 145.332 42.9169 145.319C43.1062 145.417 43.302 145.502 43.5011 145.578V147.664C43.5011 148.624 44.2746 149.402 45.2308 149.402C46.187 149.402 46.9604 148.624 46.9604 147.664V145.578C47.0812 145.532 47.1987 145.483 47.3162 145.43L49.0099 146.896C49.7344 147.523 50.8277 147.444 51.451 146.716C52.0744 145.988 51.996 144.889 51.2715 144.263L49.7671 142.958C49.8225 142.84 49.8682 142.718 49.9139 142.594H52.1331C53.0893 142.594 53.8628 141.817 53.8628 140.856C53.8628 139.895 53.0893 139.118 52.1331 139.118L52.1396 139.121Z" fill="#F45D48"/>
<path d="M52.1396 139.121H49.8976C49.8552 139.006 49.8062 138.891 49.754 138.78L51.3956 137.321C52.1103 136.684 52.1788 135.586 51.5457 134.864C50.9126 134.146 49.8193 134.077 49.1013 134.714L47.3716 136.252C47.3455 136.275 47.3227 136.304 47.2998 136.33C47.1889 136.281 47.0779 136.235 46.9637 136.193V134.091C46.9637 133.13 46.1902 132.353 45.234 132.353C44.2778 132.353 43.5044 133.13 43.5044 134.091V136.193C43.3445 136.252 43.1878 136.32 43.0377 136.396C42.9855 136.337 42.9365 136.278 42.8778 136.225L41.1285 134.71C40.404 134.084 39.3108 134.163 38.6874 134.891C38.0641 135.619 38.1424 136.717 38.8669 137.344L40.6162 138.859C40.6162 138.859 40.6488 138.878 40.6618 138.891C40.6292 138.967 40.6031 139.042 40.5737 139.118H38.4035C37.4473 139.118 36.6738 139.895 36.6738 140.856C36.6738 141.817 37.4473 142.594 38.4035 142.594H40.5509C40.5672 142.643 40.5835 142.692 40.6031 142.738C40.5966 142.741 40.5933 142.745 40.5868 142.751L38.8571 144.289C38.1424 144.925 38.0739 146.024 38.707 146.745C39.3401 147.463 40.4334 147.532 41.1514 146.896L42.881 145.358C42.881 145.358 42.9039 145.332 42.9169 145.319C43.1062 145.417 43.302 145.502 43.5011 145.578V147.664C43.5011 148.624 44.2746 149.402 45.2308 149.402C46.187 149.402 46.9604 148.624 46.9604 147.664V145.578C47.0812 145.532 47.1987 145.483 47.3162 145.43L49.0099 146.896C49.7344 147.523 50.8277 147.444 51.451 146.716C52.0744 145.988 51.996 144.889 51.2715 144.263L49.7671 142.958C49.8225 142.84 49.8682 142.718 49.9139 142.594H52.1331C53.0893 142.594 53.8628 141.817 53.8628 140.856C53.8628 139.895 53.0893 139.118 52.1331 139.118L52.1396 139.121Z" fill="#F45D48"/>
<path d="M52.1396 139.121H49.8976C49.8552 139.006 49.8062 138.891 49.754 138.78L51.3956 137.321C52.1103 136.684 52.1788 135.586 51.5457 134.864C50.9126 134.146 49.8193 134.077 49.1013 134.714L47.3716 136.252C47.3455 136.275 47.3227 136.304 47.2998 136.33C47.1889 136.281 47.0779 136.235 46.9637 136.193V134.091C46.9637 133.13 46.1902 132.353 45.234 132.353C44.2778 132.353 43.5044 133.13 43.5044 134.091V136.193C43.3445 136.252 43.1878 136.32 43.0377 136.396C42.9855 136.337 42.9365 136.278 42.8778 136.225L41.1285 134.71C40.404 134.084 39.3108 134.163 38.6874 134.891C38.0641 135.619 38.1424 136.717 38.8669 137.344L40.6162 138.859C40.6162 138.859 40.6488 138.878 40.6618 138.891C40.6292 138.967 40.6031 139.042 40.5737 139.118H38.4035C37.4473 139.118 36.6738 139.895 36.6738 140.856C36.6738 141.817 37.4473 142.594 38.4035 142.594H40.5509C40.5672 142.643 40.5835 142.692 40.6031 142.738C40.5966 142.741 40.5933 142.745 40.5868 142.751L38.8571 144.289C38.1424 144.925 38.0739 146.024 38.707 146.745C39.3401 147.463 40.4334 147.532 41.1514 146.896L42.881 145.358C42.881 145.358 42.9039 145.332 42.9169 145.319C43.1062 145.417 43.302 145.502 43.5011 145.578V147.664C43.5011 148.624 44.2746 149.402 45.2308 149.402C46.187 149.402 46.9604 148.624 46.9604 147.664V145.578C47.0812 145.532 47.1987 145.483 47.3162 145.43L49.0099 146.896C49.7344 147.523 50.8277 147.444 51.451 146.716C52.0744 145.988 51.996 144.889 51.2715 144.263L49.7671 142.958C49.8225 142.84 49.8682 142.718 49.9139 142.594H52.1331C53.0893 142.594 53.8628 141.817 53.8628 140.856C53.8628 139.895 53.0893 139.118 52.1331 139.118L52.1396 139.121Z" fill="#F45D48"/>
<path d="M52.1396 139.121H49.8976C49.8552 139.006 49.8062 138.891 49.754 138.78L51.3956 137.321C52.1103 136.684 52.1788 135.586 51.5457 134.864C50.9126 134.146 49.8193 134.077 49.1013 134.714L47.3716 136.252C47.3455 136.275 47.3227 136.304 47.2998 136.33C47.1889 136.281 47.0779 136.235 46.9637 136.193V134.091C46.9637 133.13 46.1902 132.353 45.234 132.353C44.2778 132.353 43.5044 133.13 43.5044 134.091V136.193C43.3445 136.252 43.1878 136.32 43.0377 136.396C42.9855 136.337 42.9365 136.278 42.8778 136.225L41.1285 134.71C40.404 134.084 39.3108 134.163 38.6874 134.891C38.0641 135.619 38.1424 136.717 38.8669 137.344L40.6162 138.859C40.6162 138.859 40.6488 138.878 40.6618 138.891C40.6292 138.967 40.6031 139.042 40.5737 139.118H38.4035C37.4473 139.118 36.6738 139.895 36.6738 140.856C36.6738 141.817 37.4473 142.594 38.4035 142.594H40.5509C40.5672 142.643 40.5835 142.692 40.6031 142.738C40.5966 142.741 40.5933 142.745 40.5868 142.751L38.8571 144.289C38.1424 144.925 38.0739 146.024 38.707 146.745C39.3401 147.463 40.4334 147.532 41.1514 146.896L42.881 145.358C42.881 145.358 42.9039 145.332 42.9169 145.319C43.1062 145.417 43.302 145.502 43.5011 145.578V147.664C43.5011 148.624 44.2746 149.402 45.2308 149.402C46.187 149.402 46.9604 148.624 46.9604 147.664V145.578C47.0812 145.532 47.1987 145.483 47.3162 145.43L49.0099 146.896C49.7344 147.523 50.8277 147.444 51.451 146.716C52.0744 145.988 51.996 144.889 51.2715 144.263L49.7671 142.958C49.8225 142.84 49.8682 142.718 49.9139 142.594H52.1331C53.0893 142.594 53.8628 141.817 53.8628 140.856C53.8628 139.895 53.0893 139.118 52.1331 139.118L52.1396 139.121Z" fill="#F45D48"/>
<path d="M52.1396 139.121H49.8976C49.8552 139.006 49.8062 138.891 49.754 138.78L51.3956 137.321C52.1103 136.684 52.1788 135.586 51.5457 134.864C50.9126 134.146 49.8193 134.077 49.1013 134.714L47.3716 136.252C47.3455 136.275 47.3227 136.304 47.2998 136.33C47.1889 136.281 47.0779 136.235 46.9637 136.193V134.091C46.9637 133.13 46.1902 132.353 45.234 132.353C44.2778 132.353 43.5044 133.13 43.5044 134.091V136.193C43.3445 136.252 43.1878 136.32 43.0377 136.396C42.9855 136.337 42.9365 136.278 42.8778 136.225L41.1285 134.71C40.404 134.084 39.3108 134.163 38.6874 134.891C38.0641 135.619 38.1424 136.717 38.8669 137.344L40.6162 138.859C40.6162 138.859 40.6488 138.878 40.6618 138.891C40.6292 138.967 40.6031 139.042 40.5737 139.118H38.4035C37.4473 139.118 36.6738 139.895 36.6738 140.856C36.6738 141.817 37.4473 142.594 38.4035 142.594H40.5509C40.5672 142.643 40.5835 142.692 40.6031 142.738C40.5966 142.741 40.5933 142.745 40.5868 142.751L38.8571 144.289C38.1424 144.925 38.0739 146.024 38.707 146.745C39.3401 147.463 40.4334 147.532 41.1514 146.896L42.881 145.358C42.881 145.358 42.9039 145.332 42.9169 145.319C43.1062 145.417 43.302 145.502 43.5011 145.578V147.664C43.5011 148.624 44.2746 149.402 45.2308 149.402C46.187 149.402 46.9604 148.624 46.9604 147.664V145.578C47.0812 145.532 47.1987 145.483 47.3162 145.43L49.0099 146.896C49.7344 147.523 50.8277 147.444 51.451 146.716C52.0744 145.988 51.996 144.889 51.2715 144.263L49.7671 142.958C49.8225 142.84 49.8682 142.718 49.9139 142.594H52.1331C53.0893 142.594 53.8628 141.817 53.8628 140.856C53.8628 139.895 53.0893 139.118 52.1331 139.118L52.1396 139.121Z" fill="#F45D48"/>
<path d="M28.8453 158.236L26.8611 159.282C26.7697 159.2 26.6751 159.121 26.5772 159.046L27.3539 156.987C27.6933 156.088 27.2429 155.085 26.3487 154.744C25.4545 154.402 24.4559 154.855 24.1165 155.754L23.2973 157.921C23.2843 157.954 23.281 157.99 23.268 158.026C23.1472 158.033 23.0265 158.046 22.909 158.062L21.9365 156.2C21.4926 155.35 20.445 155.022 19.5998 155.468C18.7545 155.914 18.4282 156.967 18.872 157.816L19.8445 159.679C19.7303 159.807 19.6226 159.938 19.5247 160.076C19.4529 160.049 19.3811 160.02 19.3061 160L17.0575 159.476C16.1274 159.259 15.1973 159.84 14.9786 160.777C14.7632 161.712 15.3409 162.647 16.2742 162.866L18.5228 163.391C18.5424 163.394 18.5587 163.394 18.5783 163.398C18.5848 163.48 18.5946 163.558 18.6044 163.64L16.6855 164.654C15.8402 165.1 15.5138 166.152 15.9577 167.002C16.4015 167.851 17.4491 168.179 18.2944 167.733L20.197 166.729C20.2362 166.765 20.2721 166.801 20.3112 166.834C20.3112 166.841 20.3047 166.847 20.3014 166.854L19.4823 169.022C19.1429 169.92 19.5932 170.924 20.4875 171.265C21.3817 171.606 22.3803 171.153 22.7197 170.255L23.5388 168.087C23.5454 168.071 23.5454 168.054 23.5519 168.038C23.764 168.038 23.9762 168.021 24.1915 167.995L25.1575 169.841C25.6014 170.691 26.649 171.019 27.4942 170.573C28.3395 170.127 28.6658 169.074 28.222 168.225L27.256 166.378C27.3408 166.283 27.4257 166.182 27.504 166.08L29.6808 166.588C30.6109 166.805 31.541 166.224 31.7596 165.286C31.975 164.352 31.3974 163.417 30.464 163.198L28.5255 162.745C28.519 162.614 28.5059 162.486 28.4863 162.355L30.451 161.318C31.2962 160.873 31.6226 159.82 31.1787 158.971C30.7349 158.121 29.6873 157.793 28.8421 158.239L28.8453 158.236Z" fill="#F45D48"/>
<path d="M28.8453 158.236L26.8611 159.282C26.7697 159.2 26.6751 159.121 26.5772 159.046L27.3539 156.987C27.6933 156.088 27.2429 155.085 26.3487 154.744C25.4545 154.402 24.4559 154.855 24.1165 155.754L23.2973 157.921C23.2843 157.954 23.281 157.99 23.268 158.026C23.1472 158.033 23.0265 158.046 22.909 158.062L21.9365 156.2C21.4926 155.35 20.445 155.022 19.5998 155.468C18.7545 155.914 18.4282 156.967 18.872 157.816L19.8445 159.679C19.7303 159.807 19.6226 159.938 19.5247 160.076C19.4529 160.049 19.3811 160.02 19.3061 160L17.0575 159.476C16.1274 159.259 15.1973 159.84 14.9786 160.777C14.7632 161.712 15.3409 162.647 16.2742 162.866L18.5228 163.391C18.5424 163.394 18.5587 163.394 18.5783 163.398C18.5848 163.48 18.5946 163.558 18.6044 163.64L16.6855 164.654C15.8402 165.1 15.5138 166.152 15.9577 167.002C16.4015 167.851 17.4491 168.179 18.2944 167.733L20.197 166.729C20.2362 166.765 20.2721 166.801 20.3112 166.834C20.3112 166.841 20.3047 166.847 20.3014 166.854L19.4823 169.022C19.1429 169.92 19.5932 170.924 20.4875 171.265C21.3817 171.606 22.3803 171.153 22.7197 170.255L23.5388 168.087C23.5454 168.071 23.5454 168.054 23.5519 168.038C23.764 168.038 23.9762 168.021 24.1915 167.995L25.1575 169.841C25.6014 170.691 26.649 171.019 27.4942 170.573C28.3395 170.127 28.6658 169.074 28.222 168.225L27.256 166.378C27.3408 166.283 27.4257 166.182 27.504 166.08L29.6808 166.588C30.6109 166.805 31.541 166.224 31.7596 165.286C31.975 164.352 31.3974 163.417 30.464 163.198L28.5255 162.745C28.519 162.614 28.5059 162.486 28.4863 162.355L30.451 161.318C31.2962 160.873 31.6226 159.82 31.1787 158.971C30.7349 158.121 29.6873 157.793 28.8421 158.239L28.8453 158.236Z" fill="#F45D48"/>
<path d="M28.8453 158.236L26.8611 159.282C26.7697 159.2 26.6751 159.121 26.5772 159.046L27.3539 156.987C27.6933 156.088 27.2429 155.085 26.3487 154.744C25.4545 154.402 24.4559 154.855 24.1165 155.754L23.2973 157.921C23.2843 157.954 23.281 157.99 23.268 158.026C23.1472 158.033 23.0265 158.046 22.909 158.062L21.9365 156.2C21.4926 155.35 20.445 155.022 19.5998 155.468C18.7545 155.914 18.4282 156.967 18.872 157.816L19.8445 159.679C19.7303 159.807 19.6226 159.938 19.5247 160.076C19.4529 160.049 19.3811 160.02 19.3061 160L17.0575 159.476C16.1274 159.259 15.1973 159.84 14.9786 160.777C14.7632 161.712 15.3409 162.647 16.2742 162.866L18.5228 163.391C18.5424 163.394 18.5587 163.394 18.5783 163.398C18.5848 163.48 18.5946 163.558 18.6044 163.64L16.6855 164.654C15.8402 165.1 15.5138 166.152 15.9577 167.002C16.4015 167.851 17.4491 168.179 18.2944 167.733L20.197 166.729C20.2362 166.765 20.2721 166.801 20.3112 166.834C20.3112 166.841 20.3047 166.847 20.3014 166.854L19.4823 169.022C19.1429 169.92 19.5932 170.924 20.4875 171.265C21.3817 171.606 22.3803 171.153 22.7197 170.255L23.5388 168.087C23.5454 168.071 23.5454 168.054 23.5519 168.038C23.764 168.038 23.9762 168.021 24.1915 167.995L25.1575 169.841C25.6014 170.691 26.649 171.019 27.4942 170.573C28.3395 170.127 28.6658 169.074 28.222 168.225L27.256 166.378C27.3408 166.283 27.4257 166.182 27.504 166.08L29.6808 166.588C30.6109 166.805 31.541 166.224 31.7596 165.286C31.975 164.352 31.3974 163.417 30.464 163.198L28.5255 162.745C28.519 162.614 28.5059 162.486 28.4863 162.355L30.451 161.318C31.2962 160.873 31.6226 159.82 31.1787 158.971C30.7349 158.121 29.6873 157.793 28.8421 158.239L28.8453 158.236Z" fill="#F45D48"/>
<path d="M28.8453 158.236L26.8611 159.282C26.7697 159.2 26.6751 159.121 26.5772 159.046L27.3539 156.987C27.6933 156.088 27.2429 155.085 26.3487 154.744C25.4545 154.402 24.4559 154.855 24.1165 155.754L23.2973 157.921C23.2843 157.954 23.281 157.99 23.268 158.026C23.1472 158.033 23.0265 158.046 22.909 158.062L21.9365 156.2C21.4926 155.35 20.445 155.022 19.5998 155.468C18.7545 155.914 18.4282 156.967 18.872 157.816L19.8445 159.679C19.7303 159.807 19.6226 159.938 19.5247 160.076C19.4529 160.049 19.3811 160.02 19.3061 160L17.0575 159.476C16.1274 159.259 15.1973 159.84 14.9786 160.777C14.7632 161.712 15.3409 162.647 16.2742 162.866L18.5228 163.391C18.5424 163.394 18.5587 163.394 18.5783 163.398C18.5848 163.48 18.5946 163.558 18.6044 163.64L16.6855 164.654C15.8402 165.1 15.5138 166.152 15.9577 167.002C16.4015 167.851 17.4491 168.179 18.2944 167.733L20.197 166.729C20.2362 166.765 20.2721 166.801 20.3112 166.834C20.3112 166.841 20.3047 166.847 20.3014 166.854L19.4823 169.022C19.1429 169.92 19.5932 170.924 20.4875 171.265C21.3817 171.606 22.3803 171.153 22.7197 170.255L23.5388 168.087C23.5454 168.071 23.5454 168.054 23.5519 168.038C23.764 168.038 23.9762 168.021 24.1915 167.995L25.1575 169.841C25.6014 170.691 26.649 171.019 27.4942 170.573C28.3395 170.127 28.6658 169.074 28.222 168.225L27.256 166.378C27.3408 166.283 27.4257 166.182 27.504 166.08L29.6808 166.588C30.6109 166.805 31.541 166.224 31.7596 165.286C31.975 164.352 31.3974 163.417 30.464 163.198L28.5255 162.745C28.519 162.614 28.5059 162.486 28.4863 162.355L30.451 161.318C31.2962 160.873 31.6226 159.82 31.1787 158.971C30.7349 158.121 29.6873 157.793 28.8421 158.239L28.8453 158.236Z" fill="#F45D48"/>
<path d="M28.8453 158.236L26.8611 159.282C26.7697 159.2 26.6751 159.121 26.5772 159.046L27.3539 156.987C27.6933 156.088 27.2429 155.085 26.3487 154.744C25.4545 154.402 24.4559 154.855 24.1165 155.754L23.2973 157.921C23.2843 157.954 23.281 157.99 23.268 158.026C23.1472 158.033 23.0265 158.046 22.909 158.062L21.9365 156.2C21.4926 155.35 20.445 155.022 19.5998 155.468C18.7545 155.914 18.4282 156.967 18.872 157.816L19.8445 159.679C19.7303 159.807 19.6226 159.938 19.5247 160.076C19.4529 160.049 19.3811 160.02 19.3061 160L17.0575 159.476C16.1274 159.259 15.1973 159.84 14.9786 160.777C14.7632 161.712 15.3409 162.647 16.2742 162.866L18.5228 163.391C18.5424 163.394 18.5587 163.394 18.5783 163.398C18.5848 163.48 18.5946 163.558 18.6044 163.64L16.6855 164.654C15.8402 165.1 15.5138 166.152 15.9577 167.002C16.4015 167.851 17.4491 168.179 18.2944 167.733L20.197 166.729C20.2362 166.765 20.2721 166.801 20.3112 166.834C20.3112 166.841 20.3047 166.847 20.3014 166.854L19.4823 169.022C19.1429 169.92 19.5932 170.924 20.4875 171.265C21.3817 171.606 22.3803 171.153 22.7197 170.255L23.5388 168.087C23.5454 168.071 23.5454 168.054 23.5519 168.038C23.764 168.038 23.9762 168.021 24.1915 167.995L25.1575 169.841C25.6014 170.691 26.649 171.019 27.4942 170.573C28.3395 170.127 28.6658 169.074 28.222 168.225L27.256 166.378C27.3408 166.283 27.4257 166.182 27.504 166.08L29.6808 166.588C30.6109 166.805 31.541 166.224 31.7596 165.286C31.975 164.352 31.3974 163.417 30.464 163.198L28.5255 162.745C28.519 162.614 28.5059 162.486 28.4863 162.355L30.451 161.318C31.2962 160.873 31.6226 159.82 31.1787 158.971C30.7349 158.121 29.6873 157.793 28.8421 158.239L28.8453 158.236Z" fill="#F45D48"/>
<path d="M28.8453 158.236L26.8611 159.282C26.7697 159.2 26.6751 159.121 26.5772 159.046L27.3539 156.987C27.6933 156.088 27.2429 155.085 26.3487 154.744C25.4545 154.402 24.4559 154.855 24.1165 155.754L23.2973 157.921C23.2843 157.954 23.281 157.99 23.268 158.026C23.1472 158.033 23.0265 158.046 22.909 158.062L21.9365 156.2C21.4926 155.35 20.445 155.022 19.5998 155.468C18.7545 155.914 18.4282 156.967 18.872 157.816L19.8445 159.679C19.7303 159.807 19.6226 159.938 19.5247 160.076C19.4529 160.049 19.3811 160.02 19.3061 160L17.0575 159.476C16.1274 159.259 15.1973 159.84 14.9786 160.777C14.7632 161.712 15.3409 162.647 16.2742 162.866L18.5228 163.391C18.5424 163.394 18.5587 163.394 18.5783 163.398C18.5848 163.48 18.5946 163.558 18.6044 163.64L16.6855 164.654C15.8402 165.1 15.5138 166.152 15.9577 167.002C16.4015 167.851 17.4491 168.179 18.2944 167.733L20.197 166.729C20.2362 166.765 20.2721 166.801 20.3112 166.834C20.3112 166.841 20.3047 166.847 20.3014 166.854L19.4823 169.022C19.1429 169.92 19.5932 170.924 20.4875 171.265C21.3817 171.606 22.3803 171.153 22.7197 170.255L23.5388 168.087C23.5454 168.071 23.5454 168.054 23.5519 168.038C23.764 168.038 23.9762 168.021 24.1915 167.995L25.1575 169.841C25.6014 170.691 26.649 171.019 27.4942 170.573C28.3395 170.127 28.6658 169.074 28.222 168.225L27.256 166.378C27.3408 166.283 27.4257 166.182 27.504 166.08L29.6808 166.588C30.6109 166.805 31.541 166.224 31.7596 165.286C31.975 164.352 31.3974 163.417 30.464 163.198L28.5255 162.745C28.519 162.614 28.5059 162.486 28.4863 162.355L30.451 161.318C31.2962 160.873 31.6226 159.82 31.1787 158.971C30.7349 158.121 29.6873 157.793 28.8421 158.239L28.8453 158.236Z" fill="#F45D48"/>
<path d="M28.8453 158.236L26.8611 159.282C26.7697 159.2 26.6751 159.121 26.5772 159.046L27.3539 156.987C27.6933 156.088 27.2429 155.085 26.3487 154.744C25.4545 154.402 24.4559 154.855 24.1165 155.754L23.2973 157.921C23.2843 157.954 23.281 157.99 23.268 158.026C23.1472 158.033 23.0265 158.046 22.909 158.062L21.9365 156.2C21.4926 155.35 20.445 155.022 19.5998 155.468C18.7545 155.914 18.4282 156.967 18.872 157.816L19.8445 159.679C19.7303 159.807 19.6226 159.938 19.5247 160.076C19.4529 160.049 19.3811 160.02 19.3061 160L17.0575 159.476C16.1274 159.259 15.1973 159.84 14.9786 160.777C14.7632 161.712 15.3409 162.647 16.2742 162.866L18.5228 163.391C18.5424 163.394 18.5587 163.394 18.5783 163.398C18.5848 163.48 18.5946 163.558 18.6044 163.64L16.6855 164.654C15.8402 165.1 15.5138 166.152 15.9577 167.002C16.4015 167.851 17.4491 168.179 18.2944 167.733L20.197 166.729C20.2362 166.765 20.2721 166.801 20.3112 166.834C20.3112 166.841 20.3047 166.847 20.3014 166.854L19.4823 169.022C19.1429 169.92 19.5932 170.924 20.4875 171.265C21.3817 171.606 22.3803 171.153 22.7197 170.255L23.5388 168.087C23.5454 168.071 23.5454 168.054 23.5519 168.038C23.764 168.038 23.9762 168.021 24.1915 167.995L25.1575 169.841C25.6014 170.691 26.649 171.019 27.4942 170.573C28.3395 170.127 28.6658 169.074 28.222 168.225L27.256 166.378C27.3408 166.283 27.4257 166.182 27.504 166.08L29.6808 166.588C30.6109 166.805 31.541 166.224 31.7596 165.286C31.975 164.352 31.3974 163.417 30.464 163.198L28.5255 162.745C28.519 162.614 28.5059 162.486 28.4863 162.355L30.451 161.318C31.2962 160.873 31.6226 159.82 31.1787 158.971C30.7349 158.121 29.6873 157.793 28.8421 158.239L28.8453 158.236Z" fill="#F45D48"/>
<path d="M24.1061 141.711C27.6316 141.711 30.4895 138.84 30.4895 135.297C30.4895 131.755 27.6316 128.883 24.1061 128.883C20.5806 128.883 17.7227 131.755 17.7227 135.297C17.7227 138.84 20.5806 141.711 24.1061 141.711Z" fill="#078071"/>
<path d="M45.8474 166.847C48.3401 166.847 50.3609 164.816 50.3609 162.312C50.3609 159.807 48.3401 157.776 45.8474 157.776C43.3547 157.776 41.334 159.807 41.334 162.312C41.334 164.816 43.3547 166.847 45.8474 166.847Z" fill="#078071"/>
<path d="M44.6266 186.591L44.9203 178.301C44.9562 177.262 44.1305 176.402 43.096 176.402H29.8461C28.805 176.402 27.9761 177.275 28.0218 178.321L28.371 186.116C28.446 187.759 27.6138 189.306 26.2105 190.149C20.0294 193.858 15.9566 200.748 16.247 208.575C16.6452 219.358 25.4436 228.074 36.1806 228.33C47.6975 228.605 57.1193 219.305 57.1193 207.795C57.1193 200.069 52.9518 193.727 46.6956 190.3C45.3609 189.569 44.5744 188.123 44.6298 186.598L44.6266 186.591Z" fill="#FFFFFE"/>
<path d="M36.6804 228.986C36.5074 228.986 36.3377 228.986 36.1647 228.979C25.0426 228.714 16.006 219.761 15.5948 208.592C15.3076 200.84 19.2499 193.557 25.8781 189.579C27.0758 188.861 27.784 187.542 27.7187 186.139L27.3695 178.344C27.3402 177.659 27.5817 177.006 28.0549 176.511C28.5281 176.016 29.1645 175.74 29.8465 175.74H43.0964C43.7752 175.74 44.4084 176.009 44.8816 176.501C45.3548 176.993 45.5996 177.639 45.5734 178.318L45.2797 186.608C45.234 187.893 45.9128 189.11 47.0061 189.71C53.7453 193.406 57.7725 200.161 57.7725 207.782C57.7725 213.537 55.5141 218.925 51.4151 222.949C47.4402 226.851 42.2251 228.979 36.6804 228.979V228.986ZM29.8465 177.055C29.5235 177.055 29.2232 177.183 28.998 177.419C28.7761 177.655 28.6586 177.964 28.6749 178.288L29.0241 186.083C29.109 187.969 28.1593 189.743 26.5471 190.71C20.3301 194.442 16.6326 201.276 16.9002 208.55C17.2853 219.024 25.7606 227.425 36.1941 227.674C41.5756 227.809 46.6569 225.795 50.5014 222.021C54.3458 218.246 56.4638 213.193 56.4638 207.792C56.4638 200.66 52.6944 194.334 46.3795 190.871C44.8555 190.035 43.9123 188.346 43.9743 186.568L44.268 178.278C44.2811 177.957 44.1636 177.649 43.9384 177.419C43.7132 177.19 43.4163 177.059 43.0932 177.059H29.8433L29.8465 177.055Z" fill="#222525"/>
<path d="M45.2734 143.272C46.5387 143.272 47.5644 142.241 47.5644 140.97C47.5644 139.699 46.5387 138.668 45.2734 138.668C44.0081 138.668 42.9824 139.699 42.9824 140.97C42.9824 142.241 44.0081 143.272 45.2734 143.272Z" fill="#FFFFFE"/>
<path d="M23.2773 165.306C24.5426 165.306 25.5683 164.276 25.5683 163.004C25.5683 161.733 24.5426 160.702 23.2773 160.702C22.012 160.702 20.9863 161.733 20.9863 163.004C20.9863 164.276 22.012 165.306 23.2773 165.306Z" fill="#FFFFFE"/>
<path d="M24.8142 224.494C25.6138 223.572 29.2559 219.578 35.3195 219.027C43.0801 218.325 48.1451 223.871 48.6966 224.494" fill="#FFFFFE"/>
<path d="M48.2077 224.93C47.6725 224.323 42.7544 219.008 35.3788 219.683C29.9679 220.172 26.5314 223.513 25.3076 224.927L24.322 224.064C25.6503 222.533 29.3772 218.909 35.2613 218.375C43.1134 217.663 48.2371 222.985 49.1835 224.058L48.2077 224.927V224.93Z" fill="#222525"/>
<path d="M161.998 61.6111L148.66 64.2444C143.367 64.5494 138.827 60.4863 138.524 55.1673L138.338 51.9438L158.65 47.7627L161.998 61.6111Z" fill="#222525"/>
<path d="M114.24 45.9277L158.973 37.3533L161.626 51.3301L130.803 57.2383C123.126 58.71 115.705 53.6425 114.24 45.9277Z" fill="#222525"/>
</g>
<defs>
<clipPath id="clip0_654_8035">
<rect width="237" height="233" fill="white"/>
</clipPath>
</defs>
</svg>
