<svg width="237" height="233" viewBox="0 0 237 233" fill="none" xmlns="http://www.w3.org/2000/svg">
<g clip-path="url(#clip0_650_7723)">
<path d="M150.858 0.655884H207.777C214.699 0.655884 220.309 6.29298 220.309 13.2484V139.16C220.309 146.702 214.222 152.818 206.716 152.818H172.551C172.185 148.132 172.319 142.757 173.494 136.969C178.52 112.148 198.884 98.2803 205.147 94.355C196.714 92.9679 190.19 90.1837 185.265 87.2947C147.343 65.0283 150.603 4.96487 150.894 0.655884" fill="#6A6C7E"/>
<path d="M220.31 101.937C220.235 101.937 220.16 101.924 220.084 101.897C214.569 99.874 209.393 97.1981 204.697 93.9385C190.08 83.7891 179.787 68.0026 174.105 47.0217C170.221 32.6879 169.448 19.4429 169.484 10.8544C169.484 10.4937 169.777 10.2018 170.136 10.2018C170.495 10.2018 170.789 10.497 170.786 10.861C170.753 19.3675 171.52 32.4846 175.361 46.6774C180.961 67.3533 191.078 82.8906 205.438 92.8596C210.043 96.0569 215.121 98.6836 220.528 100.668C220.868 100.792 221.041 101.169 220.917 101.507C220.819 101.773 220.571 101.94 220.303 101.94L220.31 101.937Z" fill="black"/>
<path d="M220.309 101.937C220.107 101.937 219.905 101.842 219.777 101.664C215.407 95.5388 211.592 88.9868 208.44 82.1954C201.883 68.0747 198.094 52.8392 197.171 36.9117C197.151 36.5509 197.425 36.2394 197.784 36.2197C198.15 36.2001 198.453 36.4755 198.473 36.8362C199.384 52.5998 203.137 67.6747 209.621 81.6412C212.741 88.3604 216.514 94.837 220.838 100.9C221.047 101.196 220.982 101.605 220.688 101.815C220.574 101.897 220.44 101.937 220.309 101.937Z" fill="black"/>
<path d="M111.48 0.655884H54.5612C47.6393 0.655884 42.0293 6.29298 42.0293 13.2484V139.16C42.0293 146.702 48.1158 152.818 55.6219 152.818H89.7876C90.1531 148.132 90.0193 142.757 88.8445 136.969C83.8187 112.148 63.4543 98.2803 57.1916 94.355C65.6245 92.9679 72.1483 90.1837 77.073 87.2947C114.995 65.0283 111.735 4.96487 111.444 0.655884" fill="#6A6C7E"/>
<path d="M42.0302 101.937C41.7626 101.937 41.5146 101.773 41.4167 101.504C41.2927 101.163 41.4689 100.786 41.8051 100.664C47.216 98.6803 52.294 96.0536 56.8956 92.8596C71.2518 82.8906 81.372 67.3533 86.9722 46.6774C90.8166 32.4846 91.5835 19.3642 91.5476 10.861C91.5476 10.5003 91.8381 10.2051 92.1971 10.2018C92.556 10.2018 92.8498 10.4937 92.8498 10.8544C92.8824 19.4429 92.1089 32.6879 88.2286 47.0217C82.5468 68.0026 72.2537 83.7891 57.6364 93.9385C52.9402 97.1981 47.7643 99.8773 42.2489 101.897C42.1738 101.924 42.0988 101.937 42.0237 101.937H42.0302Z" fill="black"/>
<path d="M42.0296 101.937C41.8991 101.937 41.7653 101.897 41.651 101.815C41.3573 101.605 41.292 101.196 41.5009 100.9C45.8251 94.837 49.5977 88.3604 52.7144 81.6411C59.199 67.6714 62.9488 52.5965 63.8625 36.8362C63.8821 36.4755 64.1889 36.2033 64.5511 36.2197C64.9101 36.2394 65.1843 36.5509 65.1647 36.9116C64.2444 52.8391 60.4522 68.0747 53.8958 82.1953C50.7432 88.9867 46.9281 95.5355 42.5583 101.664C42.431 101.842 42.2319 101.937 42.0263 101.937H42.0296Z" fill="black"/>
<path d="M208.347 153.487H54.5238C47.3865 153.487 41.584 147.653 41.584 140.485V13.0024C41.584 5.83385 47.3898 0 54.5238 0H208.347C215.484 0 221.286 5.83385 221.286 13.0024V140.481C221.286 147.653 215.481 153.484 208.347 153.484V153.487ZM54.5238 1.31172C48.1078 1.31172 42.8894 6.5553 42.8894 13.0024V140.481C42.8894 146.929 48.1078 152.172 54.5238 152.172H208.347C214.763 152.172 219.981 146.929 219.981 140.481V13.0024C219.981 6.5553 214.763 1.31172 208.347 1.31172H54.5238Z" fill="#6A6C7E"/>
<path d="M116.002 74.2856C108.033 81.1525 105.354 91.2297 108.859 98.5557C111.264 103.576 115.911 105.921 117.97 106.797C124.654 105.177 131.338 103.557 138.018 101.937L132.973 82.2609C127.317 79.6047 121.658 76.9451 116.002 74.2889V74.2856Z" fill="black"/>
<path d="M90.7133 201.68H1.72692C1.36794 201.68 1.07422 201.384 1.07422 201.024C1.07422 200.663 1.36794 200.368 1.72692 200.368H90.7133C91.0723 200.368 91.366 200.663 91.366 201.024C91.366 201.384 91.0723 201.68 90.7133 201.68Z" fill="black"/>
<path d="M170.385 49.6418C176.24 68.2879 184.49 75.8171 191.268 79.1554C195.185 81.0836 200.162 82.3757 204.509 87.3766C209.201 92.7776 210.5 99.4444 210.846 104.347C194.894 103.022 178.942 101.694 162.99 100.369L153.092 52.9441C158.855 51.8422 164.622 50.7404 170.385 49.6385V49.6418Z" fill="black"/>
<path d="M127.536 34.2663L142.061 31.4821C155.576 28.8915 168.639 37.8117 171.217 51.3923L172.386 57.548L113.984 68.7425L111.844 57.4683C109.802 46.716 116.832 36.318 127.536 34.2663Z" fill="black"/>
<path d="M164.209 69.2488C163.792 64.907 160.048 61.7163 155.819 62.0705L153.831 51.5407C152.506 44.4869 145.859 39.85 138.982 41.1781L119.878 44.8706C114.699 45.8708 111.311 50.9865 112.306 56.2956L116.745 79.9524C118.321 88.3539 126.242 93.8828 134.436 92.2989L135.321 92.1284L137.781 105.242L163.015 100.366L160.101 84.8353H160.078L158.736 77.6208C162.212 76.5551 164.578 73.0921 164.206 69.2488H164.209Z" fill="white"/>
<path d="M137.266 106.013L134.806 92.899L134.564 92.9449C130.485 93.7352 126.33 92.8662 122.871 90.5019C119.317 88.0719 116.915 84.3696 116.109 80.077L111.671 56.4202C110.61 50.7634 114.239 45.2936 119.761 44.2278L138.865 40.5353C142.315 39.8696 145.83 40.6009 148.757 42.6013C151.766 44.6574 153.796 47.7891 154.478 51.4193L156.361 61.3883C156.394 61.3883 156.423 61.3883 156.456 61.3883C160.738 61.3883 164.438 64.7529 164.866 69.1865C165.238 73.0659 163.002 76.7026 159.491 78.0569L160.613 84.1007L160.751 84.7139L163.786 100.887L137.27 106.013H137.266ZM135.847 91.3643L138.307 104.478L162.258 99.8478L159.585 85.6026L159.442 84.9599L157.993 77.165L158.551 76.9945C161.788 76.0041 163.897 72.7707 163.564 69.3111C163.182 65.3563 159.732 62.3983 155.878 62.723L155.294 62.7722L153.196 51.662C152.579 48.3761 150.741 45.5428 148.023 43.6867C145.383 41.8831 142.22 41.2207 139.11 41.8241L120.006 45.5166C115.189 46.4479 112.023 51.2291 112.953 56.1775L117.391 79.8343C118.132 83.7826 120.338 87.1865 123.605 89.4164C126.777 91.584 130.583 92.3809 134.319 91.6562L135.847 91.361V91.3643Z" fill="black"/>
<path d="M156.663 73.1674C156.052 73.1674 155.468 72.9576 154.992 72.5641C154.447 72.1148 154.111 71.4786 154.042 70.7736C153.974 70.0685 154.182 69.3799 154.633 68.8322C155.08 68.2846 155.713 67.9468 156.415 67.8812C157.12 67.8124 157.802 68.0222 158.343 68.4748C158.885 68.9273 159.225 69.5602 159.29 70.2653C159.43 71.718 158.366 73.0166 156.917 73.1576C156.832 73.1674 156.744 73.1707 156.659 73.1707L156.663 73.1674ZM156.669 69.1798C156.627 69.1798 156.581 69.1798 156.539 69.1864C156.186 69.2225 155.866 69.393 155.638 69.6684C155.413 69.9439 155.305 70.2915 155.341 70.649C155.377 71.0031 155.547 71.3245 155.821 71.554C156.095 71.7836 156.441 71.8918 156.796 71.8525C157.528 71.7803 158.063 71.1277 157.994 70.3932C157.958 70.039 157.789 69.7176 157.514 69.4881C157.273 69.2881 156.979 69.1831 156.672 69.1831L156.669 69.1798Z" fill="black"/>
<path d="M135.273 91.5053L150.521 88.1047C150.984 87.9998 151.235 88.6294 150.827 88.8786L136.184 96.0439L135.273 91.5053Z" fill="black"/>
<path d="M154.857 72C154.576 72 154.319 71.8164 154.234 71.5343C153.744 69.9209 154.149 68.16 155.285 66.9433C156.959 65.1496 159.263 65.4939 159.517 65.5398C159.873 65.6021 160.111 65.9432 160.046 66.3006C159.984 66.658 159.648 66.8974 159.289 66.8318C159.214 66.8187 157.461 66.5269 156.234 67.8419C155.415 68.7207 155.125 69.9898 155.48 71.1539C155.585 71.5015 155.392 71.8655 155.046 71.9738C154.984 71.9934 154.919 72.0033 154.857 72.0033V72Z" fill="black"/>
<path d="M120.021 72.1148C120.865 72.1148 121.549 71.4277 121.549 70.5801C121.549 69.7325 120.865 69.0454 120.021 69.0454C119.178 69.0454 118.494 69.7325 118.494 70.5801C118.494 71.4277 119.178 72.1148 120.021 72.1148Z" fill="black"/>
<path d="M135.066 68.9831C135.91 68.9831 136.594 68.296 136.594 67.4484C136.594 66.6008 135.91 65.9137 135.066 65.9137C134.223 65.9137 133.539 66.6008 133.539 67.4484C133.539 68.296 134.223 68.9831 135.066 68.9831Z" fill="black"/>
<path d="M127.121 75.9648C127.092 75.9648 127.059 75.9648 127.027 75.9582C125.878 75.7943 124.684 75.5024 124.517 74.5875C124.442 74.1776 124.628 73.8792 124.788 73.6135C124.85 73.5152 124.925 73.3938 125 73.243C125.281 72.6855 125.392 72.0428 125.323 71.3672L124.651 64.7168C124.615 64.3561 124.876 64.0347 125.235 63.9987C125.601 63.9626 125.914 64.2249 125.95 64.5857L126.622 71.2361C126.717 72.1641 126.56 73.0593 126.172 73.8234C126.064 74.0333 125.973 74.1809 125.898 74.3055L125.885 74.3284C126.054 74.4137 126.426 74.5481 127.213 74.6596C127.569 74.7121 127.817 75.0433 127.768 75.4008C127.722 75.7287 127.441 75.9648 127.121 75.9648Z" fill="black"/>
<path d="M129.726 82.4315C128.486 82.4315 127.494 82.0413 127.435 82.015C127.099 81.8806 126.939 81.4969 127.073 81.1624C127.206 80.8279 127.585 80.664 127.921 80.7984C127.944 80.8083 129.703 81.4904 131.178 80.8411C131.945 80.5033 132.519 79.8441 132.885 78.8866C133.015 78.5488 133.394 78.3816 133.727 78.5095C134.063 78.6407 134.229 79.0178 134.102 79.3555C133.603 80.6574 132.794 81.5625 131.69 82.0446C131.031 82.3331 130.349 82.4315 129.729 82.4315H129.726Z" fill="black"/>
<path d="M97.9218 204.913C109.602 205.218 121.282 205.523 132.962 205.824C158.016 206.477 183.07 207.13 208.121 207.782C201.016 170.634 193.915 133.49 186.81 96.3422C168.368 97.5194 148.19 99.8477 126.647 103.914C126.23 103.993 124.399 104.229 121.971 104.711C114.256 106.249 102.687 108.558 97.0145 114.942C91.77 120.845 92.2204 129.496 92.6512 136.117C94.0023 156.855 95.6667 179.741 97.9153 204.91L97.9218 204.913Z" fill="#D2D4E9"/>
<path d="M169.602 42.4537C176.578 42.4537 182.232 36.7718 182.232 29.7628C182.232 22.7538 176.578 17.072 169.602 17.072C162.627 17.072 156.973 22.7538 156.973 29.7628C156.973 36.7718 162.627 42.4537 169.602 42.4537Z" fill="black"/>
<path d="M236.843 210.747L191.803 222.739L163.391 99.4116L185.556 96.211C203.166 93.6696 219.634 105.544 222.875 123.121L236.843 210.743V210.747Z" fill="#D2D4E9"/>
<path d="M165.396 106.056L136.416 110.663L134.174 98.4443C133.965 97.3129 134.706 96.2275 135.832 96.0111L159.717 91.4135C160.801 91.2036 161.862 91.8824 162.129 92.9613L165.393 106.059L165.396 106.056Z" fill="#D2D4E9"/>
<path d="M168.689 157.479L179.32 150.4C186.959 145.314 197.272 147.417 202.334 155.092L233.982 203.084C239.511 211.468 237.225 222.785 228.882 228.34C216.079 236.865 198.799 233.339 190.317 220.477L164.022 180.602C158.96 172.926 161.052 162.564 168.691 157.477L168.689 157.479Z" fill="#D2D4E9"/>
<path d="M144.33 103.855C144.013 103.855 143.733 103.622 143.684 103.294L142.499 95.2207C142.447 94.8632 142.692 94.5288 143.051 94.4763C143.406 94.4238 143.739 94.6698 143.792 95.0305L144.976 103.104C145.028 103.462 144.784 103.796 144.425 103.848C144.392 103.852 144.359 103.855 144.33 103.855Z" fill="black"/>
<path d="M153.297 102.127C152.98 102.127 152.7 101.894 152.651 101.566L151.466 93.4924C151.414 93.135 151.659 92.8005 152.018 92.748C152.37 92.6988 152.706 92.9415 152.758 93.3022L153.943 101.376C153.995 101.733 153.75 102.068 153.391 102.12C153.359 102.124 153.326 102.127 153.297 102.127Z" fill="black"/>
<path d="M225.918 191.514C225.706 191.514 225.5 191.412 225.373 191.219L203.21 157.612C202.143 155.842 199.098 151.588 193.514 149.824C190.091 148.742 186.994 148.994 185 149.395C184.647 149.467 184.301 149.234 184.233 148.88C184.164 148.525 184.393 148.178 184.745 148.109C187.819 147.489 190.988 147.65 193.906 148.571C199.911 150.467 203.184 155.035 204.313 156.911L226.459 190.494C226.659 190.796 226.577 191.202 226.277 191.402C226.166 191.478 226.042 191.51 225.918 191.51V191.514Z" fill="black"/>
<path d="M181.433 207.668C181.221 207.668 181.015 207.566 180.888 207.372L168.434 188.487C167.929 187.72 167.364 186.916 166.659 185.959C161.65 179.161 160.915 174.76 160.853 174.324C158.787 164.42 164.57 160.233 164.818 160.059C165.115 159.852 165.52 159.924 165.726 160.223C165.931 160.518 165.859 160.928 165.566 161.134C165.341 161.295 160.243 165.05 162.133 174.078L162.142 174.13C162.149 174.17 162.766 178.479 167.707 185.178C168.425 186.152 169.002 186.975 169.521 187.762L181.975 206.651C182.174 206.953 182.092 207.359 181.792 207.559C181.681 207.635 181.557 207.668 181.433 207.668Z" fill="black"/>
<path d="M133.862 227.717H87.8042L85.1836 213.987H137.746L133.859 227.717H133.862ZM88.8844 226.405H132.877L136.019 215.298H86.7631L88.8812 226.405H88.8844Z" fill="black"/>
<path d="M110.323 227.717C109.964 227.717 109.67 227.422 109.67 227.061V214.643C109.67 214.282 109.964 213.987 110.323 213.987C110.682 213.987 110.975 214.282 110.975 214.643V227.061C110.975 227.422 110.682 227.717 110.323 227.717Z" fill="black"/>
<path d="M89.7198 230.855C91.7872 230.855 93.4631 229.157 93.4631 227.061C93.4631 224.966 91.7872 223.267 89.7198 223.267C87.6525 223.267 85.9766 224.966 85.9766 227.061C85.9766 229.157 87.6525 230.855 89.7198 230.855Z" fill="black"/>
<path d="M110.352 230.855C112.437 230.855 114.128 229.157 114.128 227.061C114.128 224.966 112.437 223.267 110.352 223.267C108.267 223.267 106.576 224.966 106.576 227.061C106.576 229.157 108.267 230.855 110.352 230.855Z" fill="black"/>
<path d="M131.941 230.855C134.007 230.855 135.681 229.157 135.681 227.061C135.681 224.966 134.007 223.267 131.941 223.267C129.876 223.267 128.201 224.966 128.201 227.061C128.201 229.157 129.876 230.855 131.941 230.855Z" fill="black"/>
<path d="M146.916 185.719C146.779 185.719 146.639 185.677 146.522 185.585C146.234 185.365 146.179 184.955 146.398 184.667L154.139 174.419C154.406 174.058 154.445 173.599 154.243 173.192C154.041 172.786 153.649 172.543 153.199 172.543H129.649C128.429 172.543 127.286 173.143 126.591 174.153L123.217 179.043C123.011 179.341 122.603 179.413 122.31 179.207C122.013 179 121.941 178.59 122.146 178.295L125.521 173.405C126.461 172.045 128.004 171.231 129.652 171.231H153.202C154.145 171.231 154.99 171.756 155.415 172.602C155.836 173.448 155.748 174.445 155.186 175.206L147.442 185.457C147.315 185.627 147.119 185.716 146.923 185.716L146.916 185.719Z" fill="black"/>
<path d="M89.6316 207.399L79.3189 179.374C78.6629 177.593 79.5702 175.613 81.3422 174.953L96.8635 169.185C98.6356 168.526 100.607 169.438 101.263 171.218L110.893 197.39C111.925 200.194 110.499 203.309 107.708 204.346L94.0275 209.429C92.2555 210.088 90.2843 209.176 89.6283 207.395L89.6316 207.399Z" fill="white"/>
<path d="M92.8401 210.304C92.2592 210.304 91.6815 210.179 91.1398 209.927C90.1509 209.471 89.3971 208.651 89.0218 207.625L78.709 179.6C78.3305 178.574 78.3729 177.462 78.8298 176.468C79.2834 175.475 80.0993 174.717 81.1175 174.337L96.6388 168.569C97.6603 168.188 98.7666 168.231 99.7555 168.69C100.744 169.146 101.498 169.966 101.873 170.989L111.504 197.161C112.062 198.682 112 200.328 111.325 201.804C110.649 203.277 109.445 204.398 107.931 204.959L94.2499 210.042C93.7898 210.212 93.31 210.297 92.8335 210.297L92.8401 210.304ZM98.0552 169.628C97.7321 169.628 97.4057 169.687 97.0924 169.802L81.5711 175.57C80.876 175.829 80.3245 176.34 80.0144 177.019C79.7044 177.695 79.675 178.452 79.9329 179.148L90.2456 207.172C90.5034 207.871 91.0125 208.425 91.6848 208.737C92.3571 209.048 93.1109 209.078 93.8028 208.819L107.483 203.736C108.671 203.296 109.615 202.417 110.143 201.263C110.672 200.109 110.721 198.817 110.284 197.623L100.653 171.451C100.395 170.753 99.886 170.198 99.2137 169.887C98.8449 169.716 98.4501 169.631 98.0584 169.631L98.0552 169.628Z" fill="black"/>
<path d="M127.271 207.687L100.973 193.744C99.3022 192.858 98.6592 190.776 99.5437 189.097L107.268 174.389C108.15 172.71 110.222 172.064 111.893 172.953L136.454 185.975C139.084 187.372 140.093 190.645 138.706 193.291L131.898 206.254C131.017 207.933 128.945 208.579 127.274 207.69L127.271 207.687Z" fill="white"/>
<path d="M128.863 208.74C128.223 208.74 127.574 208.589 126.967 208.268L100.669 194.324C98.6819 193.271 97.9182 190.789 98.9658 188.789L106.691 174.081C107.2 173.114 108.051 172.402 109.093 172.081C110.134 171.756 111.237 171.861 112.199 172.373L136.761 185.395C139.708 186.955 140.837 190.635 139.283 193.596L132.476 206.559C131.745 207.95 130.328 208.743 128.863 208.743V208.74ZM127.577 207.107C128.928 207.822 130.609 207.3 131.32 205.943L138.128 192.98C139.345 190.658 138.458 187.775 136.15 186.552L111.589 173.53C110.936 173.182 110.186 173.114 109.478 173.333C108.769 173.553 108.192 174.035 107.846 174.694L100.121 189.402C99.4064 190.759 99.9286 192.448 101.28 193.163L127.577 207.107Z" fill="black"/>
<path d="M143.777 183.575H82.2923C80.3538 183.575 78.9146 185.375 79.3323 187.277L85.5199 215.531H137.394L146.75 187.739C147.439 185.696 145.924 183.575 143.777 183.575Z" fill="#6A6C7E"/>
<path d="M110.323 211.717C109.964 211.717 109.67 211.422 109.67 211.062V187.119C109.67 186.759 109.964 186.464 110.323 186.464C110.682 186.464 110.975 186.759 110.975 187.119V211.062C110.975 211.422 110.682 211.717 110.323 211.717Z" fill="black"/>
<path d="M120.952 178.413C120.612 178.413 120.325 178.147 120.302 177.803L119.31 163.469C119.284 163.109 119.555 162.794 119.917 162.771C120.273 162.751 120.59 163.017 120.612 163.381L121.605 177.715C121.631 178.075 121.36 178.39 120.998 178.413C120.981 178.413 120.968 178.413 120.952 178.413Z" fill="black"/>
<path d="M114.386 164.319C110.77 164.319 107.673 161.538 107.337 157.849L106.009 143.085C105.836 141.193 106.407 139.344 107.618 137.884C108.829 136.422 110.532 135.523 112.415 135.349L149.273 131.85L151.28 153.802C151.453 155.694 150.882 157.544 149.671 159.006C148.461 160.469 146.757 161.367 144.874 161.541L115.039 164.292C114.82 164.312 114.602 164.322 114.386 164.322V164.319ZM148.095 133.28L112.539 136.658C110.999 136.799 109.609 137.533 108.623 138.727C107.637 139.921 107.171 141.426 107.311 142.97L108.639 157.734C108.93 160.921 111.749 163.272 114.922 162.984L144.757 160.233C146.294 160.092 147.684 159.357 148.67 158.163C149.658 156.97 150.122 155.464 149.981 153.92L148.095 133.28Z" fill="white"/>
<path d="M152.076 140.206H142.149C141.453 140.206 140.758 140.271 140.08 140.429C138.709 140.747 136.973 141.508 137.697 143.282C138.02 144.072 138.683 144.676 139.473 144.99C142.788 146.309 154.508 151.083 157.115 153.707L165.515 160.928L184.95 149.437C182.42 144.485 179.382 139.796 175.89 135.474C172.561 131.352 168.498 126.236 163.691 123.826C161.061 122.508 157.951 122.465 155.098 122.908C151.727 123.432 148.131 124.219 144.87 125.164C141.923 126.016 138.928 126.938 136.712 129.194L133.425 132.195C132.72 132.837 133.236 134.015 134.186 133.923L148.333 132.575C149.811 132.434 151.215 133.251 151.831 134.605L153.421 138.097C153.868 139.081 153.153 140.199 152.076 140.199V140.206Z" fill="white"/>
<path d="M165.875 135.205C165.634 135.205 165.406 135.071 165.291 134.841C162.667 129.552 159.534 126.846 157.367 125.508C155.028 124.065 153.278 123.859 153.262 123.859C152.903 123.819 152.645 123.498 152.681 123.137C152.717 122.777 153.037 122.521 153.396 122.554C153.709 122.586 161.107 123.459 166.46 134.257C166.62 134.582 166.489 134.976 166.166 135.136C166.071 135.182 165.973 135.205 165.875 135.205Z" fill="black"/>
<path d="M113.401 146.522C113.072 146.522 112.788 146.273 112.752 145.935C112.713 145.574 112.974 145.253 113.333 145.213L139.075 142.459C139.438 142.42 139.754 142.682 139.793 143.043C139.833 143.403 139.572 143.725 139.213 143.764L113.47 146.519C113.447 146.519 113.424 146.522 113.401 146.522Z" fill="white"/>
<path d="M114.374 153.408C114.044 153.408 113.76 153.159 113.725 152.821C113.685 152.461 113.947 152.139 114.305 152.1L140.048 149.345C140.41 149.309 140.727 149.568 140.766 149.929C140.805 150.29 140.544 150.611 140.185 150.651L114.443 153.405C114.42 153.405 114.397 153.408 114.374 153.408Z" fill="white"/>
<path d="M11.2176 60.1389C14.644 60.1389 17.4216 57.3479 17.4216 53.905C17.4216 50.462 14.644 47.671 11.2176 47.671C7.79127 47.671 5.01367 50.462 5.01367 53.905C5.01367 57.3479 7.79127 60.1389 11.2176 60.1389Z" fill="#D2D4E9"/>
<path d="M18.1705 101.064C24.3635 101.064 29.3839 96.0196 29.3839 89.7967C29.3839 83.5737 24.3635 78.5291 18.1705 78.5291C11.9775 78.5291 6.95703 83.5737 6.95703 89.7967C6.95703 96.0196 11.9775 101.064 18.1705 101.064Z" fill="#6A6C7E"/>
<path d="M15.3088 79.713C15.0248 79.713 14.7409 79.6507 14.4766 79.5228C13.9511 79.2736 13.5693 78.8046 13.429 78.2406L9.44748 62.4049C9.26146 61.6671 9.50948 60.9063 10.0969 60.4209C10.6844 59.9356 11.4741 59.8405 12.1595 60.1684L30.8725 69.1045C31.5578 69.4324 31.9821 70.108 31.9788 70.872C31.9755 71.6361 31.548 72.3084 30.8594 72.6297L16.1279 79.5326C15.8668 79.654 15.5862 79.7163 15.3088 79.7163V79.713ZM11.3273 61.29C11.1249 61.29 10.9781 61.3949 10.9259 61.4375C10.8541 61.4966 10.6223 61.7228 10.7137 62.0868L14.6952 77.9225C14.7572 78.175 14.9367 78.2931 15.0379 78.3423C15.1391 78.3914 15.3414 78.4538 15.5764 78.3423L30.3079 71.4394C30.6473 71.282 30.6734 70.9606 30.6734 70.8655C30.6734 70.7704 30.6473 70.449 30.3111 70.2883L11.5981 61.3523C11.5002 61.3064 11.4089 61.2867 11.3273 61.2867V61.29Z" fill="black"/>
<path d="M80.2434 101.72H0.652704C0.293717 101.72 0 101.425 0 101.064C0 100.704 0.293717 100.409 0.652704 100.409H80.2434C80.6024 100.409 80.8961 100.704 80.8961 101.064C80.8961 101.425 80.6024 101.72 80.2434 101.72Z" fill="black"/>
<path d="M35.043 100.399H75.2299C72.1361 91.5708 63.7326 85.737 54.5588 85.9862C45.793 86.2223 37.9867 91.9742 35.043 100.399Z" fill="#2B2C34"/>
<mask id="mask0_650_7723" style="mask-type:luminance" maskUnits="userSpaceOnUse" x="35" y="85" width="41" height="16">
<path d="M35.043 100.399H75.2299C72.1361 91.5708 63.7326 85.737 54.5588 85.9862C45.793 86.2223 37.9867 91.9742 35.043 100.399Z" fill="white"/>
</mask>
<g mask="url(#mask0_650_7723)">
<path d="M61.2037 94.4992C55.1532 94.4992 50.2285 89.5541 50.2285 83.471C50.2285 77.3879 55.1532 72.4427 61.2037 72.4427C67.2543 72.4427 72.1789 77.3879 72.1789 83.471C72.1789 89.5541 67.2543 94.4992 61.2037 94.4992ZM61.2037 74.0332C56.0245 74.0332 51.8113 78.2668 51.8113 83.471C51.8113 88.6752 56.0245 92.9088 61.2037 92.9088C66.3829 92.9088 70.5961 88.6752 70.5961 83.471C70.5961 78.2668 66.3829 74.0332 61.2037 74.0332Z" fill="#D2D4E9"/>
<path d="M42.7966 113.126C41.7686 113.126 40.6688 112.991 39.52 112.722C35.6984 111.827 31.7006 109.518 28.2641 106.219C24.8276 102.924 22.3474 99.0181 21.2802 95.2239C20.1706 91.2822 20.7058 87.9046 22.7847 85.7173C26.962 81.3197 36.2206 83.3595 43.4199 90.2689C46.8564 93.5646 49.3367 97.4702 50.4038 101.264C51.5134 105.206 50.9782 108.584 48.8993 110.771C47.4242 112.325 45.316 113.126 42.7966 113.126ZM28.9201 84.9335C26.8837 84.9335 25.1377 85.5402 23.9269 86.8126C22.2495 88.5768 21.8513 91.4101 22.801 94.7911C23.7931 98.3163 26.1233 101.966 29.3574 105.072C32.5915 108.174 36.3283 110.341 39.879 111.174C43.2828 111.971 46.0797 111.44 47.7571 109.672C49.4346 107.908 49.8327 105.075 48.883 101.694C47.8909 98.1687 45.564 94.5189 42.3266 91.4134C37.9796 87.2454 32.8983 84.9302 28.9201 84.9302V84.9335Z" fill="#D2D4E9"/>
</g>
<path d="M36.9528 177.537C36.6558 177.537 36.3882 177.331 36.3164 177.029C34.577 169.411 36.6754 160.57 38.7412 154.494C40.9702 147.942 43.643 143.098 43.6691 143.052C43.8453 142.734 44.2435 142.623 44.5568 142.8C44.8701 142.977 44.9843 143.377 44.8081 143.692C44.782 143.738 42.1548 148.496 39.9683 154.94C37.9612 160.849 35.9183 169.424 37.5892 176.734C37.6708 177.088 37.4488 177.439 37.0997 177.521C37.0507 177.531 37.0017 177.537 36.9528 177.537Z" fill="black"/>
<path d="M38.3445 176.777C38.3119 176.777 38.2825 176.777 38.2499 176.77C37.8942 176.718 37.6461 176.386 37.6983 176.026C38.1389 173.002 39.1278 170.143 40.642 167.522C41.7875 165.538 43.2202 163.728 44.8944 162.148C45.1588 161.898 45.57 161.912 45.818 162.177C46.066 162.443 46.053 162.856 45.7886 163.105C44.2058 164.597 42.8547 166.306 41.7712 168.182C40.3418 170.654 39.4052 173.36 38.9907 176.216C38.9418 176.54 38.6644 176.777 38.3445 176.777Z" fill="black"/>
<path d="M37.1122 184.745C36.776 184.745 36.4889 184.486 36.4627 184.142C35.8394 176.524 34.5177 168.923 32.5335 161.551C30.6635 154.602 28.1799 147.771 25.1514 141.245C24.998 140.917 25.1416 140.527 25.468 140.373C25.7943 140.219 26.1827 140.363 26.336 140.691C29.394 147.286 31.9036 154.189 33.7964 161.21C35.8035 168.66 37.1383 176.34 37.7682 184.037C37.7975 184.398 37.5299 184.716 37.1709 184.745C37.1513 184.745 37.135 184.745 37.1154 184.745H37.1122Z" fill="black"/>
<path d="M23.5449 162.312C25.8816 164.528 28.4337 167.257 30.9433 170.569C32.611 172.769 34.0208 174.904 35.2055 176.898" fill="white"/>
<path d="M35.2058 177.554C34.9839 177.554 34.7685 177.439 34.6445 177.236C33.3586 175.075 31.939 172.966 30.4215 170.966C28.2153 168.057 25.7481 165.306 23.0949 162.79C22.8338 162.541 22.8207 162.128 23.0688 161.862C23.3168 161.6 23.728 161.587 23.9923 161.836C26.6978 164.401 29.2107 167.204 31.4625 170.172C33.0094 172.208 34.4552 174.36 35.7671 176.563C35.9531 176.875 35.852 177.278 35.5419 177.462C35.4375 177.524 35.32 177.554 35.2091 177.554H35.2058Z" fill="black"/>
<path d="M52.1396 139.12H49.8976C49.8552 139.006 49.8062 138.891 49.754 138.779L51.3956 137.32C52.1103 136.684 52.1788 135.585 51.5457 134.864C50.9126 134.146 49.8193 134.077 49.1013 134.713L47.3716 136.251C47.3455 136.274 47.3227 136.304 47.2998 136.33C47.1889 136.281 47.0779 136.235 46.9637 136.192V134.09C46.9637 133.129 46.1902 132.352 45.234 132.352C44.2778 132.352 43.5044 133.129 43.5044 134.09V136.192C43.3445 136.251 43.1878 136.32 43.0377 136.395C42.9855 136.336 42.9365 136.277 42.8778 136.225L41.1285 134.71C40.404 134.084 39.3108 134.162 38.6874 134.89C38.0641 135.618 38.1424 136.717 38.8669 137.343L40.6162 138.858C40.6162 138.858 40.6488 138.878 40.6618 138.891C40.6292 138.966 40.6031 139.042 40.5737 139.117H38.4035C37.4473 139.117 36.6738 139.894 36.6738 140.855C36.6738 141.816 37.4473 142.593 38.4035 142.593H40.5509C40.5672 142.642 40.5835 142.692 40.6031 142.738C40.5966 142.741 40.5933 142.744 40.5868 142.751L38.8571 144.289C38.1424 144.925 38.0739 146.023 38.707 146.745C39.3401 147.463 40.4334 147.532 41.1514 146.896L42.881 145.358C42.881 145.358 42.9039 145.331 42.9169 145.318C43.1062 145.417 43.302 145.502 43.5011 145.577V147.663C43.5011 148.624 44.2746 149.401 45.2308 149.401C46.187 149.401 46.9604 148.624 46.9604 147.663V145.577C47.0812 145.532 47.1987 145.482 47.3162 145.43L49.0099 146.896C49.7344 147.522 50.8277 147.443 51.451 146.715C52.0744 145.987 51.996 144.889 51.2715 144.262L49.7671 142.957C49.8225 142.839 49.8682 142.718 49.9139 142.593H52.1331C53.0893 142.593 53.8628 141.816 53.8628 140.855C53.8628 139.894 53.0893 139.117 52.1331 139.117L52.1396 139.12Z" fill="#2B2C34"/>
<path d="M52.1396 139.12H49.8976C49.8552 139.006 49.8062 138.891 49.754 138.779L51.3956 137.32C52.1103 136.684 52.1788 135.585 51.5457 134.864C50.9126 134.146 49.8193 134.077 49.1013 134.713L47.3716 136.251C47.3455 136.274 47.3227 136.304 47.2998 136.33C47.1889 136.281 47.0779 136.235 46.9637 136.192V134.09C46.9637 133.129 46.1902 132.352 45.234 132.352C44.2778 132.352 43.5044 133.129 43.5044 134.09V136.192C43.3445 136.251 43.1878 136.32 43.0377 136.395C42.9855 136.336 42.9365 136.277 42.8778 136.225L41.1285 134.71C40.404 134.084 39.3108 134.162 38.6874 134.89C38.0641 135.618 38.1424 136.717 38.8669 137.343L40.6162 138.858C40.6162 138.858 40.6488 138.878 40.6618 138.891C40.6292 138.966 40.6031 139.042 40.5737 139.117H38.4035C37.4473 139.117 36.6738 139.894 36.6738 140.855C36.6738 141.816 37.4473 142.593 38.4035 142.593H40.5509C40.5672 142.642 40.5835 142.692 40.6031 142.738C40.5966 142.741 40.5933 142.744 40.5868 142.751L38.8571 144.289C38.1424 144.925 38.0739 146.023 38.707 146.745C39.3401 147.463 40.4334 147.532 41.1514 146.896L42.881 145.358C42.881 145.358 42.9039 145.331 42.9169 145.318C43.1062 145.417 43.302 145.502 43.5011 145.577V147.663C43.5011 148.624 44.2746 149.401 45.2308 149.401C46.187 149.401 46.9604 148.624 46.9604 147.663V145.577C47.0812 145.532 47.1987 145.482 47.3162 145.43L49.0099 146.896C49.7344 147.522 50.8277 147.443 51.451 146.715C52.0744 145.987 51.996 144.889 51.2715 144.262L49.7671 142.957C49.8225 142.839 49.8682 142.718 49.9139 142.593H52.1331C53.0893 142.593 53.8628 141.816 53.8628 140.855C53.8628 139.894 53.0893 139.117 52.1331 139.117L52.1396 139.12Z" fill="#2B2C34"/>
<path d="M52.1396 139.12H49.8976C49.8552 139.006 49.8062 138.891 49.754 138.779L51.3956 137.32C52.1103 136.684 52.1788 135.585 51.5457 134.864C50.9126 134.146 49.8193 134.077 49.1013 134.713L47.3716 136.251C47.3455 136.274 47.3227 136.304 47.2998 136.33C47.1889 136.281 47.0779 136.235 46.9637 136.192V134.09C46.9637 133.129 46.1902 132.352 45.234 132.352C44.2778 132.352 43.5044 133.129 43.5044 134.09V136.192C43.3445 136.251 43.1878 136.32 43.0377 136.395C42.9855 136.336 42.9365 136.277 42.8778 136.225L41.1285 134.71C40.404 134.084 39.3108 134.162 38.6874 134.89C38.0641 135.618 38.1424 136.717 38.8669 137.343L40.6162 138.858C40.6162 138.858 40.6488 138.878 40.6618 138.891C40.6292 138.966 40.6031 139.042 40.5737 139.117H38.4035C37.4473 139.117 36.6738 139.894 36.6738 140.855C36.6738 141.816 37.4473 142.593 38.4035 142.593H40.5509C40.5672 142.642 40.5835 142.692 40.6031 142.738C40.5966 142.741 40.5933 142.744 40.5868 142.751L38.8571 144.289C38.1424 144.925 38.0739 146.023 38.707 146.745C39.3401 147.463 40.4334 147.532 41.1514 146.896L42.881 145.358C42.881 145.358 42.9039 145.331 42.9169 145.318C43.1062 145.417 43.302 145.502 43.5011 145.577V147.663C43.5011 148.624 44.2746 149.401 45.2308 149.401C46.187 149.401 46.9604 148.624 46.9604 147.663V145.577C47.0812 145.532 47.1987 145.482 47.3162 145.43L49.0099 146.896C49.7344 147.522 50.8277 147.443 51.451 146.715C52.0744 145.987 51.996 144.889 51.2715 144.262L49.7671 142.957C49.8225 142.839 49.8682 142.718 49.9139 142.593H52.1331C53.0893 142.593 53.8628 141.816 53.8628 140.855C53.8628 139.894 53.0893 139.117 52.1331 139.117L52.1396 139.12Z" fill="#2B2C34"/>
<path d="M52.1396 139.12H49.8976C49.8552 139.006 49.8062 138.891 49.754 138.779L51.3956 137.32C52.1103 136.684 52.1788 135.585 51.5457 134.864C50.9126 134.146 49.8193 134.077 49.1013 134.713L47.3716 136.251C47.3455 136.274 47.3227 136.304 47.2998 136.33C47.1889 136.281 47.0779 136.235 46.9637 136.192V134.09C46.9637 133.129 46.1902 132.352 45.234 132.352C44.2778 132.352 43.5044 133.129 43.5044 134.09V136.192C43.3445 136.251 43.1878 136.32 43.0377 136.395C42.9855 136.336 42.9365 136.277 42.8778 136.225L41.1285 134.71C40.404 134.084 39.3108 134.162 38.6874 134.89C38.0641 135.618 38.1424 136.717 38.8669 137.343L40.6162 138.858C40.6162 138.858 40.6488 138.878 40.6618 138.891C40.6292 138.966 40.6031 139.042 40.5737 139.117H38.4035C37.4473 139.117 36.6738 139.894 36.6738 140.855C36.6738 141.816 37.4473 142.593 38.4035 142.593H40.5509C40.5672 142.642 40.5835 142.692 40.6031 142.738C40.5966 142.741 40.5933 142.744 40.5868 142.751L38.8571 144.289C38.1424 144.925 38.0739 146.023 38.707 146.745C39.3401 147.463 40.4334 147.532 41.1514 146.896L42.881 145.358C42.881 145.358 42.9039 145.331 42.9169 145.318C43.1062 145.417 43.302 145.502 43.5011 145.577V147.663C43.5011 148.624 44.2746 149.401 45.2308 149.401C46.187 149.401 46.9604 148.624 46.9604 147.663V145.577C47.0812 145.532 47.1987 145.482 47.3162 145.43L49.0099 146.896C49.7344 147.522 50.8277 147.443 51.451 146.715C52.0744 145.987 51.996 144.889 51.2715 144.262L49.7671 142.957C49.8225 142.839 49.8682 142.718 49.9139 142.593H52.1331C53.0893 142.593 53.8628 141.816 53.8628 140.855C53.8628 139.894 53.0893 139.117 52.1331 139.117L52.1396 139.12Z" fill="#2B2C34"/>
<path d="M52.1396 139.12H49.8976C49.8552 139.006 49.8062 138.891 49.754 138.779L51.3956 137.32C52.1103 136.684 52.1788 135.585 51.5457 134.864C50.9126 134.146 49.8193 134.077 49.1013 134.713L47.3716 136.251C47.3455 136.274 47.3227 136.304 47.2998 136.33C47.1889 136.281 47.0779 136.235 46.9637 136.192V134.09C46.9637 133.129 46.1902 132.352 45.234 132.352C44.2778 132.352 43.5044 133.129 43.5044 134.09V136.192C43.3445 136.251 43.1878 136.32 43.0377 136.395C42.9855 136.336 42.9365 136.277 42.8778 136.225L41.1285 134.71C40.404 134.084 39.3108 134.162 38.6874 134.89C38.0641 135.618 38.1424 136.717 38.8669 137.343L40.6162 138.858C40.6162 138.858 40.6488 138.878 40.6618 138.891C40.6292 138.966 40.6031 139.042 40.5737 139.117H38.4035C37.4473 139.117 36.6738 139.894 36.6738 140.855C36.6738 141.816 37.4473 142.593 38.4035 142.593H40.5509C40.5672 142.642 40.5835 142.692 40.6031 142.738C40.5966 142.741 40.5933 142.744 40.5868 142.751L38.8571 144.289C38.1424 144.925 38.0739 146.023 38.707 146.745C39.3401 147.463 40.4334 147.532 41.1514 146.896L42.881 145.358C42.881 145.358 42.9039 145.331 42.9169 145.318C43.1062 145.417 43.302 145.502 43.5011 145.577V147.663C43.5011 148.624 44.2746 149.401 45.2308 149.401C46.187 149.401 46.9604 148.624 46.9604 147.663V145.577C47.0812 145.532 47.1987 145.482 47.3162 145.43L49.0099 146.896C49.7344 147.522 50.8277 147.443 51.451 146.715C52.0744 145.987 51.996 144.889 51.2715 144.262L49.7671 142.957C49.8225 142.839 49.8682 142.718 49.9139 142.593H52.1331C53.0893 142.593 53.8628 141.816 53.8628 140.855C53.8628 139.894 53.0893 139.117 52.1331 139.117L52.1396 139.12Z" fill="#2B2C34"/>
<path d="M52.1396 139.12H49.8976C49.8552 139.006 49.8062 138.891 49.754 138.779L51.3956 137.32C52.1103 136.684 52.1788 135.585 51.5457 134.864C50.9126 134.146 49.8193 134.077 49.1013 134.713L47.3716 136.251C47.3455 136.274 47.3227 136.304 47.2998 136.33C47.1889 136.281 47.0779 136.235 46.9637 136.192V134.09C46.9637 133.129 46.1902 132.352 45.234 132.352C44.2778 132.352 43.5044 133.129 43.5044 134.09V136.192C43.3445 136.251 43.1878 136.32 43.0377 136.395C42.9855 136.336 42.9365 136.277 42.8778 136.225L41.1285 134.71C40.404 134.084 39.3108 134.162 38.6874 134.89C38.0641 135.618 38.1424 136.717 38.8669 137.343L40.6162 138.858C40.6162 138.858 40.6488 138.878 40.6618 138.891C40.6292 138.966 40.6031 139.042 40.5737 139.117H38.4035C37.4473 139.117 36.6738 139.894 36.6738 140.855C36.6738 141.816 37.4473 142.593 38.4035 142.593H40.5509C40.5672 142.642 40.5835 142.692 40.6031 142.738C40.5966 142.741 40.5933 142.744 40.5868 142.751L38.8571 144.289C38.1424 144.925 38.0739 146.023 38.707 146.745C39.3401 147.463 40.4334 147.532 41.1514 146.896L42.881 145.358C42.881 145.358 42.9039 145.331 42.9169 145.318C43.1062 145.417 43.302 145.502 43.5011 145.577V147.663C43.5011 148.624 44.2746 149.401 45.2308 149.401C46.187 149.401 46.9604 148.624 46.9604 147.663V145.577C47.0812 145.532 47.1987 145.482 47.3162 145.43L49.0099 146.896C49.7344 147.522 50.8277 147.443 51.451 146.715C52.0744 145.987 51.996 144.889 51.2715 144.262L49.7671 142.957C49.8225 142.839 49.8682 142.718 49.9139 142.593H52.1331C53.0893 142.593 53.8628 141.816 53.8628 140.855C53.8628 139.894 53.0893 139.117 52.1331 139.117L52.1396 139.12Z" fill="#2B2C34"/>
<path d="M52.1396 139.12H49.8976C49.8552 139.006 49.8062 138.891 49.754 138.779L51.3956 137.32C52.1103 136.684 52.1788 135.585 51.5457 134.864C50.9126 134.146 49.8193 134.077 49.1013 134.713L47.3716 136.251C47.3455 136.274 47.3227 136.304 47.2998 136.33C47.1889 136.281 47.0779 136.235 46.9637 136.192V134.09C46.9637 133.129 46.1902 132.352 45.234 132.352C44.2778 132.352 43.5044 133.129 43.5044 134.09V136.192C43.3445 136.251 43.1878 136.32 43.0377 136.395C42.9855 136.336 42.9365 136.277 42.8778 136.225L41.1285 134.71C40.404 134.084 39.3108 134.162 38.6874 134.89C38.0641 135.618 38.1424 136.717 38.8669 137.343L40.6162 138.858C40.6162 138.858 40.6488 138.878 40.6618 138.891C40.6292 138.966 40.6031 139.042 40.5737 139.117H38.4035C37.4473 139.117 36.6738 139.894 36.6738 140.855C36.6738 141.816 37.4473 142.593 38.4035 142.593H40.5509C40.5672 142.642 40.5835 142.692 40.6031 142.738C40.5966 142.741 40.5933 142.744 40.5868 142.751L38.8571 144.289C38.1424 144.925 38.0739 146.023 38.707 146.745C39.3401 147.463 40.4334 147.532 41.1514 146.896L42.881 145.358C42.881 145.358 42.9039 145.331 42.9169 145.318C43.1062 145.417 43.302 145.502 43.5011 145.577V147.663C43.5011 148.624 44.2746 149.401 45.2308 149.401C46.187 149.401 46.9604 148.624 46.9604 147.663V145.577C47.0812 145.532 47.1987 145.482 47.3162 145.43L49.0099 146.896C49.7344 147.522 50.8277 147.443 51.451 146.715C52.0744 145.987 51.996 144.889 51.2715 144.262L49.7671 142.957C49.8225 142.839 49.8682 142.718 49.9139 142.593H52.1331C53.0893 142.593 53.8628 141.816 53.8628 140.855C53.8628 139.894 53.0893 139.117 52.1331 139.117L52.1396 139.12Z" fill="#2B2C34"/>
<path d="M28.8453 158.235L26.8611 159.282C26.7697 159.2 26.6751 159.121 26.5772 159.045L27.3539 156.986C27.6933 156.088 27.2429 155.084 26.3487 154.743C25.4545 154.402 24.4559 154.855 24.1165 155.753L23.2973 157.921C23.2843 157.953 23.281 157.99 23.268 158.026C23.1472 158.032 23.0265 158.045 22.909 158.062L21.9365 156.199C21.4926 155.35 20.445 155.022 19.5998 155.468C18.7545 155.914 18.4282 156.966 18.872 157.816L19.8445 159.678C19.7303 159.806 19.6226 159.937 19.5247 160.075C19.4529 160.049 19.3811 160.019 19.3061 160L17.0575 159.475C16.1274 159.259 15.1973 159.839 14.9786 160.777C14.7632 161.712 15.3409 162.646 16.2742 162.866L18.5228 163.391C18.5424 163.394 18.5587 163.394 18.5783 163.397C18.5848 163.479 18.5946 163.558 18.6044 163.64L16.6855 164.653C15.8402 165.099 15.5138 166.152 15.9577 167.001C16.4015 167.85 17.4491 168.178 18.2944 167.732L20.197 166.729C20.2362 166.765 20.2721 166.801 20.3112 166.834C20.3112 166.84 20.3047 166.847 20.3014 166.853L19.4823 169.021C19.1429 169.92 19.5932 170.923 20.4875 171.264C21.3817 171.605 22.3803 171.153 22.7197 170.254L23.5388 168.086C23.5454 168.07 23.5454 168.054 23.5519 168.037C23.764 168.037 23.9762 168.021 24.1915 167.995L25.1575 169.841C25.6014 170.69 26.649 171.018 27.4942 170.572C28.3395 170.126 28.6658 169.074 28.222 168.224L27.256 166.378C27.3408 166.283 27.4257 166.181 27.504 166.08L29.6808 166.588C30.6109 166.804 31.541 166.224 31.7596 165.286C31.975 164.351 31.3974 163.417 30.464 163.197L28.5255 162.744C28.519 162.613 28.5059 162.485 28.4863 162.354L30.451 161.318C31.2962 160.872 31.6226 159.819 31.1787 158.97C30.7349 158.121 29.6873 157.793 28.8421 158.239L28.8453 158.235Z" fill="#2B2C34"/>
<path d="M28.8453 158.235L26.8611 159.282C26.7697 159.2 26.6751 159.121 26.5772 159.045L27.3539 156.986C27.6933 156.088 27.2429 155.084 26.3487 154.743C25.4545 154.402 24.4559 154.855 24.1165 155.753L23.2973 157.921C23.2843 157.953 23.281 157.99 23.268 158.026C23.1472 158.032 23.0265 158.045 22.909 158.062L21.9365 156.199C21.4926 155.35 20.445 155.022 19.5998 155.468C18.7545 155.914 18.4282 156.966 18.872 157.816L19.8445 159.678C19.7303 159.806 19.6226 159.937 19.5247 160.075C19.4529 160.049 19.3811 160.019 19.3061 160L17.0575 159.475C16.1274 159.259 15.1973 159.839 14.9786 160.777C14.7632 161.712 15.3409 162.646 16.2742 162.866L18.5228 163.391C18.5424 163.394 18.5587 163.394 18.5783 163.397C18.5848 163.479 18.5946 163.558 18.6044 163.64L16.6855 164.653C15.8402 165.099 15.5138 166.152 15.9577 167.001C16.4015 167.85 17.4491 168.178 18.2944 167.732L20.197 166.729C20.2362 166.765 20.2721 166.801 20.3112 166.834C20.3112 166.84 20.3047 166.847 20.3014 166.853L19.4823 169.021C19.1429 169.92 19.5932 170.923 20.4875 171.264C21.3817 171.605 22.3803 171.153 22.7197 170.254L23.5388 168.086C23.5454 168.07 23.5454 168.054 23.5519 168.037C23.764 168.037 23.9762 168.021 24.1915 167.995L25.1575 169.841C25.6014 170.69 26.649 171.018 27.4942 170.572C28.3395 170.126 28.6658 169.074 28.222 168.224L27.256 166.378C27.3408 166.283 27.4257 166.181 27.504 166.08L29.6808 166.588C30.6109 166.804 31.541 166.224 31.7596 165.286C31.975 164.351 31.3974 163.417 30.464 163.197L28.5255 162.744C28.519 162.613 28.5059 162.485 28.4863 162.354L30.451 161.318C31.2962 160.872 31.6226 159.819 31.1787 158.97C30.7349 158.121 29.6873 157.793 28.8421 158.239L28.8453 158.235Z" fill="#2B2C34"/>
<path d="M28.8453 158.235L26.8611 159.282C26.7697 159.2 26.6751 159.121 26.5772 159.045L27.3539 156.986C27.6933 156.088 27.2429 155.084 26.3487 154.743C25.4545 154.402 24.4559 154.855 24.1165 155.753L23.2973 157.921C23.2843 157.953 23.281 157.99 23.268 158.026C23.1472 158.032 23.0265 158.045 22.909 158.062L21.9365 156.199C21.4926 155.35 20.445 155.022 19.5998 155.468C18.7545 155.914 18.4282 156.966 18.872 157.816L19.8445 159.678C19.7303 159.806 19.6226 159.937 19.5247 160.075C19.4529 160.049 19.3811 160.019 19.3061 160L17.0575 159.475C16.1274 159.259 15.1973 159.839 14.9786 160.777C14.7632 161.712 15.3409 162.646 16.2742 162.866L18.5228 163.391C18.5424 163.394 18.5587 163.394 18.5783 163.397C18.5848 163.479 18.5946 163.558 18.6044 163.64L16.6855 164.653C15.8402 165.099 15.5138 166.152 15.9577 167.001C16.4015 167.85 17.4491 168.178 18.2944 167.732L20.197 166.729C20.2362 166.765 20.2721 166.801 20.3112 166.834C20.3112 166.84 20.3047 166.847 20.3014 166.853L19.4823 169.021C19.1429 169.92 19.5932 170.923 20.4875 171.264C21.3817 171.605 22.3803 171.153 22.7197 170.254L23.5388 168.086C23.5454 168.07 23.5454 168.054 23.5519 168.037C23.764 168.037 23.9762 168.021 24.1915 167.995L25.1575 169.841C25.6014 170.69 26.649 171.018 27.4942 170.572C28.3395 170.126 28.6658 169.074 28.222 168.224L27.256 166.378C27.3408 166.283 27.4257 166.181 27.504 166.08L29.6808 166.588C30.6109 166.804 31.541 166.224 31.7596 165.286C31.975 164.351 31.3974 163.417 30.464 163.197L28.5255 162.744C28.519 162.613 28.5059 162.485 28.4863 162.354L30.451 161.318C31.2962 160.872 31.6226 159.819 31.1787 158.97C30.7349 158.121 29.6873 157.793 28.8421 158.239L28.8453 158.235Z" fill="#2B2C34"/>
<path d="M28.8453 158.235L26.8611 159.282C26.7697 159.2 26.6751 159.121 26.5772 159.045L27.3539 156.986C27.6933 156.088 27.2429 155.084 26.3487 154.743C25.4545 154.402 24.4559 154.855 24.1165 155.753L23.2973 157.921C23.2843 157.953 23.281 157.99 23.268 158.026C23.1472 158.032 23.0265 158.045 22.909 158.062L21.9365 156.199C21.4926 155.35 20.445 155.022 19.5998 155.468C18.7545 155.914 18.4282 156.966 18.872 157.816L19.8445 159.678C19.7303 159.806 19.6226 159.937 19.5247 160.075C19.4529 160.049 19.3811 160.019 19.3061 160L17.0575 159.475C16.1274 159.259 15.1973 159.839 14.9786 160.777C14.7632 161.712 15.3409 162.646 16.2742 162.866L18.5228 163.391C18.5424 163.394 18.5587 163.394 18.5783 163.397C18.5848 163.479 18.5946 163.558 18.6044 163.64L16.6855 164.653C15.8402 165.099 15.5138 166.152 15.9577 167.001C16.4015 167.85 17.4491 168.178 18.2944 167.732L20.197 166.729C20.2362 166.765 20.2721 166.801 20.3112 166.834C20.3112 166.84 20.3047 166.847 20.3014 166.853L19.4823 169.021C19.1429 169.92 19.5932 170.923 20.4875 171.264C21.3817 171.605 22.3803 171.153 22.7197 170.254L23.5388 168.086C23.5454 168.07 23.5454 168.054 23.5519 168.037C23.764 168.037 23.9762 168.021 24.1915 167.995L25.1575 169.841C25.6014 170.69 26.649 171.018 27.4942 170.572C28.3395 170.126 28.6658 169.074 28.222 168.224L27.256 166.378C27.3408 166.283 27.4257 166.181 27.504 166.08L29.6808 166.588C30.6109 166.804 31.541 166.224 31.7596 165.286C31.975 164.351 31.3974 163.417 30.464 163.197L28.5255 162.744C28.519 162.613 28.5059 162.485 28.4863 162.354L30.451 161.318C31.2962 160.872 31.6226 159.819 31.1787 158.97C30.7349 158.121 29.6873 157.793 28.8421 158.239L28.8453 158.235Z" fill="#2B2C34"/>
<path d="M28.8453 158.235L26.8611 159.282C26.7697 159.2 26.6751 159.121 26.5772 159.045L27.3539 156.986C27.6933 156.088 27.2429 155.084 26.3487 154.743C25.4545 154.402 24.4559 154.855 24.1165 155.753L23.2973 157.921C23.2843 157.953 23.281 157.99 23.268 158.026C23.1472 158.032 23.0265 158.045 22.909 158.062L21.9365 156.199C21.4926 155.35 20.445 155.022 19.5998 155.468C18.7545 155.914 18.4282 156.966 18.872 157.816L19.8445 159.678C19.7303 159.806 19.6226 159.937 19.5247 160.075C19.4529 160.049 19.3811 160.019 19.3061 160L17.0575 159.475C16.1274 159.259 15.1973 159.839 14.9786 160.777C14.7632 161.712 15.3409 162.646 16.2742 162.866L18.5228 163.391C18.5424 163.394 18.5587 163.394 18.5783 163.397C18.5848 163.479 18.5946 163.558 18.6044 163.64L16.6855 164.653C15.8402 165.099 15.5138 166.152 15.9577 167.001C16.4015 167.85 17.4491 168.178 18.2944 167.732L20.197 166.729C20.2362 166.765 20.2721 166.801 20.3112 166.834C20.3112 166.84 20.3047 166.847 20.3014 166.853L19.4823 169.021C19.1429 169.92 19.5932 170.923 20.4875 171.264C21.3817 171.605 22.3803 171.153 22.7197 170.254L23.5388 168.086C23.5454 168.07 23.5454 168.054 23.5519 168.037C23.764 168.037 23.9762 168.021 24.1915 167.995L25.1575 169.841C25.6014 170.69 26.649 171.018 27.4942 170.572C28.3395 170.126 28.6658 169.074 28.222 168.224L27.256 166.378C27.3408 166.283 27.4257 166.181 27.504 166.08L29.6808 166.588C30.6109 166.804 31.541 166.224 31.7596 165.286C31.975 164.351 31.3974 163.417 30.464 163.197L28.5255 162.744C28.519 162.613 28.5059 162.485 28.4863 162.354L30.451 161.318C31.2962 160.872 31.6226 159.819 31.1787 158.97C30.7349 158.121 29.6873 157.793 28.8421 158.239L28.8453 158.235Z" fill="#2B2C34"/>
<path d="M28.8453 158.235L26.8611 159.282C26.7697 159.2 26.6751 159.121 26.5772 159.045L27.3539 156.986C27.6933 156.088 27.2429 155.084 26.3487 154.743C25.4545 154.402 24.4559 154.855 24.1165 155.753L23.2973 157.921C23.2843 157.953 23.281 157.99 23.268 158.026C23.1472 158.032 23.0265 158.045 22.909 158.062L21.9365 156.199C21.4926 155.35 20.445 155.022 19.5998 155.468C18.7545 155.914 18.4282 156.966 18.872 157.816L19.8445 159.678C19.7303 159.806 19.6226 159.937 19.5247 160.075C19.4529 160.049 19.3811 160.019 19.3061 160L17.0575 159.475C16.1274 159.259 15.1973 159.839 14.9786 160.777C14.7632 161.712 15.3409 162.646 16.2742 162.866L18.5228 163.391C18.5424 163.394 18.5587 163.394 18.5783 163.397C18.5848 163.479 18.5946 163.558 18.6044 163.64L16.6855 164.653C15.8402 165.099 15.5138 166.152 15.9577 167.001C16.4015 167.85 17.4491 168.178 18.2944 167.732L20.197 166.729C20.2362 166.765 20.2721 166.801 20.3112 166.834C20.3112 166.84 20.3047 166.847 20.3014 166.853L19.4823 169.021C19.1429 169.92 19.5932 170.923 20.4875 171.264C21.3817 171.605 22.3803 171.153 22.7197 170.254L23.5388 168.086C23.5454 168.07 23.5454 168.054 23.5519 168.037C23.764 168.037 23.9762 168.021 24.1915 167.995L25.1575 169.841C25.6014 170.69 26.649 171.018 27.4942 170.572C28.3395 170.126 28.6658 169.074 28.222 168.224L27.256 166.378C27.3408 166.283 27.4257 166.181 27.504 166.08L29.6808 166.588C30.6109 166.804 31.541 166.224 31.7596 165.286C31.975 164.351 31.3974 163.417 30.464 163.197L28.5255 162.744C28.519 162.613 28.5059 162.485 28.4863 162.354L30.451 161.318C31.2962 160.872 31.6226 159.819 31.1787 158.97C30.7349 158.121 29.6873 157.793 28.8421 158.239L28.8453 158.235Z" fill="#2B2C34"/>
<path d="M28.8453 158.235L26.8611 159.282C26.7697 159.2 26.6751 159.121 26.5772 159.045L27.3539 156.986C27.6933 156.088 27.2429 155.084 26.3487 154.743C25.4545 154.402 24.4559 154.855 24.1165 155.753L23.2973 157.921C23.2843 157.953 23.281 157.99 23.268 158.026C23.1472 158.032 23.0265 158.045 22.909 158.062L21.9365 156.199C21.4926 155.35 20.445 155.022 19.5998 155.468C18.7545 155.914 18.4282 156.966 18.872 157.816L19.8445 159.678C19.7303 159.806 19.6226 159.937 19.5247 160.075C19.4529 160.049 19.3811 160.019 19.3061 160L17.0575 159.475C16.1274 159.259 15.1973 159.839 14.9786 160.777C14.7632 161.712 15.3409 162.646 16.2742 162.866L18.5228 163.391C18.5424 163.394 18.5587 163.394 18.5783 163.397C18.5848 163.479 18.5946 163.558 18.6044 163.64L16.6855 164.653C15.8402 165.099 15.5138 166.152 15.9577 167.001C16.4015 167.85 17.4491 168.178 18.2944 167.732L20.197 166.729C20.2362 166.765 20.2721 166.801 20.3112 166.834C20.3112 166.84 20.3047 166.847 20.3014 166.853L19.4823 169.021C19.1429 169.92 19.5932 170.923 20.4875 171.264C21.3817 171.605 22.3803 171.153 22.7197 170.254L23.5388 168.086C23.5454 168.07 23.5454 168.054 23.5519 168.037C23.764 168.037 23.9762 168.021 24.1915 167.995L25.1575 169.841C25.6014 170.69 26.649 171.018 27.4942 170.572C28.3395 170.126 28.6658 169.074 28.222 168.224L27.256 166.378C27.3408 166.283 27.4257 166.181 27.504 166.08L29.6808 166.588C30.6109 166.804 31.541 166.224 31.7596 165.286C31.975 164.351 31.3974 163.417 30.464 163.197L28.5255 162.744C28.519 162.613 28.5059 162.485 28.4863 162.354L30.451 161.318C31.2962 160.872 31.6226 159.819 31.1787 158.97C30.7349 158.121 29.6873 157.793 28.8421 158.239L28.8453 158.235Z" fill="#2B2C34"/>
<path d="M24.1061 141.711C27.6316 141.711 30.4895 138.839 30.4895 135.297C30.4895 131.754 27.6316 128.883 24.1061 128.883C20.5806 128.883 17.7227 131.754 17.7227 135.297C17.7227 138.839 20.5806 141.711 24.1061 141.711Z" fill="#6A6C7E"/>
<path d="M45.8474 166.847C48.3401 166.847 50.3609 164.816 50.3609 162.312C50.3609 159.807 48.3401 157.776 45.8474 157.776C43.3547 157.776 41.334 159.807 41.334 162.312C41.334 164.816 43.3547 166.847 45.8474 166.847Z" fill="#6A6C7E"/>
<path d="M44.6266 186.591L44.9203 178.301C44.9562 177.262 44.1305 176.403 43.096 176.403H29.8461C28.805 176.403 27.9761 177.275 28.0218 178.321L28.371 186.116C28.446 187.759 27.6138 189.307 26.2105 190.149C20.0294 193.858 15.9566 200.748 16.247 208.576C16.6452 219.358 25.4436 228.074 36.1806 228.33C47.6975 228.606 57.1193 219.306 57.1193 207.795C57.1193 200.069 52.9518 193.727 46.6956 190.3C45.3609 189.569 44.5744 188.123 44.6298 186.598L44.6266 186.591Z" fill="white"/>
<path d="M36.6804 228.986C36.5074 228.986 36.3377 228.986 36.1647 228.979C25.0426 228.714 16.006 219.761 15.5948 208.592C15.3076 200.84 19.2499 193.557 25.8781 189.579C27.0758 188.861 27.784 187.542 27.7187 186.139L27.3695 178.344C27.3402 177.659 27.5817 177.006 28.0549 176.511C28.5281 176.016 29.1645 175.74 29.8465 175.74H43.0964C43.7752 175.74 44.4084 176.009 44.8816 176.501C45.3548 176.993 45.5996 177.639 45.5734 178.318L45.2797 186.608C45.234 187.893 45.9128 189.11 47.0061 189.71C53.7453 193.406 57.7725 200.161 57.7725 207.782C57.7725 213.537 55.5141 218.925 51.4151 222.949C47.4402 226.851 42.2251 228.979 36.6804 228.979V228.986ZM29.8465 177.055C29.5235 177.055 29.2232 177.183 28.998 177.419C28.7761 177.655 28.6586 177.964 28.6749 178.288L29.0241 186.083C29.109 187.969 28.1593 189.743 26.5471 190.71C20.3301 194.442 16.6326 201.276 16.9002 208.55C17.2853 219.024 25.7606 227.425 36.1941 227.674C41.5756 227.809 46.6569 225.795 50.5014 222.021C54.3458 218.246 56.4638 213.193 56.4638 207.792C56.4638 200.66 52.6944 194.334 46.3795 190.871C44.8555 190.035 43.9123 188.346 43.9743 186.568L44.268 178.278C44.2811 177.957 44.1636 177.649 43.9384 177.419C43.7132 177.19 43.4163 177.059 43.0932 177.059H29.8433L29.8465 177.055Z" fill="black"/>
<path d="M45.2734 143.272C46.5387 143.272 47.5644 142.241 47.5644 140.97C47.5644 139.699 46.5387 138.668 45.2734 138.668C44.0081 138.668 42.9824 139.699 42.9824 140.97C42.9824 142.241 44.0081 143.272 45.2734 143.272Z" fill="white"/>
<path d="M23.2773 165.306C24.5426 165.306 25.5683 164.275 25.5683 163.004C25.5683 161.732 24.5426 160.702 23.2773 160.702C22.012 160.702 20.9863 161.732 20.9863 163.004C20.9863 164.275 22.012 165.306 23.2773 165.306Z" fill="white"/>
<path d="M24.8145 224.493C25.614 223.572 29.2561 219.578 35.3197 219.027C43.0804 218.325 48.1453 223.87 48.6969 224.493" fill="white"/>
<path d="M48.208 224.93C47.6727 224.323 42.7546 219.007 35.3791 219.683C29.9682 220.171 26.5317 223.513 25.3078 224.926L24.3223 224.064C25.6505 222.532 29.3775 218.909 35.2616 218.374C43.1136 217.663 48.2373 222.985 49.1838 224.057L48.208 224.926V224.93Z" fill="black"/>
<path d="M161.998 61.6113L148.66 64.2445C143.367 64.5495 138.827 60.4865 138.524 55.1675L138.338 51.9439L158.65 47.7628L161.998 61.6113Z" fill="black"/>
<path d="M114.24 45.928L158.973 37.3536L161.626 51.3304L130.803 57.2386C123.126 58.7102 115.705 53.6428 114.24 45.928Z" fill="black"/>
</g>
<defs>
<clipPath id="clip0_650_7723">
<rect width="237" height="233" fill="white"/>
</clipPath>
</defs>
</svg>
