<svg width="236" height="216" viewBox="0 0 236 216" fill="none" xmlns="http://www.w3.org/2000/svg">
<g clip-path="url(#clip0_637_1405)">
<path d="M136.925 4.62502L5.22827 129.54C-4.1389 138.424 -0.348073 154.09 12.0501 157.737L186.377 209.021C198.775 212.669 210.484 201.563 207.453 189.031L164.823 12.8327C161.792 0.30064 146.292 -4.25918 136.925 4.62502Z" fill="#6A6C7E"/>
<path d="M135.611 160.354H78.5699C75.3055 166.789 71.7155 175.338 69.1946 185.773C66.3779 197.439 65.8081 207.692 65.9573 215.421L146.957 215.494C146.702 207.01 145.738 196.819 143.269 185.51C141.155 175.828 138.39 167.395 135.611 160.351V160.354Z" fill="#6A6C7E"/>
<path d="M130.629 91.8864H85.0254V140.367H130.629V91.8864Z" fill="#2B2C34"/>
<path d="M112.65 83.8086H101.597C94.3034 83.8086 88.3906 77.912 88.3906 70.6379V56.7149C88.3906 49.6167 94.1596 43.8635 101.277 43.8635H112.604C122.006 43.8635 129.628 51.465 129.628 60.8417V66.8791C129.628 76.2315 122.028 83.8113 112.65 83.8113V83.8086Z" fill="#2B2C34"/>
<path d="M126.405 79.1541L133.17 56.8503C133.572 55.5243 135.086 54.8883 136.318 55.5297L143.623 59.3264C144.985 60.0354 145.232 61.8782 144.1 62.9174L126.402 79.1568L126.405 79.1541Z" fill="#6A6C7E"/>
<path d="M124.672 78.2801L143.984 66.2919C145.265 65.4963 146.956 66.0944 147.449 67.5178L150.011 74.9136C150.535 76.4264 149.419 78.0067 147.816 78.023L124.672 78.2801Z" fill="#6A6C7E"/>
<path d="M130.631 79.8955C128.455 79.8955 126.686 78.1311 126.686 75.9608C126.686 73.7905 128.455 72.0261 130.631 72.0261C132.807 72.0261 134.577 73.7905 134.577 75.9608C134.577 78.1311 132.807 79.8955 130.631 79.8955ZM130.631 73.1086C129.054 73.1086 127.771 74.3886 127.771 75.9608C127.771 77.5331 129.054 78.8131 130.631 78.8131C132.208 78.8131 133.491 77.5331 133.491 75.9608C133.491 74.3886 132.208 73.1086 130.631 73.1086Z" fill="#2B2C34"/>
<path d="M123.494 69.9749C123.806 66.8764 121.589 64.1161 118.531 63.7697L118.566 59.9487C118.612 54.826 114.534 50.6423 109.451 50.6045L95.3355 50.5043C91.5094 50.4773 88.3807 53.5812 88.3454 57.4401L88.188 74.6267C88.131 80.7317 92.9937 85.7164 99.0476 85.757L99.7016 85.7624L99.6148 95.2907L118.26 95.4233L118.363 84.1387H118.346L118.43 75.0651C121.054 74.808 123.223 72.7162 123.499 69.9722L123.494 69.9749Z" fill="white"/>
<path d="M159.769 117.616L137.406 130.763L151.294 159.404C151.294 159.404 157.565 171.273 169.318 165.71C174.121 163.436 177.721 159.218 179.385 154.181L191.468 117.619C191.468 117.619 209.22 111.609 211.852 96.1405C211.923 95.7995 211.985 95.2745 211.877 94.6521C211.698 93.6428 211.169 92.9662 210.905 92.6713C211.038 92.3709 211.207 91.9406 211.34 91.4075C211.584 90.4252 211.817 89.4672 211.019 88.6554C210.317 87.9409 209.161 87.8057 208.401 88.493C208.585 87.4863 208.306 86.5906 207.687 86.209C207.329 85.9898 206.952 86.0061 206.841 86.0115C205.438 86.0954 204.417 88.014 204.124 88.5471C202.936 90.7174 200.426 94.3761 196.708 99.5069C196.708 99.5069 202.057 92.2735 199.21 90.2817C198.361 89.6891 197.346 90.5199 196.787 91.1098C195.753 92.195 195.354 93.6915 194.586 94.9336C193.609 96.5112 192.187 97.7858 190.627 98.7763C188.117 100.367 185.338 101.206 183.045 103.152C182.009 104.032 181.067 105.03 180.278 106.137C179.35 107.441 179.019 108.981 178.215 110.296L165.785 130.579L159.771 117.616H159.769Z" fill="white"/>
<path d="M163.251 167.731C155.194 167.731 150.866 159.756 150.814 159.656L136.701 130.549L160.011 116.845L165.85 129.431L177.752 110.012C178.088 109.457 178.341 108.859 178.604 108.223C178.94 107.42 179.285 106.589 179.833 105.82C180.623 104.713 181.583 103.677 182.69 102.735C184.123 101.52 185.746 100.717 187.314 99.9426C188.321 99.4447 189.36 98.9305 190.332 98.3162C191.99 97.2635 193.265 96.0295 194.12 94.6467C194.388 94.211 194.611 93.7429 194.844 93.2449C195.254 92.3763 195.677 91.4805 196.388 90.7336C197.922 89.1208 199.007 89.4807 199.517 89.8352C200.076 90.2249 200.418 90.7905 200.537 91.5157C200.627 92.0542 200.578 92.6604 200.44 93.2936C201.965 91.0719 203.012 89.4347 203.644 88.2819L203.663 88.2494C204.027 87.5864 205.131 85.565 206.806 85.4648C207.343 85.4324 207.736 85.5974 207.97 85.7408C208.548 86.0954 208.909 86.7665 208.982 87.5702C209.807 87.351 210.74 87.5918 211.405 88.2684C212.42 89.3021 212.113 90.5388 211.866 91.5319C211.78 91.8837 211.666 92.2328 211.533 92.5711C211.885 93.0284 212.26 93.6914 212.412 94.552C212.51 95.1094 212.501 95.6804 212.385 96.2433C211.288 102.692 207.348 108.532 200.993 113.113C196.812 116.128 192.931 117.657 191.903 118.033L179.901 154.346C178.17 159.583 174.398 163.899 169.551 166.197C167.25 167.287 165.147 167.728 163.251 167.728V167.731ZM138.115 130.976L151.786 159.169C151.786 159.169 153.341 162.064 156.255 164.232C160.106 167.098 164.423 167.431 169.087 165.22C173.668 163.052 177.233 158.966 178.872 154.011L191.04 117.191L191.295 117.105C191.469 117.045 208.773 111.011 211.318 96.0458C211.411 95.5993 211.416 95.1663 211.343 94.7441C211.202 93.9485 210.808 93.3721 210.499 93.0284L210.265 92.7687L210.407 92.4493C210.575 92.0705 210.71 91.6754 210.811 91.2749C211.063 90.2574 211.191 89.6025 210.629 89.0315C210.162 88.5552 209.335 88.3712 208.762 88.8908L207.574 89.9678L207.861 88.3929C208.002 87.6189 207.815 86.9261 207.397 86.669C207.297 86.6068 207.12 86.5364 206.868 86.5527C206.157 86.596 205.397 87.3429 204.616 88.7744L204.597 88.8096C203.473 90.8581 201.21 94.211 197.265 99.6639C197.2 99.7559 197.156 99.8127 197.143 99.8316L196.266 99.193C196.326 99.1118 196.383 99.0306 196.443 98.9521C197.539 97.4069 199.799 93.7104 199.468 91.6997C199.398 91.2667 199.21 90.9501 198.896 90.7309C198.356 90.3521 197.515 91.1342 197.175 91.486C196.586 92.1057 196.217 92.885 195.827 93.7131C195.591 94.2137 195.344 94.7333 195.045 95.2204C194.104 96.7439 192.714 98.0943 190.915 99.2336C189.895 99.8803 188.828 100.408 187.797 100.917C186.218 101.696 184.726 102.435 183.393 103.563C182.354 104.446 181.453 105.417 180.718 106.451C180.24 107.122 179.931 107.861 179.605 108.643C179.336 109.287 179.057 109.953 178.677 110.578L165.717 131.726L159.528 118.388L138.112 130.976H138.115Z" fill="#2B2C34"/>
<path d="M117.777 72.1371C117.701 72.1371 117.625 72.1344 117.549 72.1263C116.327 72.0045 115.432 70.9139 115.554 69.6935C115.676 68.4757 116.767 67.5827 117.994 67.7045C119.215 67.8262 120.11 68.9168 119.988 70.1373C119.928 70.7272 119.641 71.2603 119.182 71.6365C118.781 71.9639 118.289 72.1371 117.777 72.1371ZM117.771 68.7761C117.193 68.7761 116.694 69.2145 116.637 69.8017C116.574 70.4268 117.033 70.987 117.66 71.0492C118.281 71.1115 118.848 70.6541 118.911 70.029C118.973 69.4039 118.515 68.8437 117.888 68.7815C117.85 68.7788 117.812 68.7761 117.774 68.7761H117.771Z" fill="#2B2C34"/>
<path d="M99.9481 85.2266L111.082 84.9641C111.424 84.956 111.513 85.4323 111.19 85.5486L99.9102 89.6024L99.9454 85.2266H99.9481Z" fill="#2B2C34"/>
<path d="M116.11 70.73C115.833 70.73 115.597 70.5216 115.57 70.2429C115.448 69.0197 115.99 67.8182 116.983 67.1092C118.452 66.0619 120.058 66.641 120.237 66.7087C120.517 66.8169 120.655 67.1308 120.546 67.4096C120.438 67.6883 120.123 67.8263 119.844 67.7181C119.795 67.6991 118.636 67.2607 117.616 67.9887C116.937 68.4731 116.566 69.2957 116.65 70.1373C116.68 70.435 116.462 70.7002 116.164 70.73C116.145 70.73 116.129 70.73 116.11 70.73Z" fill="#2B2C34"/>
<path d="M61.4599 116.033L83.8222 129.18L69.9343 157.821C69.9343 157.821 63.6633 169.69 51.9109 164.126C47.1079 161.853 43.507 157.634 41.8436 152.598L29.7602 116.036C29.7602 116.036 12.0082 110.026 9.37604 94.5574C9.30548 94.2164 9.24307 93.6914 9.35161 93.069C9.53071 92.0596 10.0599 91.3831 10.3231 91.0881C10.1901 90.7877 10.0219 90.3575 9.8889 89.8244C9.64468 88.842 9.41131 87.8841 10.2091 87.0722C10.9119 86.3578 12.0679 86.2225 12.8277 86.9099C12.6431 85.9032 12.9226 85.0075 13.5413 84.6259C13.8995 84.4067 14.2767 84.4229 14.388 84.4284C15.7909 84.5122 16.8112 86.4309 17.1042 86.964C18.2928 89.1343 20.8028 92.793 24.5203 97.9238C24.5203 97.9238 19.1719 90.6903 22.0185 88.6986C22.8678 88.106 23.8827 88.9368 24.4417 89.5267C25.4755 90.6118 25.8744 92.1083 26.6423 93.3504C27.6192 94.9281 29.0411 96.2027 30.6014 97.1931C33.1114 98.7843 35.8901 99.6232 38.1831 101.569C39.2196 102.448 40.1612 103.447 40.9509 104.554C41.8789 105.858 42.21 107.398 43.0132 108.713L55.4439 128.995L61.4572 116.033H61.4599Z" fill="white"/>
<path d="M57.9778 166.148C56.081 166.148 53.9807 165.707 51.6769 164.616C46.8305 162.321 43.056 158.002 41.3275 152.766L29.3254 116.453C28.297 116.076 24.4166 114.547 20.235 111.533C13.8799 106.951 9.93985 101.112 8.83815 94.6439C8.72418 94.1 8.71604 93.5317 8.81372 92.9715C8.96568 92.111 9.34287 91.448 9.69291 90.9906C9.55995 90.6524 9.44869 90.3033 9.35915 89.9515C9.11221 88.9583 8.80287 87.7217 9.82045 86.6879C10.4853 86.0114 11.4187 85.7705 12.2436 85.9897C12.3196 85.1887 12.6778 84.5176 13.2558 84.1604C13.4892 84.017 13.8799 83.8492 14.4199 83.8844C16.0942 83.9845 17.1986 86.0033 17.5622 86.6663L17.5812 86.7014C18.2243 87.8732 19.2555 89.4942 20.7859 91.7186C20.6475 91.0827 20.5987 90.4765 20.6882 89.9353C20.8076 89.21 21.1495 88.6444 21.7085 88.2548C22.2187 87.8976 23.3041 87.5403 24.8372 89.1532C25.5482 89.9001 25.9715 90.7958 26.3812 91.6645C26.6146 92.1597 26.8371 92.6306 27.1058 93.0635C27.9605 94.4464 29.2332 95.6804 30.8939 96.733C31.8653 97.35 32.9046 97.8642 33.9113 98.3594C35.4798 99.1361 37.1025 99.9371 38.5352 101.152C39.6451 102.094 40.6057 103.13 41.3926 104.237C41.9407 105.006 42.2881 105.836 42.6218 106.64C42.8878 107.276 43.1374 107.874 43.4766 108.429L55.3755 127.848L61.215 115.262L84.5244 128.966L70.4194 158.054C70.3597 158.167 66.0316 166.145 57.9751 166.145L57.9778 166.148ZM11.6521 86.9937C11.2586 86.9937 10.8679 87.1723 10.5965 87.4456C10.0348 88.0166 10.1624 88.6715 10.4147 89.689C10.5151 90.0895 10.6508 90.4846 10.819 90.8635L10.9601 91.1828L10.7268 91.4426C10.4201 91.7862 10.024 92.3627 9.88286 93.1583C9.8096 93.5831 9.81502 94.0134 9.90457 94.4437C12.4553 109.441 29.7569 115.462 29.9306 115.519L30.1856 115.606L42.3532 152.425C43.9922 157.38 47.5578 161.466 52.1382 163.634C56.8164 165.847 61.1445 165.509 65.0005 162.624C67.9067 160.451 69.4344 157.594 69.4507 157.567L83.1107 129.391L61.6954 116.802L55.5057 130.14L42.5458 108.994C42.1632 108.369 41.8864 107.701 41.6178 107.057C41.2922 106.275 40.9828 105.536 40.5053 104.865C39.7699 103.831 38.869 102.86 37.8297 101.978C36.4973 100.849 35.0049 100.11 33.4256 99.3309C32.3945 98.8222 31.328 98.2945 30.3077 97.6477C28.5087 96.5084 27.1193 95.1554 26.1777 93.6345C25.8765 93.1474 25.6323 92.6279 25.3962 92.1272C25.0055 91.3019 24.6364 90.5198 24.0476 89.9001C23.7111 89.5456 22.8699 88.7635 22.3272 89.1451C22.0124 89.3643 21.8252 89.6809 21.7546 90.1139C21.4263 92.1218 23.6758 95.8075 24.7721 97.3555C24.8318 97.4393 24.8942 97.5232 24.9539 97.6071L24.0774 98.2458C24.0639 98.2268 24.0204 98.1673 23.9553 98.0753C20.0098 92.6197 17.7467 89.2696 16.6233 87.2237L16.6043 87.1885C15.8201 85.757 15.063 85.0101 14.3521 84.9668C14.0943 84.9533 13.9233 85.0236 13.8229 85.0832C13.4023 85.3403 13.2151 86.033 13.3589 86.807L13.6493 88.3819L12.4607 87.3049C12.2192 87.0857 11.9343 86.9937 11.6494 86.9937H11.6521Z" fill="#2B2C34"/>
<path d="M90.6732 68.4108C91.2802 68.4108 91.7722 67.9201 91.7722 67.3149C91.7722 66.7096 91.2802 66.2189 90.6732 66.2189C90.0662 66.2189 89.5742 66.7096 89.5742 67.3149C89.5742 67.9201 90.0662 68.4108 90.6732 68.4108Z" fill="#2B2C34"/>
<path d="M102.46 68.2321C103.067 68.2321 103.559 67.7414 103.559 67.1361C103.559 66.5308 103.067 66.0402 102.46 66.0402C101.853 66.0402 101.361 66.5308 101.361 67.1361C101.361 67.7414 101.853 68.2321 102.46 68.2321Z" fill="#2B2C34"/>
<path d="M95.0202 72.1615C94.9605 72.1615 94.9008 72.1507 94.8411 72.1317C94.0298 71.8476 93.2021 71.4606 93.213 70.7489C93.2184 70.4242 93.4084 70.2212 93.5603 70.0589C93.6173 69.9993 93.6851 69.9263 93.7584 69.8342C94.0271 69.496 94.1872 69.0738 94.2333 68.6057L94.6892 63.8564C94.7163 63.5588 94.9849 63.345 95.2807 63.3693C95.5792 63.3991 95.799 63.6616 95.7692 63.9593L95.3133 68.7085C95.2482 69.385 95.0094 70.002 94.6186 70.4973C94.5318 70.6055 94.4612 70.6867 94.3961 70.7543C94.5209 70.8355 94.7597 70.96 95.202 71.1142C95.4842 71.2144 95.6335 71.5229 95.5331 71.8043C95.4544 72.0262 95.2454 72.1669 95.0202 72.1669V72.1615Z" fill="#2B2C34"/>
<path d="M96.6594 76.8917C95.4003 76.8917 94.361 76.226 94.3094 76.1908C94.0571 76.0285 93.9865 75.6929 94.152 75.4412C94.3149 75.1923 94.6513 75.1192 94.901 75.2843C94.92 75.2951 96.038 75.9987 97.1369 75.7579C97.7041 75.6334 98.1871 75.2626 98.567 74.6619C98.7271 74.4102 99.0608 74.3344 99.3159 74.4941C99.5683 74.6538 99.6443 74.9893 99.4842 75.241C98.9387 76.0988 98.2251 76.6292 97.3622 76.8187C97.1234 76.8701 96.8873 76.8917 96.6594 76.8917Z" fill="#2B2C34"/>
<path d="M78.5673 160.354L73.8186 137.355C73.01 133.442 73.2162 129.388 74.4156 125.578L85.0256 91.8864H94.4904L96.6585 96.6897C101.318 107.008 116.085 106.789 120.432 96.3352L122.283 91.8864H130.629L141.087 126.14C142.436 130.557 142.501 135.263 141.28 139.714L135.612 160.354H78.57H78.5673Z" fill="#6A6C7E"/>
<path d="M108.957 58.3521H103.714C100.339 58.3521 97.6035 55.6244 97.6035 52.2579V48.3395H108.957V58.3548V58.3521Z" fill="#2B2C34"/>
<path d="M130.63 91.8864L141.774 129.006L162.734 116.675C159.988 111.66 157.282 107.571 155.03 104.437C150.061 97.5206 147.486 94.0243 143.12 92.2491C138.483 90.3629 133.824 91.0096 130.627 91.8864H130.63Z" fill="#2B2C34"/>
<path d="M123.522 64.2569H114.106C110.288 64.2569 107.191 61.1692 107.191 57.3617V54.2443H123.522V64.2596V64.2569Z" fill="#2B2C34"/>
<path d="M120.194 48.3395H103.967V58.3548H120.194V48.3395Z" fill="#2B2C34"/>
<path d="M127.981 101.978C135.112 101.978 140.892 96.2129 140.892 89.1018C140.892 81.9907 135.112 76.2261 127.981 76.2261C120.851 76.2261 115.07 81.9907 115.07 89.1018C115.07 96.2129 120.851 101.978 127.981 101.978Z" fill="#2B2C34"/>
<path d="M118.544 110.954C123.824 110.954 128.104 106.685 128.104 101.42C128.104 96.1547 123.824 91.8864 118.544 91.8864C113.264 91.8864 108.984 96.1547 108.984 101.42C108.984 106.685 113.264 110.954 118.544 110.954Z" fill="#2B2C34"/>
<path d="M135.706 111.495C140.986 111.495 145.266 107.227 145.266 101.961C145.266 96.696 140.986 92.4276 135.706 92.4276C130.427 92.4276 126.146 96.696 126.146 101.961C126.146 107.227 130.427 111.495 135.706 111.495Z" fill="#2B2C34"/>
<path d="M116.227 143.828H99.4302C94.2202 143.828 89.9844 139.601 89.9844 134.408V123.08C89.9844 120.558 92.0413 118.506 94.5703 118.506H121.09C123.619 118.506 125.676 120.558 125.676 123.08V134.408C125.676 139.603 121.437 143.828 116.23 143.828H116.227ZM94.5703 119.589C92.6409 119.589 91.0698 121.156 91.0698 123.08V134.408C91.0698 139.005 94.8199 142.745 99.4302 142.745H116.227C120.837 142.745 124.588 139.005 124.588 134.408V123.08C124.588 121.156 123.016 119.589 121.087 119.589H94.5676H94.5703Z" fill="white"/>
<path d="M126.148 123.93C131.427 123.93 135.708 119.661 135.708 114.396C135.708 109.131 131.427 104.862 126.148 104.862C120.868 104.862 116.588 109.131 116.588 114.396C116.588 119.661 120.868 123.93 126.148 123.93Z" fill="#2B2C34"/>
<path d="M159.687 140.096C159.581 140.096 159.476 140.066 159.383 140.004C159.134 139.836 159.071 139.501 159.237 139.252L165.331 130.275C165.5 130.026 165.836 129.964 166.086 130.129C166.335 130.297 166.398 130.633 166.232 130.882L160.138 139.858C160.032 140.012 159.861 140.096 159.687 140.096Z" fill="#2B2C34"/>
<path d="M204.998 104.159C204.852 104.159 204.705 104.099 204.597 103.983C204.396 103.761 204.409 103.42 204.632 103.217C207.972 100.178 210.271 92.7929 210.292 92.7172C210.379 92.4303 210.686 92.2734 210.971 92.3573C211.258 92.4439 211.419 92.7469 211.332 93.0338C211.234 93.3477 208.925 100.776 205.365 104.015C205.262 104.11 205.129 104.156 204.998 104.156V104.159Z" fill="#2B2C34"/>
<path d="M201.631 101.228C201.473 101.228 201.316 101.16 201.21 101.028C201.02 100.795 201.055 100.454 201.289 100.267C204.382 97.7641 207.853 88.3983 207.888 88.3035C207.991 88.0221 208.303 87.8787 208.586 87.9815C208.868 88.0843 209.012 88.3955 208.908 88.677C208.762 89.0748 205.297 98.419 201.973 101.109C201.872 101.19 201.75 101.231 201.631 101.231V101.228Z" fill="#2B2C34"/>
<path d="M61.5408 138.513C61.3671 138.513 61.1962 138.429 61.0904 138.275L54.9957 129.299C54.8275 129.052 54.8926 128.714 55.1423 128.546C55.3919 128.378 55.7284 128.443 55.8966 128.692L61.9913 137.669C62.1595 137.915 62.0944 138.253 61.8447 138.421C61.7525 138.483 61.6466 138.513 61.5408 138.513Z" fill="#2B2C34"/>
<path d="M16.2301 102.576C16.0998 102.576 15.9696 102.53 15.8637 102.435C12.3036 99.1956 9.99433 91.7673 9.89664 91.4534C9.80981 91.1665 9.96991 90.8662 10.2575 90.7768C10.5452 90.6875 10.8464 90.8499 10.9359 91.1368C10.9576 91.2098 13.256 98.5975 16.5964 101.637C16.8189 101.837 16.8325 102.18 16.6317 102.402C16.5258 102.519 16.3766 102.578 16.2301 102.578V102.576Z" fill="#2B2C34"/>
<path d="M19.5982 99.6449C19.4788 99.6449 19.3567 99.6043 19.2563 99.5231C15.9322 96.8332 12.467 87.489 12.3205 87.0912C12.2174 86.8097 12.3612 86.4985 12.6434 86.3957C12.9229 86.2929 13.2376 86.4363 13.3408 86.7177C13.376 86.8124 16.8467 96.1783 19.9401 98.6815C20.1735 98.8709 20.2088 99.2119 20.0188 99.4419C19.9103 99.5745 19.7556 99.6422 19.5982 99.6422V99.6449Z" fill="#2B2C34"/>
<path d="M106.447 216C106.149 216 105.904 215.756 105.904 215.459V189.264C105.904 188.966 106.149 188.722 106.447 188.722C106.745 188.722 106.99 188.966 106.99 189.264V215.459C106.99 215.756 106.745 216 106.447 216Z" fill="white"/>
<path d="M106.447 173.419C106.149 173.419 105.904 173.176 105.904 172.878V160.357C105.904 160.059 106.149 159.815 106.447 159.815C106.745 159.815 106.99 160.059 106.99 160.357V172.878C106.99 173.176 106.745 173.419 106.447 173.419Z" fill="white"/>
<path d="M140.244 174.307C140.214 174.307 140.181 174.307 140.149 174.299C133.444 173.124 129.946 169.417 128.196 166.513C126.299 163.369 125.992 160.53 125.981 160.411C125.951 160.113 126.168 159.848 126.467 159.818C126.768 159.791 127.031 160.005 127.061 160.303C127.064 160.33 127.362 163.055 129.151 165.996C131.533 169.917 135.297 172.353 140.339 173.235C140.634 173.287 140.833 173.568 140.778 173.863C140.732 174.125 140.504 174.31 140.244 174.31V174.307Z" fill="white"/>
<path d="M74.9393 175.027C74.1632 175.027 73.3573 174.972 72.5188 174.867C72.2203 174.829 72.0114 174.558 72.0494 174.261C72.0874 173.963 72.3587 173.755 72.6572 173.793C76.695 174.307 79.9458 173.503 82.3202 171.403C86.708 167.522 86.7053 160.432 86.7053 160.359C86.7053 160.062 86.944 159.815 87.2425 159.815H87.248C87.5465 159.815 87.788 160.054 87.7907 160.351C87.7907 160.662 87.8015 167.996 83.0447 172.209C80.9281 174.085 78.2091 175.029 74.9393 175.029V175.027Z" fill="white"/>
<path d="M58.2188 115.611L74.5923 125.017L85.0232 91.8863C85.0232 91.8863 70.5573 87.865 58.2188 115.608V115.611Z" fill="#2B2C34"/>
<path d="M64.9674 82.4123H22.9128C18.5304 82.4123 14.9648 78.8564 14.9648 74.486V40.9193C14.9648 36.5489 18.5304 32.993 22.9128 32.993H64.9674C69.3498 32.993 72.9154 36.5489 72.9154 40.9193V74.486C72.9154 78.8564 69.3498 82.4123 64.9674 82.4123ZM22.9128 34.0782C19.1301 34.0782 16.0503 37.1469 16.0503 40.922V74.4887C16.0503 78.2611 19.1274 81.3325 22.9128 81.3325H64.9674C68.7501 81.3325 71.83 78.2638 71.83 74.4887V40.922C71.83 37.1496 68.7528 34.0782 64.9674 34.0782H22.9128Z" fill="#2B2C34"/>
<path d="M68.105 52.147H53.8806C53.5821 52.147 53.3379 51.9035 53.3379 51.6058C53.3379 51.3081 53.5821 51.0646 53.8806 51.0646H68.105C68.4035 51.0646 68.6477 51.3081 68.6477 51.6058C68.6477 51.9035 68.4035 52.147 68.105 52.147Z" fill="#2B2C34"/>
<path d="M68.105 57.7352H53.8806C53.5821 57.7352 53.3379 57.4916 53.3379 57.1939C53.3379 56.8963 53.5821 56.6527 53.8806 56.6527H68.105C68.4035 56.6527 68.6477 56.8963 68.6477 57.1939C68.6477 57.4916 68.4035 57.7352 68.105 57.7352Z" fill="#2B2C34"/>
<path d="M64.4037 63.326H53.8806C53.5821 63.326 53.3379 63.0824 53.3379 62.7848C53.3379 62.4871 53.5821 62.2435 53.8806 62.2435H64.4037C64.7022 62.2435 64.9464 62.4871 64.9464 62.7848C64.9464 63.0824 64.7022 63.326 64.4037 63.326Z" fill="#2B2C34"/>
<path d="M45.7341 68.6407H27.1327L25.4395 62.7008H46.8792L45.7368 68.6407H45.7341ZM27.9495 67.5583H44.8359L45.5604 63.7833H26.8749L27.9522 67.5583H27.9495Z" fill="#2B2C34"/>
<path d="M36.6247 68.6407C36.3263 68.6407 36.082 68.3972 36.082 68.0995V63.242C36.082 62.9444 36.3263 62.7008 36.6247 62.7008C36.9232 62.7008 37.1675 62.9444 37.1675 63.242V68.0995C37.1675 68.3972 36.9232 68.6407 36.6247 68.6407Z" fill="#2B2C34"/>
<path d="M44.7457 69.5852C45.561 69.5852 46.2219 68.9201 46.2219 68.0996C46.2219 67.279 45.561 66.6139 44.7457 66.6139C43.9304 66.6139 43.2695 67.279 43.2695 68.0996C43.2695 68.9201 43.9304 69.5852 44.7457 69.5852Z" fill="#2B2C34"/>
<path d="M36.6128 69.5852C37.4355 69.5852 38.1025 68.9201 38.1025 68.0996C38.1025 67.279 37.4355 66.6139 36.6128 66.6139C35.79 66.6139 35.123 67.279 35.123 68.0996C35.123 68.9201 35.79 69.5852 36.6128 69.5852Z" fill="#2B2C34"/>
<path d="M28.1063 69.5852C28.92 69.5852 29.5797 68.9201 29.5797 68.0996C29.5797 67.279 28.92 66.6139 28.1063 66.6139C27.2925 66.6139 26.6328 67.279 26.6328 68.0996C26.6328 68.9201 27.2925 69.5852 28.1063 69.5852Z" fill="#2B2C34"/>
<path d="M23.2901 53.0265C23.1272 53.0265 22.9644 52.9534 22.8586 52.8127L19.8086 48.805C19.5182 48.418 19.4748 47.9146 19.6892 47.4871C19.9035 47.0595 20.335 46.7943 20.8153 46.7943H30.0956C30.8229 46.7943 31.5067 47.1434 31.9327 47.7306L36.1279 52.101C36.3341 52.3175 36.3287 52.6585 36.1116 52.8669C35.8945 53.0725 35.5526 53.0671 35.3436 52.8506L31.0671 48.3855C30.8473 48.0689 30.4837 47.8795 30.0956 47.8795H20.8153C20.7203 47.8795 20.6769 47.939 20.6579 47.9769C20.6389 48.0121 20.6172 48.0851 20.6742 48.1582L23.7215 52.1633C23.9033 52.4014 23.8572 52.7397 23.6184 52.921C23.5207 52.994 23.404 53.0319 23.2901 53.0319V53.0265Z" fill="#2B2C34"/>
<path d="M36.625 63.8915H46.7574L49.2864 52.5745C49.4574 51.8141 48.8685 51.0916 48.0762 51.0916H36.625V63.8915Z" fill="#D2D4E9"/>
<path d="M25.6509 63.8915H36.6272V51.0916H23.0622C22.1911 51.0916 21.5779 51.9413 21.8574 52.7585L25.6509 63.8915Z" fill="#D2D4E9"/>
<path d="M36.6247 62.3842C36.3263 62.3842 36.082 62.1407 36.082 61.843V52.4798C36.082 52.1821 36.3263 51.9386 36.6247 51.9386C36.9232 51.9386 37.1675 52.1821 37.1675 52.4798V61.843C37.1675 62.1407 36.9232 62.3842 36.6247 62.3842Z" fill="#2B2C34"/>
<path d="M32.3609 172.469H14.9373C13.1246 172.469 11.6484 170.997 11.6484 169.19V151.814C11.6484 150.006 13.1246 148.534 14.9373 148.534H32.3609C34.1736 148.534 35.6498 150.006 35.6498 151.814V169.19C35.6498 170.997 34.1736 172.469 32.3609 172.469ZM14.9373 149.616C13.7216 149.616 12.7339 150.601 12.7339 151.814V169.19C12.7339 170.402 13.7216 171.387 14.9373 171.387H32.3609C33.5766 171.387 34.5643 170.402 34.5643 169.19V151.814C34.5643 150.601 33.5766 149.616 32.3609 149.616H14.9373Z" fill="#2B2C34"/>
<path d="M19.713 158.606C18.207 158.606 16.9805 157.383 16.9805 155.881C16.9805 154.379 18.207 153.156 19.713 153.156C21.219 153.156 22.4456 154.379 22.4456 155.881C22.4456 157.383 21.219 158.606 19.713 158.606ZM19.713 154.238C18.804 154.238 18.0659 154.974 18.0659 155.881C18.0659 156.787 18.804 157.523 19.713 157.523C20.6221 157.523 21.3601 156.787 21.3601 155.881C21.3601 154.974 20.6221 154.238 19.713 154.238Z" fill="#2B2C34"/>
<path d="M27.5822 166.981C26.0761 166.981 24.8496 165.758 24.8496 164.256C24.8496 162.754 26.0761 161.531 27.5822 161.531C29.0882 161.531 30.3147 162.754 30.3147 164.256C30.3147 165.758 29.0882 166.981 27.5822 166.981ZM27.5822 162.614C26.6731 162.614 25.935 163.35 25.935 164.256C25.935 165.163 26.6731 165.899 27.5822 165.899C28.4912 165.899 29.2293 165.163 29.2293 164.256C29.2293 163.35 28.4912 162.614 27.5822 162.614Z" fill="#2B2C34"/>
<path d="M18.47 168.586C18.375 168.586 18.2773 168.562 18.1905 168.508C17.9327 168.353 17.8513 168.021 18.006 167.763L27.1181 152.68C27.2727 152.422 27.6065 152.341 27.8643 152.496C28.1221 152.65 28.2035 152.983 28.0488 153.24L18.9367 168.324C18.8336 168.491 18.6545 168.586 18.47 168.586Z" fill="#2B2C34"/>
<path d="M225.754 177.44H202.136C198.795 177.44 196.076 174.729 196.076 171.398V124.804C196.076 121.472 198.795 118.761 202.136 118.761H225.754C229.095 118.761 231.814 121.472 231.814 124.804V171.398C231.814 174.729 229.095 177.44 225.754 177.44ZM202.136 119.843C199.392 119.843 197.162 122.068 197.162 124.804V171.398C197.162 174.134 199.392 176.358 202.136 176.358H225.754C228.498 176.358 230.728 174.134 230.728 171.398V124.804C230.728 122.068 228.498 119.843 225.754 119.843H202.136Z" fill="#2B2C34"/>
<path d="M221.155 153.507H206.735C205.348 153.507 204.223 154.629 204.223 156.013V164.697C204.223 166.081 205.348 167.203 206.735 167.203H221.155C222.543 167.203 223.668 166.081 223.668 164.697V156.013C223.668 154.629 222.543 153.507 221.155 153.507Z" fill="#D2D4E9"/>
<path d="M223.161 158.96H204.771C204.473 158.96 204.229 158.717 204.229 158.419C204.229 158.121 204.473 157.878 204.771 157.878H223.161C223.459 157.878 223.704 158.121 223.704 158.419C223.704 158.717 223.459 158.96 223.161 158.96Z" fill="#2B2C34"/>
<path d="M210.439 165.515H208.08C207.014 165.515 206.148 164.651 206.148 163.588C206.148 162.524 207.014 161.661 208.08 161.661H210.439C211.505 161.661 212.371 162.527 212.371 163.588C212.371 164.649 211.502 165.515 210.439 165.515ZM208.08 162.743C207.614 162.743 207.234 163.122 207.234 163.588C207.234 164.053 207.614 164.432 208.08 164.432H210.439C210.905 164.432 211.285 164.053 211.285 163.588C211.285 163.122 210.905 162.743 210.439 162.743H208.08Z" fill="#2B2C34"/>
<path d="M221.972 129.217H205.886C204.498 129.217 203.373 130.339 203.373 131.723V140.407C203.373 141.791 204.498 142.913 205.886 142.913H221.972C223.359 142.913 224.484 141.791 224.484 140.407V131.723C224.484 130.339 223.359 129.217 221.972 129.217Z" fill="#6A6C7E"/>
<path d="M213.928 139.525C212.01 139.525 210.449 137.969 210.449 136.056C210.449 134.142 212.01 132.586 213.928 132.586C215.846 132.586 217.407 134.142 217.407 136.056C217.407 137.969 215.846 139.525 213.928 139.525ZM213.928 133.669C212.609 133.669 211.535 134.74 211.535 136.056C211.535 137.371 212.609 138.442 213.928 138.442C215.247 138.442 216.321 137.371 216.321 136.056C216.321 134.74 215.247 133.669 213.928 133.669Z" fill="#2B2C34"/>
<path d="M205.362 139.525H203.373V138.442H205.362C206.551 138.442 207.519 137.476 207.519 136.291C207.519 135.106 206.551 134.14 205.362 134.14H203.373V133.057H205.362C207.15 133.057 208.605 134.508 208.605 136.291C208.605 138.074 207.15 139.525 205.362 139.525Z" fill="#2B2C34"/>
<path d="M224.517 139.538H222.528C220.74 139.538 219.285 138.088 219.285 136.305C219.285 134.521 220.74 133.071 222.528 133.071H224.517V134.153H222.528C221.339 134.153 220.371 135.119 220.371 136.305C220.371 137.49 221.339 138.456 222.528 138.456H224.517V139.538Z" fill="#2B2C34"/>
<path d="M228.152 84.3499H161.642C157.317 84.3499 153.795 80.8401 153.795 76.5238V35.8832C153.795 31.5697 157.314 28.0571 161.642 28.0571H228.152C232.477 28.0571 235.999 31.567 235.999 35.8832V76.5238C235.999 80.8373 232.48 84.3499 228.152 84.3499ZM161.642 29.1423C157.914 29.1423 154.88 32.1677 154.88 35.8859V76.5265C154.88 80.2447 157.914 83.2701 161.642 83.2701H228.152C231.88 83.2701 234.914 80.2447 234.914 76.5265V35.8832C234.914 32.165 231.88 29.1396 228.152 29.1396H161.642V29.1423Z" fill="#2B2C34"/>
<path d="M188.409 38.9492H167.531C165.38 38.9492 163.637 40.6878 163.637 42.8325V67.2796C163.637 69.4243 165.38 71.1629 167.531 71.1629H188.409C190.559 71.1629 192.303 69.4243 192.303 67.2796V42.8325C192.303 40.6878 190.559 38.9492 188.409 38.9492Z" fill="#D2D4E9"/>
<path d="M178.513 56.2062H177.428V71.1656H178.513V56.2062Z" fill="#2B2C34"/>
<path d="M204.886 39.6259H199.833C199.076 39.6259 198.463 40.2377 198.463 40.9924V46.0313C198.463 46.786 199.076 47.3978 199.833 47.3978H204.886C205.643 47.3978 206.256 46.786 206.256 46.0313V40.9924C206.256 40.2377 205.643 39.6259 204.886 39.6259Z" fill="#6A6C7E"/>
<path d="M215.816 39.6259H210.763C210.006 39.6259 209.393 40.2377 209.393 40.9924V46.0313C209.393 46.786 210.006 47.3978 210.763 47.3978H215.816C216.572 47.3978 217.186 46.786 217.186 46.0313V40.9924C217.186 40.2377 216.572 39.6259 215.816 39.6259Z" fill="#6A6C7E"/>
<path d="M226.749 39.6259H221.697C220.94 39.6259 220.326 40.2377 220.326 40.9924V46.0313C220.326 46.786 220.94 47.3978 221.697 47.3978H226.749C227.506 47.3978 228.119 46.786 228.119 46.0313V40.9924C228.119 40.2377 227.506 39.6259 226.749 39.6259Z" fill="#6A6C7E"/>
<path d="M228.121 55.0182H199.002C198.703 55.0182 198.459 54.7747 198.459 54.477C198.459 54.1793 198.703 53.9358 199.002 53.9358H228.121C228.419 53.9358 228.663 54.1793 228.663 54.477C228.663 54.7747 228.419 55.0182 228.121 55.0182Z" fill="#2B2C34"/>
<path d="M228.121 60.7471H199.002C198.703 60.7471 198.459 60.5036 198.459 60.2059C198.459 59.9082 198.703 59.6647 199.002 59.6647H228.121C228.419 59.6647 228.663 59.9082 228.663 60.2059C228.663 60.5036 228.419 60.7471 228.121 60.7471Z" fill="#2B2C34"/>
<path d="M217.988 66.476H199.002C198.703 66.476 198.459 66.2325 198.459 65.9348C198.459 65.6371 198.703 65.3936 199.002 65.3936H217.988C218.287 65.3936 218.531 65.6371 218.531 65.9348C218.531 66.2325 218.287 66.476 217.988 66.476Z" fill="#2B2C34"/>
<path d="M183.376 56.2062H172.5C172.023 56.2062 171.635 55.8192 171.635 55.3429V49.8576C171.635 49.587 171.855 49.3651 172.129 49.3651H183.751C184.022 49.3651 184.245 49.5843 184.245 49.8576V55.3429C184.245 55.8192 183.857 56.2062 183.379 56.2062H183.376Z" fill="#B0B1BA"/>
<path d="M177.938 51.3298C181.42 51.3298 184.242 50.4502 184.242 49.3652C184.242 48.2801 181.42 47.4005 177.938 47.4005C174.457 47.4005 171.635 48.2801 171.635 49.3652C171.635 50.4502 174.457 51.3298 177.938 51.3298Z" fill="#2B2C34"/>
<path d="M134.759 160.895H79.4138C79.1153 160.895 78.8711 160.652 78.8711 160.354C78.8711 160.056 79.1153 159.813 79.4138 159.813H134.759C135.058 159.813 135.302 160.056 135.302 160.354C135.302 160.652 135.058 160.895 134.759 160.895Z" fill="white"/>
</g>
<defs>
<clipPath id="clip0_637_1405">
<rect width="236" height="216" fill="white"/>
</clipPath>
</defs>
</svg>
