<svg width="236" height="216" viewBox="0 0 236 216" fill="none" xmlns="http://www.w3.org/2000/svg">
<g clip-path="url(#clip0_642_1932)">
<path d="M136.926 4.6249L5.22924 129.54C-4.13792 138.424 -0.347096 154.089 12.0511 157.737L186.378 209.021C198.776 212.669 210.485 201.563 207.454 189.031L164.824 12.8326C161.793 0.300518 146.293 -4.2593 136.926 4.6249Z" fill="#F45D48"/>
<path d="M135.612 160.354H78.5708C75.3064 166.789 71.7164 175.338 69.1955 185.773C66.3789 197.439 65.809 207.692 65.9583 215.421L146.958 215.494C146.703 207.01 145.739 196.819 143.27 185.51C141.156 175.828 138.391 167.395 135.612 160.351V160.354Z" fill="#078071"/>
<path d="M130.63 91.8865H85.0264V140.367H130.63V91.8865Z" fill="#222525"/>
<path d="M112.65 83.8086H101.598C94.3039 83.8086 88.3911 77.912 88.3911 70.6379V56.7149C88.3911 49.6167 94.1601 43.8635 101.278 43.8635H112.604C122.007 43.8635 129.629 51.465 129.629 60.8417V66.8791C129.629 76.2315 122.028 83.8113 112.65 83.8113V83.8086Z" fill="#222525"/>
<path d="M126.405 79.154L133.17 56.8502C133.572 55.5242 135.086 54.8882 136.318 55.5296L143.623 59.3263C144.985 60.0353 145.232 61.8781 144.1 62.9173L126.403 79.1567L126.405 79.154Z" fill="#F45D48"/>
<path d="M124.671 78.2801L143.984 66.2919C145.264 65.4963 146.955 66.0944 147.449 67.5178L150.011 74.9136C150.534 76.4264 149.419 78.0067 147.815 78.023L124.671 78.2801Z" fill="#F45D48"/>
<path d="M130.63 79.8955C128.454 79.8955 126.685 78.1311 126.685 75.9608C126.685 73.7905 128.454 72.0261 130.63 72.0261C132.807 72.0261 134.576 73.7905 134.576 75.9608C134.576 78.1311 132.807 79.8955 130.63 79.8955ZM130.63 73.1086C129.054 73.1086 127.77 74.3886 127.77 75.9608C127.77 77.5331 129.054 78.8131 130.63 78.8131C132.207 78.8131 133.49 77.5331 133.49 75.9608C133.49 74.3886 132.207 73.1086 130.63 73.1086Z" fill="#222525"/>
<path d="M123.493 69.9749C123.806 66.8764 121.589 64.1161 118.53 63.7697L118.566 59.9487C118.612 54.826 114.533 50.6423 109.451 50.6045L95.335 50.5043C91.5089 50.4773 88.3802 53.5812 88.3449 57.4401L88.1875 74.6267C88.1305 80.7317 92.9932 85.7164 99.0471 85.757L99.7011 85.7624L99.6143 95.2907L118.259 95.4233L118.362 84.1387H118.346L118.43 75.0651C121.054 74.808 123.222 72.7162 123.499 69.9722L123.493 69.9749Z" fill="#FFFFFE"/>
<path d="M159.768 117.616L137.406 130.763L151.294 159.404C151.294 159.404 157.565 171.273 169.317 165.709C174.12 163.436 177.721 159.217 179.385 154.181L191.468 117.619C191.468 117.619 209.22 111.609 211.852 96.1404C211.923 95.7994 211.985 95.2744 211.877 94.652C211.698 93.6426 211.168 92.9661 210.905 92.6711C211.038 92.3708 211.206 91.9405 211.339 91.4074C211.584 90.4251 211.817 89.4671 211.019 88.6552C210.316 87.9408 209.16 87.8055 208.401 88.4929C208.585 87.4862 208.306 86.5905 207.687 86.2089C207.329 85.9897 206.952 86.006 206.84 86.0114C205.437 86.0953 204.417 88.0139 204.124 88.547C202.935 90.7173 200.425 94.376 196.708 99.5068C196.708 99.5068 202.056 92.2733 199.21 90.2816C198.36 89.689 197.346 90.5198 196.787 91.1097C195.753 92.1949 195.354 93.6913 194.586 94.9335C193.609 96.5111 192.187 97.7857 190.627 98.7761C188.117 100.367 185.338 101.206 183.045 103.152C182.009 104.031 181.067 105.03 180.277 106.137C179.349 107.441 179.018 108.981 178.215 110.296L165.784 130.579L159.771 117.616H159.768Z" fill="#FFFFFE"/>
<path d="M163.25 167.731C155.193 167.731 150.865 159.756 150.814 159.656L136.7 130.549L160.01 116.845L165.849 129.431L177.751 110.012C178.087 109.457 178.34 108.859 178.603 108.223C178.94 107.42 179.284 106.589 179.832 105.82C180.622 104.713 181.583 103.677 182.69 102.735C184.122 101.52 185.745 100.717 187.314 99.9426C188.32 99.4447 189.36 98.9305 190.331 98.3162C191.989 97.2635 193.264 96.0295 194.119 94.6467C194.388 94.211 194.61 93.7429 194.844 93.2449C195.253 92.3763 195.677 91.4805 196.388 90.7336C197.921 89.1208 199.006 89.4807 199.516 89.8352C200.075 90.2249 200.417 90.7905 200.537 91.5157C200.626 92.0542 200.577 92.6604 200.439 93.2936C201.964 91.0719 203.011 89.4347 203.644 88.2819L203.663 88.2494C204.026 87.5864 205.131 85.565 206.805 85.4648C207.342 85.4324 207.736 85.5974 207.969 85.7408C208.547 86.0954 208.908 86.7665 208.981 87.5702C209.806 87.351 210.74 87.5918 211.404 88.2684C212.419 89.3021 212.113 90.5388 211.866 91.5319C211.779 91.8837 211.665 92.2328 211.532 92.5711C211.885 93.0284 212.259 93.6914 212.411 94.552C212.509 95.1094 212.501 95.6804 212.384 96.2433C211.288 102.692 207.348 108.532 200.993 113.113C196.811 116.128 192.931 117.657 191.902 118.033L179.9 154.346C178.169 159.583 174.397 163.899 169.551 166.197C167.25 167.287 165.147 167.728 163.25 167.728V167.731ZM138.114 130.976L151.785 159.169C151.785 159.169 153.34 162.064 156.254 164.232C160.105 167.098 164.422 167.431 169.087 165.22C173.667 163.052 177.233 158.966 178.872 154.011L191.039 117.191L191.294 117.105C191.468 117.045 208.772 111.011 211.318 96.0458C211.41 95.5993 211.415 95.1663 211.342 94.7441C211.201 93.9485 210.807 93.3721 210.498 93.0284L210.265 92.7687L210.406 92.4493C210.574 92.0705 210.71 91.6754 210.81 91.2749C211.063 90.2574 211.19 89.6025 210.628 89.0315C210.162 88.5552 209.334 88.3712 208.761 88.8908L207.573 89.9678L207.861 88.3929C208.002 87.6189 207.814 86.9261 207.397 86.669C207.296 86.6068 207.12 86.5364 206.867 86.5527C206.156 86.596 205.397 87.3429 204.615 88.7744L204.596 88.8096C203.473 90.8581 201.21 94.211 197.264 99.6639C197.199 99.7559 197.156 99.8127 197.142 99.8316L196.266 99.193C196.325 99.1118 196.382 99.0306 196.442 98.9521C197.538 97.4069 199.799 93.7104 199.468 91.6997C199.397 91.2667 199.21 90.9501 198.895 90.7309C198.355 90.3521 197.514 91.1342 197.175 91.486C196.586 92.1057 196.217 92.885 195.826 93.7131C195.59 94.2137 195.343 94.7333 195.044 95.2204C194.103 96.7439 192.714 98.0943 190.914 99.2336C189.894 99.8803 188.828 100.408 187.797 100.917C186.217 101.696 184.725 102.435 183.392 103.563C182.353 104.446 181.452 105.417 180.717 106.451C180.239 107.122 179.93 107.861 179.604 108.643C179.336 109.287 179.056 109.953 178.676 110.578L165.716 131.726L159.527 118.388L138.111 130.976H138.114Z" fill="#222525"/>
<path d="M117.776 72.1371C117.7 72.1371 117.624 72.1344 117.548 72.1263C116.327 72.0045 115.432 70.9139 115.554 69.6935C115.676 68.4757 116.767 67.5827 117.993 67.7045C119.214 67.8262 120.11 68.9168 119.988 70.1373C119.928 70.7272 119.64 71.2603 119.182 71.6365C118.78 71.9639 118.289 72.1371 117.776 72.1371ZM117.771 68.7761C117.193 68.7761 116.693 69.2145 116.636 69.8017C116.574 70.4268 117.033 70.987 117.659 71.0492C118.281 71.1115 118.848 70.6541 118.91 70.029C118.973 69.4039 118.514 68.8437 117.887 68.7815C117.849 68.7788 117.811 68.7761 117.773 68.7761H117.771Z" fill="#222525"/>
<path d="M99.9481 85.2267L111.082 84.9642C111.424 84.9561 111.513 85.4324 111.19 85.5487L99.9102 89.6025L99.9454 85.2267H99.9481Z" fill="#222525"/>
<path d="M116.11 70.73C115.833 70.73 115.597 70.5216 115.57 70.2429C115.448 69.0197 115.991 67.8182 116.984 67.1092C118.452 66.0619 120.058 66.641 120.237 66.7087C120.517 66.8169 120.655 67.1308 120.547 67.4096C120.438 67.6883 120.123 67.8263 119.844 67.7181C119.795 67.6991 118.636 67.2607 117.616 67.9887C116.938 68.4731 116.566 69.2957 116.65 70.1373C116.68 70.435 116.463 70.7002 116.164 70.73C116.145 70.73 116.129 70.73 116.11 70.73Z" fill="#222525"/>
<path d="M61.4594 116.033L83.8217 129.18L69.9338 157.821C69.9338 157.821 63.6628 169.69 51.9104 164.126C47.1074 161.853 43.5066 157.634 41.8432 152.598L29.7597 116.036C29.7597 116.036 12.0077 110.026 9.37555 94.5574C9.305 94.2164 9.24258 93.6914 9.35113 93.069C9.53022 92.0596 10.0594 91.3831 10.3226 91.0881C10.1896 90.7877 10.0214 90.3575 9.88841 89.8244C9.64419 88.842 9.41082 87.8841 10.2086 87.0722C10.9114 86.3578 12.0674 86.2225 12.8272 86.9099C12.6427 85.9032 12.9222 85.0075 13.5408 84.6259C13.899 84.4067 14.2762 84.4229 14.3875 84.4284C15.7904 84.5122 16.8107 86.4309 17.1037 86.964C18.2923 89.1343 20.8023 92.793 24.5199 97.9238C24.5199 97.9238 19.1715 90.6903 22.018 88.6986C22.8673 88.106 23.8822 88.9368 24.4412 89.5267C25.475 90.6118 25.8739 92.1083 26.6419 93.3504C27.6187 94.9281 29.0406 96.2027 30.6009 97.1931C33.111 98.7843 35.8896 99.6232 38.1826 101.569C39.2192 102.448 40.1608 103.447 40.9504 104.554C41.8784 105.858 42.2095 107.398 43.0127 108.713L55.4435 128.995L61.4567 116.033H61.4594Z" fill="#FFFFFE"/>
<path d="M57.9778 166.148C56.081 166.148 53.9807 165.707 51.6769 164.616C46.8305 162.321 43.056 158.002 41.3275 152.766L29.3254 116.453C28.297 116.076 24.4166 114.547 20.235 111.533C13.8799 106.951 9.93985 101.112 8.83815 94.6439C8.72418 94.1 8.71604 93.5317 8.81372 92.9715C8.96568 92.111 9.34287 91.448 9.69291 90.9906C9.55995 90.6524 9.44869 90.3033 9.35915 89.9515C9.11221 88.9583 8.80287 87.7217 9.82045 86.6879C10.4853 86.0114 11.4187 85.7705 12.2436 85.9897C12.3196 85.1887 12.6778 84.5176 13.2558 84.1604C13.4892 84.017 13.8799 83.8492 14.4199 83.8844C16.0942 83.9845 17.1986 86.0033 17.5622 86.6663L17.5812 86.7014C18.2243 87.8732 19.2555 89.4942 20.7859 91.7186C20.6475 91.0827 20.5987 90.4765 20.6882 89.9353C20.8076 89.21 21.1495 88.6444 21.7085 88.2548C22.2187 87.8976 23.3041 87.5403 24.8372 89.1532C25.5482 89.9001 25.9715 90.7958 26.3812 91.6645C26.6146 92.1597 26.8371 92.6306 27.1058 93.0635C27.9605 94.4464 29.2332 95.6804 30.8939 96.733C31.8653 97.35 32.9046 97.8642 33.9113 98.3594C35.4798 99.1361 37.1025 99.9371 38.5352 101.152C39.6451 102.094 40.6057 103.13 41.3926 104.237C41.9407 105.006 42.2881 105.836 42.6218 106.64C42.8878 107.276 43.1374 107.874 43.4766 108.429L55.3755 127.848L61.215 115.262L84.5244 128.966L70.4194 158.054C70.3597 158.167 66.0316 166.145 57.9751 166.145L57.9778 166.148ZM11.6521 86.9937C11.2586 86.9937 10.8679 87.1723 10.5965 87.4456C10.0348 88.0166 10.1624 88.6715 10.4147 89.689C10.5151 90.0895 10.6508 90.4846 10.819 90.8635L10.9601 91.1828L10.7268 91.4426C10.4201 91.7862 10.024 92.3627 9.88286 93.1583C9.8096 93.5831 9.81502 94.0134 9.90457 94.4437C12.4553 109.441 29.7569 115.462 29.9306 115.519L30.1856 115.606L42.3532 152.425C43.9922 157.38 47.5578 161.466 52.1382 163.634C56.8164 165.847 61.1445 165.509 65.0005 162.624C67.9067 160.451 69.4344 157.594 69.4507 157.567L83.1107 129.391L61.6954 116.802L55.5057 130.14L42.5458 108.994C42.1632 108.369 41.8864 107.701 41.6178 107.057C41.2922 106.275 40.9828 105.536 40.5053 104.865C39.7699 103.831 38.869 102.86 37.8297 101.978C36.4973 100.849 35.0049 100.11 33.4256 99.3309C32.3945 98.8222 31.328 98.2945 30.3077 97.6477C28.5087 96.5084 27.1193 95.1554 26.1777 93.6345C25.8765 93.1474 25.6323 92.6279 25.3962 92.1272C25.0055 91.3019 24.6364 90.5198 24.0476 89.9001C23.7111 89.5456 22.8699 88.7635 22.3272 89.1451C22.0124 89.3643 21.8252 89.6809 21.7546 90.1139C21.4263 92.1218 23.6758 95.8075 24.7721 97.3555C24.8318 97.4393 24.8942 97.5232 24.9539 97.6071L24.0774 98.2458C24.0639 98.2268 24.0204 98.1673 23.9553 98.0753C20.0098 92.6197 17.7467 89.2696 16.6233 87.2237L16.6043 87.1885C15.8201 85.757 15.063 85.0101 14.3521 84.9668C14.0943 84.9533 13.9233 85.0236 13.8229 85.0832C13.4023 85.3403 13.2151 86.033 13.3589 86.807L13.6493 88.3819L12.4607 87.3049C12.2192 87.0857 11.9343 86.9937 11.6494 86.9937H11.6521Z" fill="#222525"/>
<path d="M90.6732 68.4107C91.2802 68.4107 91.7722 67.92 91.7722 67.3147C91.7722 66.7094 91.2802 66.2188 90.6732 66.2188C90.0662 66.2188 89.5742 66.7094 89.5742 67.3147C89.5742 67.92 90.0662 68.4107 90.6732 68.4107Z" fill="#222525"/>
<path d="M102.461 68.2322C103.068 68.2322 103.56 67.7416 103.56 67.1363C103.56 66.531 103.068 66.0403 102.461 66.0403C101.854 66.0403 101.362 66.531 101.362 67.1363C101.362 67.7416 101.854 68.2322 102.461 68.2322Z" fill="#222525"/>
<path d="M95.0202 72.1615C94.9605 72.1615 94.9008 72.1507 94.8411 72.1317C94.0298 71.8476 93.2021 71.4606 93.213 70.7489C93.2184 70.4242 93.4084 70.2212 93.5603 70.0589C93.6173 69.9993 93.6851 69.9263 93.7584 69.8342C94.0271 69.496 94.1872 69.0738 94.2333 68.6057L94.6892 63.8564C94.7163 63.5588 94.9849 63.345 95.2807 63.3693C95.5792 63.3991 95.799 63.6616 95.7692 63.9593L95.3133 68.7085C95.2482 69.385 95.0094 70.002 94.6186 70.4973C94.5318 70.6055 94.4612 70.6867 94.3961 70.7543C94.5209 70.8355 94.7597 70.96 95.202 71.1142C95.4842 71.2144 95.6335 71.5229 95.5331 71.8043C95.4544 72.0262 95.2454 72.1669 95.0202 72.1669V72.1615Z" fill="#222525"/>
<path d="M96.6594 76.8917C95.4003 76.8917 94.361 76.226 94.3094 76.1908C94.0571 76.0285 93.9865 75.6929 94.152 75.4412C94.3149 75.1923 94.6513 75.1192 94.901 75.2843C94.92 75.2951 96.038 75.9987 97.1369 75.7579C97.7041 75.6334 98.1871 75.2626 98.567 74.6619C98.7271 74.4102 99.0608 74.3344 99.3159 74.4941C99.5683 74.6538 99.6443 74.9893 99.4842 75.241C98.9387 76.0988 98.2251 76.6292 97.3622 76.8187C97.1234 76.8701 96.8873 76.8917 96.6594 76.8917Z" fill="#222525"/>
<path d="M78.568 160.354L73.8193 137.355C73.0107 133.442 73.2169 129.388 74.4163 125.578L85.0263 91.8865H94.4911L96.6593 96.6898C101.318 107.008 116.086 106.789 120.433 96.3353L122.283 91.8865H130.63L141.088 126.141C142.437 130.557 142.502 135.263 141.281 139.714L135.612 160.354H78.5708H78.568Z" fill="#078071"/>
<path d="M108.957 58.352H103.714C100.339 58.352 97.6035 55.6242 97.6035 52.2578V48.3394H108.957V58.3547V58.352Z" fill="#222525"/>
<path d="M130.63 91.8863L141.775 129.006L162.734 116.674C159.988 111.66 157.283 107.571 155.03 104.437C150.062 97.5205 147.487 94.0241 143.121 92.2489C138.483 90.3628 133.824 91.0095 130.627 91.8863H130.63Z" fill="#222525"/>
<path d="M123.521 64.2568H114.105C110.287 64.2568 107.191 61.1691 107.191 57.3616V54.2441H123.521V64.2595V64.2568Z" fill="#222525"/>
<path d="M120.194 48.3394H103.967V58.3547H120.194V48.3394Z" fill="#222525"/>
<path d="M127.982 101.978C135.112 101.978 140.893 96.2129 140.893 89.1018C140.893 81.9907 135.112 76.2261 127.982 76.2261C120.851 76.2261 115.071 81.9907 115.071 89.1018C115.071 96.2129 120.851 101.978 127.982 101.978Z" fill="#222525"/>
<path d="M118.544 110.954C123.824 110.954 128.104 106.685 128.104 101.42C128.104 96.1548 123.824 91.8865 118.544 91.8865C113.264 91.8865 108.984 96.1548 108.984 101.42C108.984 106.685 113.264 110.954 118.544 110.954Z" fill="#222525"/>
<path d="M135.707 111.495C140.987 111.495 145.267 107.227 145.267 101.961C145.267 96.6961 140.987 92.4277 135.707 92.4277C130.428 92.4277 126.147 96.6961 126.147 101.961C126.147 107.227 130.428 111.495 135.707 111.495Z" fill="#222525"/>
<path d="M116.227 143.828H99.4298C94.2197 143.828 89.9839 139.601 89.9839 134.408V123.08C89.9839 120.558 92.0408 118.507 94.5698 118.507H121.089C123.618 118.507 125.675 120.558 125.675 123.08V134.408C125.675 139.604 121.437 143.828 116.229 143.828H116.227ZM94.5698 119.589C92.6405 119.589 91.0693 121.156 91.0693 123.08V134.408C91.0693 139.005 94.8194 142.745 99.4298 142.745H116.227C120.837 142.745 124.587 139.005 124.587 134.408V123.08C124.587 121.156 123.016 119.589 121.087 119.589H94.5671H94.5698Z" fill="#FFFFFE"/>
<path d="M126.147 123.93C131.427 123.93 135.707 119.661 135.707 114.396C135.707 109.131 131.427 104.862 126.147 104.862C120.868 104.862 116.588 109.131 116.588 114.396C116.588 119.661 120.868 123.93 126.147 123.93Z" fill="#222525"/>
<path d="M159.687 140.096C159.581 140.096 159.475 140.066 159.383 140.004C159.133 139.836 159.071 139.501 159.236 139.252L165.331 130.275C165.499 130.026 165.836 129.964 166.085 130.129C166.335 130.297 166.398 130.633 166.232 130.882L160.137 139.858C160.032 140.012 159.861 140.096 159.687 140.096Z" fill="#222525"/>
<path d="M204.998 104.159C204.851 104.159 204.705 104.099 204.596 103.983C204.395 103.761 204.409 103.42 204.631 103.217C207.972 100.178 210.27 92.7929 210.292 92.7172C210.379 92.4303 210.685 92.2734 210.97 92.3573C211.258 92.4439 211.418 92.7469 211.331 93.0338C211.233 93.3477 208.924 100.776 205.364 104.015C205.261 104.11 205.128 104.156 204.998 104.156V104.159Z" fill="#222525"/>
<path d="M201.63 101.228C201.473 101.228 201.315 101.16 201.21 101.028C201.02 100.795 201.055 100.454 201.288 100.267C204.382 97.7641 207.852 88.3983 207.888 88.3035C207.991 88.0221 208.303 87.8787 208.585 87.9815C208.867 88.0843 209.011 88.3955 208.908 88.677C208.761 89.0748 205.296 98.419 201.972 101.109C201.872 101.19 201.75 101.231 201.63 101.231V101.228Z" fill="#222525"/>
<path d="M61.5406 138.513C61.3669 138.513 61.196 138.429 61.0901 138.275L54.9955 129.299C54.8273 129.052 54.8924 128.714 55.142 128.546C55.3917 128.378 55.7282 128.443 55.8964 128.692L61.991 137.669C62.1593 137.915 62.0941 138.253 61.8445 138.421C61.7522 138.483 61.6464 138.513 61.5406 138.513Z" fill="#222525"/>
<path d="M16.2298 102.576C16.0996 102.576 15.9693 102.53 15.8635 102.435C12.3033 99.1957 9.99409 91.7674 9.8964 91.4535C9.80956 91.1667 9.96966 90.8663 10.2573 90.777C10.5449 90.6877 10.8461 90.85 10.9357 91.1369C10.9574 91.2099 13.2558 98.5977 16.5961 101.637C16.8187 101.837 16.8322 102.181 16.6314 102.402C16.5256 102.519 16.3764 102.578 16.2298 102.578V102.576Z" fill="#222525"/>
<path d="M19.5972 99.6447C19.4778 99.6447 19.3557 99.6042 19.2553 99.523C15.9312 96.8331 12.466 87.4888 12.3195 87.091C12.2164 86.8096 12.3602 86.4984 12.6424 86.3956C12.9219 86.2927 13.2367 86.4362 13.3398 86.7176C13.3751 86.8123 16.8457 96.1782 19.9391 98.6814C20.1725 98.8708 20.2078 99.2118 20.0178 99.4418C19.9093 99.5744 19.7546 99.642 19.5972 99.642V99.6447Z" fill="#222525"/>
<path d="M106.447 216C106.149 216 105.904 215.756 105.904 215.459V189.263C105.904 188.966 106.149 188.722 106.447 188.722C106.745 188.722 106.99 188.966 106.99 189.263V215.459C106.99 215.756 106.745 216 106.447 216Z" fill="#FFFFFE"/>
<path d="M106.447 173.419C106.149 173.419 105.904 173.176 105.904 172.878V160.357C105.904 160.059 106.149 159.815 106.447 159.815C106.745 159.815 106.99 160.059 106.99 160.357V172.878C106.99 173.176 106.745 173.419 106.447 173.419Z" fill="#FFFFFE"/>
<path d="M140.244 174.307C140.215 174.307 140.182 174.307 140.149 174.299C133.444 173.124 129.946 169.417 128.196 166.513C126.299 163.369 125.993 160.53 125.982 160.411C125.952 160.113 126.169 159.848 126.468 159.818C126.769 159.791 127.032 160.005 127.062 160.303C127.065 160.33 127.363 163.055 129.151 165.996C131.534 169.917 135.298 172.353 140.339 173.235C140.635 173.287 140.833 173.568 140.779 173.863C140.733 174.125 140.505 174.31 140.244 174.31V174.307Z" fill="#FFFFFE"/>
<path d="M74.94 175.027C74.164 175.027 73.358 174.972 72.5196 174.867C72.2211 174.829 72.0121 174.558 72.0501 174.261C72.0881 173.963 72.3595 173.755 72.658 173.793C76.6957 174.307 79.9465 173.503 82.3209 171.403C86.7087 167.522 86.706 160.432 86.706 160.359C86.706 160.062 86.9448 159.815 87.2433 159.815H87.2487C87.5472 159.815 87.7887 160.054 87.7914 160.351C87.7914 160.662 87.8023 167.996 83.0454 172.209C80.9288 174.085 78.2099 175.029 74.94 175.029V175.027Z" fill="#FFFFFE"/>
<path d="M58.2192 115.611L74.5928 125.018L85.0237 91.8865C85.0237 91.8865 70.5577 87.8652 58.2192 115.608V115.611Z" fill="#222525"/>
<path d="M64.9679 82.4124H22.9133C18.5309 82.4124 14.9653 78.8565 14.9653 74.4861V40.9194C14.9653 36.549 18.5309 32.9932 22.9133 32.9932H64.9679C69.3503 32.9932 72.9159 36.549 72.9159 40.9194V74.4861C72.9159 78.8565 69.3503 82.4124 64.9679 82.4124ZM22.9133 34.0783C19.1306 34.0783 16.0508 37.1471 16.0508 40.9221V74.4888C16.0508 78.2612 19.1279 81.3326 22.9133 81.3326H64.9679C68.7506 81.3326 71.8304 78.2639 71.8304 74.4888V40.9221C71.8304 37.1498 68.7533 34.0783 64.9679 34.0783H22.9133Z" fill="#222525"/>
<path d="M68.1048 52.1471H53.8804C53.5819 52.1471 53.3376 51.9036 53.3376 51.6059C53.3376 51.3082 53.5819 51.0647 53.8804 51.0647H68.1048C68.4033 51.0647 68.6475 51.3082 68.6475 51.6059C68.6475 51.9036 68.4033 52.1471 68.1048 52.1471Z" fill="#222525"/>
<path d="M68.1048 57.7353H53.8804C53.5819 57.7353 53.3376 57.4917 53.3376 57.1941C53.3376 56.8964 53.5819 56.6528 53.8804 56.6528H68.1048C68.4033 56.6528 68.6475 56.8964 68.6475 57.1941C68.6475 57.4917 68.4033 57.7353 68.1048 57.7353Z" fill="#222525"/>
<path d="M64.4035 63.3261H53.8804C53.5819 63.3261 53.3376 63.0826 53.3376 62.7849C53.3376 62.4872 53.5819 62.2437 53.8804 62.2437H64.4035C64.702 62.2437 64.9462 62.4872 64.9462 62.7849C64.9462 63.0826 64.702 63.3261 64.4035 63.3261Z" fill="#222525"/>
<path d="M45.7343 68.6409H27.133L25.4397 62.7009H46.8794L45.737 68.6409H45.7343ZM27.9497 67.5584H44.8361L45.5607 63.7834H26.8752L27.9524 67.5584H27.9497Z" fill="#222525"/>
<path d="M36.625 68.6409C36.3265 68.6409 36.0823 68.3973 36.0823 68.0996V63.2422C36.0823 62.9445 36.3265 62.7009 36.625 62.7009C36.9235 62.7009 37.1677 62.9445 37.1677 63.2422V68.0996C37.1677 68.3973 36.9235 68.6409 36.625 68.6409Z" fill="#222525"/>
<path d="M44.7464 69.5853C45.5617 69.5853 46.2226 68.9202 46.2226 68.0997C46.2226 67.2792 45.5617 66.614 44.7464 66.614C43.9312 66.614 43.2703 67.2792 43.2703 68.0997C43.2703 68.9202 43.9312 69.5853 44.7464 69.5853Z" fill="#222525"/>
<path d="M36.614 69.5853C37.4368 69.5853 38.1037 68.9202 38.1037 68.0997C38.1037 67.2792 37.4368 66.614 36.614 66.614C35.7912 66.614 35.1243 67.2792 35.1243 68.0997C35.1243 68.9202 35.7912 69.5853 36.614 69.5853Z" fill="#222525"/>
<path d="M28.107 69.5853C28.9208 69.5853 29.5805 68.9202 29.5805 68.0997C29.5805 67.2792 28.9208 66.614 28.107 66.614C27.2932 66.614 26.6335 67.2792 26.6335 68.0997C26.6335 68.9202 27.2932 69.5853 28.107 69.5853Z" fill="#222525"/>
<path d="M23.2905 53.0266C23.1277 53.0266 22.9649 52.9536 22.8591 52.8129L19.8091 48.8051C19.5187 48.4181 19.4753 47.9148 19.6897 47.4872C19.904 47.0596 20.3355 46.7944 20.8158 46.7944H30.0961C30.8234 46.7944 31.5072 47.1435 31.9332 47.7308L36.1283 52.1011C36.3346 52.3176 36.3291 52.6586 36.1121 52.867C35.895 53.0726 35.5531 53.0672 35.3441 52.8507L31.0676 48.3856C30.8478 48.069 30.4842 47.8796 30.0961 47.8796H20.8158C20.7208 47.8796 20.6774 47.9391 20.6584 47.977C20.6394 48.0122 20.6177 48.0853 20.6747 48.1583L23.722 52.1634C23.9038 52.4015 23.8577 52.7398 23.6189 52.9211C23.5212 52.9942 23.4045 53.032 23.2905 53.032V53.0266Z" fill="#222525"/>
<path d="M36.6248 63.8918H46.7571L49.2862 52.5748C49.4571 51.8143 48.8683 51.0918 48.0759 51.0918H36.6248V63.8918Z" fill="#078071"/>
<path d="M25.6514 63.8918H36.6277V51.0918H23.0627C22.1916 51.0918 21.5783 51.9415 21.8578 52.7588L25.6514 63.8918Z" fill="#078071"/>
<path d="M36.625 62.3844C36.3265 62.3844 36.0823 62.1408 36.0823 61.8431V52.4799C36.0823 52.1823 36.3265 51.9387 36.625 51.9387C36.9235 51.9387 37.1677 52.1823 37.1677 52.4799V61.8431C37.1677 62.1408 36.9235 62.3844 36.625 62.3844Z" fill="#222525"/>
<path d="M32.3617 172.469H14.938C13.1253 172.469 11.6492 170.997 11.6492 169.19V151.814C11.6492 150.006 13.1253 148.534 14.938 148.534H32.3617C34.1743 148.534 35.6505 150.006 35.6505 151.814V169.19C35.6505 170.997 34.1743 172.469 32.3617 172.469ZM14.938 149.616C13.7223 149.616 12.7346 150.601 12.7346 151.814V169.19C12.7346 170.402 13.7223 171.387 14.938 171.387H32.3617C33.5774 171.387 34.5651 170.402 34.5651 169.19V151.814C34.5651 150.601 33.5774 149.616 32.3617 149.616H14.938Z" fill="#222525"/>
<path d="M19.7137 158.606C18.2077 158.606 16.9812 157.383 16.9812 155.881C16.9812 154.379 18.2077 153.156 19.7137 153.156C21.2198 153.156 22.4463 154.379 22.4463 155.881C22.4463 157.383 21.2198 158.606 19.7137 158.606ZM19.7137 154.238C18.8047 154.238 18.0666 154.974 18.0666 155.881C18.0666 156.787 18.8047 157.523 19.7137 157.523C20.6228 157.523 21.3609 156.787 21.3609 155.881C21.3609 154.974 20.6228 154.238 19.7137 154.238Z" fill="#222525"/>
<path d="M27.5831 166.981C26.0771 166.981 24.8506 165.758 24.8506 164.256C24.8506 162.754 26.0771 161.531 27.5831 161.531C29.0891 161.531 30.3157 162.754 30.3157 164.256C30.3157 165.758 29.0891 166.981 27.5831 166.981ZM27.5831 162.614C26.6741 162.614 25.936 163.35 25.936 164.256C25.936 165.163 26.6741 165.899 27.5831 165.899C28.4922 165.899 29.2303 165.163 29.2303 164.256C29.2303 163.35 28.4922 162.614 27.5831 162.614Z" fill="#222525"/>
<path d="M18.471 168.586C18.376 168.586 18.2783 168.562 18.1915 168.508C17.9337 168.353 17.8523 168.021 18.007 167.763L27.119 152.68C27.2737 152.422 27.6075 152.341 27.8653 152.496C28.1231 152.65 28.2045 152.983 28.0498 153.24L18.9377 168.324C18.8346 168.491 18.6555 168.586 18.471 168.586Z" fill="#222525"/>
<path d="M225.754 177.441H202.135C198.795 177.441 196.076 174.729 196.076 171.398V124.804C196.076 121.473 198.795 118.761 202.135 118.761H225.754C229.094 118.761 231.813 121.473 231.813 124.804V171.398C231.813 174.729 229.094 177.441 225.754 177.441ZM202.135 119.843C199.392 119.843 197.161 122.068 197.161 124.804V171.398C197.161 174.134 199.392 176.358 202.135 176.358H225.754C228.497 176.358 230.728 174.134 230.728 171.398V124.804C230.728 122.068 228.497 119.843 225.754 119.843H202.135Z" fill="#222525"/>
<path d="M221.154 153.508H206.734C205.347 153.508 204.222 154.63 204.222 156.014V164.698C204.222 166.082 205.347 167.203 206.734 167.203H221.154C222.542 167.203 223.667 166.082 223.667 164.698V156.014C223.667 154.63 222.542 153.508 221.154 153.508Z" fill="#078071"/>
<path d="M223.159 158.961H204.77C204.471 158.961 204.227 158.717 204.227 158.419C204.227 158.122 204.471 157.878 204.77 157.878H223.159C223.458 157.878 223.702 158.122 223.702 158.419C223.702 158.717 223.458 158.961 223.159 158.961Z" fill="#222525"/>
<path d="M210.438 165.515H208.08C207.014 165.515 206.148 164.652 206.148 163.588C206.148 162.525 207.014 161.661 208.08 161.661H210.438C211.505 161.661 212.37 162.527 212.37 163.588C212.37 164.649 211.502 165.515 210.438 165.515ZM208.08 162.744C207.614 162.744 207.234 163.123 207.234 163.588C207.234 164.054 207.614 164.432 208.08 164.432H210.438C210.905 164.432 211.285 164.054 211.285 163.588C211.285 163.123 210.905 162.744 210.438 162.744H208.08Z" fill="#222525"/>
<path d="M221.971 129.218H205.885C204.497 129.218 203.372 130.339 203.372 131.723V140.407C203.372 141.791 204.497 142.913 205.885 142.913H221.971C223.359 142.913 224.484 141.791 224.484 140.407V131.723C224.484 130.339 223.359 129.218 221.971 129.218Z" fill="#F45D48"/>
<path d="M213.928 139.525C212.01 139.525 210.449 137.969 210.449 136.056C210.449 134.143 212.01 132.587 213.928 132.587C215.846 132.587 217.407 134.143 217.407 136.056C217.407 137.969 215.846 139.525 213.928 139.525ZM213.928 133.669C212.609 133.669 211.535 134.741 211.535 136.056C211.535 137.371 212.609 138.443 213.928 138.443C215.247 138.443 216.321 137.371 216.321 136.056C216.321 134.741 215.247 133.669 213.928 133.669Z" fill="#222525"/>
<path d="M205.361 139.525H203.372V138.443H205.361C206.55 138.443 207.519 137.477 207.519 136.291C207.519 135.106 206.55 134.14 205.361 134.14H203.372V133.058H205.361C207.15 133.058 208.604 134.508 208.604 136.291C208.604 138.075 207.15 139.525 205.361 139.525Z" fill="#222525"/>
<path d="M224.516 139.539H222.527C220.739 139.539 219.285 138.088 219.285 136.305C219.285 134.522 220.739 133.071 222.527 133.071H224.516V134.153H222.527C221.339 134.153 220.37 135.12 220.37 136.305C220.37 137.49 221.339 138.456 222.527 138.456H224.516V139.539Z" fill="#222525"/>
<path d="M228.152 84.3499H161.643C157.318 84.3499 153.796 80.8401 153.796 76.5238V35.8832C153.796 31.5697 157.315 28.0571 161.643 28.0571H228.152C232.478 28.0571 236 31.567 236 35.8832V76.5238C236 80.8373 232.48 84.3499 228.152 84.3499ZM161.643 29.1423C157.915 29.1423 154.881 32.1677 154.881 35.8859V76.5265C154.881 80.2447 157.915 83.2701 161.643 83.2701H228.152C231.881 83.2701 234.914 80.2447 234.914 76.5265V35.8832C234.914 32.165 231.881 29.1396 228.152 29.1396H161.643V29.1423Z" fill="#222525"/>
<path d="M188.41 38.9492H167.532C165.381 38.9492 163.638 40.6878 163.638 42.8325V67.2796C163.638 69.4243 165.381 71.1629 167.532 71.1629H188.41C190.56 71.1629 192.304 69.4243 192.304 67.2796V42.8325C192.304 40.6878 190.56 38.9492 188.41 38.9492Z" fill="#078071"/>
<path d="M178.513 56.2063H177.428V71.1657H178.513V56.2063Z" fill="#222525"/>
<path d="M204.886 39.6257H199.834C199.077 39.6257 198.463 40.2376 198.463 40.9923V46.0311C198.463 46.7859 199.077 47.3977 199.834 47.3977H204.886C205.643 47.3977 206.257 46.7859 206.257 46.0311V40.9923C206.257 40.2376 205.643 39.6257 204.886 39.6257Z" fill="#F45D48"/>
<path d="M215.817 39.6257H210.764C210.007 39.6257 209.394 40.2376 209.394 40.9923V46.0311C209.394 46.7859 210.007 47.3977 210.764 47.3977H215.817C216.573 47.3977 217.187 46.7859 217.187 46.0311V40.9923C217.187 40.2376 216.573 39.6257 215.817 39.6257Z" fill="#F45D48"/>
<path d="M226.749 39.6257H221.697C220.94 39.6257 220.326 40.2376 220.326 40.9923V46.0311C220.326 46.7859 220.94 47.3977 221.697 47.3977H226.749C227.506 47.3977 228.12 46.7859 228.12 46.0311V40.9923C228.12 40.2376 227.506 39.6257 226.749 39.6257Z" fill="#F45D48"/>
<path d="M228.122 55.0182H199.003C198.705 55.0182 198.461 54.7747 198.461 54.477C198.461 54.1793 198.705 53.9358 199.003 53.9358H228.122C228.421 53.9358 228.665 54.1793 228.665 54.477C228.665 54.7747 228.421 55.0182 228.122 55.0182Z" fill="#222525"/>
<path d="M228.122 60.747H199.003C198.705 60.747 198.461 60.5034 198.461 60.2058C198.461 59.9081 198.705 59.6646 199.003 59.6646H228.122C228.421 59.6646 228.665 59.9081 228.665 60.2058C228.665 60.5034 228.421 60.747 228.122 60.747Z" fill="#222525"/>
<path d="M217.99 66.476H199.003C198.705 66.476 198.461 66.2325 198.461 65.9348C198.461 65.6371 198.705 65.3936 199.003 65.3936H217.99C218.289 65.3936 218.533 65.6371 218.533 65.9348C218.533 66.2325 218.289 66.476 217.99 66.476Z" fill="#222525"/>
<path d="M183.376 56.2063H172.5C172.023 56.2063 171.635 55.8193 171.635 55.3431V49.8578C171.635 49.5871 171.854 49.3652 172.128 49.3652H183.751C184.022 49.3652 184.244 49.5844 184.244 49.8578V55.3431C184.244 55.8193 183.856 56.2063 183.379 56.2063H183.376Z" fill="#F45D48"/>
<path d="M177.938 51.3297C181.419 51.3297 184.242 50.4501 184.242 49.365C184.242 48.28 181.419 47.4004 177.938 47.4004C174.457 47.4004 171.635 48.28 171.635 49.365C171.635 50.4501 174.457 51.3297 177.938 51.3297Z" fill="#222525"/>
<path d="M134.76 160.895H79.4148C79.1163 160.895 78.8721 160.652 78.8721 160.354C78.8721 160.056 79.1163 159.813 79.4148 159.813H134.76C135.059 159.813 135.303 160.056 135.303 160.354C135.303 160.652 135.059 160.895 134.76 160.895Z" fill="#FFFFFE"/>
</g>
<defs>
<clipPath id="clip0_642_1932">
<rect width="236" height="216" fill="white"/>
</clipPath>
</defs>
</svg>
