<svg width="102" height="32" viewBox="0 0 102 32" fill="none" xmlns="http://www.w3.org/2000/svg">
<g clip-path="url(#clip0_1577_10805)">
<path d="M98.207 1.10156H3.51953C1.99428 1.10156 0.757812 2.31599 0.757812 3.81406V28.6141C0.757812 30.1121 1.99428 31.3266 3.51953 31.3266H98.207C99.7323 31.3266 100.969 30.1121 100.969 28.6141V3.81406C100.969 2.31599 99.7323 1.10156 98.207 1.10156Z" fill="#221F1F" stroke="#4D4B4B"/>
<path d="M9.35248 7.1875C9.14574 7.40218 9.02344 7.73542 9.02344 8.16787V23.5935C9.02344 24.0259 9.14574 24.3584 9.35248 24.5731L18.2034 15.8799L9.35248 7.1875Z" fill="#00E3FF"/>
<path d="M9.40416 7.13672L9.35156 7.18709C9.36909 7.16927 9.3938 7.16152 9.41213 7.14447L9.40416 7.13672Z" fill="#00E3FF"/>
<path d="M9.40495 24.6226L9.41292 24.6149C9.3938 24.5986 9.36909 24.5909 9.35156 24.5723L9.40495 24.6226Z" fill="#00E3FF"/>
<path d="M24.6774 14.8746L21.2024 12.9355L18.2031 15.8805L21.2016 18.8271L24.6766 16.8888C25.67 16.3347 25.67 15.4287 24.6774 14.8746Z" fill="#FFE000"/>
<path d="M18.2025 15.8809L9.35156 24.574C9.36892 24.5926 9.39338 24.6004 9.41232 24.6167C9.74373 24.9081 10.2511 24.9383 10.8271 24.6167L21.1346 18.8654L21.2017 18.8274L18.2025 15.8809Z" fill="#FF3A44"/>
<path d="M18.2025 15.8799L21.2009 12.9341L21.2017 12.9333L10.8271 7.14409C10.2511 6.82246 9.74215 6.85269 9.41153 7.14409C9.39338 7.16114 9.36892 7.16888 9.35156 7.1867L18.2025 15.8799Z" fill="#00F076"/>
<path d="M44.5531 17.9453C42.8826 17.9453 41.5215 19.1923 41.5215 20.912C41.5215 22.6201 42.8826 23.8787 44.5531 23.8787C46.2235 23.8787 47.5846 22.6201 47.5846 20.912C47.5846 19.1931 46.2235 17.9453 44.5531 17.9453ZM44.5531 22.71C43.6377 22.71 42.8487 21.9683 42.8487 20.912C42.8487 19.8448 43.6377 19.114 44.5531 19.114C45.4684 19.114 46.2574 19.8441 46.2574 20.912C46.2582 21.9683 45.4684 22.71 44.5531 22.71Z" fill="white"/>
<path d="M51.1663 17.9453C49.4959 17.9453 48.1348 19.1923 48.1348 20.912C48.1348 22.6201 49.4959 23.8787 51.1663 23.8787C52.8368 23.8787 54.1979 22.6201 54.1979 20.912C54.1987 19.1931 52.8368 17.9453 51.1663 17.9453ZM51.1663 22.71C50.251 22.71 49.462 21.9683 49.462 20.912C49.462 19.8448 50.2518 19.114 51.1663 19.114C52.0809 19.114 52.8707 19.8441 52.8707 20.912C52.8715 21.9683 52.0817 22.71 51.1663 22.71Z" fill="white"/>
<path d="M80.0476 14.9785H78.7227V23.698H80.0476V14.9785Z" fill="white"/>
<path d="M36.6854 18.856V20.1139H39.7517C39.6602 20.8214 39.4203 21.3384 39.0534 21.698C38.6076 22.1358 37.9092 22.6194 36.6854 22.6194C34.798 22.6194 33.3216 21.1252 33.3216 19.2707C33.3216 17.4161 34.7972 15.9219 36.6854 15.9219C37.7041 15.9219 38.4474 16.3156 38.9966 16.8209L39.9 15.9335C39.1339 15.2143 38.1152 14.6641 36.6854 14.6641C34.0996 14.6641 31.9258 16.7318 31.9258 19.2714C31.9258 21.8111 34.0996 23.8788 36.6854 23.8788C38.0813 23.8788 39.1339 23.4293 39.9576 22.5869C40.8043 21.7553 41.0679 20.5866 41.0679 19.6427C41.0679 19.3505 41.045 19.0808 40.9992 18.856H36.6854Z" fill="white"/>
<path d="M83.3008 17.9297C82.3413 17.9297 81.3478 18.3451 80.9367 19.265L82.1132 19.7471C82.3641 19.265 82.8328 19.1077 83.3236 19.1077C84.0086 19.1077 84.7053 19.5115 84.7171 20.2291V20.319C84.4773 20.1842 83.9636 19.9827 83.3355 19.9827C82.0675 19.9827 80.7773 20.667 80.7773 21.9457C80.7773 23.1121 81.8165 23.8639 82.982 23.8639C83.8728 23.8639 84.3636 23.4709 84.6722 23.0114H84.7179V23.6841H85.997V20.3407C85.9962 18.793 84.8197 17.9297 83.3008 17.9297ZM83.1406 22.7083C82.7066 22.7083 82.1014 22.4952 82.1014 21.9682C82.1014 21.2955 82.8549 21.0374 83.5059 21.0374C84.0883 21.0374 84.3628 21.1607 84.7163 21.3288C84.6146 22.1364 83.906 22.7083 83.1406 22.7083Z" fill="white"/>
<path d="M89.1388 21.9015H89.093L87.5173 18.1211H86.0898L88.4539 23.405L87.1062 26.3438H88.4878L92.1317 18.1211H90.6577L89.1388 21.9015Z" fill="white"/>
<path d="M59.2867 18.6079H59.2401C58.9426 18.26 58.3706 17.9453 57.6501 17.9453C56.1399 17.9453 54.7559 19.2489 54.7559 20.9229C54.7559 22.586 56.1399 23.8779 57.6501 23.8779C58.3706 23.8779 58.9426 23.5633 59.2401 23.2037H59.2859V23.6307C59.2859 24.7653 58.668 25.3721 57.673 25.3721C56.8611 25.3721 56.3577 24.7994 56.1517 24.3158L54.9965 24.7878C55.3279 25.5744 56.2093 26.5408 57.6738 26.5408C59.2298 26.5408 60.5452 25.6418 60.5452 23.4509V18.1243H59.2867V18.6079ZM57.7638 22.7092C56.8485 22.7092 56.0823 21.9567 56.0823 20.9229C56.0823 19.8782 56.8492 19.114 57.7638 19.114C58.6672 19.114 59.3766 19.8782 59.3766 20.9229C59.3774 21.9567 58.668 22.7092 57.7638 22.7092Z" fill="white"/>
<path d="M75.0775 14.9785H71.9023V23.698H73.2272V20.3942H75.0775C76.5468 20.3942 77.99 19.3495 77.99 17.6864C77.99 16.0232 76.5468 14.9785 75.0775 14.9785ZM75.1123 19.1806H73.2272V16.1914H75.1115C76.1025 16.1914 76.6651 16.9974 76.6651 17.6856C76.6651 18.3622 76.1025 19.1806 75.1123 19.1806Z" fill="white"/>
<path d="M62.7862 14.9785H61.459V23.698H62.7862V14.9785Z" fill="white"/>
<path d="M68.862 19.8332C68.6103 19.1706 67.8441 17.9453 66.2762 17.9453C64.7202 17.9453 63.4277 19.1473 63.4277 20.912C63.4277 22.5752 64.7092 23.8787 66.4254 23.8787C67.8094 23.8787 68.6103 23.0471 68.9425 22.5643L67.9128 21.8901C67.5695 22.3845 67.1008 22.71 66.4254 22.71C65.7499 22.71 65.2702 22.4062 64.9609 21.811L68.9993 20.1703L68.862 19.8332ZM64.7431 20.8221C64.7084 19.6759 65.6466 19.0915 66.322 19.0915C66.8483 19.0915 67.2949 19.3496 67.4433 19.7208L64.7431 20.8221Z" fill="white"/>
<path d="M32.1953 10.9298L32.8368 10.7662C32.8853 11.0092 33.0148 11.2522 33.2251 11.4951C33.4378 11.738 33.7187 11.8595 34.0678 11.8595C34.4238 11.8595 34.7046 11.7698 34.9104 11.5904C35.1161 11.4111 35.219 11.1943 35.219 10.9399C35.219 10.6652 35.1103 10.4472 34.893 10.286C34.6757 10.1226 34.3798 10.0408 34.0053 10.0408H33.6829V9.46524C33.9926 9.46524 34.2296 9.44819 34.3937 9.41416C34.5578 9.37782 34.7023 9.28815 34.8272 9.14508C34.9543 8.99977 35.0179 8.83516 35.0179 8.65125C35.0179 8.4333 34.9312 8.24371 34.7578 8.08251C34.5867 7.92131 34.3544 7.8407 34.0608 7.8407C33.8042 7.8407 33.5846 7.90428 33.402 8.03143C33.2217 8.1563 33.0969 8.32318 33.0275 8.53206C32.9582 8.73867 32.9235 8.89305 32.9235 8.99528L32.2785 8.85221C32.438 7.79189 33.0344 7.26172 34.0678 7.26172C34.5648 7.26172 34.9589 7.39796 35.2502 7.67041C35.5415 7.9406 35.6872 8.25734 35.6872 8.62064C35.6872 9.08611 35.4629 9.4471 35.0144 9.70363C35.2734 9.77408 35.4895 9.91822 35.6628 10.1362C35.8386 10.3519 35.9264 10.6107 35.9264 10.9127C35.9264 11.3418 35.7565 11.7017 35.4167 11.9924C35.0792 12.2807 34.6307 12.4249 34.0712 12.4249C33.1096 12.4249 32.4843 11.9265 32.1953 10.9298ZM39.0888 11.8935C38.8576 12.0865 38.6345 12.2228 38.4196 12.3023C38.2069 12.3817 37.978 12.4215 37.733 12.4215C37.3284 12.4215 37.0175 12.325 36.8002 12.1319C36.5829 11.9367 36.4742 11.6881 36.4742 11.3861C36.4742 11.209 36.5147 11.0478 36.5956 10.9025C36.6788 10.7549 36.7863 10.6368 36.9181 10.5483C37.0521 10.4597 37.2025 10.3928 37.3689 10.3473C37.4914 10.3156 37.6764 10.2849 37.9237 10.2553C38.4276 10.1964 38.7987 10.126 39.0368 10.0442C39.0391 9.96023 39.0403 9.90683 39.0403 9.88412C39.0403 9.63442 38.9813 9.45842 38.8634 9.35627C38.7039 9.21778 38.4669 9.1485 38.1526 9.1485C37.859 9.1485 37.6417 9.19957 37.5007 9.30179C37.3619 9.40169 37.2591 9.57994 37.1921 9.83646L36.5818 9.75478C36.6373 9.49818 36.7286 9.29156 36.8557 9.13486C36.9829 8.97598 37.1666 8.85446 37.4071 8.77045C37.6474 8.68419 37.926 8.64102 38.2427 8.64102C38.5571 8.64102 38.8125 8.67737 39.009 8.75007C39.2056 8.82269 39.3501 8.91468 39.4425 9.02589C39.5349 9.13485 39.5997 9.27342 39.6366 9.44144C39.6575 9.54584 39.6679 9.73432 39.6679 10.0067V10.8241C39.6679 11.3941 39.6806 11.7551 39.706 11.9072C39.7338 12.0571 39.787 12.2012 39.8656 12.3397H39.2136C39.1489 12.2125 39.1073 12.0638 39.0888 11.8935ZM39.0368 10.5244C38.8103 10.6153 38.4704 10.6924 38.0173 10.756C37.7607 10.7923 37.5792 10.8333 37.4729 10.8786C37.3666 10.924 37.2845 10.9911 37.2267 11.0796C37.1689 11.1659 37.1401 11.2624 37.1401 11.3691C37.1401 11.5325 37.2025 11.6688 37.3273 11.7778C37.4544 11.8867 37.6394 11.9412 37.8821 11.9412C38.1225 11.9412 38.3363 11.8901 38.5236 11.788C38.7108 11.6835 38.8484 11.5416 38.9362 11.3623C39.0033 11.2238 39.0368 11.0194 39.0368 10.7493V10.5244ZM40.6423 8.72279H42.0813C42.435 8.72279 42.6973 8.75231 42.8684 8.81137C43.0418 8.8681 43.1898 8.97365 43.3123 9.12811C43.4371 9.28249 43.4995 9.46748 43.4995 9.68324C43.4995 9.85576 43.4626 10.0067 43.3886 10.1362C43.3169 10.2633 43.2083 10.3701 43.0626 10.4563C43.236 10.5131 43.3793 10.6198 43.4926 10.7765C43.6082 10.9308 43.666 11.1147 43.666 11.3282C43.6429 11.671 43.518 11.9253 43.2915 12.0911C43.065 12.2569 42.7355 12.3397 42.3032 12.3397H40.6423V8.72279ZM41.2665 10.2452H41.9322C42.198 10.2452 42.3807 10.2316 42.4801 10.2043C42.5795 10.1771 42.6685 10.1226 42.7471 10.0408C42.8256 9.95682 42.8649 9.85692 42.8649 9.74114C42.8649 9.55041 42.7957 9.41757 42.6569 9.34263C42.5205 9.26769 42.2859 9.23026 41.953 9.23026H41.2665V10.2452ZM41.2665 11.8357H42.0883C42.4419 11.8357 42.6846 11.7959 42.8164 11.7165C42.9482 11.6347 43.0175 11.4951 43.0245 11.2976C43.0245 11.1818 42.9864 11.0751 42.9101 10.9774C42.8338 10.8775 42.7343 10.8151 42.6118 10.7901C42.4893 10.7628 42.2928 10.7493 42.0224 10.7493H41.2665V11.8357ZM46.7313 11.8935C46.5001 12.0865 46.2771 12.2228 46.0621 12.3023C45.8494 12.3817 45.6205 12.4215 45.3755 12.4215C44.9709 12.4215 44.66 12.325 44.4427 12.1319C44.2254 11.9367 44.1168 11.6881 44.1168 11.3861C44.1168 11.209 44.1572 11.0478 44.2381 10.9025C44.3213 10.7549 44.4289 10.6368 44.5606 10.5483C44.6947 10.4597 44.8449 10.3928 45.0114 10.3473C45.1339 10.3156 45.3188 10.2849 45.5662 10.2553C46.0702 10.1964 46.4412 10.126 46.6793 10.0442C46.6816 9.96023 46.6827 9.90683 46.6827 9.88412C46.6827 9.63442 46.6238 9.45842 46.5059 9.35627C46.3464 9.21778 46.1095 9.1485 45.795 9.1485C45.5015 9.1485 45.2842 9.19957 45.1432 9.30179C45.0045 9.40169 44.9016 9.57994 44.8345 9.83646L44.2243 9.75478C44.2797 9.49818 44.371 9.29156 44.4982 9.13486C44.6253 8.97598 44.8091 8.85446 45.0495 8.77045C45.29 8.68419 45.5685 8.64102 45.8852 8.64102C46.1996 8.64102 46.4551 8.67737 46.6516 8.75007C46.848 8.82269 46.9925 8.91468 47.085 9.02589C47.1775 9.13485 47.2422 9.27342 47.2792 9.44144C47.3 9.54584 47.3104 9.73432 47.3104 10.0067V10.8241C47.3104 11.3941 47.3231 11.7551 47.3485 11.9072C47.3762 12.0571 47.4294 12.2012 47.508 12.3397H46.8562C46.7914 12.2125 46.7498 12.0638 46.7313 11.8935ZM46.6793 10.5244C46.4527 10.6153 46.113 10.6924 45.6598 10.756C45.4032 10.7923 45.2218 10.8333 45.1154 10.8786C45.0091 10.924 44.927 10.9911 44.8692 11.0796C44.8114 11.1659 44.7825 11.2624 44.7825 11.3691C44.7825 11.5325 44.8449 11.6688 44.9698 11.7778C45.097 11.8867 45.2818 11.9412 45.5246 11.9412C45.765 11.9412 45.9788 11.8901 46.1661 11.788C46.3533 11.6835 46.4909 11.5416 46.5787 11.3623C46.6457 11.2238 46.6793 11.0194 46.6793 10.7493V10.5244ZM48.2848 8.72279H48.9089V10.2281H50.6393V8.72279H51.2634V12.3397H50.6393V10.7356H48.9089V12.3397H48.2848V8.72279ZM51.8702 8.72279H54.8627V9.23026H53.6768V12.3397H53.0561V9.23026H51.8702V8.72279ZM57.7789 11.8935C57.5478 12.0865 57.3247 12.2228 57.1097 12.3023C56.897 12.3817 56.6682 12.4215 56.4232 12.4215C56.0186 12.4215 55.7076 12.325 55.4903 12.1319C55.273 11.9367 55.1644 11.6881 55.1644 11.3861C55.1644 11.209 55.2049 11.0478 55.2858 10.9025C55.369 10.7549 55.4765 10.6368 55.6082 10.5483C55.7424 10.4597 55.8926 10.3928 56.059 10.3473C56.1815 10.3156 56.3665 10.2849 56.6139 10.2553C57.1178 10.1964 57.4888 10.126 57.7269 10.0442C57.7292 9.96023 57.7304 9.90683 57.7304 9.88412C57.7304 9.63442 57.6715 9.45842 57.5536 9.35627C57.394 9.21778 57.1571 9.1485 56.8427 9.1485C56.5491 9.1485 56.3318 9.19957 56.1908 9.30179C56.0521 9.40169 55.9493 9.57994 55.8822 9.83646L55.2719 9.75478C55.3274 9.49818 55.4187 9.29156 55.5458 9.13486C55.673 8.97598 55.8568 8.85446 56.0972 8.77045C56.3376 8.68419 56.6162 8.64102 56.9329 8.64102C57.2473 8.64102 57.5027 8.67737 57.6992 8.75007C57.8957 8.82269 58.0402 8.91468 58.1327 9.02589C58.2251 9.13485 58.2898 9.27342 58.3269 9.44144C58.3476 9.54584 58.358 9.73432 58.358 10.0067V10.8241C58.358 11.3941 58.3707 11.7551 58.3962 11.9072C58.4239 12.0571 58.4771 12.2012 58.5557 12.3397H57.9038C57.8391 12.2125 57.7975 12.0638 57.7789 11.8935ZM57.7269 10.5244C57.5004 10.6153 57.1605 10.6924 56.7075 10.756C56.4509 10.7923 56.2694 10.8333 56.1631 10.8786C56.0567 10.924 55.9747 10.9911 55.9169 11.0796C55.8591 11.1659 55.8302 11.2624 55.8302 11.3691C55.8302 11.5325 55.8926 11.6688 56.0174 11.7778C56.1445 11.8867 56.3295 11.9412 56.5722 11.9412C56.8126 11.9412 57.0265 11.8901 57.2137 11.788C57.401 11.6835 57.5385 11.5416 57.6264 11.3623C57.6934 11.2238 57.7269 11.0194 57.7269 10.7493V10.5244ZM61.5551 8.72279V10.286C61.7539 10.286 61.8938 10.2486 61.9747 10.1737C62.0556 10.0987 62.1735 9.88072 62.3283 9.51972C62.474 9.17686 62.6046 8.95777 62.7202 8.86244C62.8335 8.76936 63.0138 8.72279 63.2612 8.72279H63.49V9.23026L63.3201 9.22685C63.1536 9.22685 63.0473 9.25072 63.0011 9.29838C62.9526 9.34829 62.8786 9.49701 62.7791 9.74455C62.6867 9.98069 62.6012 10.1441 62.5225 10.235C62.4439 10.3258 62.3215 10.4086 62.155 10.4836C62.4255 10.554 62.689 10.7992 62.9456 11.2192L63.6322 12.3397H62.9456L62.2763 11.2192C62.14 10.9921 62.0209 10.8434 61.9192 10.7731C61.8175 10.7027 61.6961 10.6675 61.5551 10.6675V12.3397H60.9171V10.6675C60.7784 10.6675 60.6582 10.7027 60.5564 10.7731C60.4547 10.8412 60.3357 10.9899 60.1993 11.2192L59.5301 12.3397H58.8435L59.5266 11.2192C59.7855 10.7992 60.0502 10.554 60.3207 10.4836C60.1357 10.3996 60.0063 10.3087 59.9323 10.2111C59.8583 10.1112 59.7474 9.87506 59.5995 9.50275C59.5486 9.37782 59.4943 9.30063 59.4364 9.2711C59.3763 9.24157 59.2873 9.22685 59.1694 9.22685C59.1394 9.22685 59.0781 9.22801 58.9856 9.23026V8.72279H59.0724C59.3128 8.72279 59.4815 8.73759 59.5786 8.76704C59.678 8.79432 59.7659 8.85446 59.8422 8.94754C59.9208 9.03837 60.0225 9.2291 60.1473 9.51972C60.2998 9.87622 60.4154 10.0931 60.494 10.1703C60.575 10.2474 60.716 10.286 60.9171 10.286V8.72279H61.5551ZM64.0795 8.72279H64.7037V11.4815L66.434 8.72279H67.1067V12.3397H66.4825V9.59807L64.7522 12.3397H64.0795V8.72279ZM67.7101 8.72279H70.7025V9.23026H69.5166V12.3397H68.896V9.23026H67.7101V8.72279ZM71.299 8.72279H71.9231V11.4815L73.6534 8.72279H74.3261V12.3397H73.702V9.59807L71.9716 12.3397H71.299V8.72279ZM77.2458 8.72279H78.6849C79.0386 8.72279 79.3009 8.75231 79.4722 8.81137C79.6457 8.8681 79.7933 8.97365 79.9156 9.12811C80.0411 9.28249 80.1034 9.46748 80.1034 9.68324C80.1034 9.85576 80.0663 10.0067 79.9921 10.1362C79.9203 10.2633 79.8114 10.3701 79.6663 10.4563C79.8399 10.5131 79.9827 10.6198 80.0963 10.7765C80.2115 10.9308 80.2699 11.1147 80.2699 11.3282C80.2462 11.671 80.1215 11.9253 79.8951 12.0911C79.6686 12.2569 79.3388 12.3397 78.9068 12.3397H77.2458V8.72279ZM77.87 10.2452H78.5358C78.8016 10.2452 78.9842 10.2316 79.0836 10.2043C79.183 10.1771 79.2717 10.1226 79.3506 10.0408C79.4295 9.95682 79.4682 9.85692 79.4682 9.74114C79.4682 9.55041 79.3996 9.41757 79.2604 9.34263C79.1241 9.26769 78.8894 9.23026 78.5566 9.23026H77.87V10.2452ZM77.87 11.8357H78.6918C79.0455 11.8357 79.2883 11.7959 79.4201 11.7165C79.5518 11.6347 79.6213 11.4951 79.6284 11.2976C79.6284 11.1818 79.5897 11.0751 79.514 10.9774C79.4374 10.8775 79.338 10.8151 79.2154 10.7901C79.0928 10.7628 78.8964 10.7493 78.6259 10.7493H77.87V11.8357Z" fill="white"/>
</g>
<defs>
<clipPath id="clip0_1577_10805">
<rect width="101" height="31" fill="white" transform="translate(0.363281 0.714844)"/>
</clipPath>
</defs>
</svg>
