<svg width="95" height="32" viewBox="0 0 95 32" fill="none" xmlns="http://www.w3.org/2000/svg">
<g clip-path="url(#clip0_1577_10825)">
<path d="M91.2309 1.10156H3.49753C1.98335 1.10156 0.755859 2.31599 0.755859 3.81406V28.6141C0.755859 30.1121 1.98335 31.3266 3.49753 31.3266H91.2309C92.745 31.3266 93.9725 30.1121 93.9725 28.6141V3.81406C93.9725 2.31599 92.745 1.10156 91.2309 1.10156Z" fill="#221F1F" stroke="#4D4B4B"/>
<path d="M21.4106 16.034C21.3899 13.6839 23.3028 12.5408 23.3905 12.4873C22.3069 10.8808 20.6275 10.6613 20.0378 10.6442C18.6276 10.4936 17.2596 11.5022 16.541 11.5022C15.8079 11.5022 14.7012 10.6588 13.5093 10.6832C11.9748 10.7074 10.5391 11.6108 9.75189 13.013C8.12731 15.8736 9.33915 20.0765 10.896 22.3887C11.6744 23.5212 12.5851 24.785 13.7754 24.7404C14.9411 24.6918 15.3761 23.9854 16.7823 23.9854C18.1759 23.9854 18.5846 24.7404 19.7988 24.712C21.0497 24.6918 21.8368 23.5747 22.5882 22.4324C23.4877 21.1346 23.8495 19.8562 23.8638 19.7906C23.8335 19.7817 21.4345 18.85 21.4106 16.034Z" fill="white"/>
<path d="M19.1154 9.1219C19.7424 8.32472 20.1711 7.24078 20.0516 6.14062C19.1449 6.18113 18.0103 6.77819 17.357 7.55834C16.7793 8.24533 16.2631 9.37059 16.3961 10.4294C17.4152 10.5064 18.4613 9.90689 19.1154 9.1219Z" fill="white"/>
<path d="M39.75 24.0869H38.1488L37.2715 21.3604H34.2228L33.387 24.0869H31.8281L34.8487 14.8047H36.7138L39.75 24.0869ZM37.0075 20.2165L36.214 17.7923C36.1302 17.5451 35.9727 16.9615 35.7409 16.0439H35.7127C35.6202 16.4384 35.4714 17.022 35.267 17.7923L34.4883 20.2165H37.0075Z" fill="white"/>
<path d="M47.5169 20.6573C47.5169 21.7958 47.206 22.6956 46.584 23.3559C46.027 23.9441 45.3354 24.2378 44.5097 24.2378C43.6183 24.2378 42.9783 23.9209 42.589 23.2877H42.5608V26.8132H41.0576V19.5964C41.0576 18.881 41.0388 18.1463 41.002 17.393H42.3242L42.408 18.454H42.4362C42.9376 17.655 43.6982 17.2559 44.7189 17.2559C45.5171 17.2559 46.1829 17.5674 46.7164 18.1921C47.2506 18.8167 47.5169 19.6382 47.5169 20.6573ZM45.9855 20.7116C45.9855 20.0598 45.8375 19.5227 45.5398 19.1004C45.2147 18.6594 44.7784 18.4393 44.2316 18.4393C43.8611 18.4393 43.5235 18.5617 43.2227 18.8043C42.9211 19.0484 42.7237 19.367 42.6313 19.7622C42.5851 19.9467 42.5616 20.097 42.5616 20.2156V21.3316C42.5616 21.8183 42.7128 22.229 43.0143 22.5646C43.3159 22.9002 43.7084 23.0676 44.1901 23.0676C44.7565 23.0676 45.1967 22.8514 45.5124 22.4205C45.8273 21.988 45.9855 21.4192 45.9855 20.7116Z" fill="white"/>
<path d="M55.2982 20.6573C55.2982 21.7958 54.9872 22.6956 54.3644 23.3559C53.8083 23.9441 53.1166 24.2378 52.291 24.2378C51.3995 24.2378 50.7596 23.9209 50.3702 23.2877H50.342V26.8132H48.8388V19.5964C48.8388 18.881 48.82 18.1463 48.7832 17.393H50.1055L50.1893 18.454H50.2175C50.718 17.655 51.4787 17.2559 52.5001 17.2559C53.2976 17.2559 53.9634 17.5674 54.4984 18.1921C55.0311 18.8167 55.2982 19.6382 55.2982 20.6573ZM53.7668 20.7116C53.7668 20.0598 53.6179 19.5227 53.3203 19.1004C52.9952 18.6594 52.5604 18.4393 52.0121 18.4393C51.6408 18.4393 51.304 18.5617 51.0024 18.8043C50.7008 19.0484 50.5042 19.367 50.4118 19.7622C50.3655 19.9467 50.342 20.097 50.342 20.2156V21.3316C50.342 21.8183 50.4932 22.229 50.7932 22.5646C51.0948 22.8994 51.4873 23.0676 51.9706 23.0676C52.5369 23.0676 52.9772 22.8514 53.2929 22.4205C53.6093 21.988 53.7668 21.4192 53.7668 20.7116Z" fill="white"/>
<path d="M63.9987 21.4845C63.9987 22.2742 63.7214 22.9167 63.1652 23.4127C62.5542 23.9544 61.7027 24.2257 60.6092 24.2257C59.5994 24.2257 58.7903 24.0335 58.1777 23.6475L58.5263 22.4083C59.1859 22.8028 59.9105 23.0012 60.6993 23.0012C61.2656 23.0012 61.7059 22.8741 62.0223 22.6214C62.3372 22.3688 62.4947 22.0301 62.4947 21.6069C62.4947 21.2303 62.3647 20.9125 62.1046 20.6552C61.8461 20.3979 61.4137 20.1585 60.8105 19.9376C59.1679 19.3315 58.3469 18.4434 58.3469 17.2762C58.3469 16.5129 58.6344 15.8874 59.2102 15.4007C59.7844 14.9133 60.5497 14.6699 61.5069 14.6699C62.3607 14.6699 63.0697 14.8172 63.636 15.1109L63.26 16.323C62.7313 16.0386 62.1336 15.896 61.4646 15.896C60.9359 15.896 60.523 16.0254 60.2269 16.2819C59.977 16.5113 59.8509 16.7911 59.8509 17.122C59.8509 17.4886 59.9943 17.7924 60.2818 18.0311C60.5324 18.2512 60.9868 18.4899 61.6463 18.7472C62.4532 19.0688 63.0461 19.4447 63.4276 19.8756C63.8091 20.3049 63.9987 20.8428 63.9987 21.4845Z" fill="white"/>
<path d="M68.9672 18.5104H67.3105V21.7599C67.3105 22.5861 67.6026 22.9992 68.1878 22.9992C68.4565 22.9992 68.6789 22.9759 68.8552 22.9302L68.8967 24.0594C68.6006 24.1686 68.2105 24.2237 67.728 24.2237C67.1342 24.2237 66.6705 24.0446 66.336 23.6866C66.0023 23.3278 65.8347 22.7271 65.8347 21.8824V18.5088H64.8477V17.3928H65.8347V16.1675L67.3112 15.7266V17.3928H68.968L68.9672 18.5104Z" fill="white"/>
<path d="M76.4426 20.6845C76.4426 21.7137 76.145 22.5576 75.5512 23.2187C74.9284 23.8984 74.1028 24.2378 73.0727 24.2378C72.0802 24.2378 71.2899 23.9123 70.7008 23.2606C70.1117 22.6088 69.8164 21.7865 69.8164 20.7953C69.8164 19.7583 70.1196 18.9089 70.7282 18.2479C71.3353 17.5868 72.1547 17.2559 73.1847 17.2559C74.1772 17.2559 74.9762 17.5814 75.5786 18.2339C76.1551 18.8671 76.4426 19.6839 76.4426 20.6845ZM74.883 20.7325C74.883 20.1148 74.7498 19.5855 74.4796 19.1445C74.1647 18.6106 73.7143 18.344 73.1299 18.344C72.526 18.344 72.0669 18.6113 71.7512 19.1445C71.481 19.5871 71.3478 20.1249 71.3478 20.7604C71.3478 21.3773 71.481 21.9074 71.7512 22.3476C72.0763 22.8816 72.5307 23.1482 73.1158 23.1482C73.69 23.1482 74.1404 22.8762 74.4655 22.3337C74.7436 21.8842 74.883 21.3494 74.883 20.7325Z" fill="white"/>
<path d="M81.3288 18.7008C81.1799 18.6737 81.0217 18.6598 80.8549 18.6598C80.3261 18.6598 79.9172 18.8574 79.6297 19.2526C79.3791 19.6014 79.2537 20.0424 79.2537 20.574V24.0855H77.7513L77.7654 19.4999C77.7654 18.7287 77.7466 18.0258 77.709 17.3926H79.0179L79.0728 18.6729H79.1143C79.2725 18.2327 79.5232 17.8786 79.8655 17.6127C80.2 17.3733 80.5619 17.2539 80.952 17.2539C81.0906 17.2539 81.2168 17.264 81.328 17.281C81.3288 17.2826 81.3288 18.7008 81.3288 18.7008Z" fill="white"/>
<path d="M88.0504 20.4247C88.0504 20.6913 88.0331 20.9161 87.9955 21.099H83.4867C83.5039 21.7601 83.7224 22.2661 84.1407 22.6149C84.5207 22.9264 85.0118 23.083 85.6158 23.083C86.2832 23.083 86.8926 22.9776 87.4401 22.766L87.6759 23.7983C87.0359 24.0742 86.28 24.2122 85.4082 24.2122C84.3593 24.2122 83.536 23.9068 82.9368 23.2961C82.3391 22.6854 82.0391 21.8662 82.0391 20.8378C82.0391 19.8288 82.3171 18.9879 82.8749 18.3175C83.4585 17.6022 84.2473 17.2441 85.2405 17.2441C86.2158 17.2441 86.9537 17.6022 87.455 18.3175C87.8514 18.8864 88.0504 19.5893 88.0504 20.4247ZM86.6176 20.0388C86.6278 19.5978 86.5291 19.2173 86.3255 18.8957C86.0654 18.4818 85.6659 18.2757 85.1277 18.2757C84.6366 18.2757 84.2363 18.4772 83.9316 18.8817C83.6809 19.2033 83.5329 19.5893 83.4867 20.038L86.6176 20.0388Z" fill="white"/>
<path d="M31.9648 10.9298L32.6017 10.7662C32.6499 11.0092 32.7783 11.2522 32.9872 11.4951C33.1984 11.738 33.4771 11.8595 33.8237 11.8595C34.1771 11.8595 34.4559 11.7698 34.6602 11.5904C34.8644 11.4111 34.9666 11.1943 34.9666 10.9399C34.9666 10.6652 34.8587 10.4472 34.643 10.286C34.4273 10.1226 34.1335 10.0408 33.7617 10.0408H33.4416V9.46524C33.7491 9.46524 33.9844 9.44819 34.1473 9.41416C34.3102 9.37782 34.4537 9.28815 34.5776 9.14508C34.7038 8.99977 34.7669 8.83516 34.7669 8.65125C34.7669 8.4333 34.6809 8.24371 34.5087 8.08251C34.3389 7.92131 34.1083 7.8407 33.8168 7.8407C33.5621 7.8407 33.3441 7.90428 33.1628 8.03143C32.9838 8.1563 32.8599 8.32318 32.791 8.53206C32.7222 8.73867 32.6877 8.89305 32.6877 8.99528L32.0474 8.85221C32.2058 7.79189 32.7978 7.26172 33.8237 7.26172C34.3171 7.26172 34.7084 7.39796 34.9976 7.67041C35.2867 7.9406 35.4313 8.25734 35.4313 8.62064C35.4313 9.08611 35.2087 9.4471 34.7635 9.70363C35.0205 9.77408 35.2351 9.91822 35.4072 10.1362C35.5817 10.3519 35.6688 10.6107 35.6688 10.9127C35.6688 11.3418 35.5002 11.7017 35.1628 11.9924C34.8278 12.2807 34.3825 12.4249 33.8271 12.4249C32.8725 12.4249 32.2517 11.9265 31.9648 10.9298ZM38.8083 11.8935C38.5788 12.0865 38.3573 12.2228 38.1439 12.3023C37.9327 12.3817 37.7056 12.4215 37.4623 12.4215C37.0607 12.4215 36.752 12.325 36.5363 12.1319C36.3206 11.9367 36.2127 11.6881 36.2127 11.3861C36.2127 11.209 36.2529 11.0478 36.3332 10.9025C36.4158 10.7549 36.5225 10.6368 36.6533 10.5483C36.7864 10.4597 36.9356 10.3928 37.1008 10.3473C37.2225 10.3156 37.4061 10.2849 37.6516 10.2553C38.1519 10.1964 38.5202 10.126 38.7567 10.0442C38.7589 9.96023 38.7601 9.90683 38.7601 9.88412C38.7601 9.63442 38.7016 9.45842 38.5846 9.35627C38.4262 9.21778 38.1909 9.1485 37.8789 9.1485C37.5874 9.1485 37.3716 9.19957 37.2317 9.30179C37.094 9.40169 36.9919 9.57994 36.9253 9.83646L36.3195 9.75478C36.3745 9.49818 36.4652 9.29156 36.5914 9.13486C36.7176 8.97598 36.9001 8.85446 37.1388 8.77045C37.3774 8.68419 37.654 8.64102 37.9683 8.64102C38.2805 8.64102 38.534 8.67737 38.7291 8.75007C38.9242 8.82269 39.0676 8.91468 39.1594 9.02589C39.2512 9.13485 39.3155 9.27342 39.3521 9.44144C39.3728 9.54584 39.3832 9.73432 39.3832 10.0067V10.8241C39.3832 11.3941 39.3958 11.7551 39.421 11.9072C39.4486 12.0571 39.5014 12.2012 39.5794 12.3397H38.9322C38.868 12.2125 38.8266 12.0638 38.8083 11.8935ZM38.7567 10.5244C38.5318 10.6153 38.1944 10.6924 37.7446 10.756C37.4898 10.7923 37.3097 10.8333 37.2041 10.8786C37.0986 10.924 37.0171 10.9911 36.9597 11.0796C36.9024 11.1659 36.8737 11.2624 36.8737 11.3691C36.8737 11.5325 36.9356 11.6688 37.0596 11.7778C37.1858 11.8867 37.3694 11.9412 37.6103 11.9412C37.849 11.9412 38.0613 11.8901 38.2472 11.788C38.4331 11.6835 38.5696 11.5416 38.6568 11.3623C38.7234 11.2238 38.7567 11.0194 38.7567 10.7493V10.5244ZM40.3505 8.72279H41.7791C42.1302 8.72279 42.3906 8.75231 42.5604 8.81137C42.7326 8.8681 42.8795 8.97365 43.0011 9.12811C43.125 9.28249 43.187 9.46748 43.187 9.68324C43.187 9.85576 43.1503 10.0067 43.0768 10.1362C43.0057 10.2633 42.8978 10.3701 42.7532 10.4563C42.9254 10.5131 43.0677 10.6198 43.1801 10.7765C43.2948 10.9308 43.3522 11.1147 43.3522 11.3282C43.3293 11.671 43.2054 11.9253 42.9805 12.0911C42.7556 12.2569 42.4285 12.3397 41.9993 12.3397H40.3505V8.72279ZM40.9701 10.2452H41.631C41.8949 10.2452 42.0763 10.2316 42.175 10.2043C42.2736 10.1771 42.362 10.1226 42.44 10.0408C42.518 9.95682 42.557 9.85692 42.557 9.74114C42.557 9.55041 42.4882 9.41757 42.3505 9.34263C42.2151 9.26769 41.9822 9.23026 41.6517 9.23026H40.9701V10.2452ZM40.9701 11.8357H41.786C42.1371 11.8357 42.378 11.7959 42.5088 11.7165C42.6396 11.6347 42.7085 11.4951 42.7154 11.2976C42.7154 11.1818 42.6776 11.0751 42.6018 10.9774C42.5261 10.8775 42.4274 10.8151 42.3057 10.7901C42.1841 10.7628 41.989 10.7493 41.7206 10.7493H40.9701V11.8357ZM46.3953 11.8935C46.1658 12.0865 45.9444 12.2228 45.7309 12.3023C45.5198 12.3817 45.2926 12.4215 45.0493 12.4215C44.6477 12.4215 44.339 12.325 44.1234 12.1319C43.9076 11.9367 43.7998 11.6881 43.7998 11.3861C43.7998 11.209 43.8399 11.0478 43.9202 10.9025C44.0028 10.7549 44.1096 10.6368 44.2404 10.5483C44.3735 10.4597 44.5226 10.3928 44.6879 10.3473C44.8095 10.3156 44.9931 10.2849 45.2387 10.2553C45.739 10.1964 46.1073 10.126 46.3436 10.0442C46.346 9.96023 46.3471 9.90683 46.3471 9.88412C46.3471 9.63442 46.2886 9.45842 46.1715 9.35627C46.0132 9.21778 45.778 9.1485 45.4658 9.1485C45.1744 9.1485 44.9587 9.19957 44.8187 9.30179C44.681 9.40169 44.5789 9.57994 44.5123 9.83646L43.9064 9.75478C43.9615 9.49818 44.0521 9.29156 44.1784 9.13486C44.3046 8.97598 44.4871 8.85446 44.7257 8.77045C44.9644 8.68419 45.2409 8.64102 45.5554 8.64102C45.8674 8.64102 46.1211 8.67737 46.3161 8.75007C46.5112 8.82269 46.6546 8.91468 46.7464 9.02589C46.8382 9.13485 46.9025 9.27342 46.9392 9.44144C46.9599 9.54584 46.9701 9.73432 46.9701 10.0067V10.8241C46.9701 11.3941 46.9828 11.7551 47.0081 11.9072C47.0356 12.0571 47.0883 12.2012 47.1664 12.3397H46.5193C46.4549 12.2125 46.4137 12.0638 46.3953 11.8935ZM46.3436 10.5244C46.1187 10.6153 45.7814 10.6924 45.3316 10.756C45.0768 10.7923 44.8967 10.8333 44.7911 10.8786C44.6856 10.924 44.6041 10.9911 44.5467 11.0796C44.4893 11.1659 44.4607 11.2624 44.4607 11.3691C44.4607 11.5325 44.5226 11.6688 44.6465 11.7778C44.7728 11.8867 44.9563 11.9412 45.1974 11.9412C45.436 11.9412 45.6483 11.8901 45.8342 11.788C46.02 11.6835 46.1567 11.5416 46.2438 11.3623C46.3103 11.2238 46.3436 11.0194 46.3436 10.7493V10.5244ZM47.9375 8.72279H48.5571V10.2281H50.2749V8.72279H50.8945V12.3397H50.2749V10.7356H48.5571V12.3397H47.9375V8.72279ZM51.4969 8.72279H54.4677V9.23026H53.2904V12.3397H52.6742V9.23026H51.4969V8.72279ZM57.3627 11.8935C57.1333 12.0865 56.9117 12.2228 56.6984 12.3023C56.4872 12.3817 56.26 12.4215 56.0168 12.4215C55.6152 12.4215 55.3065 12.325 55.0907 12.1319C54.875 11.9367 54.7671 11.6881 54.7671 11.3861C54.7671 11.209 54.8073 11.0478 54.8877 10.9025C54.9702 10.7549 55.077 10.6368 55.2078 10.5483C55.3409 10.4597 55.4901 10.3928 55.6553 10.3473C55.7769 10.3156 55.9605 10.2849 56.2061 10.2553C56.7064 10.1964 57.0747 10.126 57.3111 10.0442C57.3134 9.96023 57.3145 9.90683 57.3145 9.88412C57.3145 9.63442 57.256 9.45842 57.139 9.35627C56.9806 9.21778 56.7454 9.1485 56.4333 9.1485C56.1418 9.1485 55.9261 9.19957 55.7861 9.30179C55.6484 9.40169 55.5463 9.57994 55.4797 9.83646L54.8739 9.75478C54.929 9.49818 55.0196 9.29156 55.1458 9.13486C55.2721 8.97598 55.4545 8.85446 55.6932 8.77045C55.9319 8.68419 56.2084 8.64102 56.5228 8.64102C56.8349 8.64102 57.0885 8.67737 57.2836 8.75007C57.4786 8.82269 57.6221 8.91468 57.7139 9.02589C57.8057 9.13485 57.8699 9.27342 57.9067 9.44144C57.9273 9.54584 57.9376 9.73432 57.9376 10.0067V10.8241C57.9376 11.3941 57.9502 11.7551 57.9755 11.9072C58.003 12.0571 58.0558 12.2012 58.1338 12.3397H57.4866C57.4224 12.2125 57.3811 12.0638 57.3627 11.8935ZM57.3111 10.5244C57.0862 10.6153 56.7488 10.6924 56.299 10.756C56.0443 10.7923 55.8641 10.8333 55.7586 10.8786C55.653 10.924 55.5715 10.9911 55.5142 11.0796C55.4568 11.1659 55.4281 11.2624 55.4281 11.3691C55.4281 11.5325 55.4901 11.6688 55.614 11.7778C55.7402 11.8867 55.9238 11.9412 56.1648 11.9412C56.4034 11.9412 56.6157 11.8901 56.8016 11.788C56.9875 11.6835 57.124 11.5416 57.2113 11.3623C57.2778 11.2238 57.3111 11.0194 57.3111 10.7493V10.5244ZM61.1115 8.72279V10.286C61.3088 10.286 61.4477 10.2486 61.528 10.1737C61.6083 10.0987 61.7254 9.88072 61.8791 9.51972C62.0237 9.17686 62.1533 8.95777 62.2681 8.86244C62.3806 8.76936 62.5596 8.72279 62.8051 8.72279H63.0323V9.23026L62.8637 9.22685C62.6984 9.22685 62.5929 9.25072 62.547 9.29838C62.4988 9.34829 62.4253 9.49701 62.3266 9.74455C62.2349 9.98069 62.15 10.1441 62.0719 10.235C61.9938 10.3258 61.8723 10.4086 61.707 10.4836C61.9755 10.554 62.2372 10.7992 62.4919 11.2192L63.1735 12.3397H62.4919L61.8275 11.2192C61.6921 10.9921 61.5739 10.8434 61.4729 10.7731C61.372 10.7027 61.2515 10.6675 61.1115 10.6675V12.3397H60.4781V10.6675C60.3404 10.6675 60.2211 10.7027 60.12 10.7731C60.0191 10.8412 59.9009 10.9899 59.7655 11.2192L59.1012 12.3397H58.4195L59.0977 11.2192C59.3547 10.7992 59.6175 10.554 59.886 10.4836C59.7024 10.3996 59.5739 10.3087 59.5004 10.2111C59.427 10.1112 59.3169 9.87506 59.17 9.50275C59.1195 9.37782 59.0656 9.30063 59.0082 9.2711C58.9485 9.24157 58.8601 9.22685 58.7431 9.22685C58.7133 9.22685 58.6525 9.22801 58.5607 9.23026V8.72279H58.6467C58.8854 8.72279 59.0529 8.73759 59.1493 8.76704C59.248 8.79432 59.3352 8.85446 59.411 8.94754C59.489 9.03837 59.59 9.2291 59.7139 9.51972C59.8653 9.87622 59.9801 10.0931 60.0581 10.1703C60.1384 10.2474 60.2784 10.286 60.4781 10.286V8.72279H61.1115ZM63.6175 8.72279H64.2372V11.4815L65.9549 8.72279H66.6227V12.3397H66.0031V9.59807L64.2853 12.3397H63.6175V8.72279ZM67.2217 8.72279H70.1924V9.23026H69.0152V12.3397H68.399V9.23026H67.2217V8.72279ZM70.7846 8.72279H71.4042V11.4815L73.122 8.72279H73.7898V12.3397H73.1701V9.59807L71.4524 12.3397H70.7846V8.72279ZM76.6882 8.72279H78.1169C78.468 8.72279 78.7284 8.75231 78.8984 8.81137C79.0708 8.8681 79.2172 8.97365 79.3387 9.12811C79.4632 9.28249 79.5251 9.46748 79.5251 9.68324C79.5251 9.85576 79.4883 10.0067 79.4146 10.1362C79.3434 10.2633 79.2353 10.3701 79.0911 10.4563C79.2635 10.5131 79.4052 10.6198 79.518 10.7765C79.6324 10.9308 79.6904 11.1147 79.6904 11.3282C79.6669 11.671 79.5431 11.9253 79.3183 12.0911C79.0935 12.2569 78.766 12.3397 78.3372 12.3397H76.6882V8.72279ZM77.3079 10.2452H77.9688C78.2327 10.2452 78.414 10.2316 78.5127 10.2043C78.6114 10.1771 78.6994 10.1226 78.7778 10.0408C78.8561 9.95682 78.8945 9.85692 78.8945 9.74114C78.8945 9.55041 78.8264 9.41757 78.6883 9.34263C78.5529 9.26769 78.3199 9.23026 77.9895 9.23026H77.3079V10.2452ZM77.3079 11.8357H78.1237C78.4749 11.8357 78.7159 11.7959 78.8467 11.7165C78.9775 11.6347 79.0465 11.4951 79.0535 11.2976C79.0535 11.1818 79.0151 11.0751 78.9399 10.9774C78.8639 10.8775 78.7653 10.8151 78.6435 10.7901C78.5219 10.7628 78.3268 10.7493 78.0583 10.7493H77.3079V11.8357Z" fill="white"/>
</g>
<defs>
<clipPath id="clip0_1577_10825">
<rect width="94" height="31" fill="white" transform="translate(0.363281 0.714844)"/>
</clipPath>
</defs>
</svg>
