<svg width="191" height="39" viewBox="0 0 191 39" fill="none" xmlns="http://www.w3.org/2000/svg">
<path d="M10.3872 22.7295C9.9992 22.4776 9.58139 22.2772 9.14389 22.1331C8.70583 21.9904 8.24865 21.9187 7.78889 21.9204C7.50351 21.9178 7.21889 21.9509 6.94138 22.019C6.70711 22.0747 6.48395 22.1712 6.28164 22.3042C6.10856 22.4183 5.96284 22.5707 5.85535 22.7502C5.75285 22.9275 5.70017 23.1303 5.7031 23.3362C5.69563 23.5187 5.74158 23.6993 5.83505 23.8549C5.93219 24.0022 6.06279 24.1232 6.21566 24.2076C6.40579 24.3139 6.60886 24.3942 6.81959 24.4461C7.08555 24.5144 7.35491 24.5681 7.62649 24.6069L8.26593 24.695C8.63723 24.7481 9.00379 24.8314 9.36211 24.944C9.70266 25.0485 10.0247 25.2078 10.3162 25.416C10.5938 25.6157 10.8244 25.8762 10.9912 26.1784C11.169 26.5213 11.2565 26.9056 11.2449 27.2934C11.2538 27.7379 11.1507 28.1772 10.9455 28.5692C10.7481 28.9381 10.4724 29.2571 10.1386 29.5028C9.78079 29.7645 9.38045 29.9595 8.95612 30.0785C8.49211 30.2118 8.0121 30.2782 7.53007 30.2756C7.20366 30.2739 6.87787 30.2461 6.55569 30.1926C6.21191 30.1396 5.87259 30.0598 5.54071 29.954C5.226 29.8467 4.92047 29.7132 4.62723 29.5546C4.33746 29.4033 4.06655 29.2171 3.82031 28.9998L4.62723 27.7809C4.8017 27.9419 4.99418 28.0811 5.20068 28.1958C5.67589 28.4617 6.19001 28.6474 6.72316 28.7456C6.99263 28.7969 7.26612 28.8229 7.54022 28.8234C7.82341 28.8271 8.10608 28.7975 8.38265 28.7353C8.62389 28.6814 8.85517 28.5887 9.06777 28.4604C9.25152 28.3499 9.4092 28.1994 9.52958 28.0195C9.64544 27.8434 9.70566 27.6352 9.70213 27.4231C9.70929 27.0641 9.51102 26.7338 9.19464 26.5777C8.69541 26.3401 8.15971 26.1928 7.61127 26.1421L6.89063 26.0384C6.54565 25.9894 6.20586 25.9078 5.87565 25.7946C5.55852 25.6879 5.26158 25.5265 4.9977 25.3174C4.73663 25.1098 4.52353 24.8459 4.37348 24.5446C4.20213 24.1975 4.1151 23.8133 4.11973 23.4245C4.1121 22.9863 4.21152 22.5531 4.409 22.1641C4.59935 21.7981 4.86826 21.4807 5.19562 21.2358C5.54629 20.9758 5.93997 20.7826 6.35777 20.6653C6.81992 20.5312 7.29835 20.4649 7.77874 20.4682C8.39982 20.46 9.01823 20.5528 9.61079 20.7432C10.1487 20.9213 10.6607 21.1725 11.1333 21.49L10.3872 22.7295ZM15.4367 23.4556C15.8536 23.4516 16.2667 23.5364 16.6496 23.7044C17.0097 23.8638 17.3318 24.1008 17.5936 24.3995C17.8638 24.7137 18.0723 25.0781 18.2077 25.473C18.3606 25.9177 18.4362 26.3865 18.431 26.8578V27.1274V27.3868H13.7214C13.7554 27.6509 13.838 27.9062 13.965 28.1387C14.0746 28.3386 14.2211 28.5147 14.3964 28.6574C14.5643 28.7912 14.7555 28.8915 14.9598 28.9531C15.1707 29.0164 15.3894 29.0479 15.6094 29.0464C15.9354 29.0438 16.2584 28.9824 16.5634 28.8648C16.882 28.7425 17.1786 28.5673 17.4414 28.3462L18.1265 29.3576C17.768 29.679 17.348 29.921 16.8932 30.0681C16.4472 30.2051 15.9837 30.2732 15.518 30.2703C15.0703 30.2753 14.6258 30.1926 14.2086 30.0267C13.8274 29.8708 13.4818 29.6359 13.1937 29.3368C12.9004 29.03 12.6723 28.6645 12.5238 28.2633C12.3599 27.8156 12.279 27.3408 12.2853 26.8629C12.2804 26.3907 12.3594 25.9215 12.5187 25.4782C12.662 25.0777 12.883 24.7108 13.1682 24.3995C13.4542 24.0965 13.8003 23.8595 14.1833 23.7044C14.5809 23.5371 15.0067 23.4508 15.4367 23.4503V23.4556ZM15.4114 24.7159C15.1865 24.7115 14.9627 24.7502 14.7516 24.83C14.5618 24.9009 14.3889 25.0123 14.2441 25.1566C14.101 25.307 13.9858 25.4828 13.9042 25.6753C13.8125 25.8796 13.7493 26.0961 13.7164 26.3183H17.005C16.9656 25.88 16.7875 25.4666 16.4974 25.1411C16.2075 24.8497 15.8126 24.694 15.4064 24.7106L15.4114 24.7159ZM22.765 23.4556C23.2206 23.4511 23.6725 23.5393 24.0945 23.7149C24.4885 23.8859 24.8364 24.1509 25.1096 24.4876L24.2214 25.4523C24.0172 25.2415 23.7806 25.0664 23.5211 24.9337C23.2627 24.8157 22.982 24.7572 22.6989 24.7626C22.4445 24.7598 22.1922 24.811 21.9581 24.913C21.7348 25.02 21.536 25.1738 21.3744 25.3641C21.2017 25.5532 21.0672 25.7753 20.9786 26.0176C20.7884 26.5626 20.7884 27.158 20.9786 27.7031C21.0666 27.9474 21.2011 28.1711 21.3744 28.3618C21.5416 28.5439 21.7436 28.6887 21.9682 28.7871C22.2024 28.889 22.4546 28.9402 22.7091 28.9375C23.008 28.9381 23.3031 28.8689 23.5718 28.7353C23.8284 28.6126 24.0646 28.4499 24.2722 28.2529L25.1299 29.2539C24.845 29.591 24.487 29.8556 24.0845 30.0267C23.6644 30.2028 23.2139 30.291 22.7599 30.2859C22.2908 30.2928 21.8251 30.2047 21.3896 30.0267C20.5899 29.6998 19.9629 29.0421 19.6641 28.2166C19.346 27.3435 19.346 26.3825 19.6641 25.5094C19.9631 24.6928 20.5835 24.0417 21.3744 23.7149C21.8144 23.5331 22.2854 23.443 22.7599 23.4503L22.765 23.4556ZM32.2296 27.3556C32.2414 27.8118 32.1548 28.2652 31.9759 28.6833C31.824 29.0318 31.5987 29.3417 31.3162 29.5909C31.0408 29.8271 30.7214 30.0034 30.3772 30.1095C29.6695 30.3311 28.913 30.3311 28.2052 30.1095C27.8597 30.0033 27.5387 29.8269 27.2613 29.5909C26.977 29.3433 26.7513 29.033 26.6016 28.6833C26.426 28.2643 26.3412 27.8114 26.353 27.3556V23.6216H27.7434V27.2519C27.7364 27.5214 27.7759 27.79 27.8601 28.0455C27.9304 28.2415 28.0432 28.4188 28.19 28.5641C28.3339 28.7023 28.5079 28.8035 28.6975 28.8597C29.0948 28.9814 29.5183 28.9814 29.9155 28.8597C30.1052 28.8035 30.2791 28.7023 30.423 28.5641C30.5698 28.4188 30.6826 28.2415 30.7529 28.0455C30.8389 27.7904 30.8801 27.5217 30.8746 27.2519V23.6216H32.2652L32.2296 27.3556ZM37.2792 23.4556C37.4712 23.4547 37.6631 23.4703 37.8526 23.5022C38.0262 23.5306 38.1962 23.5775 38.3601 23.6423L38.0302 25.0425C37.8697 24.9604 37.699 24.9011 37.5227 24.8663C37.3442 24.8269 37.1624 24.8059 36.9797 24.804C36.7715 24.8014 36.5646 24.8401 36.3707 24.9181C36.1888 24.9919 36.0256 25.1072 35.8937 25.2552C35.7553 25.4153 35.6501 25.6023 35.5841 25.8049C35.5063 26.0422 35.4684 26.2912 35.4725 26.5414V30.1044H34.0616V23.6216H35.4319V24.3528C35.6273 24.0548 35.8995 23.8179 36.2185 23.6682C36.5511 23.5193 36.9111 23.445 37.2741 23.4503L37.2792 23.4556ZM41.9228 23.4556C42.3396 23.4516 42.7526 23.5364 43.1357 23.7044C43.4957 23.8638 43.8177 24.1008 44.0795 24.3995C44.3587 24.7116 44.576 25.0762 44.719 25.473C44.8718 25.9178 44.9474 26.3865 44.9423 26.8578V27.1274V27.3868H40.2023C40.2363 27.6509 40.3189 27.9062 40.4459 28.1387C40.5555 28.3386 40.702 28.5147 40.8772 28.6574C41.0452 28.7912 41.2363 28.8915 41.4406 28.9531C41.6515 29.0164 41.8703 29.0479 42.0901 29.0464C42.4162 29.0438 42.7391 28.9824 43.0443 28.8648C43.3628 28.7425 43.6595 28.5673 43.9222 28.3462L44.6124 29.3524C44.254 29.674 43.8341 29.916 43.3792 30.0629C42.9331 30.1998 42.4696 30.2681 42.0039 30.2652C41.5562 30.2701 41.1119 30.1873 40.6946 30.0214C40.3133 29.8655 39.9677 29.6307 39.6796 29.3317C39.3863 29.0248 39.1582 28.6593 39.0097 28.2581C38.8458 27.8105 38.7649 27.3356 38.7712 26.8578C38.7663 26.3855 38.8455 25.9164 39.0047 25.473C39.1449 25.0733 39.3623 24.7065 39.6441 24.3943C39.93 24.0913 40.2761 23.8544 40.6591 23.6993C41.0586 23.5331 41.4862 23.4484 41.9176 23.4503L41.9228 23.4556ZM41.8973 24.7159C41.6724 24.7115 41.4486 24.7502 41.2376 24.83C41.0478 24.9009 40.8748 25.0123 40.7302 25.1566C40.5869 25.307 40.4717 25.4828 40.3901 25.6753C40.2985 25.8796 40.2352 26.0961 40.2023 26.3183H43.501C43.4617 25.88 43.2836 25.4666 42.9935 25.1411C42.7012 24.847 42.302 24.691 41.8923 24.7106L41.8973 24.7159ZM50.885 20.4371C51.2863 20.4357 51.6863 20.4809 52.0776 20.5719C52.449 20.6581 52.8085 20.7906 53.1484 20.9661C53.4734 21.1343 53.7754 21.3453 54.0467 21.5937C54.3113 21.834 54.5388 22.1138 54.7217 22.4235L53.4732 23.2741C53.1947 22.8545 52.8202 22.5109 52.3821 22.2731C51.913 22.0218 51.389 21.8969 50.8596 21.91C50.4115 21.9052 49.9668 21.9898 49.5503 22.159C49.1686 22.3212 48.8233 22.5612 48.5354 22.8643C48.2377 23.1766 48.0047 23.5471 47.8502 23.9535C47.5189 24.8563 47.5189 25.8512 47.8502 26.7541C48.0047 27.1604 48.2377 27.5308 48.5354 27.8432C48.8233 28.1462 49.1686 28.3862 49.5503 28.5485C49.9668 28.7177 50.4115 28.8023 50.8596 28.7974C51.8902 28.8205 52.8623 28.3093 53.4427 27.4386L54.6608 28.3514C54.4627 28.648 54.2271 28.9165 53.9604 29.1502C53.6986 29.3926 53.4089 29.6015 53.0977 29.7725C52.7655 29.9428 52.4145 30.0717 52.0522 30.1562C51.0099 30.3919 49.9227 30.3089 48.9261 29.9177C47.7634 29.4528 46.8435 28.5128 46.3886 27.3245C45.9127 26.0628 45.9127 24.6654 46.3886 23.4037C46.8435 22.2155 47.7634 21.2754 48.9261 20.8106C49.5493 20.5578 50.2145 20.4309 50.885 20.4371ZM59.0555 23.4348C59.5212 23.4294 59.9833 23.5175 60.4156 23.6941C60.8182 23.8583 61.1855 24.1014 61.4967 24.4098C61.8032 24.7171 62.0464 25.0839 62.2122 25.4886C62.5564 26.3567 62.5564 27.3277 62.2122 28.1958C62.0464 28.6006 61.8032 28.9674 61.4967 29.2746C61.1855 29.5831 60.8182 29.8261 60.4156 29.9903C59.5408 30.3377 58.5704 30.3377 57.6956 29.9903C57.2925 29.8271 56.925 29.5839 56.6145 29.2746C56.3052 28.9745 56.0568 28.615 55.8838 28.2166C55.5396 27.3485 55.5396 26.3775 55.8838 25.5094C56.0484 25.1053 56.2899 24.7386 56.5942 24.4305C56.9047 24.1213 57.2722 23.8781 57.6752 23.7149C58.1151 23.5331 58.5862 23.443 59.0607 23.4503L59.0555 23.4348ZM59.0555 24.7677C58.7863 24.7648 58.5191 24.8159 58.269 24.9181C58.033 25.0143 57.8188 25.1591 57.6398 25.3434C57.4602 25.531 57.3188 25.7531 57.2235 25.9968C57.0205 26.5395 57.0205 27.1397 57.2235 27.6824C57.3188 27.9262 57.4602 28.1481 57.6398 28.3358C57.8189 28.5199 58.0331 28.6646 58.269 28.7611C58.7747 28.9636 59.3365 28.9636 59.8422 28.7611C60.3215 28.5691 60.7029 28.1849 60.8977 27.698C61.1008 27.1553 61.1008 26.5551 60.8977 26.0124C60.8018 25.7679 60.6586 25.5456 60.4766 25.359C60.2953 25.175 60.0795 25.0304 59.8422 24.9337C59.5938 24.8321 59.3282 24.781 59.0607 24.7833L59.0555 24.7677ZM66.6324 23.4348C67.4093 23.4041 68.1525 23.7597 68.6268 24.3891V20.3438H70.0123V30.0992H68.6268V29.3213C68.4056 29.6101 68.125 29.8455 67.8047 30.0111C67.4398 30.192 67.0378 30.2809 66.6324 30.2703C65.786 30.2787 64.9735 29.9319 64.3843 29.3109C64.09 28.9958 63.8605 28.6238 63.7093 28.2166C63.3831 27.3342 63.3831 26.3606 63.7093 25.4782C63.8625 25.0767 64.0919 24.71 64.3843 24.3995C64.9735 23.7785 65.786 23.4317 66.6324 23.44V23.4348ZM66.7999 24.7677C66.524 24.7633 66.2505 24.8198 65.998 24.9337C65.7703 25.0381 65.5664 25.1901 65.3992 25.3797C65.2335 25.5722 65.1059 25.7959 65.0237 26.0384C64.8473 26.5591 64.8473 27.1253 65.0237 27.6461C65.1059 27.8885 65.2335 28.1122 65.3992 28.3047C65.5664 28.4943 65.7703 28.6463 65.998 28.7507C66.5047 28.9663 67.0747 28.9663 67.5814 28.7507C67.8101 28.6497 68.0157 28.5015 68.1854 28.3151C68.3507 28.1359 68.4814 27.9265 68.571 27.698C68.7565 27.1646 68.7565 26.5821 68.571 26.0487C68.4839 25.8069 68.3511 25.5849 68.1802 25.3953C68.0103 25.2093 67.8047 25.061 67.5764 24.9595C67.3325 24.846 67.0679 24.7859 66.7999 24.7833V24.7677ZM74.6153 23.4348C75.0321 23.4308 75.4452 23.5156 75.8282 23.6837C76.1883 23.8428 76.5104 24.0799 76.7721 24.3787C77.0423 24.6929 77.2509 25.0574 77.3862 25.4523C77.5392 25.897 77.6147 26.3656 77.6095 26.837V27.1067V27.3661H72.9253C72.9585 27.6303 73.0412 27.8857 73.1689 28.118C73.2784 28.318 73.4249 28.4941 73.6002 28.6367C73.7681 28.7706 73.9593 28.8709 74.1636 28.9323C74.3745 28.9956 74.5934 29.027 74.8132 29.0256C75.1392 29.0231 75.4622 28.9616 75.7673 28.8441C76.0858 28.7218 76.3824 28.5465 76.6452 28.3255L77.3354 29.3317C76.9768 29.6531 76.5569 29.8949 76.1022 30.0421C75.6562 30.1792 75.1926 30.2473 74.7269 30.2445C74.2792 30.2494 73.8347 30.1666 73.4176 30.0007C73.0363 29.8448 72.6907 29.61 72.4026 29.3109C72.1093 29.004 71.8812 28.6386 71.7327 28.2373C71.5688 27.7897 71.4879 27.3149 71.4943 26.837C71.4893 26.3648 71.5685 25.8956 71.7276 25.4523C71.871 25.0517 72.092 24.6849 72.3772 24.3735C72.6632 24.0705 73.0093 23.8335 73.3922 23.6786C73.7821 23.524 74.1971 23.4466 74.6153 23.4503V23.4348ZM78.2742 30.0837V29.7725H78.4011V29.705H78.0713V29.7725H78.2134V30.0992L78.2742 30.0837ZM78.9087 30.0837V29.6895H78.8071L78.6904 29.9591L78.5737 29.6895H78.4722V30.0837H78.5432V29.788L78.6499 30.0421H78.7208L78.8274 29.788V30.0837H78.9087ZM74.5899 24.695C74.3649 24.6906 74.1412 24.7293 73.9301 24.8092C73.7403 24.8802 73.5673 24.9916 73.4227 25.1359C73.2795 25.2863 73.1643 25.4621 73.0827 25.6545C72.991 25.8589 72.9279 26.0754 72.8949 26.2976H76.1834C76.1474 25.8538 75.969 25.4345 75.6759 25.1048C75.3814 24.8281 74.9893 24.6857 74.5899 24.7106V24.695Z" fill="#F79E1B"/>
<path d="M14.9368 16.7384H13.3839V8.65809L10.5774 15.7685H8.94332L6.14705 8.73589V16.7384H4.58398V6.92069H6.96412L9.76039 13.9377L12.5516 6.92069H14.9317L14.9368 16.7384ZM23.1074 16.7384H21.6712V15.9345C21.4418 16.234 21.1507 16.4784 20.8186 16.6502C20.4408 16.8359 20.0249 16.9267 19.6057 16.9147C18.7269 16.9243 17.8827 16.5641 17.2713 15.9189C16.9678 15.5964 16.7298 15.2157 16.5709 14.7986C16.2323 13.883 16.2323 12.8724 16.5709 11.9566C16.7299 11.5397 16.9679 11.159 17.2713 10.8363C17.8827 10.1911 18.7269 9.83103 19.6057 9.84058C20.0253 9.82922 20.4415 9.92175 20.8186 10.1103C21.1506 10.2845 21.4415 10.5305 21.6712 10.8312V10.0221H23.1074V16.7384ZM19.7732 11.2253C19.4869 11.2203 19.203 11.2787 18.9409 11.3965C18.7054 11.5048 18.4946 11.662 18.3218 11.858C18.1496 12.0584 18.017 12.2909 17.931 12.5426C17.7477 13.0835 17.7477 13.6717 17.931 14.2126C18.0179 14.4651 18.1523 14.6977 18.3268 14.8973C18.4995 15.0935 18.7104 15.2507 18.946 15.3588C19.472 15.5836 20.0642 15.5836 20.5903 15.3588C20.8264 15.2537 21.0389 15.1002 21.2144 14.9076C21.3914 14.71 21.5292 14.4794 21.6204 14.2282C21.8124 13.6746 21.8124 13.0703 21.6204 12.5167C21.5292 12.2656 21.3914 12.0348 21.2144 11.8373C21.0386 11.645 20.8262 11.4914 20.5903 11.3861C20.3322 11.2738 20.0536 11.219 19.7732 11.2253ZM29.6895 11.7025C29.5694 11.6319 29.4458 11.5679 29.3191 11.5106C29.154 11.4372 28.9845 11.3749 28.8116 11.3239C28.6249 11.2662 28.4351 11.2194 28.2432 11.1838C28.0423 11.146 27.8385 11.1269 27.6342 11.1268C27.3133 11.1081 26.9941 11.1856 26.7157 11.3498C26.5136 11.4702 26.3898 11.6916 26.3908 11.9306C26.3872 12.0361 26.4174 12.1401 26.4771 12.2263C26.5376 12.309 26.6156 12.3764 26.7055 12.4234C26.8147 12.4801 26.9307 12.5219 27.0506 12.5479C27.1826 12.5789 27.3246 12.6066 27.4769 12.6309L28.1569 12.7346C28.7614 12.7985 29.3398 13.0199 29.8367 13.3777C30.2539 13.6941 30.4913 14.2007 30.471 14.7312C30.4741 15.0392 30.4044 15.3435 30.268 15.6181C30.1255 15.8833 29.926 16.1121 29.6845 16.2871C29.4011 16.495 29.0829 16.6479 28.7456 16.7384C28.3319 16.851 27.905 16.9052 27.4769 16.8991C27.3077 16.8991 27.1115 16.8888 26.8882 16.8681C26.647 16.8446 26.4079 16.803 26.1727 16.7435C25.9091 16.6761 25.6512 16.5877 25.4012 16.479C25.136 16.3636 24.8855 16.2156 24.6552 16.0382L25.3201 14.9387C25.4426 15.0356 25.5715 15.124 25.7058 15.2032C25.8562 15.2905 26.0141 15.3635 26.1777 15.421C26.3678 15.4877 26.563 15.5381 26.7613 15.5714C27.0012 15.6113 27.244 15.6304 27.487 15.6285C27.8716 15.6507 28.2554 15.574 28.6035 15.4055C28.8319 15.2979 28.98 15.0661 28.9842 14.809C28.9807 14.6133 28.8765 14.434 28.7101 14.3371C28.4443 14.1861 28.1504 14.0941 27.8474 14.0674L27.1623 13.9741C26.5575 13.9239 25.9797 13.6971 25.4976 13.3206C25.1195 12.9942 24.9083 12.5089 24.9241 12.0033C24.9201 11.6913 24.986 11.3826 25.1171 11.1009C25.2427 10.8335 25.4289 10.6006 25.6601 10.4214C25.9163 10.2274 26.2053 10.0832 26.5127 9.99617C26.881 9.89113 27.2621 9.84049 27.6444 9.84576C28.1374 9.84289 28.6287 9.90565 29.1059 10.0325C29.5308 10.1403 29.9367 10.3152 30.3087 10.5511L29.6895 11.7025ZM36.5001 11.3498H33.9626V14.2749C33.9622 14.4727 33.9949 14.6691 34.059 14.8557C34.1057 15 34.1818 15.1327 34.2823 15.2448C34.3736 15.3446 34.4866 15.421 34.6122 15.4677C34.744 15.5165 34.8831 15.541 35.0233 15.5403C35.2578 15.5384 35.49 15.4927 35.7084 15.4055C35.9315 15.3205 36.1457 15.2127 36.3478 15.084L36.9163 16.2561C36.6367 16.4471 36.3371 16.6053 36.0231 16.728C35.6644 16.8639 35.2841 16.9308 34.9014 16.9251C34.262 16.9631 33.6352 16.7327 33.1658 16.2871C32.7044 15.7398 32.4777 15.0259 32.5365 14.306V11.355H31.2323V10.0221H32.5365V7.98906H33.9779V10.0221H36.5153L36.5001 11.3498ZM40.9152 9.84058C41.3475 9.835 41.7761 9.92155 42.1738 10.0947C42.5475 10.2597 42.8817 10.5057 43.1532 10.8156C43.4344 11.1419 43.6515 11.5205 43.7927 11.9306C43.9503 12.3922 44.0275 12.8784 44.0211 13.3673V13.6473V13.9118H39.134C39.1696 14.1852 39.2557 14.4492 39.3877 14.6898C39.5031 14.89 39.6547 15.066 39.8343 15.2084C40.0084 15.3467 40.2063 15.4505 40.4178 15.5144C40.6369 15.5808 40.8643 15.614 41.0929 15.613C41.4394 15.6138 41.7833 15.5506 42.1078 15.4262C42.4363 15.3053 42.7432 15.13 43.0162 14.9076L43.7319 15.9449C43.3598 16.2779 42.9244 16.5287 42.453 16.6813C41.9905 16.8242 41.5099 16.8958 41.0269 16.8939C40.5549 16.9107 40.0844 16.8332 39.6415 16.6657C39.2412 16.5058 38.8782 16.262 38.5757 15.95C38.2712 15.6313 38.0345 15.2517 37.8804 14.835C37.7101 14.3709 37.6257 13.8784 37.6318 13.3828C37.6257 12.8932 37.7066 12.4065 37.8703 11.9462C38.0192 11.5302 38.2488 11.1492 38.5453 10.826C38.8307 10.516 39.1764 10.2705 39.5602 10.1051C39.9899 9.92542 40.451 9.83718 40.9152 9.84576V9.84058ZM40.8899 11.1475C40.6562 11.1431 40.4238 11.1836 40.2047 11.2668C40.0142 11.3438 39.8414 11.4604 39.6973 11.6091C39.5497 11.7592 39.4295 11.9348 39.342 12.1277C39.2413 12.3429 39.1713 12.5717 39.134 12.8071H42.5443C42.4987 12.3501 42.3059 11.9213 41.9962 11.5884C41.701 11.2944 41.3018 11.1354 40.8899 11.1475ZM49.0097 9.84058C49.2086 9.83929 49.4071 9.8549 49.6035 9.88725C49.777 9.91809 49.947 9.96674 50.111 10.0325L49.7658 11.4846C49.6053 11.4014 49.4347 11.3404 49.2584 11.3031C49.0731 11.2632 48.8844 11.2424 48.6951 11.2409C48.4797 11.2388 48.266 11.2793 48.0658 11.3602C47.8721 11.4358 47.6984 11.5566 47.5583 11.7128C47.4136 11.8787 47.303 12.0727 47.2334 12.2834C47.1526 12.5288 47.1131 12.7866 47.1168 13.0458V16.7435H45.6806V10.0013H47.1015V10.7586C47.3027 10.4573 47.5797 10.2171 47.9033 10.0636C48.2477 9.91216 48.6197 9.83789 48.9945 9.84576L49.0097 9.84058ZM53.9171 9.84058C54.3902 9.83564 54.8596 9.92732 55.2976 10.1103C55.7147 10.285 56.084 10.5609 56.3734 10.9141L55.4549 11.9151C55.2419 11.7034 54.9969 11.5282 54.7291 11.3965C54.4611 11.2736 54.1702 11.2117 53.8765 11.215C53.6134 11.2124 53.3525 11.2654 53.1102 11.3705C52.876 11.4719 52.6652 11.622 52.4911 11.8114C52.3134 12.0084 52.1754 12.2393 52.0851 12.4908C51.8872 13.0558 51.8872 13.6735 52.0851 14.2386C52.1756 14.4901 52.3135 14.7209 52.4911 14.918C52.6654 15.1072 52.8762 15.2574 53.1102 15.3588C53.3525 15.464 53.6134 15.517 53.8765 15.5144C54.1816 15.5173 54.4835 15.4499 54.7596 15.3173C55.0265 15.1843 55.2714 15.0092 55.4853 14.7986L56.3683 15.8101C56.0729 16.161 55.7008 16.4364 55.2823 16.6139C54.8462 16.797 54.3784 16.8887 53.907 16.8835C53.4206 16.8906 52.9376 16.7989 52.4861 16.6139C51.6599 16.2774 51.0099 15.6019 50.6945 14.752C50.3648 13.8471 50.3648 12.8511 50.6945 11.9462C51.0099 11.0964 51.6599 10.4208 52.4861 10.0843C52.9381 9.9106 53.4192 9.82954 53.902 9.84576L53.9171 9.84058ZM64.001 16.7384H62.5648V15.9345C62.3354 16.234 62.0443 16.4784 61.7122 16.6502C61.3343 16.8359 60.9184 16.9267 60.4993 16.9147C59.6204 16.9243 58.7763 16.5641 58.1648 15.9189C57.8614 15.5964 57.6234 15.2157 57.4645 14.7986C57.1259 13.883 57.1259 12.8724 57.4645 11.9566C57.6235 11.5397 57.8615 11.159 58.1648 10.8363C58.7763 10.1911 59.6204 9.83103 60.4993 9.84058C60.9189 9.82922 61.335 9.92175 61.7122 10.1103C62.0442 10.2845 62.3352 10.5305 62.5648 10.8312V10.0221H64.001V16.7384ZM60.6718 11.2253C60.3856 11.2203 60.1017 11.2787 59.8395 11.3965C59.6041 11.5048 59.3933 11.662 59.2204 11.858C59.0484 12.0584 58.9156 12.2909 58.8296 12.5426C58.6463 13.0835 58.6463 13.6717 58.8296 14.2126C58.9156 14.4644 59.0484 14.6968 59.2204 14.8973C59.3932 15.0934 59.604 15.2506 59.8395 15.3588C60.3657 15.583 60.9577 15.583 61.4839 15.3588C61.7199 15.2536 61.9323 15.1001 62.108 14.9076C62.2857 14.7105 62.4236 14.4797 62.514 14.2282C62.7068 13.6747 62.7068 13.0702 62.514 12.5167C62.4236 12.2653 62.2857 12.0343 62.108 11.8373C61.9322 11.645 61.7199 11.4914 61.4839 11.3861C61.2288 11.2754 60.9539 11.2206 60.6769 11.2253H60.6718ZM69.4463 9.84576C69.6452 9.84448 69.8438 9.8601 70.0401 9.89244C70.2137 9.92329 70.3836 9.97193 70.5476 10.0377L70.2025 11.4898C70.042 11.4066 69.8713 11.3455 69.6951 11.3083C69.5097 11.2685 69.3211 11.2477 69.1317 11.2461C68.9164 11.2439 68.7027 11.2844 68.5025 11.3653C68.3088 11.441 68.135 11.5618 67.9949 11.718C67.8502 11.8839 67.7396 12.0779 67.6702 12.2885C67.5892 12.534 67.5497 12.7919 67.5535 13.0509V16.7487H66.1173V10.0065H67.5535V10.7637C67.7551 10.4596 68.034 10.2176 68.3603 10.0636C68.7046 9.91232 69.0766 9.83804 69.4515 9.84576H69.4463ZM74.1559 9.84576C74.5756 9.83441 74.9917 9.92693 75.3688 10.1154C75.7007 10.2899 75.9916 10.5358 76.2214 10.8363V6.64062H77.6576V16.7384H76.2214V15.9345C75.9919 16.234 75.7009 16.4784 75.3688 16.6502C74.9909 16.8359 74.5751 16.9267 74.1559 16.9147C73.277 16.9243 72.4329 16.5641 71.8214 15.9189C71.5126 15.5976 71.2694 15.2169 71.1058 14.7986C70.7672 13.883 70.7672 12.8724 71.1058 11.9566C71.2648 11.5397 71.5028 11.159 71.8062 10.8363C72.4176 10.1911 73.2618 9.83103 74.1406 9.84058L74.1559 9.84576ZM79.3323 16.1211C79.3896 16.1198 79.4466 16.1304 79.4998 16.1523C79.5508 16.1741 79.5974 16.2058 79.6367 16.2457C79.6754 16.2842 79.7064 16.33 79.7281 16.3805C79.7727 16.4865 79.7727 16.6064 79.7281 16.7124C79.7063 16.7629 79.6753 16.8086 79.6367 16.8472C79.5973 16.8869 79.5507 16.9186 79.4998 16.9406C79.4471 16.9646 79.39 16.977 79.3323 16.9769C79.1614 16.9794 79.0056 16.8773 78.9365 16.7176C78.8919 16.6117 78.8919 16.4916 78.9365 16.3857C78.9798 16.2817 79.062 16.1995 79.1648 16.1575C79.2193 16.1334 79.278 16.121 79.3373 16.1211H79.3323ZM79.3323 16.8835C79.3759 16.8841 79.4192 16.8753 79.4592 16.8577C79.4971 16.8401 79.5316 16.8154 79.5606 16.7851C79.6864 16.6539 79.6864 16.4442 79.5606 16.3131C79.5317 16.2825 79.4973 16.2578 79.4592 16.2405C79.4173 16.2316 79.3741 16.2316 79.3323 16.2405C79.2904 16.2321 79.2473 16.2321 79.2054 16.2405C79.114 16.2858 79.0485 16.3722 79.0287 16.474C79.0087 16.5758 79.0365 16.6813 79.1039 16.7591C79.133 16.7897 79.1674 16.8142 79.2054 16.8317C79.2456 16.8569 79.2906 16.8728 79.3373 16.8784L79.3323 16.8835ZM79.3323 16.3649C79.3742 16.3625 79.4156 16.3754 79.4491 16.4012C79.4763 16.4241 79.4912 16.4586 79.4896 16.4946C79.4914 16.5254 79.4803 16.5556 79.4592 16.5776C79.4341 16.6015 79.402 16.6162 79.3678 16.619L79.4947 16.7695H79.3931L79.2764 16.619H79.2409V16.7695H79.1598V16.3701L79.3323 16.3649ZM79.2359 16.4376V16.5413H79.3323C79.3489 16.5462 79.3665 16.5462 79.3831 16.5413C79.3894 16.5282 79.3894 16.5128 79.3831 16.4998C79.3903 16.487 79.3903 16.4711 79.3831 16.4583C79.3664 16.4536 79.3489 16.4536 79.3323 16.4583L79.2359 16.4376ZM74.303 11.2512C74.0168 11.2463 73.7329 11.3046 73.4707 11.4224C73.2353 11.5307 73.0245 11.6879 72.8516 11.884C72.6796 12.0844 72.5468 12.3168 72.4608 12.5686C72.2775 13.1095 72.2775 13.6977 72.4608 14.2386C72.5468 14.4903 72.6796 14.7228 72.8516 14.9232C73.0244 15.1194 73.2353 15.2766 73.4707 15.3847C73.9969 15.6089 74.5889 15.6089 75.1151 15.3847C75.3511 15.2795 75.5635 15.126 75.7392 14.9336C75.9343 14.7275 76.0847 14.4819 76.1808 14.2126C76.3732 13.6591 76.3732 13.0547 76.1808 12.5012C76.0903 12.2497 75.9524 12.0189 75.7748 11.8217C75.599 11.6294 75.3866 11.4759 75.1506 11.3705C74.8913 11.2637 74.6128 11.2142 74.3335 11.2253L74.303 11.2512Z" fill="#EB001B"/>
<path fill-rule="evenodd" clip-rule="evenodd" d="M145.077 19.873L142.06 27.8639L141.738 26.2404C140.986 24.2494 139.359 22.1608 137.465 21.3143L140.225 31.5752L143.488 31.5737L148.341 19.873H145.077Z" fill="#1B548E"/>
<path fill-rule="evenodd" clip-rule="evenodd" d="M147.664 31.5884L149.593 19.8633H152.676L150.745 31.5884H147.664Z" fill="#1B548E"/>
<path fill-rule="evenodd" clip-rule="evenodd" d="M161.927 20.1515C161.318 19.9152 160.357 19.6582 159.164 19.6582C156.115 19.6582 153.972 21.25 153.954 23.527C153.934 25.2134 155.486 26.154 156.652 26.7143C157.856 27.2877 158.258 27.6557 158.254 28.1686C158.242 28.9541 157.291 29.3123 156.407 29.3123C155.174 29.3123 154.518 29.1355 153.508 28.6994L153.107 28.5124L152.676 31.1365C153.397 31.4631 154.728 31.7462 156.112 31.7608C159.349 31.7608 161.454 30.187 161.479 27.7568C161.492 26.4191 160.669 25.4066 158.888 24.5706C157.814 24.0271 157.149 23.6669 157.159 23.116C157.16 22.6294 157.717 22.1081 158.925 22.1081C159.935 22.0916 160.661 22.319 161.232 22.5588L161.507 22.6932L161.927 20.1515ZM169.833 19.8747H167.452C166.713 19.8747 166.16 20.0813 165.834 20.8478L161.258 31.5912H164.495C164.495 31.5912 165.025 30.1453 165.145 29.8283C165.498 29.8283 168.642 29.8355 169.091 29.8355C169.187 30.2443 169.467 31.5912 169.467 31.5912H172.329L169.833 19.8747ZM166.032 27.4301C166.287 26.7572 167.26 24.1528 167.26 24.1528C167.241 24.1846 167.512 23.4746 167.67 23.0357L167.875 24.0464C167.875 24.0464 168.467 26.8444 168.591 27.4301H166.032Z" fill="#1B548E"/>
<path fill-rule="evenodd" clip-rule="evenodd" d="M139.261 19.8672H134.289L134.26 20.0691C138.125 21.04 140.676 23.4242 141.738 26.2436L140.657 20.8548C140.472 20.1135 139.931 19.8933 139.261 19.8672Z" fill="#E89F3E"/>
<path fill-rule="evenodd" clip-rule="evenodd" d="M124.964 17.0341H122.998L120.73 6.99548L122.903 6.63867L124.455 14.4949L128.407 6.74244H130.494L124.964 17.0341Z" fill="#1B548E"/>
<path fill-rule="evenodd" clip-rule="evenodd" d="M135.187 13.7521H130.499C130.371 15.148 131.032 15.757 132.151 15.757C133.089 15.757 133.913 15.4152 134.801 14.8658L134.794 16.2617C133.924 16.7963 132.917 17.138 131.738 17.138C129.697 17.138 128.348 15.9944 128.754 13.4102C129.119 11.0789 130.761 9.66841 132.667 9.66841C134.859 9.66841 135.589 11.287 135.27 13.3215C135.247 13.47 135.203 13.6481 135.187 13.7521ZM132.428 10.9009C131.702 10.9009 131.024 11.4649 130.704 12.6384H133.607C133.661 11.5244 133.305 10.9009 132.428 10.9009ZM138.243 12.876L137.598 16.9895H135.784L136.908 9.81648H138.45L138.451 11.2571C139.065 10.4256 139.901 9.72782 141.044 9.66841L141.055 11.4354C139.909 11.5097 138.878 12.1036 138.243 12.876ZM141.031 16.9895L142.155 9.81648H143.969L142.846 16.9895H141.031ZM143.266 8.61381C142.661 8.61381 142.242 8.19788 142.335 7.60402C142.431 6.99521 142.982 6.56436 143.587 6.56436C144.177 6.56436 144.593 6.99521 144.498 7.60402C144.405 8.19788 143.856 8.61381 143.266 8.61381ZM148.995 7.85631C148.375 7.85631 148 8.12354 147.9 8.76251L147.735 9.81648H149.126L149.125 11.2718H147.507L146.611 16.9895H144.811L145.708 11.2718H144.649L144.877 9.81648H145.935L146.129 8.58395C146.378 6.99521 147.499 6.40104 148.996 6.40104C149.314 6.40104 149.551 6.4309 149.728 6.46045L149.742 7.91573C149.565 7.88618 149.297 7.85631 148.995 7.85631ZM149.015 16.9895L150.139 9.81648H151.953L150.829 16.9895H149.015ZM151.25 8.61381C150.645 8.61381 150.226 8.19788 150.319 7.60402C150.415 6.99521 150.966 6.56436 151.571 6.56436C152.161 6.56436 152.577 6.99521 152.482 7.60402C152.389 8.19788 151.84 8.61381 151.25 8.61381ZM158.989 13.7521H154.301C154.173 15.148 154.833 15.757 155.953 15.757C156.89 15.757 157.715 15.4152 158.603 14.8658L158.595 16.2617C157.725 16.7963 156.719 17.138 155.539 17.138C153.498 17.138 152.15 15.9944 152.555 13.4102C152.92 11.0789 154.563 9.66841 156.468 9.66841C158.661 9.66841 159.39 11.287 159.072 13.3215C159.048 13.47 159.005 13.6481 158.989 13.7521ZM156.23 10.9009C155.504 10.9009 154.826 11.4649 154.506 12.6384H157.409C157.463 11.5244 157.107 10.9009 156.23 10.9009ZM164.364 16.9895L164.368 15.9944C163.759 16.6035 162.964 17.138 161.951 17.138C160.424 17.138 159.374 16.0243 159.753 13.6034C160.172 10.9305 161.855 9.74244 163.549 9.74244C164.245 9.74244 164.786 9.86128 165.201 10.0097L165.743 6.54942L167.602 6.26758L165.922 16.9895H164.364ZM164.97 11.4799C164.549 11.2718 164.218 11.1679 163.598 11.1679C162.645 11.1679 161.831 11.9254 161.584 13.4998C161.365 14.8953 161.868 15.5489 162.669 15.5489C163.334 15.5489 163.909 15.1632 164.486 14.569L164.97 11.4799ZM171.48 17.0571C170.621 17.0571 169.921 16.9218 169.269 16.6971L170.463 9.08169L171.87 8.86767L171.354 12.1637C171.766 11.8037 172.337 11.4438 173.036 11.4438C174.204 11.4438 174.987 12.299 174.701 14.121C174.388 16.1231 173.13 17.0571 171.48 17.0571ZM172.494 12.6359C172.036 12.6359 171.576 12.9399 171.169 13.3452L170.783 15.8084C171.054 15.9095 171.241 15.9546 171.63 15.9546C172.501 15.9546 173.109 15.4373 173.303 14.1997C173.467 13.1535 173.113 12.6359 172.494 12.6359ZM177.94 17.282C177.237 18.6207 176.542 19.0369 175.477 19.0369C175.236 19.0369 175.103 19.0142 174.982 18.9806L174.973 17.8669C175.149 17.912 175.339 17.9455 175.602 17.9455C176.003 17.9455 176.352 17.7658 176.586 17.372L176.768 17.012L175.602 11.6575L177.063 11.4777L177.739 15.347L179.57 11.5564H180.933L177.94 17.282Z" fill="#1B548E"/>
</svg>
