<svg width="29" height="29" viewBox="0 0 29 29" fill="none" xmlns="http://www.w3.org/2000/svg">
<path d="M16.8237 14.2565L13.5683 12.7281C13.2842 12.5954 13.0509 12.7442 13.0509 13.0606V15.9394C13.0509 16.2558 13.2842 16.4046 13.5683 16.2719L16.8222 14.7435C17.1077 14.6094 17.1077 14.3906 16.8237 14.2565ZM14.5003 0.5C6.8155 0.5 0.585938 6.76792 0.585938 14.5C0.585938 22.2321 6.8155 28.5 14.5003 28.5C22.185 28.5 28.4146 22.2321 28.4146 14.5C28.4146 6.76792 22.185 0.5 14.5003 0.5ZM14.5003 20.1875C7.37787 20.1875 7.25322 19.5415 7.25322 14.5C7.25322 9.45854 7.37787 8.8125 14.5003 8.8125C21.6227 8.8125 21.7473 9.45854 21.7473 14.5C21.7473 19.5415 21.6227 20.1875 14.5003 20.1875Z" fill="#E90000"/>
</svg>
