<svg width="29" height="29" viewBox="0 0 29 29" fill="none" xmlns="http://www.w3.org/2000/svg">
<path d="M18.6454 14.5C18.6454 15.6603 18.1872 16.7731 17.3718 17.5936C16.5563 18.4141 15.4504 18.875 14.2971 18.875C13.1439 18.875 12.0379 18.4141 11.2225 17.5936C10.407 16.7731 9.94891 15.6603 9.94891 14.5C9.94891 14.2506 9.975 14.0071 10.0199 13.7708H8.4995V19.5998C8.4995 20.0052 8.82562 20.3333 9.22855 20.3333H19.3672C19.5603 20.3329 19.7453 20.2555 19.8817 20.118C20.0182 19.9804 20.0948 19.7941 20.0948 19.5998V13.7708H18.5743C18.6193 14.0071 18.6454 14.2506 18.6454 14.5ZM14.2971 17.4167C14.6779 17.4166 15.0549 17.341 15.4067 17.1943C15.7584 17.0476 16.078 16.8326 16.3472 16.5617C16.6164 16.2907 16.8299 15.969 16.9755 15.615C17.1211 15.261 17.196 14.8817 17.196 14.4985C17.1959 14.1154 17.1208 13.7361 16.975 13.3822C16.8292 13.0282 16.6155 12.7067 16.3462 12.4358C16.0769 12.165 15.7572 11.9502 15.4053 11.8037C15.0535 11.6571 14.6765 11.5818 14.2957 11.5819C13.5267 11.5821 12.7892 11.8896 12.2456 12.4369C11.702 12.9841 11.3967 13.7263 11.3969 14.5C11.3971 15.2737 11.7027 16.0157 12.2466 16.5627C12.7905 17.1097 13.5281 17.4169 14.2971 17.4167ZM17.7757 11.4375H19.5136C19.629 11.4375 19.7398 11.3915 19.8215 11.3094C19.9033 11.2274 19.9494 11.1162 19.9498 11V9.25146C19.9498 9.13504 19.9039 9.02339 19.822 8.94107C19.7402 8.85875 19.6293 8.8125 19.5136 8.8125H17.7757C17.66 8.8125 17.549 8.85875 17.4672 8.94107C17.3854 9.02339 17.3394 9.13504 17.3394 9.25146V11C17.3409 11.2406 17.5366 11.4375 17.7757 11.4375ZM14.2971 0.5C10.6068 0.5 7.06766 1.975 4.45822 4.6005C1.84878 7.22601 0.382813 10.787 0.382812 14.5C0.382813 18.213 1.84878 21.774 4.45822 24.3995C7.06766 27.025 10.6068 28.5 14.2971 28.5C16.1244 28.5 17.9338 28.1379 19.6219 27.4343C21.3101 26.7307 22.844 25.6995 24.136 24.3995C25.4281 23.0995 26.453 21.5561 27.1523 19.8576C27.8516 18.159 28.2115 16.3385 28.2115 14.5C28.2115 12.6615 27.8516 10.841 27.1523 9.14243C26.453 7.44387 25.4281 5.90052 24.136 4.6005C22.844 3.30048 21.3101 2.26925 19.6219 1.56569C17.9338 0.862121 16.1244 0.5 14.2971 0.5ZM21.5442 20.1715C21.5442 21.0625 20.8195 21.7917 19.9339 21.7917H8.66038C7.7748 21.7917 7.05009 21.0625 7.05009 20.1715V8.82854C7.05009 7.9375 7.7748 7.20833 8.66038 7.20833H19.9339C20.8195 7.20833 21.5442 7.9375 21.5442 8.82854V20.1715Z" fill="url(#paint0_linear_1577_10860)"/>
<defs>
<linearGradient id="paint0_linear_1577_10860" x1="0.382813" y1="28.5" x2="28.3823" y2="0.671883" gradientUnits="userSpaceOnUse">
<stop stop-color="#F7FC00"/>
<stop offset="0.5" stop-color="#FF317B"/>
<stop offset="1" stop-color="#6700A7"/>
</linearGradient>
</defs>
</svg>
