<svg width="68" height="46" viewBox="0 0 68 46" fill="none" xmlns="http://www.w3.org/2000/svg">
<path d="M45.853 3.66446V2.9323C45.853 1.86551 44.9293 1 43.7907 1H3.06233C1.92375 1 1 1.86551 1 2.9323V37.9149C1 38.9817 1.92375 39.8472 3.06233 39.8472H11.5718C12.4761 42.8117 15.3611 45 18.8118 45C22.2624 45 25.1475 42.8117 26.0518 39.8472H43.7907H47.2464C48.1507 42.8117 51.0357 45 54.4864 45C57.937 45 60.8221 42.8117 61.7264 39.8472H64.4597C64.5444 39.8472 64.6166 39.8112 64.6987 39.8019C64.7807 39.8112 64.8529 39.8472 64.9377 39.8472C66.0762 39.8472 67 38.9817 67 37.9149V23.1271C67 12.9336 57.6869 4.54789 45.853 3.66446ZM62.796 21.8389H55.0503C53.0739 21.3319 52.6738 18.0158 52.6738 12.8517V9.25519C58.2945 11.6967 62.2517 16.3739 62.796 21.8389ZM48.924 8V12.8517C48.924 18.4523 49.6713 24.5485 54 25.3888C54.0913 25.4064 54.7952 25.4153 54.8892 25.4153H62.8753V35.9826H61.7264C60.8221 33.0181 57.937 30.8298 54.4864 30.8298C51.0357 30.8298 48.1507 33.0181 47.2464 35.9826H43.7907H26.0518C25.7458 34.9797 25.2171 34.0741 24.5077 33.3056H43.7907V33.3056C44.9297 33.3056 45.853 32.3822 45.853 31.2432C45.853 31.1767 45.853 31.1126 45.853 31.0512V7.53644C47.2635 7.66161 47.6221 7.63534 48.924 8ZM41.7284 29.7292H5.12466V4.86459H41.7284V29.7292ZM5.12466 33.3056H13.1159C12.4064 34.0741 11.8778 34.9797 11.5718 35.9826H5.12466V33.3056ZM18.8118 41.1354C16.9159 41.1354 15.3746 39.6912 15.3746 37.9149C15.3746 36.1386 16.9159 34.6944 18.8118 34.6944C20.7053 34.6944 22.244 36.1355 22.2477 37.9086L22.2463 37.9149L22.2477 37.9212C22.244 39.6944 20.7053 41.1354 18.8118 41.1354ZM54.4864 41.1354C52.5905 41.1354 51.0492 39.6912 51.0492 37.9149C51.0492 36.1386 52.5905 34.6944 54.4864 34.6944C56.3822 34.6944 57.9236 36.1386 57.9236 37.9149C57.9236 39.6912 56.3822 41.1354 54.4864 41.1354Z" fill="#FFFFFE" stroke="#222525" stroke-width="2" stroke-linejoin="round"/>
</svg>
