<svg width="29" height="29" viewBox="0 0 29 29" fill="none" xmlns="http://www.w3.org/2000/svg">
<path d="M14.7053 0.5C7.02057 0.5 0.791016 6.76792 0.791016 14.5C0.791016 22.2321 7.02057 28.5 14.7053 28.5C22.3901 28.5 28.6197 22.2321 28.6197 14.5C28.6197 6.76792 22.3901 0.5 14.7053 0.5ZM20.3653 11.9683C20.3711 12.0879 20.3725 12.2075 20.3725 12.3242C20.3725 15.97 17.6172 20.1715 12.5762 20.1715C11.0866 20.1739 9.62801 19.7435 8.37577 18.9319C8.58883 18.9581 8.80769 18.9683 9.02945 18.9683C10.3136 18.9683 11.4949 18.5294 12.4327 17.7885C11.8612 17.7772 11.3074 17.5868 10.8486 17.2439C10.3898 16.9009 10.0487 16.4225 9.87301 15.8752C10.2834 15.9537 10.7062 15.9373 11.1094 15.8271C10.4891 15.7009 9.93127 15.3627 9.53052 14.8699C9.12978 14.3771 8.91076 13.7601 8.9106 13.1233V13.0898C9.2802 13.2954 9.70343 13.4208 10.1527 13.4354C9.57124 13.0459 9.15959 12.4476 9.00198 11.7629C8.84437 11.0782 8.95271 10.3587 9.30484 9.75167C9.99324 10.6033 10.8517 11.3 11.8247 11.7967C12.7977 12.2934 13.8636 12.5789 14.9532 12.6348C14.8147 12.0432 14.8743 11.422 15.1228 10.868C15.3713 10.314 15.7947 9.85811 16.3273 9.57122C16.8599 9.28433 17.4718 9.18251 18.0678 9.2816C18.6638 9.3807 19.2106 9.67514 19.6232 10.1192C20.2365 9.99707 20.8247 9.7707 21.3625 9.44979C21.158 10.0887 20.7301 10.6313 20.158 10.9767C20.7013 10.9108 21.2318 10.7639 21.7321 10.5406C21.3646 11.0946 20.9018 11.5781 20.3653 11.9683Z" fill="#76C9FD"/>
</svg>
