<svg width="86" height="96" viewBox="0 0 86 96" fill="none" xmlns="http://www.w3.org/2000/svg">
<path d="M68.2769 47.8495C68.2769 51.3952 65.4477 54.2696 61.9577 54.2696C58.4677 54.2696 55.6384 51.3952 55.6384 47.8495C55.6384 44.3038 58.4677 41.4295 61.9577 41.4295C65.4477 41.4295 68.2769 44.3038 68.2769 47.8495Z" fill="#EEEBE7"/>
<path fill-rule="evenodd" clip-rule="evenodd" d="M72.2955 25.9584C68.242 25.3791 63.0174 25.3792 56.5055 25.3793H29.4945C22.9826 25.3792 17.758 25.3791 13.7045 25.9584C9.51075 26.5576 6.01787 27.8435 3.42106 30.8568C0.824245 33.8702 0.031301 37.5576 0.000903962 41.8601C-0.0284764 46.0188 0.662092 51.2801 1.52282 57.8379L3.26891 71.1425C3.94167 76.2694 4.48618 80.4189 5.33276 83.6681C6.21397 87.0503 7.51492 89.8543 9.95607 92.0257C12.3972 94.1971 15.305 95.1366 18.7213 95.577C22.0033 96.0001 26.1238 96.0001 31.2147 96H54.7853C59.8762 96.0001 63.9967 96.0001 67.2787 95.577C70.695 95.1366 73.6028 94.1971 76.0439 92.0257C78.4851 89.8543 79.786 87.0503 80.6672 83.6681C81.5138 80.4189 82.0583 76.2693 82.7311 71.1425L84.4772 57.8379C85.3379 51.2801 86.0285 46.0188 85.9991 41.8601C85.9687 37.5576 85.1758 33.8702 82.5789 30.8568C79.9821 27.8435 76.4892 26.5576 72.2955 25.9584ZM14.5846 32.3158C11.1116 32.8121 9.355 33.7172 8.17554 35.0859C6.99608 36.4545 6.34514 38.3431 6.31996 41.9062C6.29415 45.5605 6.91833 50.3734 7.81941 57.2393L8.05835 59.0599L9.8337 57.7536C14.4151 54.3827 21.1841 54.5484 25.5409 58.2121L41.7104 71.8094C43.2386 73.0945 45.8719 73.3347 47.7724 72.2116L48.8964 71.5473C54.2728 68.3699 61.4784 68.705 66.4394 72.4597L75.1917 79.0836C75.6231 76.7049 76.0097 73.7805 76.4954 70.0795L78.1806 57.2393C79.0817 50.3734 79.7059 45.5605 79.68 41.9062C79.6549 38.3431 79.0039 36.4545 77.8245 35.0859C76.645 33.7172 74.8884 32.8121 71.4154 32.3158C67.8535 31.8069 63.0752 31.7994 56.2573 31.7994H29.7427C22.9248 31.7994 18.1465 31.8069 14.5846 32.3158Z" fill="#EEEBE7"/>
<path d="M27.9923 3.31119e-05H58.0068C59.0064 -0.000242649 59.7729 -0.000453882 60.4429 0.0727044C65.2065 0.592867 69.1055 3.78995 70.7589 8.09645H15.2402C16.8936 3.78995 20.7927 0.592867 25.5563 0.0727044C26.2263 -0.000454165 26.9927 -0.000242649 27.9923 3.31119e-05Z" fill="#EEEBE7"/>
<path d="M18.535 12C12.5554 12 7.65222 16.0308 6.01594 21.3781C5.98183 21.4896 5.94913 21.6016 5.91787 21.7142C7.62991 21.1355 9.41168 20.7574 11.2154 20.4993C15.861 19.8345 21.732 19.8348 28.5519 19.8352L29.0612 19.8352L58.1879 19.8352C65.0078 19.8348 70.8788 19.8345 75.5244 20.4993C77.3281 20.7574 79.1099 21.1355 80.8219 21.7142C80.7907 21.6016 80.758 21.4896 80.7238 21.3781C79.0876 16.0308 74.1844 12 68.2048 12H18.535Z" fill="#EEEBE7"/>
</svg>
