<svg width="29" height="29" viewBox="0 0 29 29" fill="none" xmlns="http://www.w3.org/2000/svg">
<path d="M14.0921 0.5C6.41135 0.5 0.177734 6.772 0.177734 14.5C0.177734 22.228 6.41135 28.5 14.0921 28.5C21.7728 28.5 28.0064 22.228 28.0064 14.5C28.0064 6.772 21.7728 0.5 14.0921 0.5ZM20.5483 10.02C20.3396 12.232 19.4352 17.608 18.976 20.086C18.7812 21.136 18.3916 21.486 18.0298 21.528C17.2228 21.598 16.6105 20.996 15.8313 20.478C14.6069 19.666 13.9112 19.162 12.7285 18.378C11.3509 17.468 12.2414 16.964 13.0346 16.152C13.2433 15.942 16.8053 12.68 16.8749 12.386C16.8846 12.3415 16.8833 12.2952 16.8712 12.2513C16.859 12.2074 16.8365 12.1671 16.8053 12.134C16.7219 12.064 16.6105 12.092 16.5131 12.106C16.3879 12.134 14.4399 13.436 10.6413 16.012C10.0847 16.39 9.58381 16.586 9.13856 16.572C8.63764 16.558 7.69147 16.292 6.98184 16.054C6.10523 15.774 5.42343 15.62 5.47909 15.13C5.50692 14.878 5.85478 14.626 6.50875 14.36C10.5717 12.582 13.2711 11.406 14.6208 10.846C18.489 9.222 19.2821 8.942 19.8108 8.942C19.9222 8.942 20.1865 8.97 20.3535 9.11C20.4926 9.222 20.5344 9.376 20.5483 9.488C20.5344 9.572 20.5622 9.824 20.5483 10.02Z" fill="#0088CC"/>
</svg>
