<svg width="23" height="19" viewBox="0 0 23 19" fill="none" xmlns="http://www.w3.org/2000/svg">
<path fill-rule="evenodd" clip-rule="evenodd" d="M1.66653 2.11264C2.77352 0.864369 4.38736 0.125 6.34371 0.125C7.65361 0.125 8.90779 0.80904 9.87116 1.50359C10.466 1.93238 11.0203 2.41727 11.5 2.88207C11.9796 2.41727 12.534 1.93238 13.1288 1.50359C14.0922 0.80904 15.3463 0.125 16.6562 0.125C18.6476 0.125 20.2612 0.945772 21.3525 2.24382C22.4248 3.51933 22.9583 5.20795 22.9583 6.95502C22.9583 8.53249 22.1431 10.0463 21.1177 11.3502C20.0766 12.6742 18.7136 13.914 17.3898 14.966C16.06 16.0229 14.7358 16.9171 13.7468 17.5458C13.2514 17.8609 12.8376 18.1108 12.5462 18.2829C12.4005 18.3689 12.2851 18.4356 12.2053 18.4813C12.1653 18.5041 12.1344 18.5217 12.1129 18.5338L12.0877 18.548L12.0807 18.552L12.0785 18.5532C12.0783 18.5533 12.0773 18.5538 11.5 17.6099C10.9226 18.5538 10.9223 18.5537 10.9221 18.5535L10.9193 18.5519L10.912 18.5479L10.8868 18.5337C10.8652 18.5215 10.8341 18.5039 10.7941 18.4809C10.7141 18.4351 10.5985 18.3683 10.4527 18.2818C10.1608 18.1091 9.7466 17.8579 9.25057 17.5409C8.26081 16.9081 6.93534 16.0061 5.60445 14.9342C4.27923 13.867 2.91536 12.6049 1.87408 11.2478C0.8456 9.90734 0.041626 8.35731 0.041626 6.73691C0.041626 4.9872 0.577166 3.34103 1.66653 2.11264ZM11.5 17.6099L10.9221 18.5535L11.5 18.875L12.0773 18.5538L11.5 17.6099ZM11.5005 16.3292C11.7579 16.1753 12.0903 15.9724 12.4757 15.7273C13.4204 15.1267 14.6743 14.2792 15.9226 13.2871C17.177 12.2901 18.392 11.1736 19.2845 10.0388C20.1927 8.88371 20.6666 7.83637 20.6666 6.95502C20.6666 5.6114 20.2542 4.43141 19.5646 3.61099C18.8938 2.81309 17.9293 2.31061 16.6562 2.31061C16.1219 2.31061 15.3756 2.62355 14.5107 3.24709C13.6847 3.8426 12.9163 4.5999 12.3696 5.20773L11.5 6.17465L10.6303 5.20773C10.0836 4.5999 9.3152 3.8426 8.48921 3.24709C7.62434 2.62355 6.87802 2.31061 6.34371 2.31061C5.03558 2.31061 4.07129 2.78543 3.41628 3.52405C2.74364 4.28254 2.33329 5.39592 2.33329 6.73691C2.33329 7.68436 2.81838 8.77738 3.7235 9.95707C4.6158 11.1201 5.83007 12.2553 7.08297 13.2643C8.33021 14.2688 9.58287 15.1221 10.5267 15.7254C10.9117 15.9716 11.2435 16.1751 11.5005 16.3292Z" fill="#2B2C34"/>
</svg>
