<svg width="20" height="20" viewBox="0 0 20 20" fill="none" xmlns="http://www.w3.org/2000/svg">
<path d="M14.1667 14.9969V20H17.5C18.8807 20 20 18.88 20 17.4984V9.89289C20.0002 9.45969 19.832 9.04341 19.5308 8.73216L12.4492 1.07153C11.1996 -0.281261 9.09074 -0.364321 7.73879 0.885989C7.67457 0.945401 7.6127 1.00728 7.55336 1.07153L0.48418 8.72966C0.173945 9.0422 -0.000117128 9.46489 5.9134e-08 9.90539V17.4984C5.9134e-08 18.88 1.1193 20 2.5 20H5.83332V14.9969C5.84891 12.7231 7.68355 10.8663 9.89867 10.8129C12.1879 10.7576 14.1492 12.646 14.1667 14.9969Z" fill="#06665A"/>
</svg>
