<svg width="60" height="60" viewBox="0 0 60 60" fill="none" xmlns="http://www.w3.org/2000/svg">
<path d="M28.5 0C24.3756 0 21 3.37563 21 7.5C21 9.19009 21.5821 10.7422 22.5352 12H22.5C18.3756 12 15 15.3756 15 19.5V31.5C15 35.1088 17.5909 38.1452 21 38.8477V55.5C21 57.9853 23.0147 60 25.5 60H31.5C33.9853 60 36 57.9853 36 55.5V38.8477H36.0059C39.4148 38.1452 42 35.1088 42 31.5V19.5C42 15.3756 38.6244 12 34.5 12H34.4648C35.4179 10.7422 36 9.19009 36 7.5C36 3.37563 32.6244 0 28.5 0ZM13.5 3C12.8554 3 12.2406 3.1088 11.6426 3.26367C11.563 3.28529 11.4868 3.3098 11.4082 3.33398C10.8367 3.50238 10.2978 3.73283 9.79102 4.02539C7.54136 5.32407 6 7.72988 6 10.5C6 12.1901 6.58204 13.7422 7.53516 15H7.5C3.37563 15 0 18.3756 0 22.5V31.5C0 35.1088 2.58572 38.1452 5.99414 38.8477H6V49.5C6 51.9853 8.01472 54 10.5 54H15H18V51H15V44.7305V40.5C15 39.6716 14.3284 39 13.5 39C12.6716 39 12 39.6716 12 40.5V51H10.5C9.67157 51 9 50.3284 9 49.5V25.5C9 24.6716 8.32843 24 7.5 24C6.67157 24 6 24.6716 6 25.5V35.7305C4.24859 35.1165 3 33.473 3 31.5V22.5C3 19.997 4.99695 18 7.5 18H7.53516C9.19201 18 10.5352 16.6569 10.5352 15C10.5334 14.3482 10.3213 13.7137 9.84375 13.0723C9.36617 12.4309 9 11.5253 9 10.5C9 7.99695 10.997 6 13.5 6C14.3644 6 15.1587 6.24434 15.6152 6.52148C16.0718 6.79862 16.3419 6.8776 16.6172 6.87891C17.4456 6.87891 18.1172 6.20733 18.1172 5.37891C18.1171 4.92453 17.9014 4.5227 17.6543 4.31836C17.4072 4.11401 17.3168 4.06829 17.2207 4.02539C16.1199 3.38585 14.8582 3 13.5 3ZM28.5 3C31.003 3 33 4.99695 33 7.5C33 8.52532 32.6337 9.43087 32.1562 10.0723C31.6788 10.7137 31.4665 11.3482 31.4648 12C31.4648 13.6569 32.808 15 34.4648 15H34.5C37.0031 15 39 16.997 39 19.5V31.5C39 33.473 37.7514 35.1165 36 35.7305V22.5C36 21.6716 35.3284 21 34.5 21C33.6716 21 33 21.6716 33 22.5V55.5C33 56.3284 32.3284 57 31.5 57H30V40.5C30 39.6716 29.3284 39 28.5 39C27.6716 39 27 39.6716 27 40.5V57H25.5C24.6716 57 24 56.3284 24 55.5V22.5C24 21.6716 23.3284 21 22.5 21C21.6716 21 21 21.6716 21 22.5V35.7305C19.2486 35.1165 18 33.473 18 31.5V19.5C18 16.997 19.997 15 22.5 15H22.5352C24.192 15 25.5352 13.6569 25.5352 12C25.5335 11.3482 25.3211 10.7137 24.8438 10.0723C24.3664 9.43087 24 8.52532 24 7.5C24 4.99695 25.997 3 28.5 3ZM43.5 3C42.1418 3 40.8801 3.38585 39.7793 4.02539C39.6832 4.06829 39.5928 4.11401 39.3457 4.31836C39.0986 4.5227 38.8829 4.92453 38.8828 5.37891C38.8828 6.20733 39.5544 6.87891 40.3828 6.87891C40.6581 6.8776 40.9282 6.79862 41.3848 6.52148C41.8413 6.24434 42.6356 6 43.5 6C46.0031 6 48 7.99695 48 10.5C48 11.5253 47.6338 12.4309 47.1562 13.0723C46.6787 13.7137 46.4666 14.3482 46.4648 15C46.4648 16.6569 47.808 18 49.4648 18H49.5C52.0031 18 54 19.997 54 22.5V31.5C54 33.473 52.7514 35.1165 51 35.7305V25.5C51 24.6716 50.3284 24 49.5 24C48.6716 24 48 24.6716 48 25.5V49.5C48 50.3284 47.3284 51 46.5 51H45V40.5C45 39.6716 44.3284 39 43.5 39C42.6716 39 42 39.6716 42 40.5V44.7305V51H39V54H42H46.5C48.9853 54 51 51.9853 51 49.5V38.8477H51.0059C54.4143 38.1452 57 35.1088 57 31.5V22.5C57 18.3756 53.6244 15 49.5 15H49.4648C50.418 13.7422 51 12.1901 51 10.5C51 7.72988 49.4586 5.32407 47.209 4.02539C46.7022 3.73283 46.1633 3.50238 45.5918 3.33398C45.5132 3.30979 45.437 3.28529 45.3574 3.26367C44.7594 3.1088 44.1446 3 43.5 3Z" fill="#F45D48"/>
</svg>
