<svg width="60" height="41" viewBox="0 0 60 41" fill="none" xmlns="http://www.w3.org/2000/svg">
<g clip-path="url(#clip0_518_614)">
<path d="M55.1365 0H4.8887C3.59214 0 2.34868 0.515058 1.43187 1.43187C0.515058 2.34868 0 3.59214 0 4.8887L0 35.8589C0 36.5009 0.12645 37.1366 0.37213 37.7297C0.617811 38.3228 0.97791 38.8618 1.43187 39.3157C1.88583 39.7697 2.42475 40.1298 3.01788 40.3755C3.611 40.6211 4.24671 40.7476 4.8887 40.7476H55.1365C56.4331 40.7476 57.6765 40.2325 58.5933 39.3157C59.5101 38.3989 60.0252 37.1554 60.0252 35.8589V4.8887C60.0252 3.59214 59.5101 2.34868 58.5933 1.43187C57.6765 0.515058 56.4331 0 55.1365 0ZM2.51995 9.39941H57.48V15.3465H2.51995V9.39941ZM4.8887 2.51995H55.1365C55.7647 2.51995 56.3672 2.76951 56.8115 3.21374C57.2557 3.65797 57.5052 4.26047 57.5052 4.8887V6.87946H2.51995V4.8887C2.51995 4.26047 2.76951 3.65797 3.21374 3.21374C3.65797 2.76951 4.26047 2.51995 4.8887 2.51995ZM55.1365 38.2276H4.8887C4.26047 38.2276 3.65797 37.9781 3.21374 37.5338C2.76951 37.0896 2.51995 36.4871 2.51995 35.8589V17.8664H57.48V35.8337C57.4834 36.1448 57.4254 36.4534 57.3094 36.7421C57.1934 37.0308 57.0217 37.2938 56.8041 37.5161C56.5865 37.7384 56.3272 37.9156 56.0411 38.0377C55.755 38.1598 55.4476 38.2243 55.1365 38.2276Z" fill="#F45D48"/>
<path d="M48.9626 24.6703C48.2762 24.6703 47.5976 24.8163 46.972 25.0988C46.3463 25.3812 45.7879 25.7935 45.3339 26.3083C44.6752 25.564 43.8053 25.0381 42.8401 24.8008C41.875 24.5635 40.8604 24.6261 39.9317 24.9801C39.0029 25.3341 38.2042 25.9628 37.6419 26.7823C37.0795 27.6019 36.7804 28.5734 36.7843 29.5673C36.7882 30.5612 37.0949 31.5303 37.6636 32.3454C38.2323 33.1605 39.0359 33.783 39.9674 34.1297C40.8989 34.4765 41.9139 34.5311 42.8772 34.2862C43.8405 34.0414 44.7062 33.5088 45.3591 32.7593C45.9007 33.3621 46.5843 33.8199 47.3478 34.0913C48.1114 34.3626 48.9306 34.4389 49.7311 34.3132C50.5316 34.1875 51.288 33.8638 51.9316 33.3715C52.5752 32.8791 53.0856 32.2338 53.4164 31.4941C53.7472 30.7544 53.8879 29.9437 53.8258 29.1358C53.7637 28.3279 53.5007 27.5483 53.0607 26.8678C52.6207 26.1874 52.0177 25.6276 51.3064 25.2395C50.5951 24.8513 49.7981 24.647 48.9878 24.6451L48.9626 24.6703ZM41.7304 31.9026C41.2619 31.9026 40.8039 31.7636 40.4144 31.5034C40.0248 31.2431 39.7212 30.8731 39.5419 30.4403C39.3626 30.0075 39.3157 29.5312 39.4071 29.0717C39.4985 28.6122 39.7241 28.1901 40.0554 27.8589C40.3867 27.5276 40.8088 27.302 41.2682 27.2106C41.7277 27.1192 42.204 27.1661 42.6368 27.3454C43.0697 27.5247 43.4396 27.8283 43.6999 28.2178C43.9602 28.6073 44.0991 29.0653 44.0991 29.5338C44.0991 30.162 43.8496 30.7645 43.4053 31.2088C42.9611 31.653 42.3586 31.9026 41.7304 31.9026ZM48.9626 31.9026C48.4941 31.9026 48.0362 31.7636 47.6466 31.5034C47.2571 31.2431 46.9535 30.8731 46.7742 30.4403C46.5949 30.0075 46.548 29.5312 46.6394 29.0717C46.7308 28.6122 46.9564 28.1901 47.2877 27.8589C47.6189 27.5276 48.041 27.302 48.5005 27.2106C48.96 27.1192 49.4363 27.1661 49.8691 27.3454C50.3019 27.5247 50.6719 27.8283 50.9322 28.2178C51.1924 28.6073 51.3314 29.0653 51.3314 29.5338C51.3314 30.162 51.0818 30.7645 50.6376 31.2088C50.1934 31.653 49.5909 31.9026 48.9626 31.9026Z" fill="#F45D48"/>
</g>
<defs>
<clipPath id="clip0_518_614">
<rect width="60" height="40.7476" fill="white"/>
</clipPath>
</defs>
</svg>
