<svg width="64" height="64" viewBox="0 0 64 64" fill="none" xmlns="http://www.w3.org/2000/svg">
<path d="M61.5894 44.5781L43.5591 7.94C43.189 7.1878 42.592 6.57081 41.8524 6.17608C41.1128 5.78135 40.2679 5.62882 39.437 5.74L22.777 8.01C22.7456 8.0143 22.7194 8.0307 22.6891 8.0378C22.6576 8.0413 22.6263 8.04638 22.5953 8.053L14.3526 10.8023L3.6245 2.2188C3.5219 2.13679 3.40416 2.07579 3.27799 2.03929C3.15182 2.00278 3.01969 1.99148 2.88916 2.00604C2.62553 2.03543 2.38437 2.16835 2.21875 2.37555C2.05312 2.58275 1.97658 2.84726 2.00598 3.11089C2.03538 3.37452 2.1683 3.61568 2.3755 3.7813L12.0927 11.555L6.6509 13.37C5.85237 13.6312 5.15713 14.1387 4.66499 14.8196C4.17284 15.5005 3.90909 16.3199 3.9116 17.16V58C3.91273 59.0605 4.33453 60.0773 5.08443 60.8272C5.83433 61.5771 6.85108 61.9989 7.9116 62H37.9116C38.8395 62.0055 39.7397 61.6842 40.4543 61.0922C41.1688 60.5003 41.6522 59.6756 41.8194 58.7629L59.7632 49.9375C60.715 49.4678 61.4417 48.6399 61.784 47.6353C62.1263 46.6306 62.0564 45.5312 61.5894 44.5781ZM39.9116 57.96C39.9063 57.9982 39.9032 58.0367 39.9023 58.0752C39.89 58.5933 39.6742 59.0857 39.3017 59.4459C38.9292 59.8061 38.4298 60.0051 37.9116 60H7.9116C7.38135 59.9994 6.873 59.7885 6.49805 59.4135C6.12311 59.0386 5.91221 58.5303 5.9116 58V17.16C5.91004 16.7407 6.0415 16.3317 6.28707 15.9918C6.53265 15.6519 6.87969 15.3986 7.2783 15.2684L13.952 13.0422L19.2955 17.3171C19.0453 17.843 18.9142 18.4176 18.9116 19C18.9116 19.7911 19.1462 20.5645 19.5857 21.2223C20.0252 21.8801 20.65 22.3928 21.3809 22.6955C22.1118 22.9983 22.916 23.0775 23.692 22.9231C24.4679 22.7688 25.1806 22.3878 25.74 21.8284C26.2994 21.269 26.6804 20.5563 26.8347 19.7804C26.9891 19.0044 26.9099 18.2002 26.6071 17.4693C26.3044 16.7384 25.7917 16.1137 25.1339 15.6741C24.4761 15.2346 23.7027 15 22.9116 15C22.068 15.002 21.2471 15.273 20.5681 15.7736L16.2118 12.2886L22.9118 10.0538L38.5511 15.2705C38.9485 15.4013 39.2943 15.6547 39.5388 15.9943C39.7832 16.3338 39.9139 16.7421 39.9119 17.1605L39.9116 57.96ZM23.6245 18.2188L22.252 17.1207C22.4635 17.0431 22.6867 17.0023 22.912 17C23.3294 16.9954 23.738 17.12 24.0818 17.3568C24.4255 17.5935 24.6876 17.9309 24.8321 18.3225C24.9765 18.7141 24.9963 19.1409 24.8886 19.5442C24.781 19.9475 24.5512 20.3076 24.2307 20.5751C23.9103 20.8426 23.515 21.0044 23.0989 21.0384C22.6829 21.0723 22.2665 20.9767 21.907 20.7647C21.5474 20.5526 21.2623 20.2345 21.0907 19.854C20.9191 19.4735 20.8694 19.0492 20.9485 18.6393L22.3759 19.7813C22.5831 19.9469 22.8476 20.0235 23.1112 19.9941C23.3749 19.9647 23.616 19.8318 23.7816 19.6246C23.9473 19.4174 24.0238 19.1528 23.9944 18.8892C23.965 18.6256 23.8317 18.3844 23.6245 18.2188ZM58.8813 48.1426H58.88L41.9116 56.4883V17.16C41.9144 16.3208 41.6515 15.5023 41.1604 14.8218C40.6694 14.1413 39.9755 13.6337 39.1782 13.3719L27.3037 9.4111L39.7037 7.7217C40.119 7.66615 40.5413 7.74245 40.9109 7.93982C41.2805 8.13719 41.5788 8.44567 41.7637 8.8217L50.7787 27.1406L59.7937 45.4594C60.0276 45.9364 60.063 46.4866 59.892 46.9895C59.7209 47.4925 59.3575 47.9071 58.8813 48.1426Z" fill="#F45D48" stroke="#F45D48"/>
<path d="M16.6855 39.5449C17.7887 39.5438 18.8573 39.1603 19.7094 38.4597C20.5616 37.7591 21.1444 36.7847 21.3587 35.7026C21.5731 34.6204 21.4056 33.4974 20.8848 32.5249C20.364 31.5524 19.5222 30.7905 18.5028 30.3691C17.4833 29.9476 16.3492 29.8926 15.2937 30.2135C14.2383 30.5344 13.3267 31.2112 12.7143 32.1288C12.1019 33.0464 11.8265 34.1479 11.9352 35.2457C12.0438 36.3435 12.5297 37.3696 13.31 38.1494C13.753 38.5929 14.2792 38.9445 14.8585 39.1839C15.4378 39.4234 16.0587 39.5461 16.6855 39.5449ZM14.7241 32.8125C15.1779 32.3583 15.7752 32.0756 16.4141 32.0124C17.053 31.9492 17.6941 32.1096 18.228 32.4661C18.762 32.8226 19.1558 33.3533 19.3424 33.9676C19.5289 34.5819 19.4967 35.2419 19.2512 35.8352C19.0056 36.4284 18.562 36.9182 17.9958 37.221C17.4297 37.5237 16.7761 37.6209 16.1463 37.4958C15.5166 37.3706 14.9497 37.031 14.5423 36.5348C14.1349 36.0386 13.9122 35.4164 13.9121 34.7744C13.9114 34.41 13.9828 34.0491 14.1221 33.7123C14.2615 33.3756 14.4661 33.0698 14.7241 32.8125Z" fill="#F45D48"/>
<path d="M25.7627 43.8506C25.0952 44.5182 24.6406 45.3687 24.4565 46.2947C24.2724 47.2206 24.3669 48.1803 24.7282 49.0525C25.0895 49.9247 25.7013 50.6702 26.4863 51.1947C27.2713 51.7192 28.1941 51.9991 29.1382 51.9991C30.0823 51.9991 31.0051 51.7192 31.7901 51.1947C32.5751 50.6702 33.1869 49.9247 33.5482 49.0525C33.9095 48.1803 34.0041 47.2206 33.8199 46.2947C33.6358 45.3687 33.1812 44.5182 32.5137 43.8506C32.0727 43.4034 31.5471 43.0482 30.9677 42.8059C30.3882 42.5635 29.7663 42.4386 29.1382 42.4386C28.5101 42.4386 27.8882 42.5635 27.3088 42.8059C26.7293 43.0482 26.2038 43.4034 25.7627 43.8506ZM31.1 49.1875C30.6462 49.6417 30.0489 49.9244 29.41 49.9876C28.7711 50.0508 28.13 49.8904 27.5961 49.5339C27.0621 49.1774 26.6683 48.6468 26.4818 48.0324C26.2952 47.4181 26.3274 46.7581 26.5729 46.1648C26.8185 45.5716 27.2621 45.0819 27.8283 44.7791C28.3944 44.4763 29.048 44.3791 29.6778 44.5043C30.3075 44.6294 30.8744 44.969 31.2818 45.4652C31.6892 45.9614 31.9119 46.5836 31.912 47.2256C31.9118 47.9613 31.6198 48.6669 31.1 49.1875Z" fill="#F45D48"/>
<path d="M32.5137 31.3984C32.3261 31.2109 32.0718 31.1056 31.8066 31.1056C31.5414 31.1056 31.2871 31.2109 31.0996 31.3984L13.31 49.1875C13.2148 49.2798 13.1389 49.3902 13.0868 49.5121C13.0346 49.634 13.0073 49.7651 13.0063 49.8977C13.0052 50.0303 13.0306 50.1617 13.0809 50.2844C13.1312 50.4071 13.2053 50.5186 13.2991 50.6124C13.3929 50.7062 13.5043 50.7803 13.627 50.8306C13.7497 50.8809 13.8812 50.9063 14.0138 50.9053C14.1464 50.9043 14.2775 50.8769 14.3994 50.8248C14.5213 50.7726 14.6316 50.6968 14.724 50.6016L32.514 32.8125C32.7014 32.6249 32.8067 32.3706 32.8067 32.1054C32.8066 31.8402 32.7012 31.5859 32.5137 31.3984Z" fill="#F45D48"/>
</svg>
