<svg width="60" height="60" viewBox="0 0 60 60" fill="none" xmlns="http://www.w3.org/2000/svg">
<path d="M46.1128 60H14.4987C11.5225 60 9.1013 57.5788 9.1013 54.6055L4.62423 33.5794C2.93373 32.7412 1.8208 31.0279 1.8208 29.1193C1.8208 26.3271 4.09192 24.0589 6.88122 24.0589H53.1159C55.9052 24.0589 58.1792 26.3271 58.1792 29.1193C58.1792 30.7533 57.3891 32.2485 56.0724 33.1915L51.4734 54.9452C51.5103 57.5787 49.0891 60 46.1128 60ZM6.88122 27.3778C5.92123 27.3778 5.13969 28.1593 5.13969 29.1193C5.13969 29.8753 5.68629 30.5464 6.47055 30.7448C7.08214 30.9006 7.55235 31.3933 7.67977 32.0107L12.3834 54.2628C12.4202 55.7495 13.3519 56.6784 14.496 56.6784H46.1101C47.2571 56.6784 48.1858 55.7495 48.1858 54.6027L52.9687 31.8012C53.0735 31.3001 53.402 30.8753 53.8579 30.6516C54.4724 30.3542 54.8547 29.7623 54.8547 29.1167C54.8547 28.1567 54.0731 27.3752 53.1131 27.3752H6.88122V27.3778Z" fill="#F45D48"/>
<path d="M18.7606 50.2643C18.7606 50.9072 18.2339 51.4339 17.591 51.4339H17.271C16.6281 51.4339 16.1043 50.9072 16.1043 50.2643V36.5953C16.1043 35.9524 16.631 35.4286 17.271 35.4286H17.5939C18.2368 35.4286 18.7635 35.9553 18.7635 36.5953V50.2643H18.7606Z" fill="#F45D48"/>
<path d="M27.3126 50.2643C27.3126 50.9072 26.7859 51.4339 26.1459 51.4339H25.8203C25.1774 51.4339 24.6507 50.9072 24.6507 50.2643V36.5953C24.6507 35.9524 25.1774 35.4286 25.8203 35.4286H26.1432C26.7861 35.4286 27.3099 35.9553 27.3099 36.5953V50.2643H27.3126Z" fill="#F45D48"/>
<path d="M35.8617 50.2643C35.8617 50.9072 35.335 51.4339 34.695 51.4339H34.3721C33.7292 51.4339 33.2025 50.9072 33.2025 50.2643V36.5953C33.2025 35.9524 33.7292 35.4286 34.3721 35.4286H34.695C35.3379 35.4286 35.8617 35.9553 35.8617 36.5953V50.2643Z" fill="#F45D48"/>
<path d="M44.4138 50.2643C44.4138 50.9072 43.8871 51.4339 43.2443 51.4339H42.9214C42.2785 51.4339 41.7547 50.9072 41.7547 50.2643V36.5953C41.7547 35.9524 42.2814 35.4286 42.9214 35.4286H43.2443C43.8871 35.4286 44.4138 35.9553 44.4138 36.5953V50.2643Z" fill="#F45D48"/>
<path d="M30.034 0C19.2902 0 10.5795 8.71054 10.5795 19.4544H14.0995C14.0995 10.6532 21.2328 3.51997 30.0338 3.51997C38.8349 3.51997 45.9682 10.6533 45.9682 19.4544H49.4882C49.4855 8.71054 40.7777 0 30.034 0Z" fill="#F45D48"/>
</svg>
