<svg width="60" height="60" viewBox="0 0 60 60" fill="none" xmlns="http://www.w3.org/2000/svg">
<path fill-rule="evenodd" clip-rule="evenodd" d="M3.125 7.5C3.125 3.70305 6.20305 0.625 10 0.625H35C38.797 0.625 41.875 3.70305 41.875 7.5V28.75C41.875 29.7855 41.0355 30.625 40 30.625C38.9645 30.625 38.125 29.7855 38.125 28.75V7.5C38.125 5.7741 36.726 4.375 35 4.375H10C8.2741 4.375 6.875 5.7741 6.875 7.5V52.5C6.875 54.226 8.2741 55.625 10 55.625H30C31.0355 55.625 31.875 56.4645 31.875 57.5C31.875 58.5355 31.0355 59.375 30 59.375H10C6.20305 59.375 3.125 56.297 3.125 52.5V7.5Z" fill="#F45D48"/>
<path fill-rule="evenodd" clip-rule="evenodd" d="M10.905 1.51425C11.2467 0.961472 11.8502 0.625 12.5 0.625H32.5C33.1498 0.625 33.7533 0.961472 34.095 1.51425C34.4365 2.06703 34.4678 2.7573 34.177 3.33853L32.368 6.95655C31.627 8.43875 30.112 9.375 28.455 9.375H16.5451C14.888 9.375 13.3731 8.43875 12.632 6.95655L10.823 3.33853C10.5323 2.7573 10.5634 2.06703 10.905 1.51425ZM15.5338 4.375L15.9861 5.2795C16.092 5.49125 16.3084 5.625 16.5451 5.625H28.455C28.6918 5.625 28.908 5.49125 29.014 5.2795L29.4663 4.375H15.5338Z" fill="#F45D48"/>
<path fill-rule="evenodd" clip-rule="evenodd" d="M15.625 50C15.625 48.9645 16.4645 48.125 17.5 48.125H27.5C28.5355 48.125 29.375 48.9645 29.375 50C29.375 51.0355 28.5355 51.875 27.5 51.875H17.5C16.4645 51.875 15.625 51.0355 15.625 50Z" fill="#F45D48"/>
<path fill-rule="evenodd" clip-rule="evenodd" d="M42.5 51.875C40.774 51.875 39.375 53.274 39.375 55V57.5C39.375 58.5355 38.5355 59.375 37.5 59.375C36.4645 59.375 35.625 58.5355 35.625 57.5V55C35.625 51.203 38.703 48.125 42.5 48.125H52.5C56.297 48.125 59.375 51.203 59.375 55V57.5C59.375 58.5355 58.5355 59.375 57.5 59.375C56.4645 59.375 55.625 58.5355 55.625 57.5V55C55.625 53.274 54.226 51.875 52.5 51.875H42.5Z" fill="#F45D48"/>
<path fill-rule="evenodd" clip-rule="evenodd" d="M47.5 36.875C45.774 36.875 44.375 38.274 44.375 40C44.375 41.726 45.774 43.125 47.5 43.125C49.226 43.125 50.625 41.726 50.625 40C50.625 38.274 49.226 36.875 47.5 36.875ZM40.625 40C40.625 36.203 43.703 33.125 47.5 33.125C51.297 33.125 54.375 36.203 54.375 40C54.375 43.797 51.297 46.875 47.5 46.875C43.703 46.875 40.625 43.797 40.625 40Z" fill="#F45D48"/>
</svg>
